<svg viewBox="0 0 909 1286" version="1.1" xmlns="http://www.w3.org/2000/svg">
<defs>
<clipPath id="c0_1"><path d="M478.4 916.4c-3.4 0-6.1-2.7-6.1-6v-.1c0-3.3 2.7-6.1 6.1-6.1c3.3 0 6.1 2.8 6.1 6.1v.1c0 3.3-2.8 6-6.1 6Z"/></clipPath>
<clipPath id="c1_1"><path d="M478.3 916.4c-3.3 0-6-2.7-6-6v-.1c0-3.3 2.7-6 6-6.1c0 0 .1 0 .1 0h.1c3.3 .1 6 2.8 6 6.1v.1c0 3.3-2.7 6-6 6Z"/></clipPath>
<clipPath id="c2_1"><path d="M478.4 940.9c-3.4 0-6.1-2.7-6.1-6.1c0-3.4 2.7-6.1 6.1-6.1c3.3 0 6.1 2.7 6.1 6.1c0 3.4-2.8 6.1-6.1 6.1Z"/></clipPath>
<clipPath id="c3_1"><path d="M478.4 940.9c0 0-.1 0-.1 0c-3.3 0-6-2.8-6-6.1c0-3.4 2.7-6.1 6-6.1h.2c3.3 0 6 2.7 6 6.1c0 3.3-2.7 6.1-6 6.1q-.1 0-.1 0Z"/></clipPath>
<clipPath id="c4_1"><path d="M719.4 525.6c-3.4 0-6.1-2.8-6.1-6.1v-.1c0-3.3 2.7-6.1 6.1-6.1c3.4 0 6.1 2.8 6.1 6.1v.1c0 3.3-2.7 6.1-6.1 6.1Z"/></clipPath>
<clipPath id="c5_1"><path d="M719.3 525.6c-3.3-.1-6-2.8-6-6.1v-.1c0-3.3 2.7-6 6-6.1h.2c3.3 .1 6 2.8 6 6.1v.1c0 3.3-2.7 6-6 6.1Z"/></clipPath>
<clipPath id="c6_1"><path d="M652.1 916.4c-3.4 0-6.1-2.7-6.1-6v-.1c0-3.3 2.7-6.1 6.1-6.1c3.3 0 6.1 2.8 6.1 6.1v.1c0 3.3-2.8 6-6.1 6Z"/></clipPath>
<clipPath id="c7_1"><path d="M652 916.4c-3.3 0-6-2.7-6-6v-.1c0-3.3 2.7-6 6-6.1c0 0 .1 0 .1 0h.1c3.3 .1 6 2.8 6 6.1v.1c0 3.3-2.7 6-6 6Z"/></clipPath>
<clipPath id="c8_1"><path d="M652.1 941.1c-3.4 0-6.1-2.7-6.1-6.1c0-3.4 2.7-6.1 6.1-6.1c3.3 0 6.1 2.7 6.1 6.1c0 3.4-2.8 6.1-6.1 6.1Z"/></clipPath>
<clipPath id="c9_1"><path d="M652 941.1c-3.3 0-6-2.7-6-6.1c0-3.4 2.7-6.1 6-6.1c0 0 .1 0 .1 0h.1c3.3 0 6 2.7 6 6.1c0 3.4-2.7 6.1-6 6.1Z"/></clipPath>
<clipPath id="ca_1"><path d="M786.8 916.4c-3.3 0-6.1-2.7-6.1-6v-.1c0-3.3 2.8-6.1 6.1-6.1c3.4 0 6.1 2.8 6.1 6.1v.1c0 3.3-2.7 6-6.1 6Z"/></clipPath>
<clipPath id="cb_1"><path d="M786.7 916.4c-3.3 0-6-2.7-6-6v-.1c0-3.3 2.7-6 6-6.1q.1 0 .1 0q.1 0 .1 0c3.3 .1 6 2.8 6 6.1v.1c0 3.3-2.7 6-6 6Z"/></clipPath>
<clipPath id="cc_1"><path d="M786.8 941.1c-3.3 0-6.1-2.7-6.1-6.1c0-3.4 2.8-6.1 6.1-6.1c3.4 0 6.1 2.7 6.1 6.1c0 3.4-2.7 6.1-6.1 6.1Z"/></clipPath>
<clipPath id="cd_1"><path d="M786.7 941.1c-3.3 0-6-2.7-6-6.1c0-3.4 2.7-6.1 6-6.1q.1 0 .1 0q.1 0 .1 0c3.3 0 6 2.7 6 6.1c0 3.4-2.7 6.1-6 6.1Z"/></clipPath>
<clipPath id="ce_1"><path d="M51.6 979.5c-3.3 0-6.1-2.7-6.1-6.1v-.1c0-3.3 2.8-6 6.1-6c3.4 0 6.1 2.7 6.1 6v.1c0 3.4-2.7 6.1-6.1 6.1Z"/></clipPath>
<clipPath id="cf_1"><path d="M51.6 979.5c-3.4-.1-6.1-2.8-6.1-6.1v-.1c0-3.3 2.7-6 6.1-6h.1c3.3 0 6 2.7 6 6v.1c0 3.3-2.7 6-6 6.1h-.1Z"/></clipPath>
<clipPath id="cg_1"><path d="M51.6 979.5c-.3 0-.6 0-.9-.1c0 0-.1 0-.1 0c-2.9-.5-5.1-3-5.1-6v-.1c0-3 2.2-5.5 5.1-6c0 0 .1 0 .1 0c.3 0 .6 0 .9 0c.3 0 .7 0 1 0c2.9 .5 5.1 3 5.1 6v.1c0 3-2.2 5.5-5.1 6c-.3 .1-.7 .1-1 .1Z"/></clipPath>
<clipPath id="ch_1"><path d="M51.6 1003.9c-3.3 0-6.1-2.7-6.1-6.1c0-3.4 2.8-6.1 6.1-6.1c3.4 0 6.1 2.7 6.1 6.1c0 3.4-2.7 6.1-6.1 6.1Z"/></clipPath>
<clipPath id="ci_1"><path d="M51.6 1003.9c-3.4 0-6.1-2.7-6.1-6.1c0-3.4 2.7-6.1 6.1-6.1h.1c3.3 0 6 2.7 6 6.1c0 3.4-2.7 6.1-6 6.1Z"/></clipPath>
<clipPath id="cj_1"><path d="M51.6 1003.9c-.3 0-.6 0-.9-.1h-.1c-2.9-.4-5.1-2.9-5.1-6c0-3 2.2-5.5 5.1-6q.1 0 .1 0c.3-.1 .6-.1 .9-.1c.3 0 .7 0 1 .1c2.9 .5 5.1 3 5.1 6c0 3.1-2.2 5.6-5.1 6c-.3 .1-.7 .1-1 .1Z"/></clipPath>
<clipPath id="ck_1"><path d="M205.1 1236.1c-3.4 0-6.1-2.8-6.1-6.2c0-3.3 2.7-6.1 6.1-6.1c3.3 0 6.1 2.8 6.1 6.1c0 3.4-2.8 6.2-6.1 6.2Z"/></clipPath>
<clipPath id="cl_1"><path d="M367.9 1234.4c-3.3 0-6.1-2.7-6.1-6.1c0-3.3 2.8-6.1 6.1-6.1c3.4 0 6.2 2.8 6.2 6.1c0 3.4-2.8 6.1-6.2 6.1Z"/></clipPath>
<clipPath id="cm_1"><path d="M205.1 1260.2c-3.4 0-6.1-2.8-6.1-6.1c0-3.4 2.7-6.1 6.1-6.1c3.3 0 6.1 2.7 6.1 6.1c0 3.3-2.8 6.1-6.1 6.1Z"/></clipPath>
<clipPath id="cn_1"><path d="M367.8 1258.9c-3.4 0-6.2-2.8-6.2-6.1c0-3.4 2.8-6.2 6.2-6.2c3.3 0 6.1 2.8 6.1 6.2c0 3.3-2.8 6.1-6.1 6.1Z"/></clipPath>
<clipPath id="co_1"><path d="M531.8 1234.5c-3.3 0-6.1-2.8-6.1-6.1c0-3.4 2.8-6.1 6.1-6.1c3.4 0 6.2 2.7 6.2 6.1c0 3.3-2.8 6.1-6.2 6.1Z"/></clipPath>
<clipPath id="cp_1"><path d="M36.3 525.9V513H56.8v12.9Z"/></clipPath>
<clipPath id="cq_1"><path d="M43.8 953.7V940.8H64.2v12.9Z"/></clipPath>
<clipPath id="cr_1"><path d="M442.9 233.3c-3.4 0-6.1-2.8-6.1-6.1c0-3.4 2.7-6.1 6.1-6.1c3.4 0 6.1 2.7 6.1 6.1c0 3.3-2.7 6.1-6.1 6.1Z"/></clipPath>
<clipPath id="cs_1"><path d="M585.8 233.5c-3.3 0-6.1-2.7-6.1-6.1c0-3.3 2.8-6.1 6.1-6.1c3.4 0 6.1 2.8 6.1 6.1c0 3.4-2.7 6.1-6.1 6.1Z"/></clipPath>
<clipPath id="ct_1"><path d="M650.9 233.2c-3.4 0-6.1-2.7-6.1-6.1c0-3.4 2.7-6.1 6.1-6.1c3.3 0 6.1 2.7 6.1 6.1c0 3.4-2.8 6.1-6.1 6.1Z"/></clipPath>
<clipPath id="cu_1"><path d="M521.7 233.6c-3.4 0-6.1-2.7-6.1-6.1c0-3.4 2.7-6.1 6.1-6.1c3.3 0 6.1 2.7 6.1 6.1c0 3.4-2.8 6.1-6.1 6.1Z"/></clipPath>
<clipPath id="cv_1"><path d="M798.5 232c-3.4 0-6.1-2.8-6.1-6.2c0-3.3 2.7-6.1 6.1-6.1c3.3 0 6.1 2.8 6.1 6.1c0 3.4-2.8 6.2-6.1 6.2Z"/></clipPath>
<clipPath id="cw_1"><path d="M470 73.3c-3.4 0-6.1-2.7-6.1-6.1c0-3.4 2.7-6.1 6.1-6.1c3.4 0 6.1 2.7 6.1 6.1c0 3.4-2.7 6.1-6.1 6.1Z"/></clipPath>
<clipPath id="cx_1"><path d="M470 97.6c-3.4 0-6.1-2.8-6.1-6.2c0-3.3 2.7-6.1 6.1-6.1c3.4 0 6.1 2.8 6.1 6.1c0 3.4-2.7 6.2-6.1 6.2Z"/></clipPath>
<clipPath id="cy_1"><path d="M239.3 236.4V220.7h15.8v15.7Z"/></clipPath>
<clipPath id="cz_1"><path d="M286 236.3v-16h16v16Z"/></clipPath>
<clipPath id="c10_1"><path d="M470.3 919.9V903.7h16.3v16.2Z"/></clipPath>
<clipPath id="c11_1"><path d="M44 982.4V966.3H60.1v16.1Z"/></clipPath>
<clipPath id="c12_1"><path d="M43.7 1006.8V991H59.5v15.8Z"/></clipPath>
<clipPath id="c13_1"><path d="M196.7 1238.6v-15.9h15.9v15.9Z"/></clipPath>
<clipPath id="c14_1"><path d="M196.3 1262.3v-16h16v16Z"/></clipPath>
<clipPath id="c15_1"><path d="M524.3 1238.3V1222h16.4v16.3Z"/></clipPath>
<clipPath id="c16_1"><path d="M562.5 919.5V903.2h16.3v16.3Z"/></clipPath>
<clipPath id="c17_1"><path d="M562.6 943.9V927.7h16.3v16.2Z"/></clipPath>
<clipPath id="c18_1"><path d="M778.7 919.3V902.7h16.6v16.6Z"/></clipPath>
<clipPath id="c19_1"><path d="M778.3 943.8V927h16.9v16.8Z"/></clipPath>
<clipPath id="c1a_1"><path d="M513.2 236.2V219.7h16.5v16.5Z"/></clipPath>
<clipPath id="c1b_1"><path d="M577.7 235.3V219.7h15.6v15.6Z"/></clipPath>
<clipPath id="c1c_1"><path d="M642.7 235.9V219.7h16.2v16.2Z"/></clipPath>
<clipPath id="c1d_1"><path d="M790.7 236.3V219.7h16.6v16.6Z"/></clipPath>
<style>
.g0_1{fill:#E8ECF0;}
.g1_1{fill:#1A3D6D;}
.g2_1{fill:#D1D8E2;}
.g3_1{fill:#FFF;}
.g4_1{fill:none;stroke:#EDF0F3;stroke-width:1.527;}
.g5_1{fill:none;stroke:#D1D8E2;stroke-width:1.527;}
.g6_1{fill:none;stroke:#EDF0F3;stroke-width:0.763;}
.g7_1{fill:#768BA8;}
.g8_1{fill:none;stroke:#AFBBCC;stroke-width:1.527;}
.g9_1{fill:none;stroke:#000;stroke-width:1.527;stroke-miterlimit:10;}
.ga_1{fill:none;stroke:#7F7F7F;stroke-width:1.08;stroke-miterlimit:10;}
.gb_1{fill:none;stroke:#C0C0C0;stroke-width:1.08;stroke-miterlimit:10;}
.gc_1{fill:none;stroke:#7F7F7F;stroke-width:1.527;stroke-miterlimit:10;}
.gd_1{fill:none;stroke:#C0C0C0;stroke-width:1.527;stroke-miterlimit:10;}
</style>
</defs>
<path d="M0 1286.2H909.4V0H0V1286.2Z" class="g0_1"/>
<path d="M46.1 395.2l-5.7 5.6l-2-2c-.3-.4-1-.4-1.4 0c-.4 .4-.4 1.1 0 1.5l2.7 2.7c.4 .4 1.1 .4 1.5 0l6.3-6.3c.4-.4 .4-1.1 0-1.5c-.4-.4-1-.4-1.4 0Z" class="g1_1"/>
<path d="M909.4 977.8h909.5V928.9H909.4v48.9Z" class="g2_1"/>
<path d="M0 48.9H909.4V0H0V48.9Z" class="g1_1"/>
<path d="M0 110H909.2V48.9H0V110Z" class="g2_1"/>
<path d="M126.2 61.1c-2.5 0-4.6 2-4.6 4.6V93.2c0 2.5 2.1 4.5 4.6 4.5H451.3c2.5 0 4.6-2 4.6-4.5V65.7c0-2.6-2.1-4.6-4.6-4.6Z" class="g3_1"/>
<path d="M154.6 61.1V97.7m33.3-36.6V97.7m33.4-36.6V97.7m33.5-36.6V97.8m66.7-36.7V97.8m33.4-36.7V97.8m33.3-36.7V97.8m-100-36.7V97.8M421.6 61.1V97.8" class="g4_1"/>
<path d="M891.1 48.9h18.4V0H891.1V48.9Z" class="g1_1"/>
<path d="M39.7 120.7c-1.7 0-3 1.4-3 3.1V136c0 1.7 1.3 3 3 3h830c1.7 0 3.1-1.3 3.1-3V123.8c0-1.7-1.4-3.1-3.1-3.1Z" class="g2_1"/>
<path d="M39.7 292.1c-1.7 0-3 1.4-3 3.1v12.2c0 1.7 1.3 3 3 3h830c1.7 0 3.1-1.3 3.1-3V295.2c0-1.7-1.4-3.1-3.1-3.1Z" class="g2_1"/>
<path d="M39.8 841.7c-1.7 0-3.1 1.4-3.1 3.1V857c0 1.7 1.4 3.1 3.1 3.1h830c1.7 0 3-1.4 3-3.1V844.8c0-1.7-1.3-3.1-3-3.1Z" class="g2_1"/>
<path d="M39.7 1025.1c-1.7 0-3 1.4-3 3.1v12.2c0 1.7 1.3 3.1 3 3.1h830c1.7 0 3.1-1.4 3.1-3.1v-12.2c0-1.7-1.4-3.1-3.1-3.1Z" class="g2_1"/>
<path d="M467.8 874.3c-1.7 0-3.1 1.3-3.1 3v67.9c0 1.7 1.4 3.1 3.1 3.1h71.5c1.7 0 3.1-1.4 3.1-3.1V877.3c0-1.7-1.4-3-3.1-3H467.8Z" class="g5_1"/>
<path d="M478.4 904.2c-3.4 0-6.1 2.8-6.1 6.1v.1c0 3.3 2.7 6.1 6.1 6.1c3.3 0 6.1-2.8 6.1-6.1v-.1c0-3.3-2.8-6.1-6.1-6.1Z" class="g3_1"/>
<path clip-path="url(#c0_1)" d="M478.4 904.2c-3.4 0-6.1 2.8-6.1 6.1c0 3.4 2.7 6.2 6.1 6.2c3.4 0 6.1-2.8 6.1-6.2c0-3.3-2.7-6.1-6.1-6.1Z" class="g3_1"/>
<g clip-path="url(#c1_1)">
<path d="M478.4 904.2c-3.4 0-6.1 2.8-6.1 6.1c0 3.4 2.7 6.2 6.1 6.2c3.4 0 6.1-2.8 6.1-6.2c0-3.3-2.7-6.1-6.1-6.1Z" class="g3_1"/>
<path d="M478.4 904.2c-3.4 0-6.1 2.8-6.1 6.1c0 3.4 2.7 6.2 6.1 6.2c3.4 0 6.1-2.8 6.1-6.2c0-3.3-2.7-6.1-6.1-6.1Z" class="g6_1"/>
</g>
<path d="M478.4 928.7c-3.4 0-6.1 2.7-6.1 6.1c0 3.4 2.7 6.1 6.1 6.1c3.3 0 6.1-2.7 6.1-6.1c0-3.4-2.8-6.1-6.1-6.1Z" class="g3_1"/>
<path clip-path="url(#c2_1)" d="M478.4 928.7c-3.4 0-6.1 2.7-6.1 6.1c0 3.4 2.7 6.1 6.1 6.1c3.4 0 6.1-2.7 6.1-6.1c0-3.4-2.7-6.1-6.1-6.1Z" class="g3_1"/>
<g clip-path="url(#c3_1)">
<path d="M478.4 928.7c-3.4 0-6.1 2.7-6.1 6.1c0 3.4 2.7 6.1 6.1 6.1c3.4 0 6.1-2.7 6.1-6.1c0-3.4-2.7-6.1-6.1-6.1Z" class="g3_1"/>
<path d="M478.4 928.7c-3.4 0-6.1 2.7-6.1 6.1c0 3.4 2.7 6.1 6.1 6.1c3.4 0 6.1-2.7 6.1-6.1c0-3.4-2.7-6.1-6.1-6.1Z" class="g6_1"/>
</g>
<path d="M41.2 1075.4c-2.5 0-4.6 2.1-4.6 4.6v27.5c0 2.5 2.1 4.6 4.6 4.6H298.6c2.5 0 4.6-2.1 4.6-4.6V1080c0-2.5-2.1-4.6-4.6-4.6Z" class="g3_1"/>
<path d="M757.2 1071.6h.9v.9h-.9v-.9Zm0-.8v-1.2c.6-.2 1.3-.4 1.3-1.1c0-.4-.4-.7-.8-.7c-.5 0-.8 .3-.8 .8h-.7c0-.9 .7-1.5 1.5-1.5c.9 0 1.5 .7 1.5 1.4c0 .9-.5 1.3-1.1 1.5v.8Zm-3.5-1.6c.2-.4 .6-.7 1-.7c.2 0 .3 .1 .4 .1l-.1 .8c-.1-.1-.2-.1-.4-.1c-.4 0-.7 .2-.9 .6v2.6h-.8v-3.9h.8Zm-3.7 .1c-.6 0-1.1 .5-1.1 1.3c0 .7 .5 1.3 1.1 1.3c.7 0 1.2-.6 1.2-1.3c0-.8-.5-1.3-1.2-1.3m2 1.3c0 1.1-.8 2-2 2c-1.1 0-1.9-.9-1.9-2c0-1.2 .8-2.1 1.9-2.1c1.2 0 2 .9 2 2.1m-4.2-3.1c-.2-.1-.3-.1-.5-.1c-.2 0-.4 0-.4 .1c-.2 .1-.2 .4-.2 .7v.4h1v.7h-1v3.2h-.8v-3.2h-.4v-.7h.4v-.5c0-.4 .1-.7 .2-1c.2-.3 .6-.4 1.1-.4c.3 0 .6 .1 .8 .2Zm-6.7 1.7c-.6 0-.9 .4-1.1 1h2.1c0-.6-.4-1-1-1m.1 2.7c.5 0 .9-.2 1.1-.6l.5 .4c-.4 .6-.9 .9-1.7 .9c-1.2 0-1.9-.9-1.9-2c0-1.2 .8-2.1 1.9-2.1c1.1 0 1.8 .8 1.8 1.8c0 .2 0 .3 0 .5H740c.1 .6 .5 1.1 1.2 1.1m-2.5 .3c-.3 .2-.7 .4-1.2 .4c-1.1 0-2-.8-2-2c0-1.2 .9-2.1 2-2.1c.5 0 .9 .2 1.2 .4l-.4 .6c-.2-.1-.5-.2-.8-.2c-.7 0-1.2 .5-1.2 1.3c0 .8 .6 1.3 1.2 1.3c.3 0 .6-.1 .8-.3Zm-6.8-3.6v.6c.3-.4 .8-.7 1.3-.7c.5 0 .9 .2 1.1 .5c.3 .4 .3 .9 .3 1.5v2h-.8v-1.9c0-.4 0-.8-.1-1.1c-.2-.1-.4-.2-.7-.2c-.4 0-.8 .2-1.1 .6v2.6h-.7v-3.9Zm-2.7 2.2c-.3-.1-.5-.1-.7-.1c-.4 0-1 .1-1 .7c0 .4 .3 .6 .7 .6c.4 0 .7-.2 1-.5Zm.1 1.7l-.1-.4c-.3 .4-.6 .5-1.1 .5c-.7 0-1.4-.4-1.4-1.2c0-1 .9-1.3 1.7-1.3c.2 0 .5 0 .8 .1v-.1c0-.6-.3-.9-.9-.9c-.4 0-.9 .2-1.2 .3l-.2-.6c.4-.2 1-.4 1.5-.4c1.1 0 1.6 .7 1.6 1.7v2.3Zm-4.2-3.2v1.7c0 .1 0 .2 0 .3c0 .4 .1 .6 .5 .6c.1 0 .3-.1 .4-.1l.2 .6c-.2 .1-.5 .2-.7 .2c-.6 0-1-.3-1.1-.7c-.1-.2-.1-.5-.1-.7v-1.9h-.5v-.7h.5v-.9h.8v.9h1v.7Zm-2.7 0v1.7c0 .1 0 .2 0 .3c0 .4 .1 .6 .5 .6c.1 0 .3-.1 .4-.1l.2 .6c-.2 .1-.5 .2-.7 .2c-.6 0-1-.3-1.1-.7c-.1-.2-.1-.5-.1-.7v-1.9h-.5v-.7h.5v-.9h.8v.9h1v.7Zm-2.9-.7h.8v3.9h-.8v-3.9Zm0-1.5h.8v.8h-.8v-.8Zm-1.9 5.4v-1.9c0-.4-.1-.8-.2-1.1c-.1-.1-.3-.2-.6-.2c-.4 0-.8 .2-1 .5c0 .2 0 .5 0 .7v2H715v-1.9c0-.4 0-.8-.2-1.1c-.1-.2-.3-.2-.5-.2c-.4 0-.8 .3-1 .6v2.6h-.8v-3.9h.7v.6c.3-.4 .8-.7 1.2-.7c.5 0 .9 .2 1.1 .6c0 0 .1 .1 .1 .1c.3-.4 .8-.7 1.3-.7c.5 0 .9 .2 1.1 .5c.3 .4 .3 .9 .3 1.5v2Zm-7.8-3.3c-.6 0-1 .4-1.1 1h2c0-.6-.4-1-.9-1m0 2.7c.5 0 .9-.2 1.1-.6l.6 .4c-.4 .6-.9 .9-1.7 .9c-1.3 0-2-.9-2-2c0-1.2 .9-2.1 2-2.1c1 0 1.8 .8 1.8 1.8c0 .2-.1 .3-.1 .5h-2.9c.1 .6 .5 1.1 1.2 1.1m-3.6-2.7c.2-.4 .5-.7 .9-.7c.2 0 .3 .1 .5 .1l-.2 .8c-.1-.1-.2-.1-.3-.1c-.4 0-.7 .2-.9 .6v2.6h-.8v-3.9h.7Zm-5.4 0c-.6 0-1 .4-1.1 1h2c0-.6-.4-1-.9-1m0 2.7c.5 0 .9-.2 1.1-.6l.6 .4c-.4 .6-.9 .9-1.7 .9c-1.2 0-2-.9-2-2c0-1.2 .9-2.1 2-2.1c1 0 1.8 .8 1.8 1.8c0 .2-.1 .3-.1 .5h-2.9c.1 .6 .5 1.1 1.2 1.1m-5.5-2.7c.3-.4 .7-.7 1.2-.7c.5 0 .9 .2 1.1 .5c.3 .4 .4 .9 .4 1.5v2h-.8v-1.9c0-.4 0-.8-.2-1.1c-.1-.1-.3-.2-.6-.2c-.5 0-.9 .2-1.1 .6v2.6h-.8v-5.7h.8Zm-2.7 .1v1.7c0 .1 0 .2 0 .3c.1 .4 .2 .6 .5 .6c.2 0 .3-.1 .5-.1l.2 .6c-.2 .1-.5 .2-.8 .2c-.5 0-.9-.3-1-.7c-.1-.2-.2-.5-.2-.7v-1.9h-.5v-.7h.5l.1-.9h.7v.9h1.1v.7Zm-5.4-.1c-.6 0-1 .4-1.1 1h2c0-.6-.4-1-.9-1m0 2.7c.5 0 .9-.2 1.1-.6l.6 .4c-.4 .6-.9 .9-1.7 .9c-1.2 0-2-.9-2-2c0-1.2 .9-2.1 2-2.1c1 0 1.8 .8 1.8 1.8c0 .2 0 .3-.1 .5H686c.1 .6 .5 1.1 1.2 1.1m-3.2-2.4c-.2-.2-.5-.3-.8-.3c-.3 0-.5 .2-.5 .4c0 .3 .4 .5 .7 .6c.5 .2 1.1 .5 1.1 1.2c0 .8-.6 1.2-1.4 1.2c-.5 0-1-.2-1.4-.6l.5-.5c.3 .3 .6 .4 .9 .4c.3 0 .7-.1 .7-.5c0-.3-.4-.4-.8-.6c-.5-.2-1.1-.4-1.1-1.1c0-.8 .7-1.2 1.3-1.2c.5 0 .9 .2 1.3 .5Zm-3.9 3v-.6c-.3 .4-.8 .7-1.3 .7c-.5 0-.9-.2-1.1-.5c-.3-.4-.3-.9-.3-1.5v-2h.7v2c0 .3 .1 .7 .2 1c.1 .2 .4 .3 .7 .3c.4 0 .8-.3 1-.7v-2.6h.8v3.9Zm-8.1-3.9l1 2.8l1-2.8h.8l-2.1 5.7l-.7-.3l.6-1.6l-1.4-3.8Zm-1.5 3.9h-.8v-5.7h.8v5.7Zm-2.8-3.9h.8v3.9h-.8v-3.9Zm0-1.5h.8v.8h-.8v-.8Zm-2 2.1c.3-.4 .6-.7 1-.7c.2 0 .3 .1 .5 .1l-.2 .8c-.1-.1-.2-.1-.4-.1c-.3 0-.6 .2-.8 .6v2.6H665v-3.9h.7Zm-2.7 1.6c-.3-.1-.5-.1-.7-.1c-.4 0-1 .1-1 .7c0 .4 .3 .6 .7 .6c.4 0 .7-.2 1-.5Zm.1 1.7l-.1-.4c-.3 .4-.6 .5-1.1 .5c-.7 0-1.4-.4-1.4-1.2c0-1 .9-1.3 1.7-1.3c.2 0 .5 0 .8 .1v-.1c0-.6-.3-.9-.9-.9c-.4 0-.9 .2-1.2 .3l-.2-.6c.4-.2 1-.4 1.5-.4c1.2 0 1.6 .7 1.6 1.7v2.3Zm-4.3 0v-1.9c0-.4 0-.8-.2-1.1c-.1-.1-.3-.2-.6-.2c-.4 0-.7 .2-1 .5c0 .2 0 .5 0 .7v2h-.8v-1.9c0-.4 0-.8-.2-1.1c-.1-.2-.2-.2-.5-.2c-.4 0-.8 .3-1 .6v2.6h-.8v-3.9h.8v.6c.3-.4 .7-.7 1.2-.7c.4 0 .8 .2 1 .6c.1 0 .1 .1 .1 .1c.4-.4 .9-.7 1.4-.7c.4 0 .8 .2 1 .5c.3 .4 .4 .9 .4 1.5v2Zm-7.1-3.9h.8v3.9h-.8v-3.9Zm0-1.5h.8v.8h-.8v-.8Zm-2 2.1c.2-.4 .6-.7 1-.7c.2 0 .3 .1 .4 .1l-.1 .8c-.1-.1-.3-.1-.4-.1c-.4 0-.7 .2-.9 .6v2.6h-.8v-3.9h.8Zm-4.8 2.1c.3 .4 .7 .6 1.1 .6c.8 0 1.2-.7 1.2-1.3c0-.7-.4-1.3-1.2-1.3c-.4 0-.9 .2-1.1 .6Zm0-2.7v.5c.3-.4 .8-.6 1.2-.6c1.1 0 1.9 .9 1.9 2.1c0 1-.7 2-1.9 2c-.4 0-.9-.2-1.2-.5v2.3h-.8v-5.8Zm-4.7 3.9v-.6c-.3 .4-.7 .7-1.2 .7c-.5 0-.9-.2-1.1-.5c-.3-.4-.4-.9-.4-1.5v-2h.8v2c0 .3 0 .7 .2 1c.1 .2 .3 .3 .6 .3c.4 0 .9-.3 1.1-.7v-2.6h.8v3.9Zm-5.5-3.2c-.7 0-1.2 .5-1.2 1.3c0 .7 .5 1.3 1.2 1.3c.6 0 1.1-.6 1.1-1.3c0-.8-.5-1.3-1.1-1.3m1.9 1.3c0 1.1-.8 2-1.9 2c-1.2 0-2-.9-2-2c0-1.2 .8-2.1 2-2.1c1.1 0 1.9 .9 1.9 2.1m-7.1-2l1 2.8l1-2.8h.8l-2.1 5.7l-.7-.3l.6-1.6l-1.4-3.8Zm-5.1 .7c-.7 0-1.2 .5-1.2 1.3c0 .7 .5 1.3 1.2 1.3c.7 0 1.2-.6 1.2-1.3c0-.8-.5-1.3-1.2-1.3m2 1.3c0 1.1-.8 2-2 2c-1.1 0-2-.9-2-2c0-1.2 .9-2.1 2-2.1c1.2 0 2 .9 2 2.1m-6.7-1.3c-.9 0-1.3 .6-1.3 1.3c0 .7 .5 1.3 1.2 1.3c.4 0 .9-.2 1.1-.7v-1.4c-.2-.4-.7-.5-1-.5m1.8 3.2h-.7v-.5c-.3 .4-.8 .6-1.3 .6c-1.1 0-1.9-.9-1.9-2c0-1.1 .8-2.1 1.9-2.1c.5 0 .9 .2 1.2 .5v-2.2h.8Zm-7.4-3.2v1.7c0 .1 0 .2 .1 .3c0 .4 .1 .6 .4 .6c.2 0 .4-.1 .5-.1l.2 .6c-.2 .1-.5 .2-.8 .2c-.5 0-.9-.3-1-.7c-.1-.2-.1-.5-.1-.7v-1.9h-.5v-.7h.5v-.9h.7v.9h1.1v.7Zm-2.8 1.5c-.2-.1-.4-.1-.6-.1c-.5 0-1.1 .1-1.1 .7c0 .4 .4 .6 .8 .6c.3 0 .7-.2 .9-.5Zm.1 1.7v-.4c-.3 .4-.7 .5-1.1 .5c-.8 0-1.4-.4-1.4-1.2c0-1 .8-1.3 1.7-1.3c.2 0 .4 0 .7 .1v-.1c0-.6-.2-.9-.8-.9c-.5 0-.9 .2-1.2 .3l-.3-.6c.5-.2 1-.4 1.6-.4c1.1 0 1.5 .7 1.5 1.7v2.3Zm-6.2-3.3c.3-.4 .8-.7 1.3-.7c.5 0 .8 .2 1.1 .5c.2 .4 .3 .9 .3 1.5v2h-.8v-1.9c0-.4 0-.8-.2-1.1c-.1-.1-.3-.2-.6-.2c-.4 0-.8 .2-1.1 .6v2.6h-.8v-5.7h.8Zm-3.4 1.8v0l1.1-3.9h.9l-1.5 5.4h-.9l-1-3.9l-1.1 3.9h-.8l-1.5-5.4h.9l1 3.9l1.1-3.9h.8Z" class="g7_1"/>
<path d="M326 1075.6c-2.6 0-4.6 2-4.6 4.6v27.5c0 2.5 2 4.6 4.6 4.6H868.5c2.6 0 4.6-2.1 4.6-4.6v-27.5c0-2.6-2-4.6-4.6-4.6Z" class="g3_1"/>
<path d="M484.2 1071.6h.9v.9h-.9v-.9Zm0-.8v-1.2c.6-.2 1.2-.4 1.2-1.1c0-.4-.3-.7-.7-.7c-.5 0-.8 .3-.8 .8h-.8c0-.9 .7-1.5 1.6-1.5c.9 0 1.5 .7 1.5 1.4c0 .9-.6 1.3-1.2 1.5v.8Zm-3 1.7v-1.9c0-.4 0-.8-.1-1.1c-.2-.1-.4-.2-.7-.2c-.3 0-.7 .2-1 .5c.1 .2 .1 .5 .1 .7v2h-.8v-1.9c0-.4 0-.8-.2-1.1c-.1-.2-.3-.2-.6-.2c-.3 0-.7 .3-1 .6v2.6h-.8v-3.9h.8v.6c.3-.4 .8-.7 1.2-.7c.4 0 .8 .2 1.1 .6c0 0 0 .1 .1 .1c.3-.4 .8-.7 1.3-.7c.5 0 .8 .2 1.1 .5c.2 .4 .3 .9 .3 1.5v2Zm-8-3.2c-.6 0-1.1 .5-1.1 1.3c0 .7 .5 1.3 1.1 1.3c.7 0 1.2-.6 1.2-1.3c0-.8-.5-1.3-1.2-1.3m2 1.3c0 1.1-.8 2-2 2c-1.1 0-1.9-.9-1.9-2c0-1.2 .8-2.1 1.9-2.1c1.2 0 2 .9 2 2.1m-5.6-1.4c.2-.4 .6-.7 1-.7c.1 0 .3 .1 .4 .1l-.2 .8c-.1-.1-.2-.1-.3-.1c-.4 0-.7 .2-.9 .6v2.6h-.8v-3.9h.8Zm-1.4-1.7c-.1-.1-.3-.1-.5-.1c-.2 0-.3 0-.4 .1c-.2 .1-.2 .4-.2 .7v.4h1v.7h-1v3.2h-.8v-3.2h-.4v-.7h.4v-.5c0-.4 .1-.7 .3-1c.2-.3 .5-.4 1-.4c.3 0 .6 .1 .8 .2Zm-6.6 1.7c-.6 0-1 .4-1.1 1h2.1c-.1-.6-.5-1-1-1m0 2.7c.5 0 .9-.2 1.1-.6l.6 .4c-.4 .6-.9 .9-1.7 .9c-1.2 0-2-.9-2-2c0-1.2 .9-2.1 2-2.1c1 0 1.8 .8 1.8 1.8c0 .2 0 .3-.1 .5h-2.9c.1 .6 .5 1.1 1.2 1.1m-3.6 .6v-1.9c0-.4 0-.8-.2-1.1c-.1-.1-.3-.2-.6-.2c-.4 0-.7 .2-1 .5c0 .2 0 .5 0 .7v2h-.8v-1.9c0-.4 0-.8-.1-1.1c-.2-.2-.3-.2-.6-.2c-.4 0-.8 .3-1 .6v2.6h-.8v-3.9h.8v.6c.3-.4 .7-.7 1.2-.7c.4 0 .8 .2 1 .6c.1 0 .1 .1 .1 .1c.4-.4 .9-.7 1.4-.7c.5 0 .8 .2 1 .5c.3 .4 .4 .9 .4 1.5v2Zm-8-3.2c-.7 0-1.2 .5-1.2 1.3c0 .7 .5 1.3 1.2 1.3c.7 0 1.2-.6 1.2-1.3c0-.8-.5-1.3-1.2-1.3m2 1.3c0 1.1-.9 2-2 2c-1.1 0-2-.9-2-2c0-1.2 .9-2.1 2-2.1c1.1 0 2 .9 2 2.1m-4.5 1.6c-.3 .2-.7 .4-1.2 .4c-1.1 0-2-.8-2-2c0-1.2 .9-2.1 2-2.1c.5 0 .9 .2 1.2 .4l-.4 .6c-.2-.1-.5-.2-.8-.2c-.6 0-1.2 .5-1.2 1.3c0 .8 .6 1.3 1.2 1.3c.3 0 .6-.1 .8-.3Zm-7.5-3c-.6 0-.9 .4-1.1 1H441c0-.6-.4-1-1-1m0 2.7c.6 0 .9-.2 1.2-.6l.5 .4c-.4 .6-.9 .9-1.7 .9c-1.2 0-1.9-.9-1.9-2c0-1.2 .8-2.1 1.9-2.1c1 0 1.8 .8 1.8 1.8c0 .2 0 .3 0 .5h-2.9c0 .6 .5 1.1 1.1 1.1m-2.4 .3c-.3 .2-.8 .4-1.2 .4c-1.2 0-2-.8-2-2c0-1.2 .9-2.1 2-2.1c.4 0 .8 .2 1.2 .4l-.4 .6c-.2-.1-.5-.2-.8-.2c-.7 0-1.2 .5-1.2 1.3c0 .8 .6 1.3 1.2 1.3c.3 0 .6-.1 .8-.3Zm-6.8-3.6v.6c.3-.4 .8-.7 1.3-.7c.5 0 .8 .2 1.1 .5c.2 .4 .3 .9 .3 1.5v2h-.8v-1.9c0-.4 0-.8-.2-1.1c-.1-.1-.3-.2-.6-.2c-.4 0-.8 .2-1.1 .6v2.6H430v-3.9Zm-2.7 2.2c-.3-.1-.5-.1-.7-.1c-.4 0-1 .1-1 .7c0 .4 .3 .6 .7 .6c.4 0 .7-.2 1-.5Zm0 1.7v-.4c-.3 .4-.7 .5-1.1 .5c-.7 0-1.4-.4-1.4-1.2c0-1 .9-1.3 1.7-1.3c.2 0 .5 0 .8 .1v-.1c0-.6-.3-.9-.9-.9c-.5 0-.9 .2-1.2 .3l-.2-.6c.4-.2 1-.4 1.5-.4c1.1 0 1.6 .7 1.6 1.7v2.3Zm-4.2-3.2v1.7c0 .1 0 .2 .1 .3c0 .4 .1 .6 .4 .6c.2 0 .4-.1 .5-.1l.2 .6c-.2 .1-.5 .2-.8 .2c-.5 0-.9-.3-1-.7c-.1-.2-.1-.5-.1-.7v-1.9h-.5v-.7h.5v-.9h.7v.9H425v.7Zm-2.7 0v1.7c0 .1 0 .2 0 .3c.1 .4 .2 .6 .5 .6c.2 0 .3-.1 .5-.1l.2 .6c-.2 .1-.5 .2-.8 .2c-.5 0-.9-.3-1-.7c-.1-.2-.1-.5-.1-.7v-1.9h-.6v-.7h.6v-.9h.7v.9h1.1v.7Zm-2.8-.7h.8v3.9h-.8v-3.9Zm0-1.5h.8v.8h-.8v-.8Zm-2 5.4v-1.9c0-.4 0-.8-.1-1.1c-.2-.1-.4-.2-.7-.2c-.3 0-.7 .2-1 .5c.1 .2 .1 .5 .1 .7v2h-.8v-1.9c0-.4 0-.8-.2-1.1c-.1-.2-.3-.2-.6-.2c-.3 0-.7 .3-1 .6v2.6h-.7v-3.9h.7v.6c.3-.4 .8-.7 1.2-.7c.5 0 .8 .2 1.1 .6c0 0 0 .1 .1 .1c.3-.4 .8-.7 1.3-.7c.5 0 .8 .2 1.1 .5c.2 .4 .3 .9 .3 1.5v2Zm-7.7-3.3c-.6 0-1 .4-1.1 1h2c0-.6-.4-1-.9-1m0 2.7c.5 0 .9-.2 1.1-.6l.6 .4c-.4 .6-1 .9-1.8 .9c-1.2 0-1.9-.9-1.9-2c0-1.2 .9-2.1 1.9-2.1c1.1 0 1.8 .8 1.8 1.8c0 .2 0 .3 0 .5h-2.9c.1 .6 .5 1.1 1.2 1.1m-3.7-2.7c.3-.4 .6-.7 1-.7c.2 0 .3 .1 .5 .1l-.2 .8c-.1-.1-.2-.1-.4-.1c-.3 0-.6 .2-.8 .6v2.6h-.8v-3.9h.7Zm-5.3 0c-.6 0-1 .4-1.1 1h2c0-.6-.4-1-.9-1m0 2.7c.5 0 .9-.2 1.1-.6l.6 .4c-.4 .6-1 .9-1.8 .9c-1.2 0-1.9-.9-1.9-2c0-1.2 .9-2.1 1.9-2.1c1.1 0 1.8 .8 1.8 1.8c0 .2 0 .3 0 .5h-2.9c.1 .6 .5 1.1 1.2 1.1m-5.5-2.7c.2-.4 .7-.7 1.2-.7c.5 0 .9 .2 1.1 .5c.3 .4 .3 .9 .3 1.5v2h-.7v-1.9c0-.4-.1-.8-.2-1.1c-.1-.1-.4-.2-.7-.2c-.4 0-.8 .2-1 .6v2.6h-.8v-5.7h.8Zm-2.7 .1v1.7c0 .1 0 .2 0 .3c0 .4 .2 .6 .5 .6c.2 0 .3-.1 .4-.1l.3 .6c-.2 .1-.5 .2-.8 .2c-.6 0-.9-.3-1.1-.7c-.1-.2-.1-.5-.1-.7v-1.9h-.5v-.7h.5l.1-.9h.7v.9h1.1v.7Zm-4.3 .2c-.2-.2-.5-.3-.8-.3c-.3 0-.5 .2-.5 .4c0 .3 .4 .5 .7 .6c.5 .2 1.2 .5 1.2 1.2c0 .8-.7 1.2-1.5 1.2c-.5 0-1-.2-1.4-.6l.6-.5c.2 .3 .5 .4 .8 .4c.4 0 .7-.1 .7-.5c0-.3-.4-.4-.8-.6c-.5-.2-1-.4-1-1.1c0-.8 .6-1.2 1.2-1.2c.5 0 .9 .2 1.3 .5Zm-4.6-.3c-.6 0-1 .4-1.1 1h2c0-.6-.4-1-.9-1m0 2.7c.5 0 .9-.2 1.1-.6l.6 .4c-.4 .6-1 .9-1.8 .9c-1.2 0-1.9-.9-1.9-2c0-1.2 .9-2.1 1.9-2.1c1.1 0 1.8 .8 1.8 1.8c0 .2 0 .3 0 .5h-2.9c.1 .6 .5 1.1 1.2 1.1m-4.6-2.6c-.7 0-1.2 .5-1.2 1.3c0 .7 .5 1.3 1.2 1.3c.7 0 1.2-.6 1.2-1.3c0-.8-.5-1.3-1.2-1.3m2 1.3c0 1.1-.8 2-2 2c-1.1 0-2-.9-2-2c0-1.2 .9-2.1 2-2.1c1.2 0 2 .9 2 2.1m-6.7-1.3c-.9 0-1.3 .6-1.3 1.3c0 .7 .5 1.3 1.3 1.3c.3 0 .8-.2 1-.7v-1.4c-.2-.4-.7-.5-1-.5m1.8 3.2h-.7v-.5c-.3 .4-.8 .6-1.3 .6c-1.1 0-1.9-.9-1.9-2c0-1.1 .8-2.1 1.9-2.1c.5 0 .9 .2 1.2 .5v-2.2h.8Zm-8.9-3.9l.9 2.8l1-2.8h.9l-2.2 5.7l-.7-.3l.6-1.6l-1.4-3.8Zm-2.5 .6c.3-.4 .6-.7 1-.7c.2 0 .3 .1 .5 .1l-.2 .8c-.1-.1-.2-.1-.4-.1c-.3 0-.6 .2-.8 .6v2.6H363v-3.9h.7Zm-2.6 .1v1.7c0 .1 0 .2 0 .3c0 .4 .2 .6 .5 .6c.2 0 .3-.1 .4-.1l.3 .6c-.2 .1-.5 .2-.8 .2c-.6 0-.9-.3-1.1-.7c-.1-.2-.1-.5-.1-.7v-1.9h-.5v-.7h.5v-.9h.8v.9h1.1v.7Zm-4.7-.7v.6c.3-.4 .7-.7 1.2-.7c.6 0 .9 .2 1.1 .5c.3 .4 .4 .9 .4 1.5v2h-.8v-1.9c0-.4 0-.8-.2-1.1c-.1-.1-.3-.2-.6-.2c-.4 0-.8 .2-1.1 .6v2.6h-.8v-3.9Zm-2.8 3.9v-.6c-.3 .4-.7 .7-1.2 .7c-.5 0-.9-.2-1.1-.5c-.3-.4-.4-.9-.4-1.5v-2h.8v2c0 .3 0 .7 .2 1c.1 .2 .3 .3 .6 .3c.4 0 .9-.3 1.1-.7v-2.6h.8v3.9Zm-5.5-3.2c-.7 0-1.2 .5-1.2 1.3c0 .7 .5 1.3 1.2 1.3c.6 0 1.1-.6 1.1-1.3c0-.8-.5-1.3-1.1-1.3m1.9 1.3c0 1.1-.8 2-1.9 2c-1.2 0-2-.9-2-2c0-1.2 .8-2.1 2-2.1c1.1 0 1.9 .9 1.9 2.1m-4.4 1.6c-.3 .2-.8 .4-1.2 .4c-1.2 0-2-.8-2-2c0-1.2 .8-2.1 2-2.1c.4 0 .8 .2 1.1 .4l-.3 .6c-.3-.1-.5-.2-.8-.2c-.7 0-1.2 .5-1.2 1.3c0 .8 .5 1.3 1.2 1.3c.2 0 .6-.1 .8-.3Zm-6.7-2.9v1.7c0 .1 0 .2 0 .3c0 .4 .2 .6 .5 .6c.2 0 .3-.1 .4-.1l.3 .6c-.2 .1-.5 .2-.8 .2c-.6 0-.9-.3-1.1-.7c-.1-.2-.1-.5-.1-.7v-1.9h-.5v-.7h.5l.1-.9h.7v.9H340v.7Zm-2.8 1.5c-.3-.1-.5-.1-.7-.1c-.4 0-1 .1-1 .7c0 .4 .3 .6 .7 .6c.4 0 .7-.2 1-.5Zm.1 1.7l-.1-.4c-.3 .4-.6 .5-1.1 .5c-.7 0-1.4-.4-1.4-1.2c0-1 .9-1.3 1.7-1.3c.2 0 .5 0 .8 .1v-.1c0-.6-.3-.9-.9-.9c-.4 0-.9 .2-1.2 .3l-.2-.6c.4-.2 1-.4 1.5-.4c1.1 0 1.6 .7 1.6 1.7v2.3Zm-6.2-3.3c.3-.4 .7-.7 1.2-.7c.5 0 .9 .2 1.1 .5c.3 .4 .4 .9 .4 1.5v2h-.8v-1.9c0-.4 0-.8-.2-1.1c-.1-.1-.3-.2-.6-.2c-.5 0-.9 .2-1.1 .6v2.6h-.8v-5.7h.8Zm-3.4 1.8v0l1.1-3.9h.8l-1.5 5.4h-.8l-1-3.9h-.1l-1.1 3.9h-.8l-1.5-5.4h1l1 3.9l1.1-3.9h.7Z" class="g7_1"/>
<path d="M596.6 1075.6v36.9" class="g4_1"/>
<path d="M41.5 660.1c-2.6 0-4.6 2.1-4.6 4.6v27.4c0 2.5 2 4.6 4.6 4.6H441c2.5 0 4.6-2.1 4.6-4.6V664.7c0-2.5-2.1-4.6-4.6-4.6Z" class="g3_1"/>
<path d="M468.3 660c-2.5 0-4.5 2.1-4.5 4.6V692c0 2.5 2 4.5 4.5 4.5H866.6c2.5 0 4.6-2 4.6-4.5V664.6c0-2.5-2.1-4.6-4.6-4.6Z" class="g3_1"/>
<path d="M800.6 660v36.7" class="g4_1"/>
<path d="M41.3 415.6c-2.6 0-4.6 2.1-4.6 4.6v27.5c0 2.5 2 4.6 4.6 4.6H867.8c2.5 0 4.6-2.1 4.6-4.6V420.2c0-2.5-2.1-4.6-4.6-4.6Z" class="g3_1"/>
<path d="M392.3 415.7v36.6" class="g4_1"/>
<path d="M41.7 464.5c-2.6 0-4.6 2.1-4.6 4.6v27.5c0 2.5 2 4.6 4.6 4.6H868.2c2.5 0 4.6-2.1 4.6-4.6V469.1c0-2.5-2.1-4.6-4.6-4.6Z" class="g3_1"/>
<path d="M302.7 464.6v36.5m285.6-36.5v36.5m212.9-36.5v36.5" class="g4_1"/>
<path d="M719.4 513.3c-3.4 0-6.1 2.8-6.1 6.1v.1c0 3.3 2.7 6.1 6.1 6.1c3.4 0 6.1-2.8 6.1-6.1v-.1c0-3.3-2.7-6.1-6.1-6.1Z" class="g3_1"/>
<path clip-path="url(#c4_1)" d="M719.4 513.3c-3.4 0-6.1 2.8-6.1 6.1c0 3.4 2.7 6.2 6.1 6.2c3.4 0 6.1-2.8 6.1-6.2c0-3.3-2.7-6.1-6.1-6.1Z" class="g3_1"/>
<g clip-path="url(#c5_1)">
<path d="M719.4 513.3c-3.4 0-6.1 2.8-6.1 6.1c0 3.4 2.7 6.2 6.1 6.2c3.4 0 6.1-2.8 6.1-6.2c0-3.3-2.7-6.1-6.1-6.1Z" class="g3_1"/>
<path d="M719.4 513.3c-3.4 0-6.1 2.8-6.1 6.1c0 3.4 2.7 6.2 6.1 6.2c3.4 0 6.1-2.8 6.1-6.2c0-3.3-2.7-6.1-6.1-6.1Z" class="g6_1"/>
</g>
<path d="M41.3 892.3c-2.6 0-4.6 2-4.6 4.6v27.5c0 2.5 2 4.6 4.6 4.6H441.9c2.6 0 4.6-2.1 4.6-4.6V896.9c0-2.6-2-4.6-4.6-4.6Z" class="g3_1"/>
<path d="M469 977.5c-2.5 0-4.6 2-4.6 4.6v27.5c0 2.5 2.1 4.5 4.6 4.5H868.2c2.5 0 4.6-2 4.6-4.5V982.1c0-2.6-2.1-4.6-4.6-4.6Z" class="g3_1"/>
<path d="M499.2 977.5v36.6m33.9-36.6v36.6m34-36.6v36.6m34-36.6v36.6m135.8-36.6v36.6m34-36.6v36.6m34-36.6v36.6M669 977.5v36.6m169.8-36.3v36.6M635 977.5v36.6m68-36.6v36.6" class="g4_1"/>
<path d="M468.5 1148.9c-2.6 0-4.6 2.1-4.6 4.6V1181c0 2.5 2 4.6 4.6 4.6H867.2c2.5 0 4.6-2.1 4.6-4.6v-27.5c0-2.5-2.1-4.6-4.6-4.6Z" class="g3_1"/>
<path d="M40.4 1191.8c-1.7 0-3.1 1.3-3.1 3v67.9c0 1.7 1.4 3.1 3.1 3.1H672.2c1.7 0 3.1-1.4 3.1-3.1v-67.9c0-1.7-1.4-3-3.1-3H40.4Z" class="g5_1"/>
<path d="M40.9 1148.9c-2.6 0-4.6 2.1-4.6 4.6V1181c0 2.5 2 4.6 4.6 4.6H441c2.5 0 4.6-2.1 4.6-4.6v-27.5c0-2.5-2.1-4.6-4.6-4.6Z" class="g3_1"/>
<path d="M698.6 1222.5c-2.5 0-4.6 2-4.6 4.5v27.5c0 2.6 2.1 4.6 4.6 4.6h170c2.5 0 4.6-2 4.6-4.6V1227c0-2.5-2.1-4.5-4.6-4.5Z" class="g3_1"/>
<path d="M41.3 170.8c-2.6 0-4.6 2-4.6 4.6v27.4c0 2.6 2 4.6 4.6 4.6H654.4c2.6 0 4.6-2 4.6-4.6V175.4c0-2.6-2-4.6-4.6-4.6Z" class="g3_1"/>
<path d="M612.7 170.9v36.6M178.8 170.9v36.6m275-36.6v36.6" class="g4_1"/>
<path d="M682.4 171.1c-2.5 0-4.5 2-4.5 4.6v27.5c0 2.5 2 4.5 4.5 4.5h34.5c2.5 0 4.5-2 4.5-4.5V175.7c0-2.6-2-4.6-4.5-4.6Z" class="g3_1"/>
<path d="M736.6 171.1c-2.5 0-4.6 2-4.6 4.6v27.5c0 2.5 2.1 4.5 4.6 4.5H771c2.5 0 4.6-2 4.6-4.5V175.7c0-2.6-2.1-4.6-4.6-4.6Z" class="g3_1"/>
<path d="M790.2 171.1c-2.5 0-4.6 2-4.6 4.6v27.5c0 2.5 2.1 4.5 4.6 4.5h78c2.5 0 4.6-2 4.6-4.5V175.7c0-2.6-2.1-4.6-4.6-4.6Z" class="g3_1"/>
<path d="M700.2 171.1v36.7m54.1-36.7v36.7m53.6-36.7v36.7m43.6-36.1v36.7m-22.3-36.7v36.7" class="g4_1"/>
<path d="M41.3 342.8c-2.6 0-4.6 2-4.6 4.6v27.2c0 2.6 2 4.6 4.6 4.6H298.6c2.5 0 4.6-2 4.6-4.6V347.4c0-2.6-2.1-4.6-4.6-4.6Z" class="g3_1"/>
<path d="M99.5 342.5v36.7" class="g4_1"/>
<path d="M326.1 342.2c-2.5 0-4.6 2.1-4.6 4.6v27.3c0 2.5 2.1 4.6 4.6 4.6H530.5c2.5 0 4.6-2.1 4.6-4.6V346.8c0-2.5-2.1-4.6-4.6-4.6Z" class="g3_1"/>
<path d="M561.6 342.5c-2.6 0-4.6 2.1-4.6 4.6v27.3c0 2.5 2 4.6 4.6 4.6H868.2c2.5 0 4.6-2.1 4.6-4.6V347.1c0-2.5-2.1-4.6-4.6-4.6Z" class="g3_1"/>
<path d="M613 342.3V379" class="g4_1"/>
<path d="M40.8 537.7c-2.5 0-4.6 2.1-4.6 4.6v27.5c0 2.5 2.1 4.6 4.6 4.6H867.4c2.5 0 4.6-2.1 4.6-4.6V542.3c0-2.5-2.1-4.6-4.6-4.6Z" class="g3_1"/>
<path d="M391.9 537.8v36.6" class="g4_1"/>
<path d="M41.2 586.6c-2.5 0-4.5 2.1-4.5 4.6v27.5c0 2.5 2 4.6 4.5 4.6H867.8c2.5 0 4.6-2.1 4.6-4.6V591.2c0-2.5-2.1-4.6-4.6-4.6Z" class="g3_1"/>
<path d="M302.3 586.7v36.5m285.6-36.5v36.5m212.9-36.5v36.5" class="g4_1"/>
<path d="M41 733.4c-2.5 0-4.6 2.1-4.6 4.6v27.5c0 2.5 2.1 4.6 4.6 4.6H867.5c2.6 0 4.6-2.1 4.6-4.6V738c0-2.5-2-4.6-4.6-4.6Z" class="g3_1"/>
<path d="M392.1 733.5v36.6" class="g4_1"/>
<path d="M41.4 782.3c-2.5 0-4.6 2.1-4.6 4.6v27.5c0 2.5 2.1 4.6 4.6 4.6H867.9c2.6 0 4.6-2.1 4.6-4.6V786.9c0-2.5-2-4.6-4.6-4.6Z" class="g3_1"/>
<path d="M302.5 782.4v36.5m285.6-36.5v36.5m212.8-36.5v36.5" class="g4_1"/>
<path d="M555.5 873.9c-1.7 0-3.1 1.4-3.1 3.1v67.8c0 1.7 1.4 3.1 3.1 3.1h313c1.7 0 3.1-1.4 3.1-3.1V877c0-1.7-1.4-3.1-3.1-3.1h-313Z" class="g5_1"/>
<path d="M670 342.4v36.7" class="g4_1"/>
<path d="M40.5 937.3c-1.7 0-3.1 1.4-3.1 3v66.4c0 1.7 1.4 3.1 3.1 3.1H441.8c1.7 0 3.1-1.4 3.1-3.1V940.3c0-1.6-1.4-3-3.1-3H40.5Z" class="g5_1"/>
<path d="M519.3 660v36.5M575.4 660v36.6" class="g4_1"/>
<path d="M569.6 905.8c-3.4 0-6.1 2.7-6.1 6v.1c0 3.4 2.7 6.1 6.1 6.1c3.3 0 6.1-2.7 6.1-6.1v-.1c0-3.3-2.8-6-6.1-6Z" class="g3_1"/>
<path d="M569.6 930.2c-3.4 0-6.1 2.7-6.1 6.1c0 3.4 2.7 6.1 6.1 6.1c3.3 0 6.1-2.7 6.1-6.1c0-3.4-2.8-6.1-6.1-6.1Z" class="g3_1"/>
<path d="M652.1 904.2c-3.4 0-6.1 2.8-6.1 6.1v.1c0 3.3 2.7 6.1 6.1 6.1c3.3 0 6.1-2.8 6.1-6.1v-.1c0-3.3-2.8-6.1-6.1-6.1Z" class="g3_1"/>
<path clip-path="url(#c6_1)" d="M652.1 904.2c-3.4 0-6.1 2.8-6.1 6.1c0 3.4 2.7 6.2 6.1 6.2c3.4 0 6.1-2.8 6.1-6.2c0-3.3-2.7-6.1-6.1-6.1Z" class="g3_1"/>
<g clip-path="url(#c7_1)">
<path d="M652.1 904.2c-3.4 0-6.1 2.8-6.1 6.1c0 3.4 2.7 6.2 6.1 6.2c3.4 0 6.1-2.8 6.1-6.2c0-3.3-2.7-6.1-6.1-6.1Z" class="g3_1"/>
<path d="M652.1 904.2c-3.4 0-6.1 2.8-6.1 6.1c0 3.4 2.7 6.2 6.1 6.2c3.4 0 6.1-2.8 6.1-6.2c0-3.3-2.7-6.1-6.1-6.1Z" class="g6_1"/>
</g>
<path d="M652.1 928.9c-3.4 0-6.1 2.7-6.1 6.1c0 3.4 2.7 6.1 6.1 6.1c3.3 0 6.1-2.7 6.1-6.1c0-3.4-2.8-6.1-6.1-6.1Z" class="g3_1"/>
<path clip-path="url(#c8_1)" d="M652.1 928.9c-3.4 0-6.1 2.7-6.1 6.1c0 3.4 2.7 6.1 6.1 6.1c3.4 0 6.1-2.7 6.1-6.1c0-3.4-2.7-6.1-6.1-6.1Z" class="g3_1"/>
<g clip-path="url(#c9_1)">
<path d="M652.1 928.9c-3.4 0-6.1 2.7-6.1 6.1c0 3.4 2.7 6.1 6.1 6.1c3.4 0 6.1-2.7 6.1-6.1c0-3.4-2.7-6.1-6.1-6.1Z" class="g3_1"/>
<path d="M652.1 928.9c-3.4 0-6.1 2.7-6.1 6.1c0 3.4 2.7 6.1 6.1 6.1c3.4 0 6.1-2.7 6.1-6.1c0-3.4-2.7-6.1-6.1-6.1Z" class="g6_1"/>
</g>
<path d="M786.8 904.2c-3.3 0-6.1 2.8-6.1 6.1v.1c0 3.3 2.8 6.1 6.1 6.1c3.4 0 6.1-2.8 6.1-6.1v-.1c0-3.3-2.7-6.1-6.1-6.1Z" class="g3_1"/>
<path clip-path="url(#ca_1)" d="M786.8 904.2c-3.3 0-6.1 2.8-6.1 6.1c0 3.4 2.8 6.2 6.1 6.2c3.4 0 6.1-2.8 6.1-6.2c0-3.3-2.7-6.1-6.1-6.1Z" class="g3_1"/>
<g clip-path="url(#cb_1)">
<path d="M786.8 904.2c-3.3 0-6.1 2.8-6.1 6.1c0 3.4 2.8 6.2 6.1 6.2c3.4 0 6.1-2.8 6.1-6.2c0-3.3-2.7-6.1-6.1-6.1Z" class="g3_1"/>
<path d="M786.8 904.2c-3.3 0-6.1 2.8-6.1 6.1c0 3.4 2.8 6.2 6.1 6.2c3.4 0 6.1-2.8 6.1-6.2c0-3.3-2.7-6.1-6.1-6.1Z" class="g6_1"/>
</g>
<path d="M786.8 928.9c-3.3 0-6.1 2.7-6.1 6.1c0 3.4 2.8 6.1 6.1 6.1c3.4 0 6.1-2.7 6.1-6.1c0-3.4-2.7-6.1-6.1-6.1Z" class="g3_1"/>
<path clip-path="url(#cc_1)" d="M786.8 928.9c-3.3 0-6.1 2.7-6.1 6.1c0 3.4 2.8 6.1 6.1 6.1c3.4 0 6.1-2.7 6.1-6.1c0-3.4-2.7-6.1-6.1-6.1Z" class="g3_1"/>
<g clip-path="url(#cd_1)">
<path d="M786.8 928.9c-3.3 0-6.1 2.7-6.1 6.1c0 3.4 2.8 6.1 6.1 6.1c3.4 0 6.1-2.7 6.1-6.1c0-3.4-2.7-6.1-6.1-6.1Z" class="g3_1"/>
<path d="M786.8 928.9c-3.3 0-6.1 2.7-6.1 6.1c0 3.4 2.8 6.1 6.1 6.1c3.4 0 6.1-2.7 6.1-6.1c0-3.4-2.7-6.1-6.1-6.1Z" class="g6_1"/>
</g>
<path d="M135.1 967.1c-2.5 0-4.6 2-4.6 4.6v27.5c0 2.5 2.1 4.6 4.6 4.6H429.3c2.5 0 4.6-2.1 4.6-4.6V971.7c0-2.6-2.1-4.6-4.6-4.6Z" class="g3_1"/>
<path d="M51.6 967.3c-3.3 0-6.1 2.7-6.1 6v.1c0 3.3 2.8 6.1 6.1 6.1c3.4 0 6.1-2.8 6.1-6.1v-.1c0-3.3-2.7-6-6.1-6Z" class="g3_1"/>
<path clip-path="url(#ce_1)" d="M51.6 967.3c-3.3 0-6.1 2.7-6.1 6.1c0 3.3 2.8 6.1 6.1 6.1c3.4 0 6.1-2.8 6.1-6.1c0-3.4-2.7-6.1-6.1-6.1Z" class="g3_1"/>
<path clip-path="url(#cf_1)" d="M51.6 967.3c-3.3 0-6.1 2.7-6.1 6.1c0 3.3 2.8 6.1 6.1 6.1c3.4 0 6.1-2.8 6.1-6.1c0-3.4-2.7-6.1-6.1-6.1Z" class="g3_1"/>
<g clip-path="url(#cg_1)">
<path d="M51.6 967.3c-3.3 0-6.1 2.7-6.1 6.1c0 3.3 2.8 6.1 6.1 6.1c3.4 0 6.1-2.8 6.1-6.1c0-3.4-2.7-6.1-6.1-6.1Z" class="g3_1"/>
<path d="M51.6 967.3c-3.3 0-6.1 2.7-6.1 6.1c0 3.3 2.8 6.1 6.1 6.1c3.4 0 6.1-2.8 6.1-6.1c0-3.4-2.7-6.1-6.1-6.1Z" class="g6_1"/>
</g>
<path d="M51.6 991.7c-3.3 0-6.1 2.7-6.1 6.1c0 3.4 2.8 6.1 6.1 6.1c3.4 0 6.1-2.7 6.1-6.1c0-3.4-2.7-6.1-6.1-6.1Z" class="g3_1"/>
<path clip-path="url(#ch_1)" d="M51.6 991.7c-3.3 0-6.1 2.7-6.1 6.1c0 3.4 2.8 6.1 6.1 6.1c3.4 0 6.1-2.7 6.1-6.1c0-3.4-2.7-6.1-6.1-6.1Z" class="g3_1"/>
<path clip-path="url(#ci_1)" d="M51.6 991.7c-3.3 0-6.1 2.7-6.1 6.1c0 3.4 2.8 6.1 6.1 6.1c3.4 0 6.1-2.7 6.1-6.1c0-3.4-2.7-6.1-6.1-6.1Z" class="g3_1"/>
<g clip-path="url(#cj_1)">
<path d="M51.6 991.7c-3.3 0-6.1 2.7-6.1 6.1c0 3.4 2.8 6.1 6.1 6.1c3.4 0 6.1-2.7 6.1-6.1c0-3.4-2.7-6.1-6.1-6.1Z" class="g3_1"/>
<path d="M51.6 991.7c-3.3 0-6.1 2.7-6.1 6.1c0 3.4 2.8 6.1 6.1 6.1c3.4 0 6.1-2.7 6.1-6.1c0-3.4-2.7-6.1-6.1-6.1Z" class="g6_1"/>
</g>
<path d="M205.1 1223.8c-3.4 0-6.1 2.8-6.1 6.1c0 3.4 2.7 6.2 6.1 6.2c3.3 0 6.1-2.8 6.1-6.2c0-3.3-2.8-6.1-6.1-6.1Z" class="g3_1"/>
<g clip-path="url(#ck_1)">
<path d="M205.1 1223.8c-3.4 0-6.1 2.8-6.1 6.1c0 3.4 2.7 6.2 6.1 6.2c3.3 0 6.1-2.8 6.1-6.2c0-3.3-2.8-6.1-6.1-6.1Z" class="g3_1"/>
<path d="M205.1 1223.8c-3.4 0-6.1 2.8-6.1 6.1c0 3.4 2.7 6.2 6.1 6.2c3.3 0 6.1-2.8 6.1-6.2c0-3.3-2.8-6.1-6.1-6.1Z" class="g3_1"/>
<path d="M205.1 1223.8c-3.4 0-6.1 2.8-6.1 6.1c0 3.4 2.7 6.2 6.1 6.2c3.3 0 6.1-2.8 6.1-6.2c0-3.3-2.8-6.1-6.1-6.1Z" class="g6_1"/>
</g>
<path d="M367.9 1222.2c-3.3 0-6.1 2.8-6.1 6.1c0 3.4 2.8 6.1 6.1 6.1c3.4 0 6.2-2.7 6.2-6.1c0-3.3-2.8-6.1-6.2-6.1Z" class="g3_1"/>
<g clip-path="url(#cl_1)">
<path d="M367.9 1222.2c-3.3 0-6.1 2.8-6.1 6.1c0 3.4 2.8 6.1 6.1 6.1c3.4 0 6.2-2.7 6.2-6.1c0-3.3-2.8-6.1-6.2-6.1Z" class="g3_1"/>
<path d="M367.9 1222.2c-3.3 0-6.1 2.8-6.1 6.1c0 3.4 2.8 6.1 6.1 6.1c3.4 0 6.2-2.7 6.2-6.1c0-3.3-2.8-6.1-6.2-6.1Z" class="g3_1"/>
<path d="M367.9 1222.2c-3.3 0-6.1 2.8-6.1 6.1c0 3.4 2.8 6.1 6.1 6.1c3.4 0 6.2-2.7 6.2-6.1c0-3.3-2.8-6.1-6.2-6.1Z" class="g6_1"/>
</g>
<path d="M205.1 1248c-3.4 0-6.1 2.7-6.1 6.1c0 3.3 2.7 6.1 6.1 6.1c3.3 0 6.1-2.8 6.1-6.1c0-3.4-2.8-6.1-6.1-6.1Z" class="g3_1"/>
<g clip-path="url(#cm_1)">
<path d="M205.1 1248c-3.4 0-6.1 2.7-6.1 6.1c0 3.3 2.7 6.1 6.1 6.1c3.3 0 6.1-2.8 6.1-6.1c0-3.4-2.8-6.1-6.1-6.1Z" class="g3_1"/>
<path d="M205.1 1248c-3.4 0-6.1 2.7-6.1 6.1c0 3.3 2.7 6.1 6.1 6.1c3.3 0 6.1-2.8 6.1-6.1c0-3.4-2.8-6.1-6.1-6.1Z" class="g3_1"/>
<path d="M205.1 1248c-3.4 0-6.1 2.7-6.1 6.1c0 3.3 2.7 6.1 6.1 6.1c3.3 0 6.1-2.8 6.1-6.1c0-3.4-2.8-6.1-6.1-6.1Z" class="g6_1"/>
</g>
<path d="M367.8 1246.6c-3.4 0-6.2 2.8-6.2 6.2c0 3.3 2.8 6.1 6.2 6.1c3.3 0 6.1-2.8 6.1-6.1c0-3.4-2.8-6.2-6.1-6.2Z" class="g3_1"/>
<g clip-path="url(#cn_1)">
<path d="M367.8 1246.6c-3.4 0-6.2 2.8-6.2 6.2c0 3.3 2.8 6.1 6.2 6.1c3.3 0 6.1-2.8 6.1-6.1c0-3.4-2.8-6.2-6.1-6.2Z" class="g3_1"/>
<path d="M367.8 1246.6c-3.4 0-6.2 2.8-6.2 6.2c0 3.3 2.8 6.1 6.2 6.1c3.3 0 6.1-2.8 6.1-6.1c0-3.4-2.8-6.2-6.1-6.2Z" class="g3_1"/>
<path d="M367.8 1246.6c-3.4 0-6.2 2.8-6.2 6.2c0 3.3 2.8 6.1 6.2 6.1c3.3 0 6.1-2.8 6.1-6.1c0-3.4-2.8-6.2-6.1-6.2Z" class="g6_1"/>
</g>
<path d="M531.8 1222.3c-3.3 0-6.1 2.7-6.1 6.1c0 3.3 2.8 6.1 6.1 6.1c3.4 0 6.2-2.8 6.2-6.1c0-3.4-2.8-6.1-6.2-6.1Z" class="g3_1"/>
<g clip-path="url(#co_1)">
<path d="M531.8 1222.3c-3.3 0-6.1 2.7-6.1 6.1c0 3.3 2.8 6.1 6.1 6.1c3.4 0 6.2-2.8 6.2-6.1c0-3.4-2.8-6.1-6.2-6.1Z" class="g3_1"/>
<path d="M531.8 1222.3c-3.3 0-6.1 2.7-6.1 6.1c0 3.3 2.8 6.1 6.1 6.1c3.4 0 6.2-2.8 6.2-6.1c0-3.4-2.8-6.1-6.2-6.1Z" class="g3_1"/>
<path d="M531.8 1222.3c-3.3 0-6.1 2.7-6.1 6.1c0 3.3 2.8 6.1 6.1 6.1c3.4 0 6.2-2.8 6.2-6.1c0-3.4-2.8-6.1-6.2-6.1Z" class="g6_1"/>
</g>
<path clip-path="url(#cp_1)" d="M46.1 515.5l-5.7 5.6l-2-2c-.3-.4-1-.4-1.4 0c-.4 .4-.4 1 0 1.4q0 .1 0 .1l2.7 2.7c.4 .4 1.1 .4 1.5 0l6.3-6.4c.4-.4 .4-1 0-1.4c-.4-.4-1-.4-1.4 0Z" class="g1_1"/>
<path clip-path="url(#cq_1)" d="M53.5 943.3l-5.6 5.6l-2-2c-.4-.4-1.1-.4-1.5 0c-.4 .4-.4 1 0 1.4v.1l2.8 2.7c.4 .4 1 .4 1.4 0l6.4-6.4c.4-.4 .4-1-.1-1.4c-.4-.4-1-.4-1.4 0Z" class="g1_1"/>
<path d="M39.5 212.9c-1.7 0-3 1.3-3 3v50.3c0 1.7 1.3 3.1 3 3.1H868c1.7 0 3-1.4 3-3.1V215.9c0-1.7-1.3-3-3-3H39.5Z" class="g5_1"/>
<path d="M442.9 221.1c-3.4 0-6.1 2.7-6.1 6.1c0 3.3 2.7 6.1 6.1 6.1c3.4 0 6.1-2.8 6.1-6.1c0-3.4-2.7-6.1-6.1-6.1Z" class="g3_1"/>
<g clip-path="url(#cr_1)">
<path d="M442.9 221.1c-3.4 0-6.1 2.7-6.1 6.1c0 3.3 2.7 6.1 6.1 6.1c3.4 0 6.1-2.8 6.1-6.1c0-3.4-2.7-6.1-6.1-6.1Z" class="g3_1"/>
<path d="M442.9 221.1c-3.4 0-6.1 2.7-6.1 6.1c0 3.3 2.7 6.1 6.1 6.1c3.4 0 6.1-2.8 6.1-6.1c0-3.4-2.7-6.1-6.1-6.1Z" class="g6_1"/>
</g>
<path d="M585.8 221.3c-3.3 0-6.1 2.8-6.1 6.1c0 3.4 2.8 6.1 6.1 6.1c3.4 0 6.1-2.7 6.1-6.1c0-3.3-2.7-6.1-6.1-6.1Z" class="g3_1"/>
<g clip-path="url(#cs_1)">
<path d="M585.8 221.3c-3.3 0-6.1 2.8-6.1 6.1c0 3.4 2.8 6.1 6.1 6.1c3.4 0 6.1-2.7 6.1-6.1c0-3.3-2.7-6.1-6.1-6.1Z" class="g3_1"/>
<path d="M585.8 221.3c-3.3 0-6.1 2.8-6.1 6.1c0 3.4 2.8 6.1 6.1 6.1c3.4 0 6.1-2.7 6.1-6.1c0-3.3-2.7-6.1-6.1-6.1Z" class="g6_1"/>
</g>
<path d="M650.9 221c-3.4 0-6.1 2.7-6.1 6.1c0 3.4 2.7 6.1 6.1 6.1c3.3 0 6.1-2.7 6.1-6.1c0-3.4-2.8-6.1-6.1-6.1Z" class="g3_1"/>
<g clip-path="url(#ct_1)">
<path d="M650.9 221c-3.4 0-6.1 2.7-6.1 6.1c0 3.4 2.7 6.1 6.1 6.1c3.3 0 6.1-2.7 6.1-6.1c0-3.4-2.8-6.1-6.1-6.1Z" class="g3_1"/>
<path d="M650.9 221c-3.4 0-6.1 2.7-6.1 6.1c0 3.4 2.7 6.1 6.1 6.1c3.3 0 6.1-2.7 6.1-6.1c0-3.4-2.8-6.1-6.1-6.1Z" class="g6_1"/>
</g>
<path d="M521.7 221.4c-3.4 0-6.1 2.7-6.1 6.1c0 3.4 2.7 6.1 6.1 6.1c3.3 0 6.1-2.7 6.1-6.1c0-3.4-2.8-6.1-6.1-6.1Z" class="g3_1"/>
<g clip-path="url(#cu_1)">
<path d="M521.7 221.4c-3.4 0-6.1 2.7-6.1 6.1c0 3.4 2.7 6.1 6.1 6.1c3.3 0 6.1-2.7 6.1-6.1c0-3.4-2.8-6.1-6.1-6.1Z" class="g3_1"/>
<path d="M521.7 221.4c-3.4 0-6.1 2.7-6.1 6.1c0 3.4 2.7 6.1 6.1 6.1c3.3 0 6.1-2.7 6.1-6.1c0-3.4-2.8-6.1-6.1-6.1Z" class="g6_1"/>
</g>
<path d="M246.7 221.3c-3.4 0-6.1 2.7-6.1 6.1c0 3.4 2.7 6.1 6.1 6.1c3.4 0 6.1-2.7 6.1-6.1c0-3.4-2.7-6.1-6.1-6.1Z" class="g3_1"/>
<path d="M246.7 221.3c-3.4 0-6.1 2.7-6.1 6.1c0 3.4 2.7 6.1 6.1 6.1c3.4 0 6.1-2.7 6.1-6.1c0-3.4-2.7-6.1-6.1-6.1Z" class="g6_1"/>
<path d="M295.2 221.1c-3.3 0-6.1 2.8-6.1 6.2c0 3.3 2.8 6.1 6.1 6.1c3.4 0 6.2-2.8 6.2-6.1c0-3.4-2.8-6.2-6.2-6.2Z" class="g3_1"/>
<path d="M295.2 221.1c-3.3 0-6.1 2.8-6.1 6.2c0 3.3 2.8 6.1 6.1 6.1c3.4 0 6.2-2.8 6.2-6.1c0-3.4-2.8-6.2-6.2-6.2Z" class="g6_1"/>
<path d="M798.5 219.7c-3.4 0-6.1 2.8-6.1 6.1c0 3.4 2.7 6.2 6.1 6.2c3.3 0 6.1-2.8 6.1-6.2c0-3.3-2.8-6.1-6.1-6.1Z" class="g3_1"/>
<g clip-path="url(#cv_1)">
<path d="M798.5 219.7c-3.4 0-6.1 2.8-6.1 6.1c0 3.4 2.7 6.2 6.1 6.2c3.3 0 6.1-2.8 6.1-6.2c0-3.3-2.8-6.1-6.1-6.1Z" class="g3_1"/>
<path d="M798.5 219.7c-3.4 0-6.1 2.8-6.1 6.1c0 3.4 2.7 6.2 6.1 6.2c3.3 0 6.1-2.8 6.1-6.2c0-3.3-2.8-6.1-6.1-6.1Z" class="g6_1"/>
</g>
<path d="M330.8 220v45.8" class="g8_1"/>
<path d="M909.4 1304.6h27.1V977.8H909.4v326.8Z" class="g1_1"/>
<path d="M46.1 322.4L40.4 328l-2-2c-.3-.4-1-.4-1.4 0c-.4 .4-.4 1 0 1.4l2.7 2.8c.4 .4 1.1 .4 1.5 0l6.3-6.4c.4-.4 .4-1.1 0-1.4c-.4-.4-1-.4-1.4 0Z" class="g1_1"/>
<path d="M331.4 322.4l-5.6 5.6l-2-2c-.4-.4-1.1-.4-1.5 0c-.4 .4-.4 1 0 1.4l2.7 2.8c.4 .4 1.1 .4 1.5 0l6.3-6.4c.4-.4 .4-1.1 0-1.4c-.4-.4-1-.4-1.4 0Z" class="g1_1"/>
<path d="M565.8 322.4l-5.6 5.6l-2-2c-.4-.4-1.1-.4-1.5 0c-.4 .4-.4 1 0 1.4l2.7 2.8c.4 .4 1.1 .4 1.5 0l6.3-6.4c.4-.4 .4-1.1 0-1.4c-.4-.4-1-.4-1.4 0Z" class="g1_1"/>
<path d="M46.1 639.7l-5.7 5.6l-2-2c-.3-.4-1-.4-1.4 0c-.4 .4-.4 1 0 1.4v.1l2.7 2.7c.4 .4 1.1 .4 1.5 0l6.3-6.4c.4-.4 .4-1 0-1.4c-.4-.4-1-.4-1.4 0Z" class="g1_1"/>
<path d="M46.1 712.6l-5.7 5.6l-2-2c-.3-.4-1-.4-1.4 0c-.4 .4-.4 1.1 0 1.5l2.7 2.7c.4 .4 1.1 .4 1.5 0l6.3-6.3c.4-.4 .4-1.1 0-1.5c-.4-.4-1-.4-1.4 0Z" class="g1_1"/>
<path d="M473.3 639.7l-5.6 5.6l-2-2c-.4-.4-1.1-.4-1.5 0c-.4 .4-.4 1 0 1.4v.1l2.7 2.7c.4 .4 1.1 .4 1.5 0l6.3-6.4c.4-.4 .4-1 0-1.4c-.4-.4-1-.4-1.4 0Z" class="g1_1"/>
<path d="M573.1 882.6l-5.6 5.6l-2-2c-.4-.4-1-.4-1.4 0c-.4 .4-.5 1-.1 1.4c0 .1 .1 .1 .1 .1l2.7 2.7c.4 .4 1 .4 1.5 0l6.3-6.4c.4-.4 .4-1 0-1.4c-.4-.4-1.1-.4-1.5 0Z" class="g1_1"/>
<path d="M477.7 957.4l-5.7 5.7l-2-2c-.4-.4-1-.5-1.4-.1c-.4 .4-.4 1.1 0 1.5l2.7 2.8c.4 .4 1.1 .4 1.5 0l6.3-6.4c.4-.4 .4-1.1 0-1.5c-.4-.4-1-.4-1.4 0Z" class="g1_1"/>
<path d="M47 1055.2l-5.6 5.6l-2-2c-.4-.4-1-.4-1.5 0c-.4 .4-.4 1.1 0 1.5l2.8 2.7c.4 .4 1 .4 1.4 0l6.4-6.3c.4-.4 .4-1.1 0-1.5c-.4-.4-1.1-.4-1.5 0Z" class="g1_1"/>
<path d="M330.9 1055.2l-5.6 5.6l-2-2c-.4-.4-1.1-.4-1.5 0c-.4 .4-.4 1.1 0 1.5l2.7 2.7c.4 .4 1.1 .4 1.5 0l6.3-6.3c.4-.4 .4-1.1 0-1.5c-.4-.4-1-.4-1.4 0Z" class="g1_1"/>
<path d="M45.7 1128.5l-5.6 5.7l-2-2c-.4-.4-1.1-.4-1.5 0c-.4 .3-.4 1 0 1.4l2.7 2.8c.4 .4 1.1 .4 1.5 0l6.3-6.4c.4-.4 .4-1.1 0-1.5c-.4-.3-1-.3-1.4 0Z" class="g1_1"/>
<path d="M473.3 1128.5l-5.6 5.7l-2-2c-.4-.4-1.1-.4-1.5 0c-.4 .3-.4 1 0 1.4l2.7 2.8c.4 .4 1.1 .4 1.5 0l6.3-6.4c.4-.4 .4-1.1 0-1.5c-.4-.3-1-.3-1.4 0Z" class="g1_1"/>
<path d="M703.4 1201.9l-5.6 5.6l-2-2c-.4-.4-1-.4-1.5 0c-.4 .4-.4 1 0 1.4q0 .1 0 .1l2.8 2.7c.4 .4 1 .4 1.4 0l6.4-6.4c.4-.4 .4-1 0-1.4c-.4-.4-1.1-.4-1.5 0Z" class="g1_1"/>
<path d="M56.7 1201.9l-5.6 5.6l-2-2c-.4-.4-1.1-.4-1.5 0c-.4 .4-.4 1 0 1.4q0 .1 0 .1l2.8 2.7c.4 .4 1 .4 1.4 0l6.4-6.4c.4-.4 .4-1-.1-1.4c-.4-.4-1-.4-1.4 0Z" class="g1_1"/>
<path d="M470 61.1c-3.4 0-6.1 2.7-6.1 6.1c0 3.4 2.7 6.1 6.1 6.1c3.4 0 6.1-2.7 6.1-6.1c0-3.4-2.7-6.1-6.1-6.1Z" class="g3_1"/>
<g clip-path="url(#cw_1)">
<path d="M470 61.1c-3.4 0-6.1 2.7-6.1 6.1c0 3.4 2.7 6.1 6.1 6.1c3.4 0 6.1-2.7 6.1-6.1c0-3.4-2.7-6.1-6.1-6.1Z" class="g3_1"/>
<path d="M470 61.1c-3.4 0-6.1 2.7-6.1 6.1c0 3.4 2.7 6.1 6.1 6.1c3.4 0 6.1-2.7 6.1-6.1c0-3.4-2.7-6.1-6.1-6.1Z" class="g3_1"/>
<path d="M470 61.1c-3.4 0-6.1 2.7-6.1 6.1c0 3.4 2.7 6.1 6.1 6.1c3.4 0 6.1-2.7 6.1-6.1c0-3.4-2.7-6.1-6.1-6.1Z" class="g6_1"/>
</g>
<path d="M470 85.3c-3.4 0-6.1 2.8-6.1 6.1c0 3.4 2.7 6.2 6.1 6.2c3.4 0 6.1-2.8 6.1-6.2c0-3.3-2.7-6.1-6.1-6.1Z" class="g3_1"/>
<g clip-path="url(#cx_1)">
<path d="M470 85.3c-3.4 0-6.1 2.8-6.1 6.1c0 3.4 2.7 6.2 6.1 6.2c3.4 0 6.1-2.8 6.1-6.2c0-3.3-2.7-6.1-6.1-6.1Z" class="g3_1"/>
<path d="M470 85.3c-3.4 0-6.1 2.8-6.1 6.1c0 3.4 2.7 6.2 6.1 6.2c3.4 0 6.1-2.8 6.1-6.2c0-3.3-2.7-6.1-6.1-6.1Z" class="g3_1"/>
<path d="M470 85.3c-3.4 0-6.1 2.8-6.1 6.1c0 3.4 2.7 6.2 6.1 6.2c3.4 0 6.1-2.8 6.1-6.2c0-3.3-2.7-6.1-6.1-6.1Z" class="g6_1"/>
</g>
<path d="M94.6 12.2c-7.7 0-13.9 4.8-13.9 12.5c0 7.7 6.2 12.5 13.9 12.5c7.7 0 13.8-4.8 13.8-12.5c0-7.7-6.1-12.5-13.8-12.5m0 22c-5.6 0-7.9-4.5-7.9-9.5c0-5.1 2.3-9.5 7.9-9.5c5.5 0 7.9 4.4 7.9 9.5c0 5-2.4 9.5-7.9 9.5Z" class="g3_1"/>
<path d="M69.1 12.9H59.7V27.2c-.9-2-2.8-3.2-5-3.6c1.7-.8 3.1-2.3 3.1-4.9c0-3.5-2.4-5.8-7.9-5.8H36.5V36.4H51.1c4.4 0 7.5-1.2 8.6-4v4h9.4c6.6 0 11-1.9 13.2-5.6c-1-1.7-1.6-3.8-1.6-6.1c0-2.4 .6-4.4 1.6-6.2c-2.2-3.7-6.6-5.6-13.2-5.6M42.2 16h5.5c2.9 0 4.2 1.3 4.2 3.4c0 2.1-1.3 3.4-4.2 3.4H42.2Zm7.6 17.3H42.2V25.9h7.6c3.1 0 4.6 1.5 4.6 3.7c0 2.3-1.5 3.7-4.6 3.7m18.7 0H65.4V16h3.1c6.6 0 9.3 3.7 9.3 8.7c0 4.9-2.7 8.6-9.3 8.6Z" class="g3_1"/>
<path d="M837 1060.8h1.4v1.5H837v-1.5Zm0-4.7h1.4v1.5H837v-1.5Zm-6.1 0l.1 1c.4-.8 1.2-1.2 2-1.2c.8 0 1.4 .3 1.7 .8c.5 .6 .6 1.4 .6 2.4v3.2H834v-3.1c0-.6 0-1.2-.3-1.6c-.2-.3-.5-.5-1-.5c-.6 0-1.3 .4-1.7 1.1v4.1h-1.3v-6.2Zm-5.8 1c-1.1 0-1.9 .9-1.9 2.1c0 1.1 .8 2.1 1.9 2.1c1.1 0 1.9-1 1.9-2.1c0-1.2-.8-2.1-1.9-2.1m3.2 2.1c0 1.8-1.4 3.2-3.2 3.2c-1.8 0-3.2-1.4-3.2-3.2c0-1.8 1.4-3.3 3.2-3.3c1.8 0 3.2 1.5 3.2 3.3m-9.1-3.1h1.2v6.2h-1.2Zm0-2.4h1.2v1.3h-1.2v-1.3Zm-3 3.5v2.7c0 .1 0 .3 0 .5c0 .5 .2 .9 .8 .9c.3 0 .5-.1 .7-.2l.4 1c-.4 .2-.9 .3-1.3 .3c-.9 0-1.4-.4-1.7-1.1c-.1-.3-.2-.7-.2-1.2v-2.9h-.8v-1.1h.8l.1-1.5h1.2v1.5h1.7v1.1Zm-4.5 2.3c-.4-.1-.7-.1-1-.1c-.8 0-1.7 .2-1.7 1.1c0 .7 .5 .9 1.1 .9c.6 0 1.1-.3 1.6-.7Zm.1 2.8v-.6c-.5 .5-1.1 .7-1.8 .7c-1.2 0-2.2-.6-2.2-1.9c0-1.5 1.4-2 2.7-2c.3 0 .7 0 1.2 .1v-.2c0-.9-.4-1.4-1.4-1.4c-.7 0-1.4 .3-1.9 .5l-.4-1c.7-.3 1.6-.6 2.5-.6c1.8 0 2.5 1 2.5 2.6v3.8Zm-6.9 0v-3.1c0-.6 0-1.2-.2-1.6c-.2-.3-.5-.5-1-.5c-.6 0-1.2 .4-1.6 .9c0 .3 0 .7 0 1.1v3.2h-1.2v-3.1c0-.6 0-1.3-.3-1.7c-.2-.3-.5-.4-.9-.4c-.6 0-1.2 .5-1.6 1v4.2h-1.3v-6.2H798l.1 .9c.4-.7 1.2-1.1 1.9-1.1c.7 0 1.3 .3 1.7 .9c0 .1 .1 .2 .1 .3c.6-.8 1.3-1.2 2.1-1.2c.8 0 1.4 .3 1.7 .8c.5 .6 .6 1.4 .6 2.4v3.2Zm-11.2-5.2c.3-.7 .9-1.2 1.5-1.2c.3 0 .5 .1 .7 .1l-.2 1.3c-.2-.1-.4-.1-.6-.1c-.6 0-1.1 .3-1.4 .9v4.2h-1.3v-6.2h1.2Zm-5.9 0c-1.1 0-1.9 .9-1.9 2.1c0 1.1 .8 2.1 1.9 2.1c1.1 0 1.9-1 1.9-2.1c0-1.2-.8-2.1-1.9-2.1m3.2 2.1c0 1.8-1.4 3.2-3.2 3.2c-1.9 0-3.2-1.4-3.2-3.2c0-1.8 1.3-3.3 3.2-3.3c1.8 0 3.2 1.5 3.2 3.3m-6.9-4.9c-.2-.1-.5-.2-.8-.2c-.3 0-.5 .1-.6 .2c-.3 .2-.3 .6-.3 1.1v.7H784v1.1h-1.6v5.1h-1.3v-5.1h-.7v-1.1h.7v-.8c0-.7 .2-1.2 .4-1.6c.3-.5 .9-.7 1.7-.7c.4 0 .9 .1 1.3 .3Zm-9.4 1.8v1c.5-.8 1.2-1.2 2-1.2c.8 0 1.4 .3 1.8 .8c.4 .6 .5 1.4 .5 2.4v3.2h-1.2v-3.1c0-.6-.1-1.2-.3-1.6c-.2-.3-.6-.5-1.1-.5c-.6 0-1.3 .4-1.7 1.1v4.1h-1.2v-6.2Zm-4.4 0h1.2v6.2h-1.2v-6.2Zm0-2.4h1.2v1.3h-1.2v-1.3Zm-5.1 8.6H764v-9.2h1.2v9.2Zm-4.4-2.8c-.4-.1-.7-.1-1-.1c-.7 0-1.7 .2-1.7 1.1c0 .7 .6 .9 1.2 .9c.6 0 1.1-.3 1.5-.7Zm.1 2.8v-.6c-.5 .5-1.1 .7-1.8 .7c-1.2 0-2.2-.6-2.2-1.9c0-1.5 1.4-2 2.7-2c.3 0 .7 0 1.2 .1v-.2c0-.9-.4-1.4-1.4-1.4c-.7 0-1.4 .3-1.9 .5l-.4-1c.7-.3 1.6-.6 2.5-.6c1.8 0 2.5 1 2.5 2.6v3.8Zm-9.9-6.2v1c.5-.8 1.2-1.2 2-1.2c.8 0 1.4 .3 1.8 .8c.4 .6 .5 1.4 .5 2.4v3.2h-1.2v-3.1c0-.6-.1-1.2-.3-1.6c-.2-.3-.5-.5-1-.5c-.7 0-1.4 .4-1.8 1.1v4.1h-1.2v-6.2Zm-5.9 1c-1.1 0-1.9 .9-1.9 2.1c0 1.1 .8 2.1 1.9 2.1c1.1 0 1.9-1 1.9-2.1c0-1.2-.8-2.1-1.9-2.1m3.2 2.1c0 1.8-1.3 3.2-3.2 3.2c-1.8 0-3.1-1.4-3.1-3.2c0-1.8 1.3-3.3 3.1-3.3c1.9 0 3.2 1.5 3.2 3.3m-9.1-3.1h1.3v6.2h-1.3Zm0-2.4h1.3v1.3h-1.3v-1.3Zm-3 3.5v2.7c0 .1 0 .3 0 .5c.1 .5 .3 .9 .8 .9c.3 0 .5-.1 .7-.2l.4 1c-.3 .2-.8 .3-1.2 .3c-.9 0-1.5-.4-1.7-1.1c-.2-.3-.2-.7-.2-1.2v-2.9h-.8v-1.1h.8v-1.5h1.2v1.5h1.7v1.1Zm-4.5-1.1h1.2v6.2h-1.2v-6.2Zm0-2.4h1.2v1.3h-1.2v-1.3Zm-4.9 3.4c-1.4 0-2 1.1-2 2.1c0 1.1 .7 2.1 1.9 2.1c.7 0 1.5-.4 1.8-1.1V1058c-.4-.6-1.1-.9-1.7-.9m2.9 5.2h-1.2v-.8c-.4 .6-1.2 .9-2 .9c-1.7 0-3-1.4-3-3.2c0-1.7 1.2-3.3 3.1-3.3c.7 0 1.4 .3 1.9 .9v-3.7h1.2Zm-10.6-5.2c-1.4 0-2 1.1-2 2.1c0 1.1 .7 2.1 1.9 2.1c.7 0 1.5-.4 1.8-1.1V1058c-.4-.6-1.1-.9-1.7-.9m2.9 5.2h-1.2v-.8c-.4 .6-1.2 .9-2 .9c-1.7 0-3-1.4-3-3.2c0-1.7 1.2-3.3 3.1-3.3c.7 0 1.4 .3 1.9 .9v-3.7H722Zm-8.9-2.8c-.4-.1-.7-.1-1-.1c-.7 0-1.7 .2-1.7 1.1c0 .7 .6 .9 1.2 .9c.6 0 1.1-.3 1.5-.7Zm.1 2.8v-.6c-.5 .5-1.1 .7-1.8 .7c-1.2 0-2.2-.6-2.2-1.9c0-1.5 1.4-2 2.7-2c.3 0 .7 0 1.2 .1v-.2c0-.9-.4-1.4-1.4-1.4c-.7 0-1.4 .3-1.9 .5l-.4-1c.7-.3 1.7-.6 2.5-.6c1.8 0 2.5 1 2.5 2.6v3.8Zm-9.9-4.3c-.4-.6-1.1-.9-1.7-.9c-1.3 0-2 1-2 2c0 1.1 .8 2 2 2c.6 0 1.4-.3 1.7-1.1Zm-1.9 4.3c-1.8 0-3.1-1.4-3.1-3.2c0-1.7 1.3-3.2 3.1-3.2c.7 0 1.5 .4 2 .9v-.7h1.2v5.8c0 .7-.1 1.2-.4 1.7c-.5 1-1.6 1.4-2.7 1.4c-1 0-2-.3-2.8-.8l.5-1.1c.6 .5 1.5 .8 2.2 .8c1 0 1.9-.5 1.9-1.8v-.8c-.4 .7-1.2 1-1.9 1m-8.8-6.2v1c.5-.8 1.2-1.2 2-1.2c.8 0 1.4 .3 1.8 .8c.4 .6 .5 1.4 .5 2.4v3.2h-1.2v-3.1c0-.6 0-1.2-.3-1.6c-.2-.3-.5-.5-1-.5c-.7 0-1.3 .4-1.7 1.1v4.1h-1.3v-6.2Zm-4.4 0h1.2v6.2h-1.2v-6.2Zm0-2.4h1.2v1.3h-1.2v-1.3Zm-3.7 7v0l1.2-4.6H687l-1.8 6.2h-1.3l-1.2-4.5h-.1l-1.2 4.5H680l-1.7-6.2h1.3l1.1 4.6l1.3-4.6h1.3Zm-10.1-3.6c-1.1 0-1.9 .9-1.9 2.1c0 1.1 .8 2.1 1.9 2.1c1.1 0 1.9-1 1.9-2.1c0-1.2-.8-2.1-1.9-2.1m3.2 2.1c0 1.8-1.4 3.2-3.2 3.2c-1.8 0-3.1-1.4-3.1-3.2c0-1.8 1.3-3.3 3.1-3.3c1.8 0 3.2 1.5 3.2 3.3m-7.8 3.1h-1.3v-9.2h1.3Zm-3.2 0h-1.3v-9.2h1.3v9.2Zm-5.9-5.2c-1.1 0-1.9 .9-1.9 2.1c0 1.1 .8 2.1 1.9 2.1c1.1 0 1.9-1 1.9-2.1c0-1.2-.8-2.1-1.9-2.1m3.1 2.1c0 1.8-1.3 3.2-3.1 3.2c-1.9 0-3.2-1.4-3.2-3.2c0-1.8 1.3-3.3 3.2-3.3c1.8 0 3.1 1.5 3.1 3.3m-6.8-4.9c-.2-.1-.5-.2-.8-.2c-.3 0-.5 .1-.6 .2c-.3 .2-.3 .6-.3 1.1v.7h1.6v1.1h-1.6v5.1H654v-5.1h-.7v-1.1h.7v-.8c0-.7 .1-1.2 .4-1.6c.3-.5 .9-.7 1.7-.7c.4 0 .9 .1 1.3 .3Zm-10.6 2.7c-.9 0-1.5 .7-1.7 1.5H648c-.1-.8-.7-1.5-1.6-1.5m.1 4.4c.8 0 1.4-.3 1.8-1l.8 .6c-.6 1-1.4 1.4-2.7 1.4c-1.9 0-3.1-1.4-3.1-3.2c0-1.8 1.4-3.3 3.1-3.3c1.7 0 2.9 1.3 2.9 2.9c0 .2-.1 .5-.1 .7h-4.6c.1 1 .8 1.9 1.9 1.9m-8.9-4.4c.5-.7 1.2-1.1 2-1.1c.8 0 1.4 .3 1.8 .8c.4 .6 .5 1.4 .5 2.4v3.2h-1.2v-3.1c0-.6-.1-1.2-.3-1.6c-.2-.3-.5-.5-1.1-.5c-.6 0-1.3 .4-1.7 1.1v4.1h-1.2v-9.2h1.2Zm-4.2 .2v2.7c0 .1 0 .3 0 .5c0 .5 .2 .9 .8 .9c.2 0 .5-.1 .7-.2l.3 1c-.3 .2-.8 .3-1.2 .3c-.9 0-1.5-.4-1.7-1.1c-.1-.3-.2-.7-.2-1.2v-2.9h-.8v-1.1h.8l.1-1.5h1.2v1.5h1.7v1.1Zm-8.7-.2c-1 0-1.6 .7-1.8 1.5h3.3c0-.8-.7-1.5-1.5-1.5m0 4.4c.8 0 1.4-.3 1.8-1l.9 .6c-.7 1-1.5 1.4-2.8 1.4c-1.9 0-3-1.4-3-3.2c0-1.8 1.3-3.3 3-3.3c1.7 0 2.9 1.3 2.9 2.9c0 .2 0 .5 0 .7h-4.7c.1 1 .8 1.9 1.9 1.9m-7.6-4.3c-1.3 0-1.9 1.1-1.9 2.1c0 1.1 .7 2.1 1.9 2.1c.6 0 1.4-.4 1.7-1.1V1058c-.4-.6-1.1-.9-1.7-.9m3 5.2h-1.2v-.8c-.5 .6-1.3 .9-2 .9c-1.7 0-3-1.4-3-3.2c0-1.7 1.2-3.3 3-3.3c.7 0 1.4 .3 1.9 .9v-3.7h1.3Zm-9-6.2h1.3v6.2h-1.3v-6.2Zm0-2.4h1.3v1.3h-1.3v-1.3Zm-1 2.4l-2.4 6.2h-1.1l-2.4-6.2h1.4l1.6 4.6l1.5-4.6Zm-9.6 1c-1.1 0-1.9 .9-1.9 2.1c0 1.1 .8 2.1 1.9 2.1c1.1 0 1.9-1 1.9-2.1c0-1.2-.8-2.1-1.9-2.1m3.2 2.1c0 1.8-1.4 3.2-3.2 3.2c-1.8 0-3.2-1.4-3.2-3.2c0-1.8 1.4-3.3 3.2-3.3c1.8 0 3.2 1.5 3.2 3.3m-9.1-2.1c.4-.7 .9-1.2 1.6-1.2c.2 0 .5 .1 .7 .1l-.3 1.3c-.2-.1-.3-.1-.6-.1c-.6 0-1 .3-1.4 .9v4.2h-1.2v-6.2h1.2Zm-7.7 3.3c.5 .6 1.1 .9 1.8 .9c1.3 0 1.9-1.1 1.9-2.1c0-1.1-.7-2.1-1.9-2.1c-.7 0-1.4 .3-1.8 1.1Zm0-4.3v.8c.5-.6 1.3-1 2-1c1.7 0 3 1.5 3 3.3c0 1.7-1.2 3.2-3 3.2c-.7 0-1.5-.3-2-.8v3.7h-1.2v-9.2Zm-6.9 7.8h-1.2l.6-3.1h1.4Zm-3.5-10.2h1.4l-.8 3.2h-1.2Zm-4.1 5.4v-3.2c-.6 1-1.7 2.5-2.2 3.2Zm0 3.2v-2.1h-3.6V1059c1.1-1.4 2.5-3.3 3.6-4.8h1.3v4.9h1.2v1.1h-1.2v2.1Zm-8.8-4.1c0 2.1 .5 3.1 1.5 3.1c1.1 0 1.6-1 1.6-3.1c0-2-.5-3-1.6-3c-1 0-1.5 1-1.5 3m4.5 0c0 2.6-1.1 4.2-3 4.2c-1.8 0-2.9-1.6-2.9-4.2c0-2.6 1.1-4.2 2.9-4.2c1.9 0 3 1.6 3 4.2m-11.3 0c0 2.1 .6 3.1 1.6 3.1c1 0 1.6-1 1.6-3.1c0-2-.6-3-1.6-3c-1 0-1.6 1-1.6 3m4.5 0c0 2.6-1 4.2-2.9 4.2c-1.9 0-2.9-1.6-2.9-4.2c0-2.6 1-4.2 2.9-4.2c1.9 0 2.9 1.6 2.9 4.2m-7.6-1.3h-1.4l.8-3.2h1.2Zm-7.4 .2c.4-.7 .9-1.2 1.6-1.2c.3 0 .5 .1 .7 .1l-.3 1.3c-.1-.1-.3-.1-.5-.1c-.6 0-1.1 .3-1.4 .9v4.2h-1.3v-6.2h1.2Zm-5.9 0c-1.1 0-1.8 .9-1.8 2.1c0 1.1 .7 2.1 1.8 2.1c1.1 0 1.9-1 1.9-2.1c0-1.2-.8-2.1-1.9-2.1m3.2 2.1c0 1.8-1.3 3.2-3.2 3.2c-1.8 0-3.1-1.4-3.1-3.2c0-1.8 1.3-3.3 3.1-3.3c1.9 0 3.2 1.5 3.2 3.3m-12-5.5H533l-.8 3.2H531ZM527 1057c-1 0-1.6 .7-1.8 1.5h3.3c-.1-.8-.7-1.5-1.5-1.5m0 4.4c.8 0 1.4-.3 1.8-1l.9 .6c-.7 1-1.5 1.4-2.8 1.4c-1.9 0-3-1.4-3-3.2c0-1.8 1.3-3.3 3-3.3c1.7 0 2.9 1.3 2.9 2.9c0 .2 0 .5-.1 .7h-4.6c.1 1 .8 1.9 1.9 1.9m-3.9 .4c-.5 .4-1.2 .6-2 .6c-1.8 0-3.2-1.3-3.2-3.2c0-1.8 1.4-3.3 3.2-3.3c.8 0 1.4 .3 1.9 .6l-.6 1c-.4-.2-.8-.4-1.3-.4c-1 0-1.9 .9-1.9 2.1c0 1.2 .9 2.1 1.9 2.1c.5 0 1-.2 1.3-.5Zm-10.9-5.7v1c.5-.8 1.2-1.2 2-1.2c.8 0 1.4 .3 1.8 .8c.4 .6 .5 1.4 .5 2.4v3.2h-1.2v-3.1c0-.6-.1-1.2-.3-1.6c-.2-.3-.5-.5-1-.5c-.7 0-1.4 .4-1.8 1.1v4.1H511v-6.2Zm-4.4 3.4c-.4-.1-.7-.1-1-.1c-.7 0-1.7 .2-1.7 1.1c0 .7 .6 .9 1.2 .9c.6 0 1.1-.3 1.5-.7Zm.1 2.8v-.6c-.5 .5-1.1 .7-1.8 .7c-1.2 0-2.2-.6-2.2-1.9c0-1.5 1.4-2 2.7-2c.3 0 .7 0 1.2 .1v-.2c0-.9-.4-1.4-1.4-1.4c-.7 0-1.4 .3-1.9 .5l-.4-1c.7-.3 1.6-.6 2.5-.6c1.8 0 2.5 1 2.5 2.6v3.8Zm-6.7-5.1v2.7c0 .1 0 .3 0 .5c.1 .5 .3 .9 .8 .9c.3 0 .5-.1 .7-.2l.4 1c-.3 .2-.8 .3-1.3 .3c-.8 0-1.4-.4-1.7-1.1c-.1-.3-.1-.7-.1-1.2v-2.9h-.8v-1.1h.8v-1.5h1.2v1.5h1.7v1.1Zm-4.3 0v2.7c0 .1 0 .3 0 .5c0 .5 .2 .9 .8 .9c.3 0 .5-.1 .7-.2l.4 1c-.4 .2-.8 .3-1.3 .3c-.9 0-1.4-.4-1.7-1.1c-.1-.3-.2-.7-.2-1.2v-2.9h-.8v-1.1h.8l.1-1.5h1.2v1.5h1.7v1.1Zm-4.5-1.1h1.2v6.2h-1.2v-6.2Zm0-2.4h1.2v1.3h-1.2v-1.3Zm-3.2 8.6v-3.1c0-.6 0-1.2-.3-1.6c-.2-.3-.5-.5-1-.5c-.5 0-1.1 .4-1.6 .9c.1 .3 .1 .7 .1 1.1v3.2h-1.3v-3.1c0-.6 0-1.3-.3-1.7c-.1-.3-.4-.4-.9-.4c-.6 0-1.2 .5-1.6 1v4.2h-1.2v-6.2h1.2v.9c.5-.7 1.2-1.1 1.9-1.1c.7 0 1.3 .3 1.7 .9c.1 .1 .1 .2 .2 .3c.5-.8 1.3-1.2 2.1-1.2c.8 0 1.3 .3 1.7 .8c.4 .6 .6 1.4 .6 2.4v3.2Zm-12.4-5.3c-1 0-1.6 .7-1.8 1.5h3.3c0-.8-.7-1.5-1.5-1.5m0 4.4c.8 0 1.4-.3 1.8-1l.9 .6c-.7 1-1.5 1.4-2.8 1.4c-1.9 0-3-1.4-3-3.2c0-1.8 1.3-3.3 3-3.3c1.7 0 2.9 1.3 2.9 2.9c0 .2 0 .5 0 .7h-4.7c.1 1 .8 1.9 1.9 1.9m-8.8-3.8h1c1.1 0 1.9-.4 1.9-1.4c0-.8-.7-1.3-1.6-1.3H468Zm1.3-3.9c1.3 0 3 .7 3 2.5c0 1.4-1 2.2-2 2.4l2.6 3.7h-1.6l-2.5-3.6H468v3.6h-1.3v-8.6Zm-5 3.2h-1.4l.8-3.2h1.2Zm-6.7 .5c-.3-.2-.8-.4-1.2-.4c-.5 0-.8 .3-.8 .7c0 .5 .5 .7 1.1 .9c.8 .3 1.8 .8 1.8 1.9c0 1.3-1.1 1.9-2.3 1.9c-.9 0-1.7-.3-2.2-1l.8-.7c.5 .5 .9 .7 1.4 .7c.5 0 1-.3 1-.9c0-.4-.5-.7-1.1-.9c-.8-.3-1.8-.7-1.8-1.8c0-1.3 1-1.9 2.1-1.9c.7 0 1.4 .3 2 .8Zm-6.3-1.3h1.3v6.2h-1.3v-6.2Zm0-2.4h1.3v1.3h-1.3v-1.3Zm-6.1 0h1.4l-.9 3.2h-1.2Zm-2.9 3.7c-.3-.2-.8-.4-1.2-.4c-.5 0-.8 .3-.8 .7c0 .5 .5 .7 1.1 .9c.8 .3 1.8 .8 1.8 1.9c0 1.3-1.1 1.9-2.3 1.9c-.9 0-1.7-.3-2.2-1l.8-.7c.5 .5 .9 .7 1.4 .7c.5 0 1-.3 1-.9c0-.4-.5-.7-1.1-.9c-.8-.3-1.8-.7-1.8-1.8c0-1.3 1-1.9 2.1-1.9c.7 0 1.4 .3 1.9 .8Zm-8-.3c-1.4 0-2 1.1-2 2.1c0 1.1 .8 2.1 2 2.1c.6 0 1.4-.4 1.7-1.1V1058c-.4-.6-1.1-.9-1.7-.9m3 5.2h-1.2l-.1-.8c-.4 .6-1.2 .9-1.9 .9c-1.8 0-3.1-1.4-3.1-3.2c0-1.7 1.2-3.3 3.1-3.3c.7 0 1.4 .3 1.9 .9v-3.7h1.3Zm-12-6.2v1c.5-.8 1.2-1.2 2-1.2c.8 0 1.4 .3 1.8 .8c.4 .6 .5 1.4 .5 2.4v3.2h-1.2v-3.1c0-.6-.1-1.2-.3-1.6c-.2-.3-.5-.5-1.1-.5c-.6 0-1.3 .4-1.7 1.1v4.1h-1.2v-6.2Zm-4.4 6.2v-1c-.5 .7-1.2 1.1-2 1.1c-.8 0-1.4-.3-1.8-.8c-.4-.5-.5-1.4-.5-2.3v-3.2h1.2v3.1c0 .6 0 1.2 .3 1.6c.2 .3 .5 .5 1 .5c.7 0 1.3-.5 1.8-1.1v-4.1h1.2v6.2Zm-8.9-3.6v3.6h-1.3v-8.6h4.4v1.2H412v2.6h3.1v1.2Zm-5.5-4.4c-.2-.1-.4-.2-.8-.2c-.3 0-.5 .1-.6 .2c-.3 .2-.3 .6-.3 1.1v.7h1.6v1.1h-1.6v5.1h-1.3v-5.1h-.7v-1.1h.7v-.8c0-.7 .2-1.2 .4-1.6c.4-.5 .9-.7 1.7-.7c.5 0 .9 .1 1.3 .3Zm-7.8 2.8c-1.1 0-1.9 .9-1.9 2.1c0 1.1 .8 2.1 1.9 2.1c1.1 0 1.9-1 1.9-2.1c0-1.2-.8-2.1-1.9-2.1m3.1 2.1c0 1.8-1.3 3.2-3.1 3.2c-1.9 0-3.2-1.4-3.2-3.2c0-1.8 1.3-3.3 3.2-3.3c1.8 0 3.1 1.5 3.1 3.3m-13.2-2.2c-.9 0-1.5 .7-1.7 1.5h3.3c-.1-.8-.7-1.5-1.6-1.5m0 4.4c.9 0 1.5-.3 1.8-1l.9 .6c-.6 1-1.4 1.4-2.7 1.4c-2 0-3.1-1.4-3.1-3.2c0-1.8 1.4-3.3 3.1-3.3c1.6 0 2.9 1.3 2.9 2.9c0 .2-.1 .5-.1 .7h-4.6c.1 1 .7 1.9 1.8 1.9m-3.9 .4c-.5 .4-1.2 .6-1.9 .6c-1.8 0-3.2-1.3-3.2-3.2c0-1.8 1.4-3.3 3.2-3.3c.7 0 1.3 .3 1.9 .6l-.6 1c-.4-.2-.8-.4-1.3-.4c-1.1 0-1.9 .9-1.9 2.1c0 1.2 .9 2.1 1.9 2.1c.4 0 .9-.2 1.3-.5Zm-7.8-4.7c.4-.7 .9-1.2 1.6-1.2c.2 0 .4 .1 .7 .1l-.3 1.3c-.2-.1-.3-.1-.6-.1c-.6 0-1 .3-1.4 .9v4.2h-1.2v-6.2h1.2Zm-4.4 5.2v-1c-.5 .7-1.2 1.1-2 1.1c-.8 0-1.4-.3-1.8-.8c-.4-.5-.5-1.4-.5-2.3v-3.2h1.2v3.1c0 .6 0 1.2 .3 1.6c.2 .3 .5 .5 1 .5c.7 0 1.3-.5 1.8-1.1v-4.1h1.2v6.2Zm-8.9-5.2c-1.1 0-1.9 .9-1.9 2.1c0 1.1 .8 2.1 1.9 2.1c1.1 0 1.9-1 1.9-2.1c0-1.2-.8-2.1-1.9-2.1m3.2 2.1c0 1.8-1.4 3.2-3.2 3.2c-1.9 0-3.2-1.4-3.2-3.2c0-1.8 1.3-3.3 3.2-3.3c1.8 0 3.2 1.5 3.2 3.3m-10.5-4.5c-.8 0-1.4 .4-1.4 1.1c0 .8 .8 1 1.7 1.3c1.2 .4 2.6 1 2.6 2.7c0 1.9-1.7 2.6-3.1 2.6c-1.2 0-2.2-.4-3.1-1.3l.9-.9c.8 .8 1.4 1.1 2.2 1.1c.9 0 1.7-.4 1.7-1.4c0-.9-.9-1.2-1.8-1.6c-1.2-.4-2.4-.9-2.4-2.4c0-1.6 1.2-2.3 2.6-2.3c1 0 1.9 .3 2.7 .9l-.8 .9c-.4-.3-1.1-.7-1.8-.7m-5.2 2.2h-1.4l.9-3.2h1.2Zm-5.1-2.6c-.2-.1-.5-.2-.8-.2c-.3 0-.5 .1-.7 .2c-.2 .2-.2 .6-.2 1.1v.7h1.6v1.1h-1.6v5.1H343v-5.1h-.7v-1.1h.7v-.8c0-.7 .1-1.2 .4-1.6c.3-.5 .8-.7 1.7-.7c.4 0 .9 .1 1.3 .3Zm-6.6-.6h1.3v8.6h-1.3v-8.6Z" class="g1_1"/>
<g clip-path="url(#cy_1)">
<path d="M254.8 228.6c0-4.2-3.4-7.6-7.6-7.6c-4.2 0-7.5 3.4-7.5 7.6c0 4.1 3.3 7.5 7.5 7.5c4.2 0 7.6-3.4 7.6-7.5Z" class="g3_1"/>
<path d="M254 228.6c0-3.8-3-6.8-6.8-6.8c-3.7 0-6.8 3-6.8 6.8c0 3.7 3.1 6.7 6.8 6.7c3.8 0 6.8-3 6.8-6.7Z" class="g9_1"/>
</g>
<path d="M250.9 224.8c-2-2-5.3-2-7.4 0c-2.1 2.1-2.1 5.4 0 7.5" class="ga_1"/>
<path d="M243.5 232.3c2.1 2 5.4 2 7.4 0c2.1-2.1 2.1-5.4 0-7.5" class="gb_1"/>
<path d="M301.7 228.3c0-4.2-3.5-7.6-7.7-7.6c-4.2 0-7.7 3.4-7.7 7.6c0 4.3 3.5 7.7 7.7 7.7c4.2 0 7.7-3.4 7.7-7.7Z" class="g3_1"/>
<path clip-path="url(#cz_1)" d="M300.9 228.3c0-3.8-3.1-6.9-6.9-6.9c-3.8 0-6.9 3.1-6.9 6.9c0 3.9 3.1 6.9 6.9 6.9c3.8 0 6.9-3 6.9-6.9Z" class="g9_1"/>
<path d="M297.8 224.5c-2.1-2.1-5.5-2.1-7.6 0c-2.1 2.1-2.1 5.5 0 7.6" class="ga_1"/>
<path d="M290.2 232.1c2.1 2.1 5.5 2.1 7.6 0c2.1-2.1 2.1-5.5 0-7.6" class="gb_1"/>
<g clip-path="url(#c10_1)">
<path d="M486.3 911.8c0-4.3-3.5-7.8-7.8-7.8c-4.3 0-7.8 3.5-7.8 7.8c0 4.3 3.5 7.8 7.8 7.8c4.3 0 7.8-3.5 7.8-7.8Z" class="g3_1"/>
<path d="M485.5 911.8c0-3.9-3.1-7-7-7c-3.9 0-7.1 3.1-7.1 7c0 3.9 3.2 7 7.1 7c3.9 0 7-3.1 7-7Z" class="g9_1"/>
</g>
<path d="M482.4 907.9c-2.2-2.1-5.7-2.1-7.8 0c-2.2 2.2-2.2 5.7 0 7.8" class="gc_1"/>
<path d="M474.6 915.7c2.1 2.2 5.6 2.2 7.8 0c2.1-2.1 2.1-5.6 0-7.8" class="gd_1"/>
<path d="M486.3 935.8c0-4.3-3.5-7.8-7.8-7.8c-4.3 0-7.8 3.5-7.8 7.8c0 4.4 3.5 7.9 7.8 7.9c4.3 0 7.8-3.5 7.8-7.9Z" class="g3_1"/>
<path d="M485.6 935.8c0-3.9-3.2-7-7.1-7c-3.9 0-7.1 3.1-7.1 7c0 3.9 3.2 7.1 7.1 7.1c3.9 0 7.1-3.2 7.1-7.1Z" class="g9_1"/>
<path d="M482.4 931.9c-2.1-2.1-5.7-2.1-7.8 0c-2.2 2.2-2.2 5.7 0 7.9" class="gc_1"/>
<path d="M474.6 939.8c2.1 2.1 5.7 2.1 7.8 0c2.2-2.2 2.2-5.7 0-7.9" class="gd_1"/>
<g clip-path="url(#c11_1)">
<path d="M59.8 974.4c0-4.3-3.5-7.7-7.8-7.7c-4.2 0-7.7 3.4-7.7 7.7c0 4.2 3.5 7.7 7.7 7.7c4.3 0 7.8-3.5 7.8-7.7Z" class="g3_1"/>
<path d="M59 974.4c0-3.9-3.1-7-7-7c-3.8 0-6.9 3.1-6.9 7c0 3.8 3.1 6.9 6.9 6.9c3.9 0 7-3.1 7-6.9Z" class="g9_1"/>
</g>
<path d="M55.9 970.5c-2.1-2.1-5.6-2.1-7.7 0c-2.1 2.2-2.1 5.6 0 7.7" class="ga_1"/>
<path d="M48.2 978.2c2.1 2.1 5.6 2.1 7.7 0c2.1-2.1 2.1-5.5 0-7.7" class="gb_1"/>
<path clip-path="url(#c12_1)" d="M59.2 998.9c0-4.2-3.4-7.6-7.6-7.6c-4.2 0-7.6 3.4-7.6 7.6c0 4.2 3.4 7.6 7.6 7.6c4.2 0 7.6-3.4 7.6-7.6Z" class="g3_1"/>
<path d="M58.4 998.9c0-3.7-3-6.8-6.8-6.8c-3.8 0-6.8 3.1-6.8 6.8c0 3.8 3 6.8 6.8 6.8c3.8 0 6.8-3 6.8-6.8Z" class="g9_1"/>
<path d="M55.3 995.2c-2-2.1-5.4-2.1-7.5 0c-2 2-2 5.4 0 7.5" class="gc_1"/>
<path d="M47.8 1002.7c2.1 2 5.5 2 7.5 0c2.1-2.1 2.1-5.5 0-7.5" class="gd_1"/>
<g clip-path="url(#c13_1)">
<path d="M212.3 1230.7c0-4.3-3.4-7.7-7.6-7.7c-4.3 0-7.7 3.4-7.7 7.7c0 4.2 3.4 7.6 7.7 7.6c4.2 0 7.6-3.4 7.6-7.6Z" class="g3_1"/>
<path d="M211.6 1230.7c0-3.8-3.1-6.9-6.9-6.9c-3.8 0-6.9 3.1-6.9 6.9c0 3.8 3.1 6.9 6.9 6.9c3.8 0 6.9-3.1 6.9-6.9Z" class="g9_1"/>
</g>
<path d="M208.5 1226.9c-2.1-2.1-5.5-2.1-7.6 0c-2.1 2.1-2.1 5.5 0 7.6" class="ga_1"/>
<path d="M200.9 1234.5c2.1 2.1 5.5 2.1 7.6 0c2.1-2.1 2.1-5.5 0-7.6" class="gb_1"/>
<g clip-path="url(#c14_1)">
<path d="M212 1254.3c0-4.2-3.4-7.6-7.7-7.6c-4.2 0-7.6 3.4-7.6 7.6c0 4.3 3.4 7.7 7.6 7.7c4.3 0 7.7-3.4 7.7-7.7Z" class="g3_1"/>
<path d="M211.2 1254.3c0-3.8-3.1-6.9-6.9-6.9c-3.8 0-6.9 3.1-6.9 6.9c0 3.8 3.1 6.9 6.9 6.9c3.8 0 6.9-3.1 6.9-6.9Z" class="g9_1"/>
</g>
<path d="M208.1 1250.5c-2.1-2.1-5.5-2.1-7.6 0c-2.1 2.1-2.1 5.5 0 7.6" class="gc_1"/>
<path d="M200.5 1258.1c2.1 2.1 5.5 2.1 7.6 0c2.1-2.1 2.1-5.5 0-7.6" class="gd_1"/>
<path d="M376.5 1230.3c0-4.4-3.5-8-7.9-8c-4.4 0-7.9 3.6-7.9 8c0 4.3 3.5 7.9 7.9 7.9c4.4 0 7.9-3.6 7.9-7.9Z" class="g3_1"/>
<path d="M375.7 1230.3c0-4-3.2-7.2-7.1-7.2c-4 0-7.2 3.2-7.2 7.2c0 3.9 3.2 7.1 7.2 7.1c3.9 0 7.1-3.2 7.1-7.1Z" class="g9_1"/>
<path d="M372.6 1226.3c-2.2-2.2-5.8-2.2-8 0c-2.2 2.2-2.2 5.7 0 7.9" class="gc_1"/>
<path d="M364.6 1234.2c2.2 2.2 5.8 2.2 8 0c2.2-2.2 2.2-5.7 0-7.9" class="gd_1"/>
<path d="M376.5 1254.1c0-4.3-3.5-7.8-7.7-7.8c-4.3 0-7.8 3.5-7.8 7.8c0 4.3 3.5 7.7 7.8 7.7c4.2 0 7.7-3.4 7.7-7.7Z" class="g3_1"/>
<path d="M375.7 1254.1c0-3.9-3.1-7-6.9-7c-3.9 0-7 3.1-7 7c0 3.8 3.1 7 7 7c3.8 0 6.9-3.2 6.9-7Z" class="g9_1"/>
<path d="M372.6 1250.2c-2.1-2.1-5.6-2.1-7.7 0c-2.1 2.2-2.1 5.6 0 7.7" class="gc_1"/>
<path d="M364.9 1257.9c2.1 2.2 5.6 2.2 7.7 0c2.1-2.1 2.1-5.5 0-7.7" class="gd_1"/>
<path clip-path="url(#c15_1)" d="M540.3 1230.2c0-4.4-3.5-7.9-7.8-7.9c-4.3 0-7.8 3.5-7.8 7.9c0 4.3 3.5 7.8 7.8 7.8c4.3 0 7.8-3.5 7.8-7.8Z" class="g3_1"/>
<path d="M539.6 1230.2c0-3.9-3.2-7.1-7.1-7.1c-3.9 0-7.1 3.2-7.1 7.1c0 3.9 3.2 7.1 7.1 7.1c3.9 0 7.1-3.2 7.1-7.1Z" class="g9_1"/>
<path d="M536.4 1226.3c-2.1-2.2-5.6-2.2-7.8 0c-2.2 2.1-2.2 5.6 0 7.8" class="gc_1"/>
<path d="M528.6 1234.1c2.2 2.2 5.7 2.2 7.8 0c2.2-2.2 2.2-5.7 0-7.8" class="gd_1"/>
<g clip-path="url(#c16_1)">
<path d="M578.5 911.3c0-4.3-3.5-7.8-7.8-7.8c-4.4 0-7.9 3.5-7.9 7.8c0 4.4 3.5 7.9 7.9 7.9c4.3 0 7.8-3.5 7.8-7.9Z" class="g3_1"/>
<path d="M577.7 911.3c0-3.9-3.1-7-7-7c-3.9 0-7.1 3.1-7.1 7c0 3.9 3.2 7.1 7.1 7.1c3.9 0 7-3.2 7-7.1Z" class="g9_1"/>
</g>
<path d="M574.6 907.4c-2.2-2.2-5.7-2.1-7.9 0c-2.1 2.2-2.1 5.7 0 7.9" class="gc_1"/>
<path d="M566.7 915.3c2.2 2.1 5.7 2.1 7.9 0c2.1-2.2 2.1-5.7 0-7.9" class="gd_1"/>
<g clip-path="url(#c17_1)">
<path d="M578.5 935.8c0-4.3-3.5-7.8-7.8-7.8c-4.3 0-7.8 3.5-7.8 7.8c0 4.3 3.5 7.8 7.8 7.8c4.3 0 7.8-3.5 7.8-7.8Z" class="g3_1"/>
<path d="M577.8 935.8c0-3.9-3.2-7-7.1-7c-3.9 0-7 3.1-7 7c0 3.9 3.1 7.1 7 7.1c3.9 0 7.1-3.2 7.1-7.1Z" class="g9_1"/>
</g>
<path d="M574.6 931.9c-2.1-2.1-5.6-2.1-7.8 0c-2.1 2.2-2.1 5.7 0 7.8" class="ga_1"/>
<path d="M566.8 939.7c2.2 2.2 5.7 2.2 7.8 0c2.2-2.1 2.2-5.6 0-7.8" class="gb_1"/>
<path d="M661.3 911.9c0-4.6-3.8-8.4-8.5-8.4c-4.6 0-8.4 3.8-8.4 8.4c0 4.7 3.8 8.5 8.4 8.5c4.7 0 8.5-3.8 8.5-8.5Z" class="g3_1"/>
<path d="M660.5 911.9c0-4.2-3.4-7.6-7.7-7.6c-4.2 0-7.7 3.4-7.7 7.6c0 4.3 3.5 7.7 7.7 7.7c4.3 0 7.7-3.4 7.7-7.7Z" class="g9_1"/>
<path d="M657.2 907.6c-2.4-2.4-6.3-2.4-8.7 0c-2.4 2.4-2.4 6.3 0 8.7" class="gc_1"/>
<path d="M648.5 916.3c2.4 2.4 6.3 2.4 8.7 0c2.4-2.4 2.4-6.3 0-8.7" class="gd_1"/>
<path d="M660.7 937c0-4.3-3.4-7.8-7.8-7.8c-4.3 0-7.8 3.5-7.8 7.8c0 4.3 3.5 7.8 7.8 7.8c4.4 0 7.8-3.5 7.8-7.8Z" class="g3_1"/>
<path d="M660 937c0-3.9-3.2-7-7.1-7c-3.9 0-7 3.1-7 7c0 3.9 3.1 7.1 7 7.1c3.9 0 7.1-3.2 7.1-7.1Z" class="g9_1"/>
<path d="M656.8 933.1c-2.1-2.1-5.6-2.1-7.8 0c-2.1 2.2-2.1 5.7 0 7.8" class="ga_1"/>
<path d="M649 940.9c2.2 2.2 5.7 2.2 7.8 0c2.2-2.1 2.2-5.6 0-7.8" class="gb_1"/>
<path clip-path="url(#c18_1)" d="M795 911c0-4.4-3.6-8-8-8c-4.4 0-8 3.6-8 8c0 4.4 3.6 8 8 8c4.4 0 8-3.6 8-8Z" class="g3_1"/>
<path d="M794.3 911c0-4-3.3-7.2-7.3-7.2c-4 0-7.2 3.2-7.2 7.2c0 4 3.2 7.3 7.2 7.3c4 0 7.3-3.3 7.3-7.3Z" class="g9_1"/>
<path d="M791 907c-2.2-2.3-5.8-2.3-8 0c-2.3 2.2-2.3 5.8 0 8" class="ga_1"/>
<path d="M783 915c2.2 2.3 5.8 2.3 8 0c2.3-2.2 2.3-5.8 0-8" class="gb_1"/>
<path clip-path="url(#c19_1)" d="M794.8 935.4c0-4.4-3.6-8.1-8-8.1c-4.5 0-8.1 3.7-8.1 8.1c0 4.5 3.6 8.1 8.1 8.1c4.4 0 8-3.6 8-8.1Z" class="g3_1"/>
<path d="M794.1 935.4c0-4-3.3-7.3-7.3-7.3c-4.1 0-7.4 3.3-7.4 7.3c0 4.1 3.3 7.3 7.4 7.3c4 0 7.3-3.2 7.3-7.3Z" class="g9_1"/>
<path d="M790.9 931.3c-2.3-2.2-6-2.2-8.2 0c-2.3 2.3-2.3 6 0 8.2" class="gc_1"/>
<path d="M782.7 939.5c2.2 2.3 5.9 2.3 8.2 0c2.2-2.2 2.2-5.9 0-8.2" class="gd_1"/>
<path d="M435.5 235.3h15.3V220H435.5v15.3Z" class="g3_1"/>
<path d="M436.3 234.5H450V220.8H436.3Z" class="g9_1"/>
<path d="M513.5 235.8h15.8V220H513.5v15.8Z" class="g3_1"/>
<path clip-path="url(#c1a_1)" d="M514.3 235.1h14.3V220.8H514.3Z" class="g9_1"/>
<path d="M578 235h15V220H578v15Z" class="g3_1"/>
<path clip-path="url(#c1b_1)" d="M578.8 234.2h13.4V220.8H578.8Z" class="g9_1"/>
<path d="M643 235.5h15.5V220H643v15.5Z" class="g3_1"/>
<path clip-path="url(#c1c_1)" d="M643.8 234.8h14v-14h-14v14Z" class="g9_1"/>
<path d="M791 236h16V220H791v16Z" class="g3_1"/>
<path clip-path="url(#c1d_1)" d="M791.8 235.2h14.4V220.8H791.8v14.4Z" class="g9_1"/>
</svg>