<svg viewBox="0 0 909 1286" version="1.1" xmlns="http://www.w3.org/2000/svg">
<defs>
<style>
.g0_7{fill:#E8ECF0;}
.g1_7{fill:#D1D8E2;}
.g2_7{fill:#1A3D6D;}
.g3_7{fill:none;stroke:#D1D8E2;stroke-width:1.527;}
.g4_7{fill:none;stroke:#005BAC;stroke-width:1.909;stroke-miterlimit:10;}
.g5_7{fill:none;stroke:#000;stroke-width:0.381;stroke-miterlimit:10;}
</style>
</defs>
<path d="M0 1286.2H909.4V0H0V1286.2Z" class="g0_7"/>
<path d="M0 1286.2H909.4v-48.9H0v48.9Z" class="g1_7"/>
<path d="M0 48.9H909.4V0H0V48.9Z" class="g2_7"/>
<path d="M36.7 468H872.1" class="g3_7"/>
<path d="M843.6 373.6c-1 0-1.5 .7-1.8 1.6h3.3c0-.9-.6-1.6-1.5-1.6m0 4.4c.8 0 1.4-.3 1.8-1l.9 .6c-.6 1-1.5 1.4-2.7 1.4c-2 0-3.1-1.4-3.1-3.2c0-1.8 1.3-3.2 3.1-3.2c1.6 0 2.8 1.2 2.8 2.8c0 .3 0 .5 0 .7h-4.6c0 1 .7 1.9 1.8 1.9m-3.7-5.3l-2.4 6.2h-1.1l-2.3-6.2h1.4l1.5 4.6l1.6-4.6Zm-8.2 0H833v6.2h-1.3v-6.2Zm0-2.4H833v1.3h-1.3v-1.3Zm-6 8.6v-8.6H827v7.4h3.7v1.2Zm-8.1-5.2c-1.3 0-2 1.1-2 2.1c0 1.1 .8 2.1 2 2.1c.6 0 1.4-.4 1.7-1.1v-2.2c-.4-.6-1.1-.9-1.7-.9m3 5.2h-1.2v-.8c-.5 .6-1.3 .9-2 .9c-1.8 0-3-1.4-3-3.2c0-1.7 1.2-3.2 3-3.2c.7 0 1.4 .3 1.9 .8v-3.7h1.3Zm-12-6.2v1c.5-.7 1.2-1.1 2-1.1c.9 0 1.4 .3 1.8 .7c.4 .6 .5 1.4 .5 2.4v3.2h-1.2v-3.1c0-.6 0-1.2-.3-1.6c-.2-.3-.5-.5-1-.5c-.7 0-1.3 .4-1.7 1.1v4.1h-1.3v-6.2Zm-4.4 3.4c-.4-.1-.7-.1-1-.1c-.7 0-1.7 .2-1.7 1.1c0 .7 .6 .9 1.2 .9c.6 0 1.1-.3 1.5-.6Zm.1 2.8v-.6c-.5 .5-1 .7-1.8 .7c-1.1 0-2.2-.6-2.2-1.9c0-1.5 1.4-2 2.7-2c.4 0 .7 0 1.2 .1V375c0-.9-.4-1.4-1.4-1.4c-.7 0-1.4 .3-1.9 .6l-.4-1.1c.7-.3 1.7-.5 2.5-.5c1.8 0 2.5 .9 2.5 2.5v3.8Zm-9.4 1.6h-1.2l.7-3.1h1.4Zm-2.9-6.4c-.2-.3-.7-.5-1.2-.5c-.5 0-.8 .3-.8 .7c0 .5 .5 .7 1.1 .9c.8 .3 1.8 .8 1.8 1.9c0 1.4-1.1 1.9-2.3 1.9c-.8 0-1.6-.3-2.2-1l.9-.7c.4 .5 .8 .7 1.3 .7c.6 0 1.1-.3 1.1-.8c0-.5-.6-.7-1.2-1c-.8-.3-1.7-.7-1.7-1.8c0-1.2 1-1.8 2-1.8c.7 0 1.5 .2 2 .7Zm-6.2 4.8v-3.1c0-.6 0-1.2-.3-1.6c-.2-.3-.5-.5-1-.5c-.6 0-1.2 .4-1.6 .9c.1 .4 .1 .7 .1 1.1v3.2h-1.3v-3.1c0-.6 0-1.2-.3-1.7c-.2-.2-.4-.4-.9-.4c-.6 0-1.2 .5-1.6 1v4.2h-1.2v-6.2h1.2v.9c.5-.6 1.2-1 1.9-1c.7 0 1.3 .2 1.7 .8c.1 .1 .1 .2 .1 .3c.6-.8 1.4-1.1 2.2-1.1c.8 0 1.3 .2 1.7 .7c.4 .6 .5 1.4 .5 2.4v3.2Zm-11.3-5.2c.4-.7 .9-1.1 1.5-1.1c.3 0 .5 0 .8 0l-.3 1.3c-.2-.1-.4-.1-.6-.1c-.6 0-1 .3-1.4 .9v4.2h-1.2v-6.2h1.2Zm-5.9 0c-1.1 0-1.9 .9-1.9 2.1c0 1.1 .8 2.1 1.9 2.1c1.1 0 1.9-1 1.9-2.1c0-1.2-.8-2.1-1.9-2.1m3.2 2.1c0 1.8-1.4 3.2-3.2 3.2c-1.8 0-3.2-1.4-3.2-3.2c0-1.8 1.4-3.2 3.2-3.2c1.8 0 3.2 1.4 3.2 3.2m-6.8-4.9c-.3-.1-.5-.2-.8-.2c-.4 0-.6 .1-.7 .2c-.2 .2-.3 .6-.3 1.1v.7h1.7v1.1h-1.7v5.1H762v-5.1h-.7v-1.1h.7v-.8c0-.6 .1-1.2 .4-1.6c.3-.5 .8-.7 1.6-.7c.5 0 1 .1 1.3 .3Zm-6.3 2.9v2.7c0 .1 0 .3 .1 .5c0 .6 .2 .9 .7 .9c.3 0 .5-.1 .7-.2l.4 1c-.3 .2-.8 .3-1.2 .3c-.9 0-1.5-.4-1.7-1c-.2-.4-.2-.8-.2-1.3v-2.9h-.8v-1.1h.8v-1.4h1.2v1.4h1.7v1.1Zm-4.4 2.3c-.5-.1-.8-.1-1.1-.1c-.7 0-1.7 .2-1.7 1.1c0 .7 .6 .9 1.2 .9c.6 0 1.1-.3 1.6-.6Zm.1 2.8l-.1-.6c-.5 .5-1 .7-1.8 .7c-1.1 0-2.2-.6-2.2-1.9c0-1.5 1.4-2 2.7-2c.4 0 .8 0 1.3 .1V375c0-.9-.5-1.4-1.4-1.4c-.8 0-1.5 .3-2 .6l-.3-1.1c.6-.3 1.6-.5 2.4-.5c1.8 0 2.5 .9 2.5 2.5v3.8Zm-5.7 0h-1.3v-9.2h1.3v9.2Zm-6.9-4.5h.9c1.2 0 2-.4 2-1.4c0-1-.7-1.5-1.7-1.5h-1.2Zm1.2-4.1c1.4 0 3.1 .7 3.1 2.6c0 1.9-1.6 2.6-3.1 2.6h-1.2v3.4h-1.4v-8.6Zm-10.1 3.3c-.9 0-1.5 .7-1.7 1.6h3.3c-.1-.9-.7-1.6-1.6-1.6m.1 4.4c.8 0 1.4-.3 1.8-1l.9 .6c-.7 1-1.5 1.4-2.8 1.4c-1.9 0-3.1-1.4-3.1-3.2c0-1.8 1.4-3.2 3.1-3.2c1.7 0 2.9 1.2 2.9 2.8c0 .3 0 .5-.1 .7h-4.6c.1 1 .8 1.9 1.9 1.9m-5.9-4.3c.4-.7 1-1.1 1.6-1.1c.3 0 .5 0 .7 0l-.2 1.3c-.2-.1-.4-.1-.6-.1c-.6 0-1.1 .3-1.4 .9v4.2h-1.3v-6.2h1.2Zm-4.3 2.4c-.5-.1-.8-.1-1.1-.1c-.7 0-1.7 .2-1.7 1.1c0 .7 .6 .9 1.2 .9c.6 0 1.1-.3 1.6-.6Zm.1 2.8l-.1-.6c-.5 .5-1 .7-1.8 .7c-1.1 0-2.2-.6-2.2-1.9c0-1.5 1.4-2 2.8-2c.3 0 .7 0 1.2 .1V375c0-.9-.5-1.4-1.4-1.4c-.8 0-1.5 .3-2 .6l-.3-1.1c.6-.3 1.6-.5 2.5-.5c1.7 0 2.4 .9 2.4 2.5v3.8Zm-7.4-1.6v0l1.2-4.6H718l-1.8 6.2h-1.3l-1.3-4.5l-1.3 4.5H711l-1.8-6.2h1.4l1.1 4.6l1.3-4.6h1.3Zm-8.6-3.5v2.7c0 .1 0 .3 0 .5c0 .6 .2 .9 .8 .9c.2 0 .5-.1 .7-.2l.3 1c-.3 .2-.8 .3-1.2 .3c-.9 0-1.5-.4-1.7-1c-.1-.4-.2-.8-.2-1.3v-2.9h-.7v-1.1h.7l.1-1.4h1.2v1.4h1.7v1.1Zm-2.3-2.9c-.3-.1-.5-.2-.8-.2c-.3 0-.5 .1-.7 .2c-.2 .2-.3 .6-.3 1.1v.7h1.5v1.1h-1.5v5.1h-1.2v-5.1h-.7v-1.1h.7v-.8c0-.6 .1-1.2 .4-1.6c.3-.5 .8-.7 1.7-.7c.4 0 .9 .1 1.3 .3Zm-7.9 2.8c-1.1 0-1.9 .9-1.9 2.1c0 1.1 .8 2.1 1.9 2.1c1.1 0 1.9-1 1.9-2.1c0-1.2-.8-2.1-1.9-2.1m3.2 2.1c0 1.8-1.4 3.2-3.2 3.2c-1.8 0-3.2-1.4-3.2-3.2c0-1.8 1.4-3.2 3.2-3.2c1.8 0 3.2 1.4 3.2 3.2m-10.5-4.4c-.8 0-1.4 .3-1.4 1.1c0 .7 .8 .9 1.7 1.2c1.2 .4 2.6 1 2.6 2.7c0 1.9-1.7 2.6-3 2.6c-1.3 0-2.3-.4-3.2-1.3l.9-.9c.8 .8 1.4 1.1 2.3 1.1c.8 0 1.6-.4 1.6-1.4c0-.9-.9-1.2-1.8-1.5c-1.2-.5-2.4-1-2.4-2.4c0-1.7 1.2-2.4 2.6-2.4c1.1 0 1.9 .3 2.7 .9l-.8 .9c-.4-.3-1.1-.6-1.8-.6m-9 3.2c-.4-.6-1.1-.9-1.7-.9c-1.4 0-2 1-2 2c0 1.1 .7 2.1 1.9 2.1c.7 0 1.5-.4 1.8-1.1Zm-2 4.3c-1.7 0-3-1.4-3-3.2c0-1.6 1.2-3.1 3.1-3.1c.7 0 1.4 .3 1.9 .8v-.7h1.2v5.9c0 .6-.1 1.1-.3 1.6c-.6 1-1.6 1.4-2.8 1.4c-.9 0-2-.3-2.8-.8l.5-1.1c.6 .5 1.5 .8 2.3 .8c1 0 1.9-.5 1.9-1.8v-.8c-.5 .7-1.3 1-2 1m-8.8-6.2l.1 1c.4-.7 1.2-1.1 2-1.1c.8 0 1.4 .3 1.7 .7c.5 .6 .6 1.4 .6 2.4v3.2h-1.3v-3.1c0-.6 0-1.2-.3-1.6c-.1-.3-.5-.5-1-.5c-.6 0-1.3 .4-1.7 1.1v4.1h-1.3v-6.2Zm-4.4 0h1.3v6.2h-1.3v-6.2Zm0-2.4h1.3v1.3h-1.3v-1.3Zm-3.1 8.6v-3.1c0-.6 0-1.2-.3-1.6c-.2-.3-.5-.5-1-.5c-.6 0-1.2 .4-1.6 .9c.1 .4 .1 .7 .1 1.1v3.2H658v-3.1c0-.6 0-1.2-.3-1.7c-.2-.2-.4-.4-.9-.4c-.6 0-1.2 .5-1.6 1v4.2H654v-6.2h1.2v.9c.5-.6 1.2-1 1.9-1c.7 0 1.3 .2 1.7 .8c.1 .1 .1 .2 .1 .3c.6-.8 1.4-1.1 2.2-1.1c.8 0 1.3 .2 1.7 .7c.4 .6 .5 1.4 .5 2.4v3.2Zm-11.3-2.8c-.4-.1-.7-.1-1-.1c-.8 0-1.7 .2-1.7 1.1c0 .7 .5 .9 1.1 .9c.6 0 1.1-.3 1.6-.6Zm.1 2.8v-.6c-.5 .5-1.1 .7-1.8 .7c-1.2 0-2.2-.6-2.2-1.9c0-1.5 1.4-2 2.7-2c.3 0 .7 0 1.2 .1V375c0-.9-.4-1.4-1.4-1.4c-.7 0-1.4 .3-1.9 .6l-.4-1.1c.7-.3 1.6-.5 2.5-.5c1.8 0 2.5 .9 2.5 2.5v3.8Zm-9.1-3.7v-1.1h3.5v3.3c-.9 1-2.2 1.6-3.6 1.6c-2.6 0-4.6-1.7-4.6-4.4c0-2.5 2.1-4.4 4.6-4.4c1.4 0 2.6 .6 3.4 1.5l-.9 .8c-.6-.7-1.5-1.1-2.5-1.1c-1.8 0-3.2 1.3-3.2 3.2c0 2 1.3 3.3 3.2 3.3c.9 0 1.7-.3 2.3-.9v-1.8Zm-10.1 5.3h-1.2l.7-3.1h1.4Zm-5.3-7.8l1.5 4.5l1.6-4.5h1.4l-3.5 9l-1.1-.5l1-2.5l-2.3-6Zm-3.6 1.9c-.4-.6-1.1-.9-1.7-.9c-1.4 0-2 1-2 2c0 1.1 .7 2.1 1.9 2.1c.7 0 1.5-.4 1.8-1.1Zm-2 4.3c-1.7 0-3-1.4-3-3.2c0-1.6 1.2-3.1 3.1-3.1c.7 0 1.4 .3 1.9 .8v-.7H624v5.9c0 .6-.1 1.1-.3 1.6c-.6 1-1.6 1.4-2.8 1.4c-.9 0-2-.3-2.8-.8l.5-1.1c.6 .5 1.5 .8 2.3 .8c1 0 1.9-.5 1.9-1.8v-.8c-.5 .7-1.3 1-2 1m-7.2-5.2c-1.1 0-1.9 .9-1.9 2.1c0 1.1 .8 2.1 1.9 2.1c1.1 0 1.9-1 1.9-2.1c0-1.2-.8-2.1-1.9-2.1m3.2 2.1c0 1.8-1.3 3.2-3.2 3.2c-1.8 0-3.1-1.4-3.1-3.2c0-1.8 1.3-3.2 3.1-3.2c1.9 0 3.2 1.4 3.2 3.2m-7.8 3.1h-1.3v-9.2H609Zm-5.9-5.2c-1.1 0-1.9 .9-1.9 2.1c0 1.1 .8 2.1 1.9 2.1c1.1 0 1.9-1 1.9-2.1c0-1.2-.8-2.1-1.9-2.1m3.2 2.1c0 1.8-1.4 3.2-3.2 3.2c-1.8 0-3.2-1.4-3.2-3.2c0-1.8 1.4-3.2 3.2-3.2c1.8 0 3.2 1.4 3.2 3.2m-12.1-3.1v1c.5-.7 1.2-1.1 2-1.1c.8 0 1.4 .3 1.8 .7c.4 .6 .5 1.4 .5 2.4v3.2h-1.2v-3.1c0-.6-.1-1.2-.3-1.6c-.2-.3-.6-.5-1.1-.5c-.6 0-1.3 .4-1.7 1.1v4.1H593v-6.2Zm-7.4 1c.4-.7 1.2-1.1 2-1.1c.8 0 1.4 .3 1.7 .7c.4 .6 .6 1.4 .6 2.4v3.2h-1.3v-3.1c0-.6 0-1.2-.3-1.6c-.2-.3-.5-.5-1-.5c-.7 0-1.3 .4-1.7 1.1v4.1h-1.3v-9.2h1.3Zm-2.6 4.7c-.4 .4-1.1 .6-1.9 .6c-1.8 0-3.2-1.3-3.2-3.2c0-1.8 1.4-3.2 3.2-3.2c.7 0 1.4 .2 1.9 .5l-.6 1c-.4-.2-.8-.4-1.3-.4c-1 0-1.9 .9-1.9 2.1c0 1.3 .9 2.1 1.9 2.1c.4 0 1-.2 1.3-.4Zm-8.9-4.8c-1 0-1.5 .7-1.8 1.6h3.3c0-.9-.6-1.6-1.5-1.6m0 4.4c.8 0 1.4-.3 1.8-1l.9 .6c-.6 1-1.5 1.4-2.7 1.4c-2 0-3.1-1.4-3.1-3.2c0-1.8 1.3-3.2 3.1-3.2c1.6 0 2.8 1.2 2.8 2.8c0 .3 0 .5 0 .7h-4.6c0 1 .7 1.9 1.8 1.9m-5.1-6.5v7.4h-1.3v-7.4h-2.1v-1.2h5.5v1.2Zm-11.9 1.2v1c.5-.7 1.2-1.1 2-1.1c.8 0 1.4 .3 1.8 .7c.4 .6 .5 1.4 .5 2.4v3.2h-1.3v-3.1c0-.6 0-1.2-.2-1.6c-.2-.3-.6-.5-1.1-.5c-.6 0-1.3 .4-1.7 1.1v4.1h-1.2v-6.2Zm-5.9 1c-1.1 0-1.9 .9-1.9 2.1c0 1.1 .8 2.1 1.9 2.1c1.1 0 1.9-1 1.9-2.1c0-1.2-.8-2.1-1.9-2.1m3.2 2.1c0 1.8-1.4 3.2-3.2 3.2c-1.8 0-3.2-1.4-3.2-3.2c0-1.8 1.4-3.2 3.2-3.2c1.8 0 3.2 1.4 3.2 3.2m-9.1-3.1h1.3v6.2h-1.3Zm0-2.4h1.3v1.3h-1.3v-1.3Zm-3 3.5v2.7c0 .1 0 .3 0 .5c.1 .6 .3 .9 .8 .9c.3 0 .5-.1 .7-.2l.4 1c-.4 .2-.8 .3-1.3 .3c-.9 0-1.4-.4-1.7-1c-.1-.4-.1-.8-.1-1.3v-2.9h-.8v-1.1h.8v-1.4h1.2v1.4h1.7v1.1Zm-4.5 2.3c-.4-.1-.7-.1-1-.1c-.7 0-1.7 .2-1.7 1.1c0 .7 .6 .9 1.2 .9c.6 0 1.1-.3 1.5-.6Zm.1 2.8v-.6c-.5 .5-1.1 .7-1.8 .7c-1.2 0-2.2-.6-2.2-1.9c0-1.5 1.4-2 2.7-2c.3 0 .7 0 1.2 .1V375c0-.9-.4-1.4-1.4-1.4c-.7 0-1.4 .3-1.9 .6l-.4-1.1c.7-.3 1.7-.5 2.5-.5c1.8 0 2.5 .9 2.5 2.5v3.8Zm-6.8 0v-3.1c0-.6 0-1.2-.3-1.6c-.2-.3-.5-.5-1-.5c-.6 0-1.2 .4-1.6 .9c0 .4 .1 .7 .1 1.1v3.2h-1.3v-3.1c0-.6 0-1.2-.3-1.7c-.2-.2-.5-.4-.9-.4c-.6 0-1.2 .5-1.6 1v4.2h-1.2v-6.2h1.2v.9c.5-.6 1.2-1 1.9-1c.7 0 1.3 .2 1.7 .8c.1 .1 .1 .2 .1 .3c.6-.8 1.4-1.1 2.2-1.1c.8 0 1.3 .2 1.7 .7c.4 .6 .5 1.4 .5 2.4v3.2ZM521 373.7c.3-.7 .9-1.1 1.5-1.1c.3 0 .5 0 .8 0l-.3 1.3c-.2-.1-.4-.1-.6-.1c-.6 0-1.1 .3-1.4 .9v4.2h-1.3v-6.2h1.2Zm-5.9 0c-1.1 0-1.9 .9-1.9 2.1c0 1.1 .8 2.1 1.9 2.1c1.1 0 1.9-1 1.9-2.1c0-1.2-.8-2.1-1.9-2.1m3.2 2.1c0 1.8-1.4 3.2-3.2 3.2c-1.8 0-3.2-1.4-3.2-3.2c0-1.8 1.4-3.2 3.2-3.2c1.8 0 3.2 1.4 3.2 3.2m-6.8-4.9c-.3-.1-.5-.2-.9-.2c-.3 0-.5 .1-.6 .2c-.3 .2-.3 .6-.3 1.1v.7h1.7v1.1h-1.7v5.1h-1.2v-5.1h-.7v-1.1h.7v-.8c0-.6 .1-1.2 .4-1.6c.3-.5 .8-.7 1.6-.7c.5 0 .9 .1 1.3 .3Zm-9.5 1.8v1c.5-.7 1.2-1.1 2-1.1c.8 0 1.4 .3 1.8 .7c.4 .6 .5 1.4 .5 2.4v3.2h-1.2v-3.1c0-.6-.1-1.2-.3-1.6c-.2-.3-.5-.5-1-.5c-.7 0-1.4 .4-1.8 1.1v4.1h-1.2v-6.2Zm-4.6-2.4h1.3v8.6h-1.3v-8.6Zm-5.8 10.2h-1.2l.6-3.1h1.4Zm-3.7-6.7v2.7c0 .1 0 .3 0 .5c.1 .6 .2 .9 .8 .9c.3 0 .5-.1 .7-.2l.4 1c-.4 .2-.8 .3-1.3 .3c-.9 0-1.4-.4-1.7-1c-.1-.4-.2-.8-.2-1.3v-2.9h-.8v-1.1h.8l.1-1.4h1.2v1.4h1.7v1.1Zm-4.7-.1c.4-.7 .9-1.1 1.6-1.1c.2 0 .5 0 .7 0l-.3 1.3c-.2-.1-.3-.1-.6-.1c-.6 0-1 .3-1.4 .9v4.2H482v-6.2h1.2Zm-5.9 0c-1.1 0-1.9 .9-1.9 2.1c0 1.1 .8 2.1 1.9 2.1c1.1 0 1.9-1 1.9-2.1c0-1.2-.8-2.1-1.9-2.1m3.2 2.1c0 1.8-1.3 3.2-3.2 3.2c-1.8 0-3.1-1.4-3.1-3.2c0-1.8 1.3-3.2 3.1-3.2c1.9 0 3.2 1.4 3.2 3.2M468.2 377c.4 .6 1.1 .9 1.7 .9c1.4 0 2-1.1 2-2.1c0-1.1-.8-2.1-2-2.1c-.6 0-1.4 .4-1.7 1.1Zm-.1-4.3l.1 .8c.4-.6 1.2-.9 1.9-.9c1.8 0 3.1 1.4 3.1 3.2c0 1.7-1.2 3.2-3.1 3.2c-.7 0-1.4-.3-1.9-.8v3.7h-1.3v-9.2Zm-7.6 4.3c.4 .6 1.1 .9 1.7 .9c1.4 0 2-1.1 2-2.1c0-1.1-.8-2.1-2-2.1c-.6 0-1.4 .4-1.7 1.1Zm-.1-4.3l.1 .8c.4-.6 1.2-.9 1.9-.9c1.8 0 3.1 1.4 3.1 3.2c0 1.7-1.2 3.2-3.1 3.2c-.7 0-1.4-.3-1.9-.8v3.7h-1.3v-9.2Zm-4.3 6.2v-1c-.5 .7-1.3 1.1-2.1 1.1c-.8 0-1.3-.3-1.7-.7c-.4-.6-.6-1.5-.6-2.4v-3.2H453v3.1c0 .6 0 1.2 .3 1.6c.2 .3 .5 .5 1 .5c.7 0 1.3-.5 1.7-1.1v-4.1h1.3v6.2Zm-8.9-7.5c-.8 0-1.4 .3-1.4 1.1c0 .7 .8 .9 1.7 1.2c1.2 .4 2.6 1 2.6 2.7c0 1.9-1.7 2.6-3.1 2.6c-1.2 0-2.2-.4-3.1-1.3l.9-.9c.8 .8 1.4 1.1 2.3 1.1c.8 0 1.6-.4 1.6-1.4c0-.9-.9-1.2-1.8-1.5c-1.2-.5-2.4-1-2.4-2.4c0-1.7 1.2-2.4 2.6-2.4c1 0 1.9 .3 2.7 .9l-.8 .9c-.4-.3-1.1-.6-1.8-.6m-7.2 7c-.5 .4-1.2 .6-1.9 .6c-1.8 0-3.2-1.3-3.2-3.2c0-1.8 1.4-3.2 3.2-3.2c.7 0 1.3 .2 1.9 .5l-.6 1c-.4-.2-.8-.4-1.3-.4c-1.1 0-1.9 .9-1.9 2.1c0 1.3 .9 2.1 1.9 2.1c.4 0 1-.2 1.3-.4Zm-7.8-5.7h1.2v6.2h-1.2v-6.2Zm0-2.4h1.2v1.3h-1.2v-1.3Zm-3.2 4.3c-.4-.6-1.1-.9-1.7-.9c-1.3 0-2 1-2 2c0 1.1 .8 2.1 2 2.1c.6 0 1.4-.4 1.7-1.1Zm-1.9 4.3c-1.8 0-3.1-1.4-3.1-3.2c0-1.6 1.3-3.1 3.1-3.1c.7 0 1.5 .3 2 .8v-.7h1.2v5.9c0 .6-.1 1.1-.4 1.6c-.5 1-1.6 1.4-2.7 1.4c-1 0-2-.3-2.8-.8l.5-1.1c.6 .5 1.5 .8 2.2 .8c1 0 1.9-.5 1.9-1.8v-.8c-.4 .7-1.2 1-1.9 1m-6.9-5.3c-.9 0-1.5 .7-1.7 1.6h3.3c-.1-.9-.7-1.6-1.6-1.6m.1 4.4c.8 0 1.4-.3 1.8-1l.8 .6c-.6 1-1.4 1.4-2.7 1.4c-1.9 0-3.1-1.4-3.1-3.2c0-1.8 1.4-3.2 3.1-3.2c1.7 0 2.9 1.2 2.9 2.8c0 .3-.1 .5-.1 .7h-4.6c.1 1 .8 1.9 1.9 1.9m-5.7-4.2v2.7c0 .1 0 .3 0 .5c.1 .6 .3 .9 .8 .9c.3 0 .5-.1 .7-.2l.4 1c-.4 .2-.8 .3-1.3 .3c-.9 0-1.4-.4-1.7-1c-.1-.4-.1-.8-.1-1.3v-2.9h-.9v-1.1h.9v-1.4h1.2v1.4h1.7v1.1Zm-4.5 2.3c-.4-.1-.7-.1-1-.1c-.7 0-1.7 .2-1.7 1.1c0 .7 .5 .9 1.2 .9c.6 0 1.1-.3 1.5-.6Zm.1 2.8v-.6c-.5 .5-1.1 .7-1.8 .7c-1.2 0-2.2-.6-2.2-1.9c0-1.5 1.4-2 2.7-2c.3 0 .7 0 1.2 .1V375c0-.9-.4-1.4-1.4-1.4c-.7 0-1.4 .3-1.9 .6l-.4-1.1c.7-.3 1.6-.5 2.5-.5c1.8 0 2.5 .9 2.5 2.5v3.8Zm-6.9-5.2c.4-.7 1-1.1 1.6-1.1c.3 0 .5 0 .7 0l-.2 1.3c-.2-.1-.4-.1-.6-.1c-.6 0-1.1 .3-1.4 .9v4.2h-1.3v-6.2h1.2Zm-4.2 .1v2.7c0 .1 0 .3 0 .5c.1 .6 .3 .9 .8 .9c.3 0 .5-.1 .7-.2l.4 1c-.4 .2-.8 .3-1.3 .3c-.9 0-1.4-.4-1.7-1c-.1-.4-.1-.8-.1-1.3v-2.9H397v-1.1h.9v-1.4h1.2v1.4h1.7v1.1Zm-5.9-2.4c-.8 0-1.4 .3-1.4 1.1c0 .7 .8 .9 1.6 1.2c1.2 .4 2.7 1 2.7 2.7c0 1.9-1.7 2.6-3.1 2.6c-1.2 0-2.2-.4-3.1-1.3l.9-.9c.8 .8 1.4 1.1 2.2 1.1c.9 0 1.7-.4 1.7-1.4c0-.9-.9-1.2-1.9-1.5c-1.1-.5-2.3-1-2.3-2.4c0-1.7 1.2-2.4 2.6-2.4c1 0 1.9 .3 2.7 .9l-.8 .9c-.4-.3-1.1-.6-1.8-.6m-8.6 9.1h-1.2l.7-3.1h1.4Zm-2.9-6.4c-.2-.3-.8-.5-1.2-.5c-.5 0-.8 .3-.8 .7c0 .5 .5 .7 1.1 .9c.8 .3 1.8 .8 1.8 1.9c0 1.4-1.1 1.9-2.3 1.9c-.8 0-1.6-.3-2.2-1l.8-.7c.5 .5 .9 .7 1.4 .7c.6 0 1.1-.3 1.1-.8c0-.5-.6-.7-1.2-1c-.8-.3-1.7-.7-1.7-1.8c0-1.2 .9-1.8 2-1.8c.7 0 1.5 .2 2 .7Zm-9.3-1.4v1c.5-.7 1.2-1.1 2-1.1c.8 0 1.4 .3 1.8 .7c.4 .6 .5 1.4 .5 2.4v3.2h-1.2v-3.1c0-.6-.1-1.2-.3-1.6c-.2-.3-.5-.5-1-.5c-.7 0-1.4 .4-1.8 1.1v4.1h-1.2v-6.2Zm-5.9 1c-1.1 0-1.9 .9-1.9 2.1c0 1.1 .8 2.1 1.9 2.1c1.1 0 1.9-1 1.9-2.1c0-1.2-.8-2.1-1.9-2.1m3.2 2.1c0 1.8-1.3 3.2-3.2 3.2c-1.8 0-3.1-1.4-3.1-3.2c0-1.8 1.3-3.2 3.1-3.2c1.9 0 3.2 1.4 3.2 3.2m-9.1-3.1h1.3v6.2h-1.3Zm0-2.4h1.3v1.3h-1.3v-1.3Zm-3 3.5v2.7c0 .1 0 .3 .1 .5c0 .6 .2 .9 .7 .9c.3 0 .5-.1 .7-.2l.4 1c-.3 .2-.8 .3-1.2 .3c-.9 0-1.5-.4-1.7-1c-.2-.4-.2-.8-.2-1.3v-2.9h-.8v-1.1h.8v-1.4h1.2v1.4h1.7v1.1Zm-4.4 2.3c-.5-.1-.8-.1-1.1-.1c-.7 0-1.7 .2-1.7 1.1c0 .7 .6 .9 1.2 .9c.6 0 1.1-.3 1.6-.6Zm.1 2.8l-.1-.6c-.5 .5-1 .7-1.8 .7c-1.1 0-2.2-.6-2.2-1.9c0-1.5 1.4-2 2.7-2c.4 0 .8 0 1.3 .1V375c0-.9-.5-1.4-1.5-1.4c-.7 0-1.4 .3-1.9 .6l-.3-1.1c.6-.3 1.6-.5 2.4-.5c1.8 0 2.5 .9 2.5 2.5v3.8Zm-5.7 0h-1.3v-9.2h1.3v9.2Zm-5.6-5.3c-.9 0-1.5 .7-1.7 1.6h3.3c-.1-.9-.7-1.6-1.6-1.6m.1 4.4c.8 0 1.4-.3 1.8-1l.8 .6c-.6 1-1.4 1.4-2.7 1.4c-1.9 0-3.1-1.4-3.1-3.2c0-1.8 1.4-3.2 3.1-3.2c1.7 0 2.9 1.2 2.9 2.8c0 .3-.1 .5-.1 .7h-4.6c.1 1 .8 1.9 1.9 1.9m-8.5-3.8h1c1.1 0 1.8-.4 1.8-1.3c0-.9-.6-1.4-1.6-1.4h-1.2Zm1.3-3.9c1.3 0 2.9 .7 2.9 2.5c0 1.4-1 2.2-2 2.4l2.7 3.7h-1.6l-2.6-3.6h-.7v3.6h-1.3v-8.6Zm-9 3.4c.4-.7 .9-1.1 1.6-1.1c.3 0 .5 0 .7 0l-.3 1.3c-.1-.1-.3-.1-.5-.1c-.6 0-1.1 .3-1.4 .9v4.2h-1.3v-6.2h1.2Zm-5.5-.1c-1 0-1.6 .7-1.8 1.6h3.3c0-.9-.7-1.6-1.5-1.6m0 4.4c.8 0 1.4-.3 1.8-1l.9 .6c-.6 1-1.5 1.4-2.7 1.4c-2 0-3.1-1.4-3.1-3.2c0-1.8 1.3-3.2 3.1-3.2c1.6 0 2.8 1.2 2.8 2.8c0 .3 0 .5 0 .7h-4.7c.1 1 .8 1.9 1.9 1.9m-5.8 .9v-3.1c0-.6 0-1.2-.3-1.6c-.1-.3-.5-.5-1-.5c-.5 0-1.1 .4-1.6 .9c.1 .4 .1 .7 .1 1.1v3.2h-1.3v-3.1c0-.6 0-1.2-.3-1.7c-.1-.2-.4-.4-.9-.4c-.5 0-1.2 .5-1.5 1v4.2h-1.3v-6.2h1.2v.9c.5-.6 1.2-1 1.9-1c.7 0 1.4 .2 1.7 .8c.1 .1 .1 .2 .2 .3c.5-.8 1.3-1.1 2.1-1.1c.8 0 1.3 .2 1.7 .7c.4 .6 .6 1.4 .6 2.4v3.2Zm-12.8-5.2c-1.1 0-1.8 .9-1.8 2.1c0 1.1 .7 2.1 1.8 2.1c1.1 0 1.9-1 1.9-2.1c0-1.2-.8-2.1-1.9-2.1m3.2 2.1c0 1.8-1.3 3.2-3.2 3.2c-1.8 0-3.1-1.4-3.1-3.2c0-1.8 1.3-3.2 3.1-3.2c1.9 0 3.2 1.4 3.2 3.2m-8.8-2v2.7c0 .1 0 .3 0 .5c0 .6 .2 .9 .8 .9c.2 0 .5-.1 .7-.2l.3 1c-.3 .2-.8 .3-1.2 .3c-.9 0-1.5-.4-1.7-1c-.1-.4-.2-.8-.2-1.3v-2.9h-.8v-1.1h.8l.1-1.4h1.2v1.4h1.7v1.1Zm-3.9 .3c-.2-.3-.7-.5-1.2-.5c-.5 0-.8 .3-.8 .7c0 .5 .5 .7 1.1 .9c.8 .3 1.8 .8 1.8 1.9c0 1.4-1.1 1.9-2.3 1.9c-.8 0-1.6-.3-2.2-1l.9-.7c.4 .5 .8 .7 1.3 .7c.6 0 1.1-.3 1.1-.8c0-.5-.6-.7-1.2-1c-.8-.3-1.7-.7-1.7-1.8c0-1.2 1-1.8 2-1.8c.8 0 1.5 .2 2 .7Zm-6.2 4.8l-.1-1c-.4 .7-1.2 1.1-2 1.1c-.8 0-1.4-.3-1.7-.7c-.4-.6-.6-1.5-.6-2.4v-3.2H283v3.1c0 .6 0 1.2 .3 1.6c.2 .3 .5 .5 1 .5c.7 0 1.3-.5 1.7-1.1v-4.1h1.3v6.2Zm-8.2-1c.6 0 1.3-.2 1.8-.7l.7 1c-.7 .5-1.6 .8-2.6 .8c-2.5 0-4.5-1.7-4.5-4.4c0-2.5 2-4.4 4.6-4.4c.8 0 1.6 .2 2.3 .7l-.6 1c-.5-.3-1.1-.5-1.7-.5c-1.9 0-3.2 1.3-3.2 3.2c0 2 1.3 3.3 3.2 3.3m-9.9-3.8c-.3-.3-.8-.5-1.2-.5c-.5 0-.9 .3-.9 .7c0 .5 .6 .7 1.2 .9c.8 .3 1.8 .8 1.8 1.9c0 1.4-1.1 1.9-2.3 1.9c-.9 0-1.7-.3-2.2-1l.8-.7c.4 .5 .9 .7 1.4 .7c.5 0 1-.3 1-.8c0-.5-.5-.7-1.1-1c-.9-.3-1.8-.7-1.8-1.8c0-1.2 1-1.8 2.1-1.8c.7 0 1.4 .2 1.9 .7Zm-6.3 2c-.4-.1-.7-.1-1-.1c-.7 0-1.7 .2-1.7 1.1c0 .7 .6 .9 1.2 .9c.6 0 1.1-.3 1.5-.6Zm.1 2.8v-.6c-.5 .5-1 .7-1.8 .7c-1.1 0-2.2-.6-2.2-1.9c0-1.5 1.4-2 2.7-2c.4 0 .7 0 1.2 .1V375c0-.9-.4-1.4-1.4-1.4c-.7 0-1.4 .3-1.9 .6l-.4-1.1c.7-.3 1.7-.5 2.5-.5c1.8 0 2.5 .9 2.5 2.5v3.8Zm-12.9-5.2c.5-.7 1.2-1.1 2-1.1c.8 0 1.4 .3 1.7 .7c.5 .6 .6 1.4 .6 2.4v3.2h-1.3v-3.1c0-.6 0-1.2-.3-1.6c-.1-.3-.5-.5-1-.5c-.6 0-1.3 .4-1.7 1.1v4.1h-1.3v-9.2h1.3Zm-2.5 4.7c-.5 .4-1.2 .6-2 .6c-1.8 0-3.2-1.3-3.2-3.2c0-1.8 1.4-3.2 3.3-3.2c.7 0 1.3 .2 1.8 .5l-.6 1c-.4-.2-.8-.4-1.2-.4c-1.1 0-2 .9-2 2.1c0 1.3 .9 2.1 2 2.1c.4 0 .9-.2 1.2-.4Zm-7.8 .5l-.1-1c-.4 .7-1.2 1.1-2 1.1c-.8 0-1.4-.3-1.7-.7c-.5-.6-.6-1.5-.6-2.4v-3.2h1.3v3.1c0 .6 0 1.2 .3 1.6c.2 .3 .5 .5 1 .5c.6 0 1.3-.5 1.7-1.1v-4.1h1.3v6.2Zm-6.8-4.8c-.3-.3-.8-.5-1.2-.5c-.5 0-.9 .3-.9 .7c0 .5 .6 .7 1.2 .9c.8 .3 1.8 .8 1.8 1.9c0 1.4-1.1 1.9-2.3 1.9c-.9 0-1.7-.3-2.2-1l.8-.7c.4 .5 .9 .7 1.4 .7c.5 0 1-.3 1-.8c0-.5-.5-.7-1.2-1c-.8-.3-1.7-.7-1.7-1.8c0-1.2 1-1.8 2.1-1.8c.7 0 1.4 .2 1.9 .7Zm-11 6.9l-.5-.9c1.3-.8 2.5-2.4 2.5-4.9c0-2.6-1.2-4.1-2.5-5l.5-.9c1.8 1.2 3.3 2.9 3.3 5.9c0 2.9-1.5 4.7-3.3 5.8m-2-6.9c-.2-.3-.7-.5-1.2-.5c-.5 0-.8 .3-.8 .7c0 .5 .5 .7 1.1 .9c.8 .3 1.8 .8 1.8 1.9c0 1.4-1.1 1.9-2.3 1.9c-.8 0-1.6-.3-2.2-1l.8-.7c.5 .5 .9 .7 1.4 .7c.6 0 1.1-.3 1.1-.8c0-.5-.6-.7-1.2-1c-.8-.3-1.7-.7-1.7-1.8c0-1.2 1-1.8 2-1.8c.7 0 1.5 .2 2 .7Zm-9.2-2.7c-1.7 0-3 1.4-3 3.2c0 1.8 1.3 3.3 3 3.3c1.8 0 3.1-1.5 3.1-3.3c0-1.8-1.3-3.2-3.1-3.2m0 7.6c-2.5 0-4.4-1.9-4.4-4.4c0-2.4 1.9-4.4 4.4-4.4c2.5 0 4.5 2 4.5 4.4c0 2.5-2 4.4-4.5 4.4m-9.4-3.8v-1.1h3.5v3.3c-.9 1-2.1 1.6-3.6 1.6c-2.6 0-4.6-1.7-4.6-4.4c0-2.5 2.1-4.4 4.6-4.4c1.4 0 2.6 .6 3.4 1.5l-.9 .8c-.6-.7-1.5-1.1-2.5-1.1c-1.8 0-3.2 1.3-3.2 3.2c0 2 1.3 3.3 3.2 3.3c.9 0 1.7-.3 2.3-.9v-1.8Zm-10.5-3.8c-1.7 0-3 1.4-3 3.2c0 1.8 1.3 3.3 3 3.3c1.8 0 3.1-1.5 3.1-3.3c0-1.8-1.3-3.2-3.1-3.2m0 7.6c-2.5 0-4.4-1.9-4.4-4.4c0-2.4 1.9-4.4 4.4-4.4c2.5 0 4.4 2 4.4 4.4c0 2.5-1.9 4.4-4.4 4.4m-9.7-4.6h.9c1.2 0 2-.4 2-1.4c0-1-.7-1.5-1.7-1.5H180Zm1.2-4.1c1.4 0 3.1 .7 3.1 2.6c0 1.9-1.6 2.6-3.1 2.6H180v3.4h-1.3v-8.6ZM177.1 381c-1.8-1.1-3.3-2.9-3.3-5.8c0-3 1.4-4.7 3.3-5.9l.5 .9c-1.3 .9-2.5 2.4-2.5 5c0 2.5 1.1 4.1 2.5 4.9Zm-8.4-6.9c-.3-.3-.8-.5-1.3-.5c-.5 0-.8 .3-.8 .7c0 .5 .6 .7 1.1 .9c.8 .3 1.8 .8 1.8 1.9c0 1.4-1.1 1.9-2.2 1.9c-.9 0-1.7-.3-2.3-1l.9-.7c.4 .5 .8 .7 1.4 .7c.5 0 1-.3 1-.8c0-.5-.6-.7-1.2-1c-.8-.3-1.7-.7-1.7-1.8c0-1.2 1-1.8 2-1.8c.8 0 1.5 .2 2 .7Zm-6.3-.4c.3-.7 .9-1.1 1.5-1.1c.3 0 .5 0 .8 0l-.3 1.3c-.2-.1-.4-.1-.6-.1c-.6 0-1.1 .3-1.4 .9v4.2h-1.2v-6.2h1.1Zm-5.9 0c-1.1 0-1.9 .9-1.9 2.1c0 1.1 .8 2.1 1.9 2.1c1.1 0 1.9-1 1.9-2.1c0-1.2-.8-2.1-1.9-2.1m3.2 2.1c0 1.8-1.4 3.2-3.2 3.2c-1.8 0-3.2-1.4-3.2-3.2c0-1.8 1.4-3.2 3.2-3.2c1.8 0 3.2 1.4 3.2 3.2m-8.9-2v2.7c0 .1 0 .3 0 .5c.1 .6 .3 .9 .8 .9c.3 0 .5-.1 .7-.2l.4 1c-.4 .2-.8 .3-1.3 .3c-.8 0-1.4-.4-1.7-1c-.1-.4-.1-.8-.1-1.3v-2.9h-.8v-1.1h.8v-1.4h1.2v1.4h1.7v1.1Zm-4.5 2.3c-.4-.1-.7-.1-1-.1c-.7 0-1.7 .2-1.7 1.1c0 .7 .6 .9 1.2 .9c.6 0 1.1-.3 1.5-.6Zm.1 2.8v-.6c-.5 .5-1.1 .7-1.8 .7c-1.2 0-2.2-.6-2.2-1.9c0-1.5 1.4-2 2.7-2c.3 0 .7 0 1.2 .1V375c0-.9-.4-1.4-1.4-1.4c-.7 0-1.4 .3-1.9 .6l-.4-1.1c.7-.3 1.7-.5 2.5-.5c1.8 0 2.5 .9 2.5 2.5v3.8Zm-6.8-5.2c.3-.7 .9-1.1 1.5-1.1c.3 0 .5 0 .7 0l-.2 1.3c-.2-.1-.4-.1-.6-.1c-.6 0-1.1 .3-1.4 .9v4.2h-1.3v-6.2h1.2Zm-5.6-.1c-.9 0-1.5 .7-1.8 1.6h3.3c0-.9-.6-1.6-1.5-1.6m0 4.4c.9 0 1.5-.3 1.8-1l.9 .6c-.6 1-1.5 1.4-2.7 1.4c-2 0-3.1-1.4-3.1-3.2c0-1.8 1.3-3.2 3.1-3.2c1.6 0 2.8 1.2 2.8 2.8c0 .3 0 .5 0 .7h-4.6c.1 1 .7 1.9 1.8 1.9m-9.1-1c.5 .6 1.1 .9 1.8 .9c1.3 0 1.9-1.1 1.9-2.1c0-1.1-.7-2.1-1.9-2.1c-.7 0-1.4 .4-1.8 1.1Zm0-4.3v.8c.5-.6 1.3-.9 2-.9c1.7 0 3 1.4 3 3.2c0 1.7-1.2 3.2-3 3.2c-.7 0-1.5-.3-2-.8v3.7h-1.2v-9.2Zm-7.3-1.3c-1.8 0-3 1.4-3 3.2c0 1.8 1.2 3.3 3 3.3c1.7 0 3-1.5 3-3.3c0-1.8-1.3-3.2-3-3.2m0 7.6c-2.5 0-4.4-1.9-4.4-4.4c0-2.4 1.9-4.4 4.4-4.4c2.5 0 4.4 2 4.4 4.4c0 2.5-1.9 4.4-4.4 4.4Z" class="g2_7"/>
<path d="M860 422.5c-.9 0-1.5 .7-1.7 1.5h3.3c-.1-.8-.7-1.5-1.6-1.5m.1 4.4c.8 0 1.4-.3 1.8-1l.9 .6c-.7 1-1.5 1.4-2.8 1.4c-1.9 0-3.1-1.4-3.1-3.2c0-1.8 1.4-3.3 3.1-3.3c1.7 0 2.9 1.3 2.9 2.9c0 .2 0 .5-.1 .7h-4.6c.1 1 .8 1.9 1.9 1.9m-3.7-5.3l-2.5 6.2h-1l-2.4-6.2h1.4l1.6 4.6l1.5-4.6Zm-8.1 3.4c-.5-.1-.8-.1-1.1-.1c-.7 0-1.7 .2-1.7 1.1c0 .7 .6 .9 1.2 .9c.6 0 1.1-.3 1.6-.7Zm.1 2.8l-.1-.6c-.5 .5-1 .7-1.8 .7c-1.1 0-2.2-.6-2.2-1.9c0-1.5 1.4-2 2.7-2c.4 0 .8 0 1.3 .1v-.2c0-.9-.5-1.4-1.4-1.4c-.8 0-1.5 .3-2 .6l-.3-1.1c.6-.3 1.6-.6 2.4-.6c1.8 0 2.5 1 2.5 2.6v3.8Zm-9.9-5.3c.4-.6 1.2-1.1 1.9-1.1c.9 0 1.4 .3 1.8 .8c.4 .6 .6 1.4 .6 2.4v3.2h-1.3v-3.1c0-.6 0-1.2-.3-1.6c-.2-.3-.5-.5-1-.5c-.7 0-1.3 .4-1.7 1.1v4.1h-1.3v-9.2h1.3Zm-9.3 .1c-1.3 0-1.9 1.1-1.9 2.1c0 1.1 .7 2.1 1.9 2.1c.6 0 1.4-.4 1.7-1.1v-2.2c-.4-.6-1.1-.9-1.7-.9m3 5.2H831V427c-.5 .6-1.3 .9-2 .9c-1.7 0-3-1.4-3-3.2c0-1.7 1.2-3.3 3-3.3c.7 0 1.5 .3 1.9 .9v-3.7h1.3Zm-12-6.2v1c.5-.7 1.3-1.2 2.1-1.2c.8 0 1.3 .3 1.7 .8c.4 .6 .6 1.4 .6 2.4v3.2h-1.3v-3.1c0-.6 0-1.2-.3-1.6c-.2-.3-.5-.5-1-.5c-.7 0-1.3 .4-1.7 1.1v4.1H819v-6.2Zm-4.3 3.4c-.5-.1-.8-.1-1.1-.1c-.7 0-1.7 .2-1.7 1.1c0 .7 .6 .9 1.2 .9c.6 0 1.1-.3 1.6-.7Zm.1 2.8l-.1-.6c-.5 .5-1 .7-1.8 .7c-1.1 0-2.2-.6-2.2-1.9c0-1.5 1.4-2 2.7-2c.4 0 .8 0 1.3 .1v-.2c0-.9-.5-1.4-1.4-1.4c-.8 0-1.5 .3-2 .6l-.3-1.1c.6-.3 1.6-.6 2.4-.6c1.8 0 2.5 1 2.5 2.6v3.8Zm-9.3-4.8c-.3-.3-.8-.5-1.2-.5c-.5 0-.9 .3-.9 .7c0 .5 .6 .7 1.2 .9c.8 .3 1.8 .8 1.8 1.9c0 1.3-1.1 1.9-2.3 1.9c-.9 0-1.7-.3-2.2-1l.8-.7c.4 .5 .9 .7 1.4 .7c.5 0 1-.3 1-.9c0-.4-.5-.7-1.1-.9c-.9-.3-1.8-.7-1.8-1.8c0-1.3 1-1.9 2.1-1.9c.7 0 1.4 .3 1.9 .8Zm-7.4-.5c-1 0-1.6 .7-1.8 1.5h3.3c0-.8-.6-1.5-1.5-1.5m0 4.4c.8 0 1.4-.3 1.8-1l.9 .6c-.6 1-1.5 1.4-2.7 1.4c-2 0-3.1-1.4-3.1-3.2c0-1.8 1.3-3.3 3.1-3.3c1.6 0 2.8 1.3 2.8 2.9c0 .2 0 .5 0 .7h-4.6c0 1 .7 1.9 1.8 1.9m-6.9-4.4c-1 0-1.6 .7-1.8 1.5h3.3c-.1-.8-.7-1.5-1.5-1.5m0 4.4c.8 0 1.4-.3 1.8-1l.9 .6c-.7 1-1.5 1.4-2.8 1.4c-1.9 0-3-1.4-3-3.2c0-1.8 1.3-3.3 3-3.3c1.7 0 2.9 1.3 2.9 2.9c0 .2 0 .5-.1 .7h-4.6c.1 1 .8 1.9 1.9 1.9m-5.2-3.9c-.2-.3-.7-.5-1.2-.5c-.5 0-.8 .3-.8 .7c0 .5 .5 .7 1.1 .9c.8 .3 1.8 .8 1.8 1.9c0 1.3-1.1 1.9-2.2 1.9c-.9 0-1.7-.3-2.3-1l.9-.7c.4 .5 .8 .7 1.3 .7c.6 0 1.1-.3 1.1-.9c0-.4-.6-.7-1.2-.9c-.8-.3-1.7-.7-1.7-1.8c0-1.3 1-1.9 2-1.9c.8 0 1.5 .3 2 .8Zm-9.3-1.4v1c.5-.7 1.2-1.2 2-1.2c.9 0 1.4 .3 1.8 .8c.4 .6 .5 1.4 .5 2.4v3.2H781v-3.1c0-.6 0-1.2-.3-1.6c-.2-.3-.5-.5-1-.5c-.7 0-1.3 .4-1.7 1.1v4.1h-1.3v-6.2Zm-5.5 .9c-1 0-1.6 .7-1.8 1.5h3.3c0-.8-.7-1.5-1.5-1.5m0 4.4c.8 0 1.4-.3 1.8-1l.9 .6c-.6 1-1.5 1.4-2.7 1.4c-2 0-3.1-1.4-3.1-3.2c0-1.8 1.3-3.3 3.1-3.3c1.6 0 2.8 1.3 2.8 2.9c0 .2 0 .5 0 .7h-4.6c0 1 .7 1.9 1.8 1.9m-3.9 .4c-.5 .4-1.2 .6-2 .6c-1.8 0-3.1-1.3-3.1-3.2c0-1.8 1.4-3.3 3.2-3.3c.7 0 1.3 .3 1.8 .6l-.6 1c-.3-.2-.8-.4-1.2-.4c-1.1 0-2 .9-2 2.1c0 1.2 1 2.1 2 2.1c.4 0 .9-.2 1.3-.5Zm-7.9-5.7h1.3v6.2h-1.3v-6.2Zm0-2.4h1.3v1.3h-1.3v-1.3Zm-1.9 8.6h-1.3v-9.2h1.3v9.2Zm-10.4-7.6c-1.8 0-3.1 1.5-3.1 3.3c0 1.8 1.3 3.3 3.1 3.3c1.7 0 3-1.5 3-3.3c0-1.8-1.3-3.3-3-3.3m0 7.7c-2.5 0-4.5-2-4.5-4.4c0-2.4 2-4.4 4.5-4.4c2.5 0 4.4 2 4.4 4.4c0 2.4-1.9 4.4-4.4 4.4m-9.4-3.8V423h3.4v3.3c-.8 1-2.1 1.6-3.5 1.6c-2.6 0-4.6-1.8-4.6-4.4c0-2.5 2-4.4 4.6-4.4c1.3 0 2.5 .6 3.3 1.5l-.9 .8c-.6-.7-1.5-1.2-2.4-1.2c-1.9 0-3.2 1.4-3.2 3.3c0 2 1.3 3.3 3.2 3.3c.8 0 1.6-.4 2.2-.9v-1.8Zm-10.5-3.9c-1.8 0-3.1 1.5-3.1 3.3c0 1.8 1.3 3.3 3.1 3.3c1.7 0 3-1.5 3-3.3c0-1.8-1.3-3.3-3-3.3m0 7.7c-2.5 0-4.5-2-4.5-4.4c0-2.4 2-4.4 4.5-4.4c2.5 0 4.4 2 4.4 4.4c0 2.4-1.9 4.4-4.4 4.4m-9.8-4.6h1c1.1 0 2-.4 2-1.5c0-.9-.8-1.4-1.8-1.4h-1.2Zm1.3-4.1c1.4 0 3 .7 3 2.6c0 1.9-1.6 2.6-3 2.6h-1.3v3.4h-1.3v-8.6ZM708 423.1h1c1 0 1.8-.4 1.8-1.4c0-.8-.6-1.3-1.6-1.3H708Zm1.3-3.9c1.3 0 2.9 .7 2.9 2.5c0 1.4-1 2.2-2 2.4l2.7 3.7h-1.7l-2.5-3.6H708v3.6h-1.3v-8.6Zm-8.9 1c-1.7 0-3 1.5-3 3.3c0 1.8 1.3 3.3 3 3.3c1.8 0 3.1-1.5 3.1-3.3c0-1.8-1.3-3.3-3.1-3.3m0 7.7c-2.5 0-4.4-2-4.4-4.4c0-2.4 1.9-4.4 4.4-4.4c2.5 0 4.5 2 4.5 4.4c0 2.4-2 4.4-4.5 4.4m-7.5-1.1c.7 0 1.3-.3 1.9-.7l.7 1c-.8 .5-1.6 .8-2.6 .8c-2.6 0-4.6-1.7-4.6-4.4c0-2.5 2.1-4.4 4.6-4.4c.9 0 1.7 .2 2.4 .7l-.6 1c-.5-.3-1.1-.6-1.8-.6c-1.8 0-3.2 1.4-3.2 3.3c0 2 1.3 3.3 3.2 3.3m-9.5-2.7V423h3.4v3.3c-.8 1-2.1 1.6-3.5 1.6c-2.7 0-4.6-1.8-4.6-4.4c0-2.5 2-4.4 4.6-4.4c1.3 0 2.5 .6 3.3 1.5l-.9 .8c-.6-.7-1.5-1.2-2.4-1.2c-1.9 0-3.2 1.4-3.2 3.3c0 2 1.3 3.3 3.2 3.3c.8 0 1.6-.4 2.2-.9v-1.8Zm-10.6 .8h2.7l-1.4-3.7Zm3.1 1.1h-3.5l-.7 1.8h-1.4l3.4-8.6h1.1l3.2 8.6h-1.5Zm-9.9-2.7h1c1.1 0 1.9-.4 1.9-1.5c0-.9-.7-1.4-1.7-1.4H666Zm1.2-4.1c1.5 0 3.1 .7 3.1 2.6c0 1.9-1.6 2.6-3.1 2.6H666v3.4h-1.3v-8.6Zm-6.7 .6c-.2-.1-.5-.2-.8-.2c-.3 0-.5 .1-.7 .2c-.2 .2-.2 .6-.2 1.1v.7h1.6v1.1h-1.6v5.1h-1.3v-5.1h-.7v-1.1h.7v-.8c0-.7 .1-1.2 .4-1.6c.3-.5 .8-.7 1.7-.7c.4 0 .9 .1 1.3 .3Zm-7.9 2.8c-1.1 0-1.8 .9-1.8 2.1c0 1.1 .7 2.1 1.8 2.1c1.1 0 1.9-1 1.9-2.1c0-1.2-.8-2.1-1.9-2.1m3.2 2.1c0 1.8-1.3 3.2-3.2 3.2c-1.8 0-3.1-1.4-3.1-3.2c0-1.8 1.3-3.3 3.1-3.3c1.9 0 3.2 1.5 3.2 3.3m-14.4-3.1l1.5 4.4l1.6-4.4h1.4l-3.5 9l-1.1-.5l.9-2.6l-2.2-5.9Zm-6.7 0v1c.5-.7 1.2-1.2 2-1.2c.8 0 1.4 .3 1.8 .8c.4 .6 .5 1.4 .5 2.4v3.2h-1.2v-3.1c0-.6-.1-1.2-.3-1.6c-.2-.3-.5-.5-1.1-.5c-.6 0-1.3 .4-1.7 1.1v4.1h-1.2v-6.2Zm-4.4 3.4c-.4-.1-.7-.1-1-.1c-.8 0-1.7 .2-1.7 1.1c0 .7 .5 .9 1.2 .9c.5 0 1-.3 1.5-.7Zm.1 2.8v-.6c-.5 .5-1.1 .7-1.8 .7c-1.2 0-2.2-.6-2.2-1.9c0-1.5 1.4-2 2.7-2c.3 0 .7 0 1.2 .1v-.2c0-.9-.4-1.4-1.4-1.4c-.7 0-1.4 .3-1.9 .6l-.4-1.1c.7-.3 1.6-.6 2.5-.6c1.8 0 2.5 1 2.5 2.6v3.8Zm-9.9-4.3c-.4-.6-1.1-.9-1.7-.9c-1.4 0-2 1-2 2c0 1.1 .8 2 2 2c.6 0 1.4-.3 1.7-1.1Zm-1.9 4.3c-1.8 0-3.1-1.4-3.1-3.2c0-1.7 1.2-3.2 3.1-3.2c.7 0 1.4 .4 1.9 .9l.1-.7h1.2v5.8c0 .7-.2 1.2-.4 1.7c-.5 1-1.6 1.4-2.8 1.4c-.9 0-2-.3-2.7-.8l.5-1.1c.6 .5 1.5 .8 2.2 .8c1 0 1.9-.5 1.9-1.8v-.8c-.4 .7-1.2 1-1.9 1m-8.8-6.2v1c.5-.7 1.2-1.2 2-1.2c.8 0 1.4 .3 1.8 .8c.4 .6 .5 1.4 .5 2.4v3.2h-1.2v-3.1c0-.6-.1-1.2-.3-1.6c-.2-.3-.5-.5-1-.5c-.7 0-1.4 .4-1.8 1.1v4.1h-1.2v-6.2Zm-4.4 0h1.2v6.2h-1.2v-6.2Zm0-2.4h1.2v1.3h-1.2v-1.3Zm-1.3 8.1c-.5 .4-1.2 .6-2 .6c-1.8 0-3.1-1.3-3.1-3.2c0-1.8 1.3-3.3 3.2-3.3c.7 0 1.3 .3 1.8 .6l-.6 1c-.3-.2-.8-.4-1.2-.4c-1.1 0-2 .9-2 2.1c0 1.2 .9 2.1 2 2.1c.4 0 .9-.2 1.2-.5Zm-7.9-5.7h1.3v6.2h-1.3v-6.2Zm0-2.4h1.3v1.3h-1.3v-1.3Zm-1 2.4l-2.5 6.2h-1l-2.4-6.2h1.4l1.6 4.6l1.5-4.6Zm-8.4 1c.4-.7 .9-1.2 1.6-1.2c.2 0 .4 .1 .7 .1l-.3 1.3c-.2-.1-.3-.1-.6-.1c-.6 0-1 .3-1.4 .9v4.2h-1.2v-6.2h1.2Zm-5.6-.1c-.9 0-1.5 .7-1.7 1.5h3.3c-.1-.8-.7-1.5-1.6-1.5m.1 4.4c.8 0 1.4-.3 1.8-1l.9 .6c-.7 1-1.5 1.4-2.8 1.4c-1.9 0-3.1-1.4-3.1-3.2c0-1.8 1.4-3.3 3.1-3.3c1.7 0 2.9 1.3 2.9 2.9c0 .2 0 .5-.1 .7h-4.6c.1 1 .8 1.9 1.9 1.9m-5.2-3.9c-.2-.3-.7-.5-1.2-.5c-.5 0-.8 .3-.8 .7c0 .5 .5 .7 1.1 .9c.8 .3 1.8 .8 1.8 1.9c0 1.3-1.1 1.9-2.3 1.9c-.8 0-1.6-.3-2.2-1l.9-.7c.4 .5 .8 .7 1.3 .7c.6 0 1.1-.3 1.1-.9c0-.4-.6-.7-1.2-.9c-.8-.3-1.7-.7-1.7-1.8c0-1.3 1-1.9 2-1.9c.7 0 1.5 .3 2 .8Zm-9.1-.3v2.7c0 .1 0 .3 0 .5c0 .5 .2 .9 .8 .9c.2 0 .5-.1 .7-.2l.3 1c-.3 .2-.8 .3-1.2 .3c-.9 0-1.4-.4-1.7-1.1c-.1-.3-.2-.7-.2-1.2v-2.9h-.8v-1.1h.8l.1-1.5H567v1.5h1.7v1.1Zm-6-.1c-1.1 0-1.9 .9-1.9 2.1c0 1.1 .8 2.1 1.9 2.1c1.1 0 1.9-1 1.9-2.1c0-1.2-.8-2.1-1.9-2.1m3.2 2.1c0 1.8-1.4 3.2-3.2 3.2c-1.8 0-3.2-1.4-3.2-3.2c0-1.8 1.4-3.3 3.2-3.3c1.8 0 3.2 1.5 3.2 3.3m-12.1-3.1v1c.5-.7 1.2-1.2 2-1.2c.8 0 1.4 .3 1.8 .8c.4 .6 .5 1.4 .5 2.4v3.2h-1.2v-3.1c0-.6-.1-1.2-.3-1.6c-.2-.3-.5-.5-1-.5c-.7 0-1.4 .4-1.8 1.1v4.1h-1.2v-6.2Zm-8.6 .9c-1 0-1.5 .7-1.8 1.5H545c0-.8-.6-1.5-1.5-1.5m0 4.4c.9 0 1.5-.3 1.8-1l.9 .6c-.6 1-1.4 1.4-2.7 1.4c-2 0-3.1-1.4-3.1-3.2c0-1.8 1.3-3.3 3.1-3.3c1.6 0 2.9 1.3 2.9 2.9c0 .2-.1 .5-.1 .7h-4.6c.1 1 .7 1.9 1.8 1.9m-5.8-4.3c.4-.7 .9-1.2 1.6-1.2c.2 0 .5 .1 .7 .1l-.3 1.3c-.2-.1-.3-.1-.6-.1c-.6 0-1 .3-1.4 .9v4.2h-1.2v-6.2h1.2Zm-4.4 2.4c-.4-.1-.7-.1-1-.1c-.8 0-1.7 .2-1.7 1.1c0 .7 .5 .9 1.2 .9c.6 0 1.1-.3 1.5-.7Zm.1 2.8v-.6c-.5 .5-1.1 .7-1.8 .7c-1.2 0-2.2-.6-2.2-1.9c0-1.5 1.4-2 2.7-2c.3 0 .7 0 1.2 .1v-.2c0-.9-.4-1.4-1.4-1.4c-.7 0-1.4 .3-1.9 .6l-.4-1.1c.7-.3 1.6-.6 2.5-.6c1.8 0 2.5 1 2.5 2.6v3.8Zm-11.7-5.2c-1.3 0-1.9 1.1-1.9 2.1c0 1.1 .7 2.1 1.9 2.1c.6 0 1.4-.4 1.7-1.1v-2.2c-.4-.6-1.1-.9-1.7-.9m3 5.2h-1.2V427c-.5 .6-1.3 .9-2 .9c-1.7 0-3-1.4-3-3.2c0-1.7 1.2-3.3 3-3.3c.7 0 1.5 .3 1.9 .9v-3.7h1.3Zm-12-6.2l.1 1c.4-.7 1.2-1.2 2-1.2c.8 0 1.3 .3 1.7 .8c.4 .6 .6 1.4 .6 2.4v3.2h-1.3v-3.1c0-.6 0-1.2-.3-1.6c-.2-.3-.5-.5-1-.5c-.7 0-1.3 .4-1.7 1.1v4.1h-1.3v-6.2Zm-4.3 3.4c-.5-.1-.8-.1-1.1-.1c-.7 0-1.6 .2-1.6 1.1c0 .7 .5 .9 1.1 .9c.6 0 1.1-.3 1.6-.7Zm.1 2.8l-.1-.6c-.5 .5-1 .7-1.8 .7c-1.1 0-2.2-.6-2.2-1.9c0-1.5 1.4-2 2.8-2c.3 0 .7 0 1.2 .1v-.2c0-.9-.5-1.4-1.4-1.4c-.7 0-1.5 .3-2 .6l-.3-1.1c.6-.3 1.6-.6 2.5-.6c1.7 0 2.4 1 2.4 2.6v3.8Zm-9.3-4.8c-.3-.3-.8-.5-1.2-.5c-.5 0-.9 .3-.9 .7c0 .5 .6 .7 1.2 .9c.8 .3 1.8 .8 1.8 1.9c0 1.3-1.1 1.9-2.3 1.9c-.9 0-1.7-.3-2.2-1l.8-.7c.5 .5 .9 .7 1.4 .7c.5 0 1-.3 1-.9c0-.4-.5-.7-1.1-.9c-.8-.3-1.8-.7-1.8-1.8c0-1.3 1-1.9 2.1-1.9c.7 0 1.4 .3 1.9 .8Zm-9.3-1.4v1c.5-.7 1.2-1.2 2-1.2c.8 0 1.4 .3 1.8 .8c.4 .6 .5 1.4 .5 2.4v3.2H493v-3.1c0-.6-.1-1.2-.3-1.6c-.2-.3-.6-.5-1.1-.5c-.6 0-1.3 .4-1.7 1.1v4.1h-1.2v-6.2Zm-5.9 1c-1.1 0-1.9 .9-1.9 2.1c0 1.1 .8 2.1 1.9 2.1c1.1 0 1.9-1 1.9-2.1c0-1.2-.8-2.1-1.9-2.1m3.2 2.1c0 1.8-1.4 3.2-3.2 3.2c-1.8 0-3.2-1.4-3.2-3.2c0-1.8 1.4-3.3 3.2-3.3c1.8 0 3.2 1.5 3.2 3.3m-9.1-3.1h1.3v6.2h-1.3Zm0-2.4h1.3v1.3h-1.3v-1.3Zm-3 3.5v2.7c0 .1 0 .3 0 .5c.1 .5 .3 .9 .8 .9c.3 0 .5-.1 .7-.2l.4 1c-.4 .2-.8 .3-1.3 .3c-.8 0-1.4-.4-1.7-1.1c-.1-.3-.1-.7-.1-1.2v-2.9h-.8v-1.1h.8v-1.5h1.2v1.5h1.7v1.1Zm-4.5 2.3c-.4-.1-.7-.1-1-.1c-.7 0-1.7 .2-1.7 1.1c0 .7 .6 .9 1.2 .9c.6 0 1.1-.3 1.5-.7Zm.1 2.8v-.6c-.5 .5-1.1 .7-1.8 .7c-1.2 0-2.2-.6-2.2-1.9c0-1.5 1.4-2 2.7-2c.3 0 .7 0 1.2 .1v-.2c0-.9-.4-1.4-1.4-1.4c-.7 0-1.4 .3-1.9 .6l-.4-1.1c.7-.3 1.7-.6 2.5-.6c1.8 0 2.5 1 2.5 2.6v3.8Zm-5.6 0h-1.3v-9.2h1.3v9.2Zm-5.6-5.3c-1 0-1.5 .7-1.8 1.5H461c0-.8-.6-1.5-1.5-1.5m0 4.4c.9 0 1.5-.3 1.8-1l.9 .6c-.6 1-1.5 1.4-2.7 1.4c-2 0-3.1-1.4-3.1-3.2c0-1.8 1.3-3.3 3.1-3.3c1.6 0 2.8 1.3 2.8 2.9c0 .2 0 .5 0 .7h-4.6c.1 1 .7 1.9 1.8 1.9m-5.8-4.3c.4-.7 .9-1.2 1.6-1.2c.2 0 .4 .1 .7 .1l-.3 1.3c-.2-.1-.3-.1-.6-.1c-.6 0-1 .3-1.4 .9v4.2h-1.2v-6.2h1.2Zm-7.5 0c.4-.7 1-1.2 1.6-1.2c.3 0 .5 .1 .7 .1l-.2 1.3c-.2-.1-.4-.1-.6-.1c-.6 0-1.1 .3-1.4 .9v4.2H445v-6.2h1.2Zm-5.5-.1c-1 0-1.5 .7-1.8 1.5h3.3c0-.8-.6-1.5-1.5-1.5m0 4.4c.8 0 1.4-.3 1.8-1l.9 .6c-.6 1-1.5 1.4-2.7 1.4c-2 0-3.1-1.4-3.1-3.2c0-1.8 1.3-3.3 3.1-3.3c1.6 0 2.8 1.3 2.8 2.9c0 .2 0 .5 0 .7h-4.6c0 1 .7 1.9 1.8 1.9m-5.8 .9v-3.1c0-.6 0-1.2-.3-1.6c-.1-.3-.5-.5-1-.5c-.5 0-1.1 .4-1.5 .9c0 .3 0 .7 0 1.1v3.2h-1.2v-3.1c0-.6 0-1.3-.3-1.7c-.2-.3-.5-.4-.9-.4c-.6 0-1.3 .5-1.6 1v4.2h-1.3v-6.2H428v.9c.5-.7 1.3-1.1 1.9-1.1c.7 0 1.4 .3 1.7 .9c.1 .1 .2 .2 .2 .3c.5-.8 1.3-1.2 2.1-1.2c.8 0 1.3 .3 1.7 .8c.5 .6 .6 1.4 .6 2.4v3.2Zm-12.7-5.2c-1.1 0-1.9 .9-1.9 2.1c0 1.1 .8 2.1 1.9 2.1c1.1 0 1.9-1 1.9-2.1c0-1.2-.8-2.1-1.9-2.1m3.1 2.1c0 1.8-1.3 3.2-3.1 3.2c-1.9 0-3.2-1.4-3.2-3.2c0-1.8 1.3-3.3 3.2-3.3c1.8 0 3.1 1.5 3.1 3.3m-8.8-2v2.7c0 .1 0 .3 0 .5c0 .5 .2 .9 .8 .9c.2 0 .5-.1 .7-.2l.3 1c-.3 .2-.8 .3-1.2 .3c-.9 0-1.5-.4-1.7-1.1c-.1-.3-.2-.7-.2-1.2v-2.9h-.8v-1.1h.8l.1-1.5h1.2v1.5h1.7v1.1Zm-3.8 .3c-.3-.3-.8-.5-1.3-.5c-.5 0-.8 .3-.8 .7c0 .5 .5 .7 1.1 .9c.8 .3 1.8 .8 1.8 1.9c0 1.3-1.1 1.9-2.2 1.9c-.9 0-1.7-.3-2.3-1l.9-.7c.4 .5 .8 .7 1.3 .7c.6 0 1.1-.3 1.1-.9c0-.4-.6-.7-1.2-.9c-.8-.3-1.7-.7-1.7-1.8c0-1.3 1-1.9 2-1.9c.8 0 1.5 .3 2 .8Zm-6.3 4.8v-1c-.5 .7-1.3 1.1-2 1.1c-.9 0-1.4-.3-1.8-.8c-.4-.5-.6-1.4-.6-2.3v-3.2h1.3v3.1c0 .6 0 1.2 .3 1.6c.2 .3 .5 .5 1 .5c.7 0 1.3-.5 1.7-1.1v-4.1h1.3v6.2Zm-5.6-.5c-.5 .4-1.2 .6-1.9 .6c-1.8 0-3.2-1.3-3.2-3.2c0-1.8 1.4-3.3 3.2-3.3c.7 0 1.3 .3 1.9 .6l-.6 1c-.4-.2-.8-.4-1.3-.4c-1.1 0-1.9 .9-1.9 2.1c0 1.2 .9 2.1 1.9 2.1c.4 0 1-.2 1.3-.5Zm-12.6-4.7c-1.3 0-2 1.1-2 2.1c0 1.1 .8 2.1 2 2.1c.6 0 1.4-.4 1.7-1.1v-2.2c-.4-.6-1.1-.9-1.7-.9m3 5.2H390l-.1-.8c-.4 .6-1.2 .9-1.9 .9c-1.8 0-3.1-1.4-3.1-3.2c0-1.7 1.3-3.3 3.1-3.3c.7 0 1.4 .3 1.9 .9v-3.7h1.3Zm-12-6.2v1c.5-.7 1.2-1.2 2-1.2c.8 0 1.4 .3 1.8 .8c.4 .6 .5 1.4 .5 2.4v3.2h-1.2v-3.1c0-.6 0-1.2-.3-1.6c-.2-.3-.5-.5-1-.5c-.7 0-1.3 .4-1.8 1.1v4.1H378v-6.2Zm-4.4 3.4c-.4-.1-.7-.1-1-.1c-.7 0-1.7 .2-1.7 1.1c0 .7 .6 .9 1.2 .9c.6 0 1.1-.3 1.5-.7Zm.1 2.8v-.6c-.5 .5-1.1 .7-1.8 .7c-1.2 0-2.2-.6-2.2-1.9c0-1.5 1.4-2 2.7-2c.3 0 .7 0 1.2 .1v-.2c0-.9-.4-1.4-1.4-1.4c-.7 0-1.4 .3-1.9 .6l-.4-1.1c.7-.3 1.7-.6 2.5-.6c1.8 0 2.5 1 2.5 2.6v3.8Zm-9.9-4.3c-.4-.6-1.1-.9-1.7-.9c-1.3 0-2 1-2 2c0 1.1 .8 2 2 2c.6 0 1.4-.3 1.7-1.1Zm-1.9 4.3c-1.8 0-3-1.4-3-3.2c0-1.7 1.2-3.2 3-3.2c.7 0 1.5 .4 2 .9v-.7h1.2v5.8c0 .7-.1 1.2-.4 1.7c-.5 1-1.6 1.4-2.7 1.4c-1 0-2-.3-2.8-.8l.5-1.1c.6 .5 1.5 .8 2.2 .8c1 0 1.9-.5 1.9-1.8v-.8c-.4 .7-1.2 1-1.9 1m-8.8-6.2v1c.5-.7 1.2-1.2 2-1.2c.9 0 1.4 .3 1.8 .8c.4 .6 .5 1.4 .5 2.4v3.2h-1.2v-3.1c0-.6 0-1.2-.3-1.6c-.2-.3-.5-.5-1-.5c-.7 0-1.3 .4-1.7 1.1v4.1h-1.3v-6.2Zm-4.4 0h1.2v6.2h-1.2v-6.2Zm0-2.4h1.2v1.3h-1.2v-1.3Zm-3 3.5v2.7c0 .1 0 .3 0 .5c0 .5 .2 .9 .8 .9c.2 0 .5-.1 .7-.2l.3 1c-.3 .2-.8 .3-1.2 .3c-.9 0-1.4-.4-1.7-1.1c-.1-.3-.2-.7-.2-1.2v-2.9h-.8v-1.1h.8l.1-1.5h1.2v1.5h1.7v1.1Zm-5.7-.2c-.9 0-1.5 .7-1.7 1.5h3.3c-.1-.8-.7-1.5-1.6-1.5m.1 4.4c.8 0 1.4-.3 1.8-1l.8 .6c-.6 1-1.4 1.4-2.7 1.4c-1.9 0-3.1-1.4-3.1-3.2c0-1.8 1.4-3.3 3.1-3.3c1.7 0 2.9 1.3 2.9 2.9c0 .2 0 .5-.1 .7h-4.6c.1 1 .8 1.9 1.9 1.9m-7.6-2.3v0l2.4-3h1.5l-2.2 2.5l2.4 3.7h-1.5l-1.7-2.7l-.9 1.1v1.6h-1.3v-9.2h1.3Zm-4.5-2c.4-.7 .9-1.2 1.6-1.2c.3 0 .5 .1 .7 .1l-.3 1.3c-.1-.1-.3-.1-.5-.1c-.6 0-1.1 .3-1.5 .9v4.2H328v-6.2h1.2Zm-4.4 2.4c-.4-.1-.7-.1-1-.1c-.7 0-1.7 .2-1.7 1.1c0 .7 .6 .9 1.2 .9c.6 0 1.1-.3 1.5-.7Zm.1 2.8v-.6c-.5 .5-1.1 .7-1.8 .7c-1.2 0-2.2-.6-2.2-1.9c0-1.5 1.4-2 2.7-2c.3 0 .7 0 1.2 .1v-.2c0-.9-.4-1.4-1.4-1.4c-.7 0-1.4 .3-1.9 .6l-.4-1.1c.7-.3 1.7-.6 2.5-.6c1.8 0 2.5 1 2.5 2.6v3.8Zm-6.8 0v-3.1c0-.6 0-1.2-.3-1.6c-.2-.3-.5-.5-1-.5c-.6 0-1.2 .4-1.6 .9c.1 .3 .1 .7 .1 1.1v3.2H314v-3.1c0-.6 0-1.3-.3-1.7c-.2-.3-.5-.4-.9-.4c-.6 0-1.2 .5-1.6 1v4.2H310v-6.2h1.2v.9c.5-.7 1.2-1.1 1.9-1.1c.7 0 1.3 .3 1.7 .9c.1 .1 .1 .2 .1 .3c.6-.8 1.4-1.2 2.2-1.2c.8 0 1.3 .3 1.7 .8c.4 .6 .5 1.4 .5 2.4v3.2Zm-14.2-5.1v2.7c0 .1 0 .3 0 .5c.1 .5 .3 .9 .8 .9c.3 0 .5-.1 .7-.2l.4 1c-.4 .2-.8 .3-1.3 .3c-.9 0-1.4-.4-1.7-1.1c-.1-.3-.1-.7-.1-1.2v-2.9h-.9v-1.1h.9v-1.5h1.2v1.5h1.7v1.1Zm-2.8 4.6c-.5 .4-1.2 .6-1.9 .6c-1.8 0-3.2-1.3-3.2-3.2c0-1.8 1.4-3.3 3.2-3.3c.7 0 1.3 .3 1.9 .6l-.6 1c-.4-.2-.8-.4-1.3-.4c-1.1 0-1.9 .9-1.9 2.1c0 1.2 .9 2.1 1.9 2.1c.4 0 1-.2 1.3-.5Zm-7.8 .5v-1c-.5 .7-1.2 1.1-2 1.1c-.8 0-1.4-.3-1.8-.8c-.4-.5-.5-1.4-.5-2.3v-3.2h1.2v3.1c0 .6 .1 1.2 .3 1.6c.2 .3 .5 .5 1 .5c.7 0 1.4-.5 1.8-1.1v-4.1h1.2v6.2Zm-9.2-5.2c-1.3 0-2 1.1-2 2.1c0 1.1 .8 2.1 2 2.1c.6 0 1.4-.4 1.7-1.1v-2.2c-.4-.6-1.1-.9-1.7-.9m3 5.2h-1.2V427c-.5 .6-1.3 .9-2 .9c-1.8 0-3-1.4-3-3.2c0-1.7 1.2-3.3 3-3.3c.7 0 1.4 .3 1.9 .9v-3.7h1.3Zm-10.4-5.2c-1.1 0-1.9 .9-1.9 2.1c0 1.1 .8 2.1 1.9 2.1c1.1 0 1.9-1 1.9-2.1c0-1.2-.8-2.1-1.9-2.1m3.2 2.1c0 1.8-1.4 3.2-3.2 3.2c-1.8 0-3.2-1.4-3.2-3.2c0-1.8 1.4-3.3 3.2-3.3c1.8 0 3.2 1.5 3.2 3.3m-9.1-2.1c.4-.7 .9-1.2 1.6-1.2c.3 0 .5 .1 .7 .1l-.3 1.3c-.1-.1-.3-.1-.5-.1c-.6 0-1.1 .3-1.4 .9v4.2h-1.3v-6.2h1.2Zm-7.6 3.3c.4 .6 1.1 .9 1.7 .9c1.3 0 1.9-1.1 1.9-2.1c0-1.1-.7-2.1-1.9-2.1c-.6 0-1.4 .4-1.7 1.1Zm-.1-4.3v.8c.5-.6 1.3-1 2-1c1.7 0 3 1.5 3 3.3c0 1.7-1.2 3.2-3 3.2c-.7 0-1.5-.3-1.9-.8v3.7h-1.3v-9.2Zm-9.8 0l1.5 4.4h.1l1.5-4.4h1.4l-3.5 9l-1.1-.5l1-2.6l-2.3-5.9Zm-2.4 6.2h-1.3v-9.2h1.3v9.2Zm-5.6-5.3c-.9 0-1.5 .7-1.7 1.5h3.3c-.1-.8-.7-1.5-1.6-1.5m.1 4.4c.8 0 1.4-.3 1.8-1l.8 .6c-.6 1-1.4 1.4-2.7 1.4c-1.9 0-3.1-1.4-3.1-3.2c0-1.8 1.4-3.3 3.1-3.3c1.7 0 2.9 1.3 2.9 2.9c0 .2-.1 .5-.1 .7h-4.6c.1 1 .8 1.9 1.9 1.9m-5.9-4.3c.4-.7 .9-1.2 1.6-1.2c.3 0 .5 .1 .7 .1l-.3 1.3c-.1-.1-.3-.1-.5-.1c-.6 0-1.1 .3-1.4 .9v4.2h-1.3v-6.2h1.2Zm-4.4 5.2v-1c-.5 .7-1.2 1.1-2 1.1c-.8 0-1.4-.3-1.8-.8c-.4-.5-.5-1.4-.5-2.3v-3.2h1.3v3.1c0 .6 0 1.2 .2 1.6c.2 .3 .6 .5 1.1 .5c.6 0 1.3-.5 1.7-1.1v-4.1h1.2v6.2Zm-10.7-1.9c.4 .6 1.1 .9 1.7 .9c1.4 0 2-1.1 2-2.1c0-1.1-.7-2.1-2-2.1c-.6 0-1.4 .4-1.7 1.1Zm0-4.3v.8c.4-.6 1.2-1 2-1c1.7 0 3 1.5 3 3.3c0 1.7-1.2 3.2-3.1 3.2c-.7 0-1.4-.3-1.9-.8v3.7h-1.2v-9.2Zm-7.3 1.1v2.7c0 .1 0 .3 0 .5c0 .5 .2 .9 .8 .9c.3 0 .5-.1 .7-.2l.4 1c-.4 .2-.8 .3-1.3 .3c-.9 0-1.4-.4-1.7-1.1c-.1-.3-.2-.7-.2-1.2v-2.9H215v-1.1h.8l.1-1.5h1.2v1.5h1.7v1.1Zm-4.5 5.1v-1c-.5 .7-1.2 1.1-2 1.1c-.8 0-1.4-.3-1.8-.8c-.4-.5-.5-1.4-.5-2.3v-3.2h1.2v3.1c0 .6 0 1.2 .3 1.6c.2 .3 .5 .5 1 .5c.7 0 1.4-.5 1.8-1.1v-4.1h1.2v6.2Zm-10.7-1.9c.4 .6 1.1 .9 1.7 .9c1.3 0 2-1.1 2-2.1c0-1.1-.8-2.1-2-2.1c-.6 0-1.4 .4-1.7 1.1Zm0-7.3v3.8c.4-.6 1.2-1 1.9-1c1.8 0 3.1 1.5 3.1 3.3c0 1.7-1.3 3.2-3.1 3.2c-.7 0-1.5-.3-2-.8v.7h-1.2v-9.2Zm-7.5 4.9c-.4-.6-1.1-.9-1.7-.9c-1.3 0-2 1-2 2c0 1.1 .8 2 2 2c.6 0 1.4-.3 1.7-1.1Zm-1.9 4.3c-1.8 0-3.1-1.4-3.1-3.2c0-1.7 1.3-3.2 3.1-3.2c.7 0 1.5 .4 2 .9v-.7h1.2v5.8c0 .7-.1 1.2-.4 1.7c-.5 1-1.6 1.4-2.7 1.4c-1 0-2-.3-2.8-.8l.5-1.1c.6 .5 1.5 .8 2.2 .8c1 0 1.9-.5 1.9-1.8v-.8c-.4 .7-1.2 1-1.9 1m-8.8-6.2v1c.5-.7 1.2-1.2 2-1.2c.8 0 1.4 .3 1.8 .8c.4 .6 .5 1.4 .5 2.4v3.2h-1.2v-3.1c0-.6 0-1.2-.3-1.6c-.2-.3-.5-.5-1-.5c-.7 0-1.4 .4-1.8 1.1v4.1h-1.2v-6.2Zm-4.4 0h1.2v6.2h-1.2v-6.2Zm0-2.4h1.2v1.3h-1.2v-1.3Zm-3 3.5v2.7c0 .1 0 .3 0 .5c0 .5 .2 .9 .8 .9c.2 0 .5-.1 .7-.2l.3 1c-.3 .2-.8 .3-1.2 .3c-.9 0-1.5-.4-1.7-1.1c-.1-.3-.2-.7-.2-1.2v-2.9h-.8v-1.1h.8l.1-1.5h1.2v1.5H178v1.1Zm-4.3 0v2.7c0 .1 0 .3 0 .5c0 .5 .2 .9 .7 .9c.3 0 .5-.1 .7-.2l.4 1c-.3 .2-.8 .3-1.2 .3c-.9 0-1.5-.4-1.7-1.1c-.2-.3-.2-.7-.2-1.2v-2.9h-.8v-1.1h.8l.1-1.5H172v1.5h1.7v1.1Zm-5.7-.2c-.9 0-1.5 .7-1.8 1.5h3.3c0-.8-.6-1.5-1.5-1.5m0 4.4c.9 0 1.5-.3 1.8-1l.9 .6c-.6 1-1.4 1.4-2.7 1.4c-2 0-3.1-1.4-3.1-3.2c0-1.8 1.3-3.3 3.1-3.3c1.6 0 2.9 1.3 2.9 2.9c0 .2-.1 .5-.1 .7h-4.6c.1 1 .7 1.9 1.8 1.9m-9.1-1c.5 .6 1.1 .9 1.8 .9c1.3 0 1.9-1.1 1.9-2.1c0-1.1-.7-2.1-1.9-2.1c-.7 0-1.4 .4-1.8 1.1Zm0-7.3v3.8c.5-.6 1.3-1 2-1c1.7 0 3 1.5 3 3.3c0 1.7-1.2 3.2-3 3.2c-.7 0-1.5-.3-2-.8v.7H156v-9.2Zm-8.6 3.9c-.9 0-1.5 .7-1.7 1.5h3.3c-.1-.8-.7-1.5-1.6-1.5m.1 4.4c.8 0 1.4-.3 1.8-1l.8 .6c-.6 1-1.4 1.4-2.7 1.4c-1.9 0-3.1-1.4-3.1-3.2c0-1.8 1.4-3.3 3.1-3.3c1.7 0 2.9 1.3 2.9 2.9c0 .2-.1 .5-.1 .7h-4.6c.1 1 .8 1.9 1.9 1.9m-4.6 .9h-1.3v-9.2h1.3Zm-6.2-5.2c-1.4 0-2 1.1-2 2.1c0 1.1 .7 2.1 1.9 2.1c.7 0 1.5-.4 1.8-1.1v-2.2c-.4-.6-1.1-.9-1.7-.9m2.9 5.2h-1.2V427c-.4 .6-1.2 .9-2 .9c-1.7 0-3-1.4-3-3.2c0-1.7 1.2-3.3 3.1-3.3c.7 0 1.4 .3 1.9 .9v-3.7h1.2Zm-12-6.2l.1 1c.4-.7 1.2-1.2 2-1.2c.8 0 1.4 .3 1.7 .8c.5 .6 .6 1.4 .6 2.4v3.2h-1.3v-3.1c0-.6 0-1.2-.3-1.6c-.1-.3-.5-.5-1-.5c-.6 0-1.3 .4-1.7 1.1v4.1h-1.3v-6.2Zm-4.3 3.4c-.4-.1-.8-.1-1.1-.1c-.7 0-1.6 .2-1.6 1.1c0 .7 .5 .9 1.1 .9c.6 0 1.1-.3 1.6-.7Zm.1 2.8v-.6c-.5 .5-1.1 .7-1.9 .7c-1.1 0-2.2-.6-2.2-1.9c0-1.5 1.4-2 2.8-2c.3 0 .7 0 1.2 .1v-.2c0-.9-.4-1.4-1.4-1.4c-.7 0-1.4 .3-2 .6l-.3-1.1c.7-.3 1.6-.6 2.5-.6c1.8 0 2.5 1 2.5 2.6v3.8Zm-9.9-5.3c.5-.6 1.2-1.1 2-1.1c.8 0 1.4 .3 1.7 .8c.5 .6 .6 1.4 .6 2.4v3.2h-1.3v-3.1c0-.6 0-1.2-.3-1.6c-.1-.3-.5-.5-1-.5c-.6 0-1.3 .4-1.7 1.1v4.1h-1.3v-9.2h1.3Z" class="g2_7"/>
<path d="M-9.1 0H-50.3M918.6 0h41.3M-9.1 1286.2H-50.3m968.9 0h41.3M0-9.1V-50.3M0 1295.4v41.2M909.4-9.1V-50.3m0 1345.7v41.2" class="g4_7"/>
<path d="M-9.1 0H-50.3M918.6 0h41.3M-9.1 1286.2H-50.3m968.9 0h41.3M0-9.1V-50.3M0 1295.4v41.2M909.4-9.1V-50.3m0 1345.7v41.2" class="g5_7"/>
</svg>