<svg viewBox="0 0 909 1285" version="1.1" xmlns="http://www.w3.org/2000/svg">
<defs>
<style>
.g0_5{fill:#E8ECF0;}
.g1_5{fill:#1A3D6D;}
.g2_5{fill:#FFF;}
.g3_5{fill:#D1D8E2;}
.g4_5{fill:#C6CFDB;}
.g5_5{fill:none;stroke:#000;stroke-width:1.909;stroke-miterlimit:10;}
.g6_5{fill:none;stroke:#000;stroke-width:0.381;stroke-miterlimit:10;}
</style>
</defs>
<path d="M0 1285.7H909.1V0H0V1285.7Z" class="g0_5"/>
<path d="M0 48.9H909.1V0H0V48.9Z" class="g1_5"/>
<path d="M94.4 12.2c-7.7 0-13.8 4.7-13.8 12.2c0 7.6 6.1 12.3 13.8 12.3c7.7 0 13.9-4.7 13.9-12.3c0-7.5-6.2-12.2-13.9-12.2m0 21.5c-5.5 0-7.9-4.3-7.9-9.3c0-4.9 2.4-9.3 7.9-9.3c5.6 0 7.9 4.4 7.9 9.3c0 5-2.3 9.3-7.9 9.3Z" class="g2_5"/>
<path d="M69 12.9H59.6v14c-.9-1.9-2.9-3.1-5.1-3.5c1.7-.8 3.1-2.3 3.1-4.8c0-3.4-2.3-5.7-7.8-5.7H36.4v23H51c4.3 0 7.4-1.1 8.6-3.9v3.9H69c6.5 0 11-1.9 13.1-5.5c-1-1.8-1.6-3.9-1.5-6c-.1-2.1 .5-4.1 1.5-6C80 14.8 75.5 12.9 69 12.9M42 16h5.5c2.9 0 4.3 1.3 4.3 3.3c0 2-1.4 3.3-4.3 3.3H42Zm7.6 16.9H42V25.7h7.6c3.1 0 4.6 1.4 4.6 3.6c0 2.2-1.5 3.6-4.6 3.6m18.7 0H65.2V16h3.1c6.7 0 9.4 3.6 9.4 8.4c0 4.9-2.7 8.5-9.4 8.5Z" class="g2_5"/>
<path d="M890.8 48.9h18.3V0H890.8V48.9Z" class="g1_5"/>
<path d="M0 1188.6H909.2v-48.9H0v48.9Z" class="g3_5"/>
<path d="M.6 1285.7H909.2v-97.1H.6v97.1Z" class="g4_5"/>
<path d="M0 1285.4H26.9v-96.8H0v96.8Z" class="g1_5"/>
<path d="M43.7 1226.8c-2.5 0-4.6 2-4.6 4.6v27.5c0 2.5 2.1 4.6 4.6 4.6H192.8c2.5 0 4.6-2.1 4.6-4.6v-27.5c0-2.6-2.1-4.6-4.6-4.6Z" class="g2_5"/>
<path d="M215.4 1226.8c-2.6 0-4.6 2-4.6 4.6v27.5c0 2.5 2 4.6 4.6 4.6H364.5c2.5 0 4.6-2.1 4.6-4.6v-27.5c0-2.6-2.1-4.6-4.6-4.6Z" class="g2_5"/>
<path d="M387.7 1226.8c-2.5 0-4.6 2-4.6 4.6v27.5c0 2.5 2.1 4.6 4.6 4.6H536.8c2.6 0 4.6-2.1 4.6-4.6v-27.5c0-2.6-2-4.6-4.6-4.6Z" class="g2_5"/>
<path d="M561.4 1226.8c-2.5 0-4.6 2-4.6 4.6v27.5c0 2.5 2.1 4.6 4.6 4.6H710.5c2.6 0 4.6-2.1 4.6-4.6v-27.5c0-2.6-2-4.6-4.6-4.6Z" class="g2_5"/>
<path d="M733.1 1226.8c-2.5 0-4.6 2-4.6 4.6v27.5c0 2.5 2.1 4.6 4.6 4.6H882.2c2.5 0 4.6-2.1 4.6-4.6v-27.5c0-2.6-2.1-4.6-4.6-4.6Z" class="g2_5"/>
<path d="M-9.1-.4H-50.3m968.9 0h41.3M-9.1 1285.7H-50.3m968.9 0h41.3M0-9.6V-50.9M0 1294.9v41.2M909.4-9.6V-50.9m0 1345.8v41.2" class="g5_5"/>
<path d="M-9.1-.4H-50.3m968.9 0h41.3M-9.1 1285.7H-50.3m968.9 0h41.3M0-9.6V-50.9M0 1294.9v41.2M909.4-9.6V-50.9m0 1345.8v41.2" class="g6_5"/>
</svg>