<svg viewBox="0 0 909 1286" version="1.1" xmlns="http://www.w3.org/2000/svg">
<defs>
<clipPath id="c0_4"><path d="M581.2 139.6V121.2h18.4v18.4Z"/></clipPath>
<clipPath id="c1_4"><path d="M581.2 163.1V145.2h17.9v17.9Z"/></clipPath>
<clipPath id="c2_4"><path d="M818.3 607.3V592.7H833v14.6Z"/></clipPath>
<clipPath id="c3_4"><path d="M746.7 632.8V617.7h15.1v15.1Z"/></clipPath>
<clipPath id="c4_4"><path d="M54.2 140.4V123.7H70.9v16.7Z"/></clipPath>
<clipPath id="c5_4"><path d="M54.2 162.1V145.7H70.6v16.4Z"/></clipPath>
<style>
.g0_4{fill:#E8ECF0;}
.g1_4{fill:#D1D8E2;}
.g2_4{fill:#1A3D6D;}
.g3_4{fill:#FFF;}
.g4_4{fill:none;stroke:#D1D8E2;stroke-width:1.222;}
.g5_4{fill:none;stroke:#D1D8E2;stroke-width:1.527;}
.g6_4{fill:none;stroke:#E8ECF0;stroke-width:1.527;}
.g7_4{fill:none;stroke:#E3E8ED;stroke-width:1.527;}
.g8_4{fill:none;stroke:#000;stroke-width:1.527;stroke-miterlimit:10;}
.g9_4{fill:none;stroke:#7F7F7F;stroke-width:1.08;stroke-miterlimit:10;}
.ga_4{fill:none;stroke:#C0C0C0;stroke-width:1.08;stroke-miterlimit:10;}
.gb_4{fill:none;stroke:#7F7F7F;stroke-width:1.527;stroke-miterlimit:10;}
.gc_4{fill:none;stroke:#C0C0C0;stroke-width:1.527;stroke-miterlimit:10;}
</style>
</defs>
<path d="M0 1286.2H909.4V0H0V1286.2Z" class="g0_4"/>
<path d="M39.7 59.6c-1.7 0-3 1.4-3 3V74.9c0 1.6 1.3 3 3 3h830c1.7 0 3.1-1.4 3.1-3V62.6c0-1.6-1.4-3-3.1-3Z" class="g1_4"/>
<path d="M39.7 178.7c-1.7 0-3 1.3-3 3v12.2c0 1.7 1.3 3.1 3 3.1h830c1.7 0 3.1-1.4 3.1-3.1V181.7c0-1.7-1.4-3-3.1-3Z" class="g1_4"/>
<path d="M39.7 522.6c-1.7 0-3 1.4-3 3.1v12.2c0 1.7 1.3 3 3 3h830c1.7 0 3.1-1.3 3.1-3V525.7c0-1.7-1.4-3.1-3.1-3.1Z" class="g1_4"/>
<path d="M39.9 682.8c-1.7 0-3.1 1.4-3.1 3.1v12.2c0 1.7 1.4 3 3.1 3h830c1.7 0 3.1-1.3 3.1-3V685.9c0-1.7-1.4-3.1-3.1-3.1Z" class="g1_4"/>
<path d="M0 48.9H909.4V0H0V48.9Z" class="g2_4"/>
<path d="M0 110V48.9Z" class="g1_4"/>
<path d="M39.9 754.2c-1.7 0-3.1 1.4-3.1 3.1v12.2c0 1.7 1.4 3 3.1 3h830c1.7 0 3.1-1.3 3.1-3V757.3c0-1.7-1.4-3.1-3.1-3.1Z" class="g1_4"/>
<path d="M591.1 122.4c-3.4 0-6.2 2.7-6.2 6.1c0 3.4 2.8 6.1 6.2 6.1c3.3 0 6.1-2.7 6.1-6.1c0-3.4-2.8-6.1-6.1-6.1Z" class="g3_4"/>
<path d="M590.8 147.2c-3.3 0-6.1 2.7-6.1 6.1c0 3.4 2.8 6.1 6.1 6.1c3.4 0 6.1-2.7 6.1-6.1c0-3.4-2.7-6.1-6.1-6.1Z" class="g3_4"/>
<path d="M578.6 86.2c-1.3 0-2.4 1.1-2.4 2.4v79.5c0 1.3 1.1 2.4 2.4 2.4H869.7c1.4 0 2.5-1.1 2.5-2.4V88.6c0-1.3-1.1-2.4-2.5-2.4H578.6Z" class="g4_4"/>
<path d="M61.7 124.7c-3.4 0-6.2 2.8-6.2 6.1c0 3.4 2.8 6.2 6.2 6.2c3.3 0 6.1-2.8 6.1-6.2c0-3.3-2.8-6.1-6.1-6.1Z" class="g3_4"/>
<path d="M61.5 146.7c-3.4 0-6.2 2.7-6.2 6.1c0 3.4 2.8 6.1 6.2 6.1c3.3 0 6.1-2.7 6.1-6.1c0-3.4-2.8-6.1-6.1-6.1Z" class="g3_4"/>
<path d="M39.7 86.2c-1.3 0-2.4 1.1-2.4 2.4v79.5c0 1.3 1.1 2.4 2.4 2.4H564.2c1.4 0 2.5-1.1 2.5-2.4V88.6c0-1.3-1.1-2.4-2.5-2.4H39.7Z" class="g4_4"/>
<path d="M865.7 225.9V228c0 .1 0 .2 0 .3c.1 .5 .2 .8 .7 .8c.2 0 .3 0 .5-.1l.2 .7c-.2 .1-.5 .2-.8 .2c-.7 0-1.1-.3-1.3-.8c-.1-.2-.1-.6-.1-.9v-2.3h-.6v-.7h.6v-1.1h.8v1.1H867v.7Zm-5.6-.7v.7c.4-.5 .9-.8 1.5-.8c.7 0 1.1 .2 1.3 .6c.4 .4 .5 1 .5 1.7v2.4h-.9v-2.3c0-.5 0-1-.2-1.3c-.2-.2-.4-.4-.8-.4c-.5 0-1 .4-1.4 .9v3.1h-.8v-4.6Zm-5.4 1.8h2.6c-.1-.6-.6-1.2-1.2-1.2c-.8 0-1.3 .5-1.4 1.2m-.1 .7c.1 .8 .6 1.5 1.5 1.5c.6 0 1.1-.3 1.3-.8l.7 .4c-.5 .7-1.1 1.1-2.1 1.1c-1.4 0-2.2-1.1-2.2-2.4c0-1.4 1-2.4 2.2-2.4c1.3 0 2.1 .9 2.1 2.1c0 .2 0 .4 0 .5Zm-2.8 2.1v-2.3c0-.5 0-1-.2-1.3c-.1-.2-.4-.4-.8-.4c-.4 0-.9 .4-1.2 .8c0 .2 0 .5 0 .8v2.4h-.8v-2.3c0-.5 0-1-.3-1.3c-.1-.2-.3-.4-.7-.4c-.4 0-.9 .5-1.2 .9v3.1h-.9v-4.6h.9v.7c.3-.5 .9-.8 1.4-.8c.5 0 1 .2 1.3 .6c0 .1 .1 .2 .1 .2c.4-.5 1-.8 1.6-.8c.6 0 1 .2 1.2 .5c.4 .4 .5 1.1 .5 1.8v2.4Zm-10.2-4.6l1.2 3.5l1.2-3.5h.9l-2.6 6.6l-.7-.3l.7-1.9l-1.7-4.4Zm-2.6 2.5c-.3-.1-.6-.1-.8-.1c-.6 0-1.3 .1-1.3 .8c0 .6 .4 .8 .9 .8c.5 0 .9-.3 1.2-.6Zm.1 2.1v-.5c-.4 .4-.8 .6-1.4 .6c-.8 0-1.6-.4-1.6-1.4c0-1.2 1-1.5 2-1.5c.3 0 .5 0 .9 .1v-.2c0-.7-.3-1.1-1-1.1c-.6 0-1.1 .2-1.5 .4l-.2-.7c.4-.2 1.1-.4 1.8-.4c1.3 0 1.8 .7 1.8 1.9v2.8Zm-7.6-1.4c.3 .5 .8 .7 1.3 .7c1 0 1.5-.8 1.5-1.6c0-.9-.6-1.7-1.5-1.7c-.5 0-1.1 .3-1.3 .9Zm0-3.2v.6c.3-.5 .9-.7 1.4-.7c1.3 0 2.3 1 2.3 2.4c0 1.2-.9 2.4-2.3 2.4c-.5 0-1.1-.3-1.4-.6v2.8h-.9v-6.9Zm-4.7 4.6H826v-6.9h.8v6.9Zm-2.4 0h-.8v-6.9h.8v6.9Zm-3.2-.8c-.3 .6-.9 .9-1.5 .9c-.6 0-1.1-.2-1.3-.6c-.3-.4-.4-1-.4-1.7v-2.4h.8v2.3c0 .4 0 .9 .2 1.2c.2 .3 .4 .4 .8 .4c.6 0 1.1-.4 1.4-.9v-3h.8v4.6h-.8Zm-3.9-5.3c-.2-.1-.4-.1-.6-.1c-.2 0-.4 0-.5 .1c-.2 .2-.3 .5-.3 .9v.6h1.3v.7h-1.3v3.9h-.8v-3.9h-.5v-.7h.5v-.7c0-.4 .1-.9 .3-1.2c.2-.3 .6-.5 1.2-.5c.3 0 .7 .1 .9 .2Zm-8.1 2.1c-.9 0-1.5 .8-1.5 1.7c0 .9 .6 1.6 1.5 1.6c.8 0 1.4-.7 1.4-1.6c0-.9-.6-1.7-1.4-1.7m2.3 1.7c0 1.3-1 2.4-2.3 2.4c-1.4 0-2.4-1.1-2.4-2.4c0-1.4 1-2.4 2.4-2.4c1.3 0 2.3 1 2.3 2.4m-6.6-1.6V228c0 .1 0 .2 0 .3c0 .5 .2 .8 .7 .8c.1 0 .3 0 .5-.1l.2 .7c-.2 .1-.5 .2-.8 .2c-.7 0-1.1-.3-1.3-.8c-.1-.2-.1-.6-.1-.9v-2.3h-.6v-.7h.6v-1.1h.8v1.1h1.3v.7Zm-5.5 2.3v-1.7c-.4-.4-.9-.7-1.4-.7c-1 0-1.5 .9-1.5 1.7c0 .8 .6 1.6 1.5 1.6c.5 0 1.1-.3 1.4-.9m-3.8-.7c0-1.2 .9-2.4 2.3-2.4c.6 0 1.1 .2 1.5 .6v-2.8h.8v6.9h-.8v-.6c-.4 .4-.9 .7-1.5 .7c-1.3 0-2.3-1.1-2.3-2.4m-4.2-.5H794c-.1-.6-.6-1.2-1.2-1.2c-.8 0-1.3 .5-1.4 1.2m-.1 .7c.1 .8 .6 1.5 1.5 1.5c.6 0 1.1-.3 1.4-.8l.6 .4c-.5 .7-1.1 1.1-2 1.1c-1.5 0-2.3-1.1-2.3-2.4c0-1.4 1-2.4 2.3-2.4c1.2 0 2 .9 2 2.1c0 .2 0 .4 0 .5Zm-2.7-1.8V228c0 .1 0 .2 0 .3c0 .5 .2 .8 .6 .8c.2 0 .4 0 .5-.1l.3 .7c-.3 .1-.6 .2-.9 .2c-.6 0-1-.3-1.2-.8c-.1-.2-.2-.6-.2-.9v-2.3h-.6v-.7h.6v-1.1h.9v1.1h1.3v.7Zm-2.4 3.9h-.9v-6.9h.9v6.9Zm-3.3-.8c-.3 .6-.8 .9-1.4 .9c-.7 0-1.1-.2-1.4-.6c-.3-.4-.4-1-.4-1.7v-2.4h.8v2.3c0 .4 .1 .9 .3 1.2c.1 .3 .4 .4 .8 .4c.5 0 1-.4 1.3-.9v-3h.9v4.6h-.9Zm-5.5-1.3c-.3-.1-.6-.1-.8-.1c-.5 0-1.3 .1-1.3 .8c0 .6 .4 .8 .9 .8c.5 0 .9-.3 1.2-.6Zm.1 2.1v-.5c-.4 .4-.8 .6-1.4 .6c-.8 0-1.6-.4-1.6-1.4c0-1.2 1-1.5 2-1.5c.3 0 .5 0 .9 .1v-.2c0-.7-.3-1.1-1-1.1c-.6 0-1.1 .2-1.5 .4l-.2-.7c.4-.2 1.1-.4 1.8-.4c1.3 0 1.8 .7 1.8 1.9v2.8Zm-3.5-6.1c-.2-.1-.3-.1-.6-.1c-.2 0-.4 0-.5 .1c-.2 .2-.2 .5-.2 .9v.6h1.2v.7h-1.2v3.9h-.9v-3.9h-.5v-.7h.5v-.7c0-.4 .1-.9 .3-1.2c.3-.3 .6-.5 1.2-.5c.3 0 .7 .1 1 .2Zm-6.9 3.3h2.6c-.1-.6-.6-1.2-1.3-1.2c-.7 0-1.2 .5-1.3 1.2m-.1 .7c0 .8 .6 1.5 1.5 1.5c.6 0 1.1-.3 1.3-.8l.6 .4c-.4 .7-1 1.1-2 1.1c-1.4 0-2.2-1.1-2.2-2.4c0-1.4 1-2.4 2.2-2.4c1.2 0 2.1 .9 2.1 2.1c0 .2 0 .4 0 .5Zm-2.8 .5v-1.7c-.4-.4-.9-.7-1.4-.7c-1 0-1.5 .9-1.5 1.7c0 .8 .6 1.6 1.5 1.6c.5 0 1.1-.3 1.4-.9m-3.8-.7c0-1.2 .9-2.4 2.3-2.4c.6 0 1.1 .2 1.5 .6v-2.8h.8v6.9h-.8v-.6c-.4 .4-.9 .7-1.5 .7c-1.3 0-2.3-1.1-2.3-2.4m-3.8 3.5h-.8l.5-2.3h.9Zm-5-4h2.6c0-.6-.5-1.2-1.2-1.2c-.8 0-1.2 .5-1.4 1.2m-.1 .7c.1 .8 .6 1.5 1.5 1.5c.6 0 1.1-.3 1.4-.8l.6 .4c-.5 .7-1.1 1.1-2 1.1c-1.5 0-2.3-1.1-2.3-2.4c0-1.4 1-2.4 2.3-2.4c1.2 0 2.1 .9 2.1 2.1c0 .2-.1 .4-.1 .5Zm-1.4 1.7c-.3 .3-.9 .5-1.4 .5c-1.3 0-2.4-1-2.4-2.4c0-1.4 1.1-2.4 2.4-2.4c.5 0 1 .1 1.3 .4l-.4 .7c-.2-.2-.6-.4-.9-.4c-.8 0-1.5 .8-1.5 1.7c0 1 .7 1.6 1.5 1.6c.3 0 .7-.1 1-.3Zm-8.1-4.2v.7c.3-.5 .9-.8 1.5-.8c.6 0 1.1 .2 1.3 .6c.3 .4 .4 1 .4 1.7v2.4h-.8v-2.3c0-.5 0-1-.2-1.3c-.2-.2-.4-.4-.8-.4c-.6 0-1.1 .4-1.4 .9v3.1h-.8v-4.6Zm-3.1 2.5c-.4-.1-.6-.1-.9-.1c-.5 0-1.3 .1-1.3 .8c0 .6 .4 .8 .9 .8c.5 0 .9-.3 1.3-.6Zm0 2.1v-.5c-.4 .4-.8 .6-1.4 .6c-.8 0-1.6-.4-1.6-1.4c0-1.2 1-1.5 2-1.5c.3 0 .6 0 1 .1v-.2c0-.7-.4-1.1-1.1-1.1c-.6 0-1.1 .2-1.5 .4l-.2-.7c.4-.2 1.1-.4 1.8-.4c1.3 0 1.8 .7 1.8 1.9v2.8Zm-4.3 0h-.8v-6.9h.8v6.9Zm-3.1-2.1c-.4-.1-.6-.1-.9-.1c-.5 0-1.3 .1-1.3 .8c0 .6 .5 .8 .9 .8c.5 0 .9-.3 1.3-.6Zm0 2.1v-.5c-.4 .4-.8 .6-1.4 .6c-.8 0-1.6-.4-1.6-1.4c0-1.2 1-1.5 2.1-1.5c.2 0 .5 0 .9 .1v-.2c0-.7-.4-1.1-1.1-1.1c-.5 0-1.1 .2-1.5 .4l-.2-.7c.5-.2 1.2-.4 1.8-.4c1.3 0 1.8 .7 1.8 1.9v2.8Zm-7.6-1.4c.3 .5 .8 .7 1.3 .7c1.1 0 1.6-.8 1.6-1.6c0-.9-.6-1.7-1.6-1.7c-.5 0-1.1 .3-1.3 .9Zm0-5.5v2.9c.3-.5 .9-.7 1.4-.7c1.4 0 2.3 1 2.3 2.4c0 1.2-.9 2.4-2.3 2.4c-.5 0-1-.3-1.4-.6v.5h-.8v-6.9Zm-7.3 2.3l1.2 3.5l1.2-3.5h.9l-2.5 6.6l-.8-.3l.7-1.9l-1.6-4.4Zm-1.8 4.6H714v-6.9h.8v6.9Zm-5.5-3.9c.3-.5 .9-.8 1.5-.8c.6 0 1 .2 1.3 .6c.3 .4 .4 1 .4 1.7v2.4h-.8v-2.3c0-.5 0-1-.2-1.3c-.2-.2-.4-.4-.8-.4c-.6 0-1.1 .4-1.4 .9v3.1h-.8v-6.9h.8Zm-3.1 0V228c0 .1 0 .2 0 .3c0 .5 .2 .8 .6 .8c.2 0 .4 0 .5-.1l.3 .7c-.3 .1-.6 .2-.9 .2c-.6 0-1-.3-1.2-.8c-.1-.2-.2-.6-.2-.9v-2.3h-.6v-.7h.6v-1.1h.9v1.1h1.2v.7Zm-5.6-.7v.7c.3-.5 .8-.8 1.5-.8c.6 0 1 .2 1.3 .6c.3 .4 .4 1 .4 1.7v2.4H703v-2.3c0-.5-.1-1-.3-1.3c-.1-.2-.4-.4-.8-.4c-.5 0-1 .4-1.3 .9v3.1h-.9v-4.6Zm-4.4 .6c-.8 0-1.4 .8-1.4 1.7c0 .9 .6 1.6 1.4 1.6c.9 0 1.5-.7 1.5-1.6c0-.9-.6-1.7-1.5-1.7m2.4 1.7c0 1.3-1 2.4-2.4 2.4c-1.3 0-2.3-1.1-2.3-2.4c0-1.4 1-2.4 2.3-2.4c1.4 0 2.4 1 2.4 2.4m-6.6 2.3v-2.3c0-.5 0-1-.3-1.3c-.1-.2-.3-.4-.7-.4c-.5 0-1 .4-1.3 .8c0 .2 0 .5 0 .8v2.4h-.8v-2.3c0-.5 0-1-.2-1.3c-.2-.2-.4-.4-.7-.4c-.5 0-1 .5-1.3 .9v3.1h-.8v-4.6h.8v.7c.3-.5 .9-.8 1.4-.8c.6 0 1 .2 1.3 .6c.1 .1 .1 .2 .1 .2c.4-.5 1-.8 1.6-.8c.6 0 1 .2 1.3 .5c.3 .4 .4 1.1 .4 1.8v2.4ZM679 227h2.6c-.1-.6-.6-1.2-1.3-1.2c-.7 0-1.2 .5-1.3 1.2m-.1 .7c0 .8 .6 1.5 1.5 1.5c.6 0 1.1-.3 1.3-.8l.6 .4c-.4 .7-1.1 1.1-2 1.1c-1.4 0-2.2-1.1-2.2-2.4c0-1.4 1-2.4 2.2-2.4c1.2 0 2.1 .9 2.1 2.1c0 .2 0 .4 0 .5Zm-5.2-1.8c.4-.5 .9-.8 1.5-.8c.7 0 1.1 .2 1.3 .6c.3 .4 .4 1 .4 1.7v2.4h-.8v-2.3c0-.5 0-1-.2-1.3c-.2-.2-.4-.4-.8-.4c-.6 0-1.1 .4-1.4 .9v3.1h-.8v-6.9h.8Zm-3.1 0V228c0 .1 0 .2 0 .3c0 .5 .2 .8 .6 .8c.2 0 .4 0 .6-.1l.2 .7c-.2 .1-.6 .2-.9 .2c-.6 0-1-.3-1.2-.8c-.1-.2-.1-.6-.1-.9v-2.3h-.7v-.7h.7v-1.1h.8v1.1h1.3v.7Zm-3.9-2.2c-.2-.1-.4-.1-.6-.1c-.2 0-.4 0-.5 .1c-.2 .2-.3 .5-.3 .9v.6h1.3v.7h-1.3v3.9h-.8v-3.9H664v-.7h.5v-.7c0-.4 .1-.9 .3-1.2c.2-.3 .6-.5 1.2-.5c.3 0 .6 .1 .9 .2Zm-5.9 2.1c-.8 0-1.4 .8-1.4 1.7c0 .9 .6 1.6 1.4 1.6c.9 0 1.5-.7 1.5-1.6c0-.9-.6-1.7-1.5-1.7m2.4 1.7c0 1.3-1 2.4-2.4 2.4c-1.3 0-2.3-1.1-2.3-2.4c0-1.4 1-2.4 2.3-2.4c1.4 0 2.4 1 2.4 2.4m-8.9-1.6V228c0 .1 0 .2 0 .3c0 .5 .2 .8 .7 .8c.1 0 .3 0 .5-.1l.2 .7c-.2 .1-.6 .2-.9 .2c-.6 0-1-.3-1.2-.8c-.1-.2-.1-.6-.1-.9v-2.3h-.6v-.7h.6v-1.1h.8v1.1h1.3v.7Zm-5.6-.7v.7c.3-.5 .9-.8 1.5-.8c.6 0 1.1 .2 1.3 .6c.3 .4 .4 1 .4 1.7v2.4h-.8v-2.3c0-.5 0-1-.2-1.3c-.2-.2-.4-.4-.8-.4c-.6 0-1.1 .4-1.4 .9v3.1h-.8v-4.6Zm-5.5 1.8h2.6c0-.6-.5-1.2-1.2-1.2c-.7 0-1.2 .5-1.4 1.2m0 .7c0 .8 .6 1.5 1.5 1.5c.6 0 1-.3 1.3-.8l.6 .4c-.4 .7-1.1 1.1-2 1.1c-1.4 0-2.3-1.1-2.3-2.4c0-1.4 1-2.4 2.3-2.4c1.2 0 2.1 .9 2.1 2.1c0 .2 0 .4 0 .5Zm-2.8 2.1v-2.3c0-.5 0-1-.2-1.3c-.2-.2-.4-.4-.8-.4c-.4 0-.9 .4-1.3 .8c.1 .2 .1 .5 .1 .8v2.4h-.8v-2.3c0-.5 0-1-.3-1.3c-.1-.2-.3-.4-.7-.4c-.5 0-1 .5-1.3 .9v3.1h-.8v-4.6h.8v.7c.4-.5 .9-.8 1.5-.8c.5 0 1 .2 1.3 .6c0 .1 0 .2 .1 .2c.4-.5 .9-.8 1.6-.8c.6 0 1 .2 1.2 .5c.3 .4 .4 1.1 .4 1.8v2.4ZM629.7 227h2.6c0-.6-.5-1.2-1.2-1.2c-.8 0-1.2 .5-1.4 1.2m-.1 .7c.1 .8 .6 1.5 1.5 1.5c.6 0 1.1-.3 1.4-.8l.6 .4c-.5 .7-1.1 1.1-2 1.1c-1.5 0-2.3-1.1-2.3-2.4c0-1.4 1-2.4 2.3-2.4c1.2 0 2.1 .9 2.1 2.1c0 .2-.1 .4-.1 .5Zm-2 2.1h-.8v-6.9h.8v6.9Zm-3.1-3.9V228c0 .1 0 .2 0 .3c0 .5 .2 .8 .7 .8c.1 0 .3 0 .5-.1l.2 .7c-.2 .1-.5 .2-.9 .2c-.6 0-1-.3-1.2-.8c-.1-.2-.1-.6-.1-.9v-2.3h-.6v-.7h.6v-1.1h.8v1.1h1.3v.7Zm-3.2 0V228c0 .1 0 .2 0 .3c.1 .5 .2 .8 .7 .8c.2 0 .4 0 .5-.1l.2 .7c-.2 .1-.5 .2-.8 .2c-.7 0-1.1-.3-1.3-.8c-.1-.2-.1-.6-.1-.9v-2.3h-.6v-.7h.6v-1.1h.8v1.1h1.3v.7Zm-5.5 1.1h2.6c0-.6-.5-1.2-1.2-1.2c-.7 0-1.2 .5-1.4 1.2m0 .7c0 .8 .6 1.5 1.4 1.5c.7 0 1.1-.3 1.4-.8l.6 .4c-.4 .7-1.1 1.1-2 1.1c-1.4 0-2.3-1.1-2.3-2.4c0-1.4 1-2.4 2.3-2.4c1.2 0 2.1 .9 2.1 2.1c0 .2 0 .4 0 .5Zm-2.4-1.6c-.2-.2-.6-.3-.9-.3c-.4 0-.7 .2-.7 .6c0 .3 .5 .5 .9 .7c.6 .2 1.3 .5 1.3 1.3c0 1.1-.8 1.5-1.6 1.5c-.6 0-1.2-.3-1.6-.7l.6-.5c.3 .3 .6 .5 1 .5c.4 0 .8-.3 .8-.7c0-.4-.4-.5-.9-.7c-.6-.3-1.3-.5-1.3-1.4c0-.9 .7-1.3 1.5-1.3c.5 0 1.1 .1 1.4 .5Zm-9.1 .9h2.6c-.1-.6-.6-1.2-1.2-1.2c-.8 0-1.3 .5-1.4 1.2m-.1 .7c.1 .8 .6 1.5 1.5 1.5c.6 0 1.1-.3 1.4-.8l.6 .4c-.5 .7-1.1 1.1-2 1.1c-1.5 0-2.3-1.1-2.3-2.4c0-1.4 1-2.4 2.3-2.4c1.2 0 2 .9 2 2.1c0 .2 0 .4 0 .5Zm-5.2-1.8c.4-.5 .9-.8 1.5-.8c.7 0 1.1 .2 1.4 .6c.3 .4 .4 1 .4 1.7v2.4h-.9v-2.3c0-.5 0-1-.2-1.3c-.1-.2-.4-.4-.8-.4c-.5 0-1 .4-1.4 .9v3.1h-.8v-6.9h.8Zm-3.1 0V228c0 .1 0 .2 0 .3c.1 .5 .2 .8 .7 .8c.2 0 .3 0 .5-.1l.2 .7c-.2 .1-.5 .2-.8 .2c-.7 0-1.1-.3-1.3-.8c-.1-.2-.1-.6-.1-.9v-2.3h-.6v-.7h.6v-1.1h.8v1.1h1.3v.7Zm-5.6 0c.3-.5 .7-.8 1.2-.8c.2 0 .3 0 .5 0l-.2 .9c-.1 0-.2-.1-.4-.1c-.5 0-.8 .3-1.1 .8v3.1h-.8v-4.6h.8Zm-4.3-.1c-.9 0-1.5 .8-1.5 1.7c0 .9 .6 1.6 1.5 1.6c.8 0 1.5-.7 1.5-1.6c0-.9-.7-1.7-1.5-1.7m2.3 1.7c0 1.3-1 2.4-2.3 2.4c-1.4 0-2.4-1.1-2.4-2.4c0-1.4 1-2.4 2.4-2.4c1.3 0 2.3 1 2.3 2.4m-5-3.8c-.2-.1-.4-.1-.6-.1c-.2 0-.4 0-.5 .1c-.2 .2-.3 .5-.3 .9v.6h1.3v.7h-1.3v3.9h-.8v-3.9h-.5v-.7h.5v-.7c0-.4 .1-.9 .3-1.2c.2-.3 .6-.5 1.2-.5c.3 0 .7 .1 .9 .2Zm-6.6 2.4c-.2-.2-.5-.3-.9-.3c-.4 0-.6 .2-.6 .6c0 .3 .4 .5 .8 .7c.6 .2 1.4 .5 1.4 1.3c0 1.1-.8 1.5-1.7 1.5c-.6 0-1.2-.3-1.6-.7l.6-.5c.3 .3 .7 .5 1 .5c.5 0 .8-.3 .8-.7c0-.4-.4-.5-.8-.7c-.6-.3-1.3-.5-1.3-1.4c0-.9 .7-1.3 1.4-1.3c.6 0 1.1 .1 1.4 .5Zm-4.6 2.1v-1.7c-.3-.4-.8-.7-1.3-.7c-1.1 0-1.6 .9-1.6 1.7c0 .8 .6 1.6 1.6 1.6c.5 0 1.1-.3 1.3-.9m-3.7-.7c0-1.2 .9-2.4 2.3-2.4c.5 0 1.1 .2 1.4 .6v-2.8h.9v6.9h-.9v-.6c-.3 .4-.9 .7-1.4 .7c-1.3 0-2.3-1.1-2.3-2.4m-2.1-1.6c.3-.5 .7-.8 1.2-.8c.2 0 .3 0 .5 0l-.1 .9c-.2 0-.3-.1-.5-.1c-.4 0-.8 .3-1.1 .8v3.1h-.8v-4.6h.8Zm-3.1 1.8c-.4-.1-.6-.1-.8-.1c-.6 0-1.4 .1-1.4 .8c0 .6 .5 .8 .9 .8c.5 0 .9-.3 1.3-.6Zm0 2.1v-.5c-.4 .4-.8 .6-1.4 .6c-.8 0-1.6-.4-1.6-1.4c0-1.2 1.1-1.5 2.1-1.5c.2 0 .5 0 .9 .1v-.2c0-.7-.3-1.1-1.1-1.1c-.5 0-1.1 .2-1.5 .4l-.2-.7c.5-.2 1.2-.4 1.8-.4c1.3 0 1.8 .7 1.8 1.9v2.8Zm-5.7 .1c-1.9 0-3.4-1.3-3.4-3.3c0-1.9 1.5-3.4 3.4-3.4c.7 0 1.3 .2 1.8 .5l-.4 .7c-.4-.2-.9-.4-1.4-.4c-1.4 0-2.5 1.1-2.5 2.6c0 1.5 1.1 2.5 2.5 2.5c.5 0 1-.2 1.5-.5l.4 .7c-.5 .4-1.2 .6-1.9 .6m-7.8-4V228c0 .1 0 .2 0 .3c.1 .5 .2 .8 .7 .8c.2 0 .4 0 .5-.1l.2 .7c-.2 .1-.5 .2-.8 .2c-.7 0-1.1-.3-1.3-.8c-.1-.2-.1-.6-.1-.9v-2.3h-.6v-.7h.6v-1.1h.8v1.1H551v.7Zm-3.2-.7h.8v4.6h-.8v-4.6Zm0-1.8h.8v.9h-.8v-.9Zm-2.4 4.8v-1.7c-.3-.4-.9-.7-1.3-.7c-1.1 0-1.6 .9-1.6 1.7c0 .8 .6 1.6 1.6 1.6c.5 0 1.1-.3 1.3-.9m-3.7-.7c0-1.2 .9-2.4 2.3-2.4c.5 0 1 .2 1.4 .6v-2.8h.8v6.9h-.8v-.6c-.3 .4-.9 .7-1.5 .7c-1.3 0-2.2-1.1-2.2-2.4m-4.3-.5h2.6c0-.6-.5-1.2-1.2-1.2c-.7 0-1.2 .5-1.4 1.2m0 .7c0 .8 .6 1.5 1.4 1.5c.6 0 1.1-.3 1.4-.8l.6 .4c-.5 .7-1.1 1.1-2 1.1c-1.5 0-2.3-1.1-2.3-2.4c0-1.4 1-2.4 2.3-2.4c1.2 0 2.1 .9 2.1 2.1c0 .2 0 .4-.1 .5Zm-2.9-1.8c.2-.5 .7-.8 1.2-.8c.1 0 .3 0 .4 0l-.1 .9c-.1 0-.3-.1-.4-.1c-.5 0-.8 .3-1.1 .8v3.1h-.9v-4.6h.9Zm-3.8 4c-1.9 0-3.5-1.3-3.5-3.3c0-1.9 1.6-3.4 3.5-3.4c.6 0 1.2 .2 1.7 .5l-.4 .7c-.4-.2-.8-.4-1.3-.4c-1.5 0-2.5 1.1-2.5 2.6c0 1.5 1 2.5 2.5 2.5c.5 0 1-.2 1.4-.5l.5 .7c-.6 .4-1.2 .6-1.9 .6m-8-4c.3-.5 .7-.8 1.2-.8c.2 0 .3 0 .5 0l-.1 .9c-.2 0-.3-.1-.5-.1c-.4 0-.8 .3-1.1 .8v3.1h-.8v-4.6h.8Zm-4.3-.1c-.9 0-1.5 .8-1.5 1.7c0 .9 .6 1.6 1.5 1.6c.9 0 1.5-.7 1.5-1.6c0-.9-.6-1.7-1.5-1.7m2.3 1.7c0 1.3-1 2.4-2.3 2.4c-1.3 0-2.3-1.1-2.3-2.4c0-1.4 1-2.4 2.3-2.4c1.3 0 2.3 1 2.3 2.4m-5-3.8c-.2-.1-.3-.1-.6-.1c-.2 0-.4 0-.5 .1c-.2 .2-.2 .5-.2 .9v.6h1.2v.7h-1.2v3.9h-.9v-3.9h-.5v-.7h.5v-.7c0-.4 .1-.9 .3-1.2c.2-.3 .6-.5 1.2-.5c.3 0 .7 .1 .9 .2Zm-9.1 6.1v-6.4h.9V229H509v.8Zm-5-2.2h2.1l-1-2.9h-.1Zm2.9 2.2l-.5-1.4H500l-.5 1.4h-1l2.5-6.4h.8l2.4 6.4Zm-6.5 0l-3.5-4.8v4.8h-.9v-6.4h.8l3.5 4.7v-4.7h.9v6.4Zm-9.1-5.8c-1.4 0-2.4 1.1-2.4 2.6c0 1.4 1 2.5 2.4 2.5c1.3 0 2.3-1.1 2.3-2.5c0-1.5-1-2.6-2.3-2.6m0 5.9c-1.9 0-3.3-1.5-3.3-3.3c0-1.9 1.4-3.4 3.3-3.4c1.8 0 3.3 1.5 3.3 3.4c0 1.8-1.5 3.3-3.3 3.3m-5.6-6.5h.8v6.4H482Zm-2.7 .7v5.7h-.9v-5.7h-1.6v-.7h4.1v.7Zm-5.3 0h-1v2.3h.9c.8 0 1.5-.3 1.5-1.1c0-.7-.5-1.2-1.4-1.2m.1 3.1H473v2.6h-.8v-6.4h1.9c1 0 2.2 .5 2.2 1.9c0 1.4-1.2 1.9-2.2 1.9m-6.7-3.2c-1.3 0-2.3 1.1-2.3 2.6c0 1.4 1 2.5 2.3 2.5c1.4 0 2.4-1.1 2.4-2.5c0-1.5-1-2.6-2.4-2.6m0 5.9c-1.8 0-3.3-1.5-3.3-3.3c0-1.9 1.5-3.4 3.3-3.4c1.9 0 3.3 1.5 3.3 3.4c0 1.8-1.4 3.3-3.3 3.3m-7.2-3.8c-.2-.2-.6-.3-.9-.3c-.5 0-.7 .2-.7 .6c0 .3 .4 .5 .9 .7c.6 .2 1.3 .5 1.3 1.3c0 1.1-.8 1.5-1.7 1.5c-.6 0-1.2-.3-1.5-.7l.6-.5c.3 .3 .6 .5 1 .5c.4 0 .8-.3 .8-.7c0-.4-.4-.5-.9-.7c-.6-.3-1.3-.5-1.3-1.4c0-.9 .7-1.3 1.5-1.3c.5 0 1 .1 1.4 .5Zm-4.6-.9h.8v4.6h-.8v-4.6Zm0-1.8h.8v.9h-.8v-.9Zm-4.6 2.5V228c0 .1 0 .2 0 .3c0 .5 .2 .8 .6 .8c.2 0 .4 0 .5-.1l.3 .7c-.3 .1-.6 .2-.9 .2c-.6 0-1-.3-1.2-.8c-.1-.2-.1-.6-.1-.9v-2.3h-.7v-.7h.7v-1.1h.8v1.1h1.3v.7Zm-3.4-2.5h.9v6.4h-.9v-6.4Zm-4.8 5.3h1v1.1h-1v-1.1Zm-1.9-2.8c.3-.5 .7-.8 1.2-.8c.2 0 .3 0 .5 0l-.2 .9c-.1 0-.2-.1-.4-.1c-.5 0-.8 .3-1.1 .8v3.1h-.8v-4.6h.8Zm-5.4 1.1h2.6c-.1-.6-.6-1.2-1.2-1.2c-.8 0-1.3 .5-1.4 1.2m-.1 .7c.1 .8 .6 1.5 1.5 1.5c.6 0 1.1-.3 1.3-.8l.6 .4c-.4 .7-1 1.1-2 1.1c-1.4 0-2.2-1.1-2.2-2.4c0-1.4 1-2.4 2.2-2.4c1.3 0 2.1 .9 2.1 2.1c0 .2 0 .4 0 .5Zm-2.8 .5v-1.7c-.3-.4-.9-.7-1.3-.7c-1.1 0-1.6 .9-1.6 1.7c0 .8 .6 1.6 1.5 1.6c.5 0 1.1-.3 1.4-.9m-3.8-.7c0-1.2 .9-2.4 2.3-2.4c.6 0 1.1 .2 1.5 .6v-2.8h.8v6.9h-.8v-.6c-.4 .4-.9 .7-1.5 .7c-1.3 0-2.3-1.1-2.3-2.4m-1.1 2.3h-.9v-6.9h.9Zm-4.4-4c-.8 0-1.4 .8-1.4 1.7c0 .9 .6 1.6 1.4 1.6c.9 0 1.5-.7 1.5-1.6c0-.9-.6-1.7-1.5-1.7m2.4 1.7c0 1.3-1 2.4-2.4 2.4c-1.3 0-2.3-1.1-2.3-2.4c0-1.4 1-2.4 2.3-2.4c1.4 0 2.4 1 2.4 2.4m-9-1.6c.3-.5 .9-.8 1.5-.8c.6 0 1 .2 1.3 .6c.3 .4 .4 1 .4 1.7v2.4h-.8v-2.3c0-.5 0-1-.3-1.3c-.1-.2-.4-.4-.8-.4c-.5 0-1 .4-1.3 .9v3.1h-.9v-6.9h.9Zm-5.4 0V228c0 .1 0 .2 0 .3c0 .5 .2 .8 .6 .8c.2 0 .4 0 .5-.1l.2 .7c-.2 .1-.5 .2-.8 .2c-.6 0-1-.3-1.2-.8c-.1-.2-.2-.6-.2-.9v-2.3h-.6v-.7h.6v-1.1h.9v1.1h1.2v.7Zm-5.6-.7v.7c.3-.5 .8-.8 1.4-.8c.7 0 1.1 .2 1.4 .6c.3 .4 .4 1 .4 1.7v2.4h-.8v-2.3c0-.5-.1-1-.3-1.3c-.1-.2-.4-.4-.8-.4c-.5 0-1 .4-1.3 .9v3.1h-.9v-4.6Zm-3.3 3.8c-.3 .6-.8 .9-1.4 .9c-.7 0-1.1-.2-1.4-.6c-.3-.4-.4-1-.4-1.7v-2.4h.8v2.3c0 .4 .1 .9 .3 1.2c.1 .3 .4 .4 .8 .4c.5 0 1-.4 1.3-.9v-3h.9v4.6h-.9Zm-6.6-3.2c-.9 0-1.5 .8-1.5 1.7c0 .9 .6 1.6 1.5 1.6c.8 0 1.5-.7 1.5-1.6c0-.9-.7-1.7-1.5-1.7m2.3 1.7c0 1.3-1 2.4-2.3 2.4c-1.4 0-2.4-1.1-2.4-2.4c0-1.4 1-2.4 2.4-2.4c1.3 0 2.3 1 2.3 2.4m-5.3 1.9c-.3 .3-.8 .5-1.4 .5c-1.3 0-2.3-1-2.3-2.4c0-1.4 1-2.4 2.4-2.4c.5 0 .9 .1 1.3 .4l-.4 .7c-.3-.2-.6-.4-1-.4c-.8 0-1.5 .8-1.5 1.7c0 1 .7 1.6 1.5 1.6c.3 0 .8-.1 1-.3Zm-4.3 0c-.4 .3-.9 .5-1.4 .5c-1.3 0-2.4-1-2.4-2.4c0-1.4 1.1-2.4 2.4-2.4c.5 0 .9 .1 1.3 .4l-.4 .7c-.2-.2-.6-.4-.9-.4c-.8 0-1.5 .8-1.5 1.7c0 1 .7 1.6 1.5 1.6c.3 0 .7-.1 1-.3Zm-5.7-1.7c-.3-.1-.6-.1-.8-.1c-.6 0-1.3 .1-1.3 .8c0 .6 .4 .8 .9 .8c.4 0 .8-.3 1.2-.6Zm0 2.1v-.5c-.3 .4-.8 .6-1.3 .6c-.9 0-1.7-.4-1.7-1.4c0-1.2 1.1-1.5 2.1-1.5c.2 0 .5 0 .9 .1v-.2c0-.7-.3-1.1-1.1-1.1c-.5 0-1.1 .2-1.4 .4l-.3-.7c.5-.2 1.2-.4 1.8-.4c1.3 0 1.8 .7 1.8 1.9v2.8Zm-9.7-4.6v.7c.3-.5 .9-.8 1.5-.8c.6 0 1.1 .2 1.3 .6c.3 .4 .4 1 .4 1.7v2.4h-.8v-2.3c0-.5 0-1-.2-1.3c-.2-.2-.4-.4-.8-.4c-.6 0-1.1 .4-1.4 .9v3.1h-.8v-4.6Zm-3.2 2.5c-.3-.1-.6-.1-.8-.1c-.6 0-1.3 .1-1.3 .8c0 .6 .4 .8 .9 .8c.5 0 .9-.3 1.2-.6Zm.1 2.1v-.5c-.4 .4-.8 .6-1.4 .6c-.8 0-1.6-.4-1.6-1.4c0-1.2 1-1.5 2-1.5c.3 0 .5 0 .9 .1v-.2c0-.7-.3-1.1-1-1.1c-.6 0-1.1 .2-1.5 .4l-.2-.7c.4-.2 1.1-.4 1.8-.4c1.3 0 1.8 .7 1.8 1.9v2.8Zm-6.2-4c-.9 0-1.5 .8-1.5 1.7c0 .9 .6 1.6 1.5 1.6c.8 0 1.5-.7 1.5-1.6c0-.9-.7-1.7-1.5-1.7m2.3 1.7c0 1.3-1 2.4-2.3 2.4c-1.4 0-2.4-1.1-2.4-2.4c0-1.4 1-2.4 2.4-2.4c1.3 0 2.3 1 2.3 2.4m-8.8 2.3v-6.4h.9V229H361v.8Zm-3.9 0h-.8v-6.9h.8v6.9Zm-3.2-2.1c-.3-.1-.6-.1-.8-.1c-.5 0-1.3 .1-1.3 .8c0 .6 .4 .8 .9 .8c.5 0 .9-.3 1.2-.6Zm.1 2.1v-.5c-.4 .4-.8 .6-1.4 .6c-.8 0-1.6-.4-1.6-1.4c0-1.2 1-1.5 2-1.5c.3 0 .6 0 .9 .1v-.2c0-.7-.3-1.1-1-1.1c-.6 0-1.1 .2-1.5 .4l-.2-.7c.4-.2 1.1-.4 1.8-.4c1.3 0 1.8 .7 1.8 1.9v2.8Zm-7.5-4.6v.7c.4-.5 .9-.8 1.5-.8c.7 0 1.1 .2 1.4 .6c.3 .4 .4 1 .4 1.7v2.4h-.9v-2.3c0-.5 0-1-.2-1.3c-.1-.2-.4-.4-.8-.4c-.5 0-1 .4-1.4 .9v3.1H342v-4.6Zm-4.3 .6c-.9 0-1.5 .8-1.5 1.7c0 .9 .6 1.6 1.5 1.6c.9 0 1.5-.7 1.5-1.6c0-.9-.6-1.7-1.5-1.7m2.3 1.7c0 1.3-1 2.4-2.3 2.4c-1.3 0-2.3-1.1-2.3-2.4c0-1.4 1-2.4 2.3-2.4c1.3 0 2.3 1 2.3 2.4m-6.1-1.4c-.2-.2-.6-.3-.9-.3c-.5 0-.7 .2-.7 .6c0 .3 .4 .5 .8 .7c.6 .2 1.4 .5 1.4 1.3c0 1.1-.8 1.5-1.7 1.5c-.6 0-1.2-.3-1.6-.7l.6-.5c.3 .3 .7 .5 1 .5c.5 0 .9-.3 .9-.7c0-.4-.5-.5-.9-.7c-.6-.3-1.3-.5-1.3-1.4c0-.9 .7-1.3 1.4-1.3c.6 0 1.1 .1 1.5 .5Zm-4.7-.2c.3-.5 .7-.8 1.2-.8c.2 0 .3 0 .5 0l-.2 .9c-.1 0-.3-.1-.4-.1c-.5 0-.8 .3-1.1 .8v3.1h-.8v-4.6h.8Zm-5.5 1.1h2.6c0-.6-.5-1.2-1.2-1.2c-.7 0-1.2 .5-1.4 1.2m0 .7c0 .8 .6 1.5 1.4 1.5c.6 0 1.1-.3 1.4-.8l.6 .4c-.4 .7-1.1 1.1-2 1.1c-1.4 0-2.3-1.1-2.3-2.4c0-1.4 1-2.4 2.3-2.4c1.2 0 2.1 .9 2.1 2.1c0 .2 0 .4 0 .5Zm-3.6-3.6h-1v2.3h.8c.9 0 1.6-.3 1.6-1.1c0-.7-.6-1.2-1.4-1.2m0 3.1h-1v2.6H319v-6.4h1.9c1.1 0 2.3 .5 2.3 1.9c0 1.4-1.2 1.9-2.3 1.9M312 227h2.6c0-.6-.5-1.2-1.2-1.2c-.7 0-1.2 .5-1.4 1.2m-.1 .7c.1 .8 .6 1.5 1.5 1.5c.6 0 1.1-.3 1.4-.8l.6 .4c-.5 .7-1.1 1.1-2 1.1c-1.5 0-2.3-1.1-2.3-2.4c0-1.4 1-2.4 2.3-2.4c1.2 0 2.1 .9 2.1 2.1c0 .2 0 .4-.1 .5Zm-5.1-1.8c.3-.5 .9-.8 1.5-.8c.6 0 1 .2 1.3 .6c.3 .4 .4 1 .4 1.7v2.4h-.8v-2.3c0-.5 0-1-.3-1.3c-.1-.2-.4-.4-.8-.4c-.5 0-1 .4-1.3 .9v3.1h-.9v-6.9h.9Zm-3.1 0V228c0 .1 0 .2 0 .3c0 .5 .1 .8 .6 .8c.2 0 .4 0 .5-.1l.2 .7c-.2 .1-.5 .2-.8 .2c-.6 0-1-.3-1.2-.8c-.1-.2-.2-.6-.2-.9v-2.3h-.6v-.7h.6v-1.1h.9v1.1h1.2v.7Zm-4-2.2c-.1-.1-.3-.1-.5-.1c-.3 0-.4 0-.6 .1c-.2 .2-.2 .5-.2 .9v.6h1.2v.7h-1.2v3.9h-.8v-3.9H297v-.7h.6v-.7c0-.4 0-.9 .3-1.2c.2-.3 .6-.5 1.2-.5c.3 0 .6 .1 .9 .2Zm-5.8 2.1c-.9 0-1.5 .8-1.5 1.7c0 .9 .6 1.6 1.5 1.6c.9 0 1.5-.7 1.5-1.6c0-.9-.6-1.7-1.5-1.7m2.3 1.7c0 1.3-1 2.4-2.3 2.4c-1.3 0-2.3-1.1-2.3-2.4c0-1.4 1-2.4 2.3-2.4c1.3 0 2.3 1 2.3 2.4M285 227h2.6c0-.6-.5-1.2-1.2-1.2c-.7 0-1.2 .5-1.4 1.2m0 .7c0 .8 .6 1.5 1.4 1.5c.7 0 1.1-.3 1.4-.8l.6 .4c-.4 .7-1.1 1.1-2 1.1c-1.4 0-2.3-1.1-2.3-2.4c0-1.4 1-2.4 2.3-2.4c1.2 0 2.1 .9 2.1 2.1c0 .2 0 .4 0 .5Zm-2.8 2.1v-2.3c0-.5 0-1-.2-1.3c-.2-.2-.4-.4-.8-.4c-.4 0-.9 .4-1.3 .8c.1 .2 .1 .5 .1 .8v2.4h-.9v-2.3c0-.5 0-1-.2-1.3c-.1-.2-.4-.4-.7-.4c-.5 0-1 .5-1.3 .9v3.1h-.8v-4.6h.8v.7c.4-.5 .9-.8 1.5-.8c.5 0 1 .2 1.2 .6c.1 .1 .1 .2 .2 .2c.3-.5 .9-.8 1.5-.8c.7 0 1.1 .2 1.3 .5c.3 .4 .4 1.1 .4 1.8v2.4Zm-8.4-2.1c-.4-.1-.6-.1-.8-.1c-.6 0-1.4 .1-1.4 .8c0 .6 .5 .8 .9 .8c.5 0 .9-.3 1.3-.6Zm0 2.1v-.5c-.4 .4-.8 .6-1.4 .6c-.8 0-1.6-.4-1.6-1.4c0-1.2 1.1-1.5 2.1-1.5c.2 0 .5 0 .9 .1v-.2c0-.7-.4-1.1-1.1-1.1c-.5 0-1.1 .2-1.5 .4l-.2-.7c.5-.2 1.2-.4 1.8-.4c1.3 0 1.8 .7 1.8 1.9v2.8Zm-7.4-4.6v.7c.3-.5 .8-.8 1.5-.8c.6 0 1 .2 1.3 .6c.3 .4 .4 1 .4 1.7v2.4h-.8v-2.3c0-.5 0-1-.3-1.3c-.1-.2-.4-.4-.8-.4c-.5 0-1 .4-1.3 .9v3.1h-.9v-4.6Zm-7.8 1.8h2.6c0-.6-.5-1.2-1.2-1.2c-.7 0-1.2 .5-1.4 1.2m0 .7c0 .8 .6 1.5 1.4 1.5c.6 0 1.1-.3 1.4-.8l.6 .4c-.5 .7-1.1 1.1-2 1.1c-1.5 0-2.3-1.1-2.3-2.4c0-1.4 1-2.4 2.3-2.4c1.2 0 2.1 .9 2.1 2.1c0 .2 0 .4 0 .5Zm-5.2-1.8c.3-.5 .9-.8 1.5-.8c.6 0 1 .2 1.3 .6c.3 .4 .4 1 .4 1.7v2.4h-.8v-2.3c0-.5 0-1-.2-1.3c-.2-.2-.4-.4-.8-.4c-.6 0-1.1 .4-1.4 .9v3.1h-.8v-6.9h.8Zm-3.1 0V228c0 .1 0 .2 0 .3c0 .5 .2 .8 .6 .8c.2 0 .4 0 .5-.1l.3 .7c-.3 .1-.6 .2-.9 .2c-.6 0-1-.3-1.2-.8c-.1-.2-.2-.6-.2-.9v-2.3h-.6v-.7h.6v-1.1h.9v1.1h1.2v.7Zm-7.9-.7v.7c.3-.5 .9-.8 1.5-.8c.6 0 1 .2 1.3 .6c.3 .4 .4 1 .4 1.7v2.4h-.8v-2.3c0-.5 0-1-.3-1.3c-.1-.2-.4-.4-.8-.4c-.5 0-1 .4-1.3 .9v3.1h-.9v-4.6Zm-3.2 0h.8v4.6h-.8v-4.6Zm0-1.8h.8v.9h-.8v-.9Zm-7.5 6.4v-6.4h3.8v.7h-3v2h3v.8h-3V229h3v.8Zm-3.7-2.9h-1.1V229h.5c.6 0 1 0 1.4-.2c.3-.1 .5-.4 .5-.8c0-.7-.5-1.1-1.3-1.1m.7-2.5c-.3-.2-.8-.3-1.3-.3h-.5v2h.6c1 0 1.6-.3 1.6-1c0-.4-.1-.6-.4-.7m-2.6-1h1.5c.6 0 1.2 .1 1.7 .4c.4 .3 .7 .7 .7 1.3c0 .6-.3 1-1 1.3c.8 .3 1.2 .8 1.2 1.5c0 .8-.4 1.3-1 1.6c-.5 .2-1.1 .3-1.7 .3h-1.4Zm-5 .7v5.7h-.9v-5.7h-1.6v-.7h4.1v.7Zm-5.4-.1c-.7 0-1.2 .4-1.2 .9c0 .6 .7 .8 1.4 1c.9 .4 1.9 .8 1.9 2c0 1.4-1.3 2-2.2 2c-1 0-1.7-.3-2.3-1l.6-.6c.6 .6 1 .8 1.7 .8c.6 0 1.3-.3 1.3-1.1c0-.7-.7-1-1.4-1.2c-.9-.3-1.8-.8-1.8-1.8c0-1.2 .8-1.8 1.9-1.8c.8 0 1.4 .3 2 .7l-.6 .6c-.3-.2-.8-.5-1.3-.5m-3.7 2.8c0 2-.7 3.1-2.5 3.1c-1.7 0-2.5-1.1-2.5-3.1v-3.4h.9V227c0 1.4 .6 2.1 1.6 2.1c1 0 1.6-.7 1.6-2.1v-3.6h.9Zm-9.7 3h-.6l-2.2-5.4v5.4h-.9v-6.4H200l2 5l2-5h1.3v6.4h-.8v-5.4Zm-8.4-3.9V228c0 .1 0 .2 .1 .3c0 .5 .1 .8 .6 .8c.2 0 .4 0 .5-.1l.2 .7c-.2 .1-.5 .2-.8 .2c-.7 0-1-.3-1.2-.8c-.2-.2-.2-.6-.2-.9v-2.3h-.6v-.7h.6v-1.1h.8v1.1h1.3v.7Zm-5.6-.7v.7c.4-.5 .9-.8 1.5-.8c.7 0 1.1 .2 1.4 .6c.3 .4 .4 1 .4 1.7v2.4h-.9v-2.3c0-.5 0-1-.2-1.3c-.1-.2-.4-.4-.8-.4c-.5 0-1 .4-1.4 .9v3.1h-.8v-4.6Zm-3.2 3.8c-.3 .6-.8 .9-1.5 .9c-.6 0-1-.2-1.3-.6c-.3-.4-.4-1-.4-1.7v-2.4h.8v2.3c0 .4 .1 .9 .3 1.2c.1 .3 .4 .4 .8 .4c.5 0 1-.4 1.3-.9v-3h.9v4.6h-.9Zm-6.6-3.2c-.9 0-1.5 .8-1.5 1.7c0 .9 .6 1.6 1.5 1.6c.8 0 1.4-.7 1.4-1.6c0-.9-.6-1.7-1.4-1.7m2.3 1.7c0 1.3-1 2.4-2.3 2.4c-1.4 0-2.4-1.1-2.4-2.4c0-1.4 1-2.4 2.4-2.4c1.3 0 2.3 1 2.3 2.4m-5.3 1.9c-.3 .3-.8 .5-1.4 .5c-1.3 0-2.3-1-2.3-2.4c0-1.4 1-2.4 2.4-2.4c.4 0 .9 .1 1.3 .4l-.4 .7c-.3-.2-.6-.4-1-.4c-.8 0-1.5 .8-1.5 1.7c0 1 .7 1.6 1.5 1.6c.3 0 .8-.1 1-.3Zm-4.3 0c-.4 .3-.9 .5-1.4 .5c-1.3 0-2.4-1-2.4-2.4c0-1.4 1.1-2.4 2.4-2.4c.5 0 .9 .1 1.3 .4l-.4 .7c-.2-.2-.6-.4-.9-.4c-.9 0-1.5 .8-1.5 1.7c0 1 .7 1.6 1.5 1.6c.3 0 .7-.1 1-.3Zm-8.2-1.8h2.2l-1.1-2.9Zm3 2.2l-.5-1.4h-2.8l-.5 1.4h-.9l2.5-6.4h.7l2.5 6.4Zm-8.7-3.9V228c0 .1 0 .2 0 .3c.1 .5 .2 .8 .7 .8c.2 0 .3 0 .5-.1l.2 .7c-.2 .1-.5 .2-.8 .2c-.7 0-1.1-.3-1.3-.8c-.1-.2-.1-.6-.1-.9v-2.3h-.6v-.7h.6v-1.1h.8v1.1h1.3v.7Zm-3.2-.7h.8v4.6h-.8v-4.6Zm0-1.8h.8v.9h-.8v-.9Zm-1.9 2.7c-.2-.2-.6-.3-.9-.3c-.5 0-.7 .2-.7 .6c0 .3 .4 .5 .9 .7c.6 .2 1.3 .5 1.3 1.3c0 1.1-.8 1.5-1.7 1.5c-.6 0-1.2-.3-1.5-.7l.5-.5c.4 .3 .7 .5 1 .5c.5 0 .9-.3 .9-.7c0-.4-.4-.5-.9-.7c-.6-.3-1.3-.5-1.3-1.4c0-.9 .7-1.3 1.5-1.3c.5 0 1 .1 1.4 .5Zm-5.8-.3c-.8 0-1.4 .8-1.4 1.7c0 .9 .6 1.6 1.4 1.6c.9 0 1.5-.7 1.5-1.6c0-.9-.6-1.7-1.5-1.7m2.4 1.7c0 1.3-1 2.4-2.4 2.4c-1.3 0-2.3-1.1-2.3-2.4c0-1.4 1-2.4 2.3-2.4c1.4 0 2.4 1 2.4 2.4m-9.2 .9c.3 .5 .8 .7 1.3 .7c1.1 0 1.6-.8 1.6-1.6c0-.9-.6-1.7-1.6-1.7c-.5 0-1.1 .3-1.3 .9Zm0-3.2v.6c.3-.5 .9-.7 1.4-.7c1.4 0 2.3 1 2.3 2.4c0 1.2-.9 2.4-2.3 2.4c-.5 0-1-.3-1.4-.6v2.8h-.8v-6.9Zm-5.5 1.8h2.6c0-.6-.5-1.2-1.2-1.2c-.7 0-1.2 .5-1.4 1.2m0 .7c0 .8 .6 1.5 1.4 1.5c.7 0 1.1-.3 1.4-.8l.6 .4c-.4 .7-1.1 1.1-2 1.1c-1.4 0-2.3-1.1-2.3-2.4c0-1.4 1-2.4 2.3-2.4c1.2 0 2.1 .9 2.1 2.1c0 .2 0 .4 0 .5Zm-5.4-3.6H128V229h.3c1.8 0 3.1-.6 3.1-2.4c0-1.6-1-2.5-2.7-2.5m-1.6-.7h1.8c1.6 0 3.4 .8 3.4 3.1c0 2.4-1.8 3.3-3.5 3.3h-1.7Zm-7 .6c-1.4 0-2.4 1.1-2.4 2.6c0 1.4 1 2.5 2.4 2.5c1.4 0 2.4-1.1 2.4-2.5c0-1.5-1-2.6-2.4-2.6m0 5.9c-1.9 0-3.3-1.5-3.3-3.3c0-1.9 1.4-3.4 3.3-3.4c1.9 0 3.3 1.5 3.3 3.4c0 1.8-1.4 3.3-3.3 3.3m-8-5.8h-.7V229h.3c1.8 0 3.1-.6 3.1-2.4c0-1.6-1-2.5-2.7-2.5m-1.6-.7h1.8c1.6 0 3.4 .8 3.4 3.1c0 2.4-1.8 3.3-3.5 3.3h-1.7Zm-3.7 3.5h-1V229h.5c.5 0 1 0 1.4-.2c.3-.1 .5-.4 .5-.8c0-.7-.5-1.1-1.4-1.1m.8-2.5c-.3-.2-.8-.3-1.3-.3h-.5v2h.6c1 0 1.6-.3 1.6-1c0-.4-.2-.6-.4-.7m-2.7-1h1.6c.6 0 1.2 .1 1.7 .4c.4 .3 .6 .7 .6 1.3c0 .6-.2 1-.9 1.3c.8 .3 1.2 .8 1.2 1.5c0 .8-.4 1.3-1 1.6c-.5 .2-1.1 .3-1.7 .3h-1.5Zm-7 3.6h2.6c0-.6-.5-1.2-1.2-1.2c-.7 0-1.2 .5-1.4 1.2m0 .7c0 .8 .5 1.5 1.4 1.5c.6 0 1.1-.3 1.4-.8l.6 .4c-.5 .7-1.1 1.1-2 1.1c-1.5 0-2.3-1.1-2.3-2.4c0-1.4 1-2.4 2.3-2.4c1.2 0 2.1 .9 2.1 2.1c0 .2 0 .4-.1 .5Zm-5.2-1.8c.3-.5 .9-.8 1.5-.8c.6 0 1 .2 1.3 .6c.3 .4 .4 1 .4 1.7v2.4h-.8v-2.3c0-.5 0-1-.3-1.3c-.1-.2-.3-.4-.8-.4c-.5 0-1 .4-1.3 .9v3.1h-.9v-6.9h.9Zm-3.4-1.8v5.7h-.9v-5.7H86.8v-.7h4.1v.7Zm-6.6 4.6h.9v1.1h-.9v-1.1Zm-4.6-3.5v.7c.3-.5 .9-.8 1.5-.8c.6 0 1 .2 1.3 .6c.3 .4 .4 1 .4 1.7v2.4h-.8v-2.3c0-.5 0-1-.3-1.3c-.1-.2-.4-.4-.8-.4c-.5 0-1 .4-1.3 .9v3.1h-.9v-4.6Zm-3.2 2.5c-.3-.1-.6-.1-.8-.1c-.6 0-1.3 .1-1.3 .8c0 .6 .4 .8 .9 .8c.4 0 .9-.3 1.2-.6Zm.1 2.1v-.5c-.4 .4-.8 .6-1.4 .6c-.9 0-1.6-.4-1.6-1.4c0-1.2 1-1.5 2-1.5c.2 0 .5 0 .9 .1v-.2c0-.7-.3-1.1-1.1-1.1c-.5 0-1.1 .2-1.4 .4l-.3-.7c.5-.2 1.2-.4 1.8-.4c1.4 0 1.9 .7 1.9 1.9v2.8Zm-6.3-4c-.8 0-1.4 .8-1.4 1.7c0 .9 .6 1.6 1.4 1.6c.9 0 1.5-.7 1.5-1.6c0-.9-.6-1.7-1.5-1.7m2.4 1.7c0 1.3-1 2.4-2.4 2.4c-1.3 0-2.3-1.1-2.3-2.4c0-1.4 1-2.4 2.3-2.4c1.4 0 2.4 1 2.4 2.4m-5.9 2.3h-.8v-6.9h.8ZM57.5 227h2.6c0-.6-.5-1.2-1.2-1.2c-.8 0-1.2 .5-1.4 1.2m-.1 .7c.1 .8 .6 1.5 1.5 1.5c.6 0 1.1-.3 1.4-.8l.6 .4c-.5 .7-1.1 1.1-2 1.1c-1.5 0-2.3-1.1-2.3-2.4c0-1.4 1-2.4 2.3-2.4c1.2 0 2.1 .9 2.1 2.1c0 .2-.1 .4-.1 .5Zm-5.1-1.8c.3-.5 .8-.8 1.5-.8c.6 0 1 .2 1.3 .6c.3 .4 .4 1 .4 1.7v2.4h-.8v-2.3c0-.5-.1-1-.3-1.3c-.1-.2-.4-.4-.8-.4c-.5 0-1 .4-1.3 .9v3.1h-.9v-6.9h.9Zm-3.2 0V228c0 .1 0 .2 .1 .3c0 .5 .1 .8 .6 .8c.2 0 .4 0 .5-.1l.2 .7c-.2 .1-.5 .2-.8 .2c-.7 0-1.1-.3-1.2-.8c-.2-.2-.2-.6-.2-.9v-2.3h-.6v-.7h.6v-1.1h.8v1.1h1.3v.7Zm-3.9-2.2c-.1-.1-.3-.1-.5-.1c-.3 0-.5 0-.6 .1c-.2 .2-.2 .5-.2 .9v.6h1.2v.7H43.9v3.9h-.8v-3.9h-.6v-.7h.6v-.7c0-.4 0-.9 .2-1.2c.3-.3 .6-.5 1.3-.5c.3 0 .6 .1 .9 .2Zm-5.8 2.1c-.9 0-1.5 .8-1.5 1.7c0 .9 .6 1.6 1.5 1.6c.8 0 1.5-.7 1.5-1.6c0-.9-.7-1.7-1.5-1.7m2.3 1.7c0 1.3-1 2.4-2.3 2.4c-1.3 0-2.3-1.1-2.3-2.4c0-1.4 1-2.4 2.3-2.4c1.3 0 2.3 1 2.3 2.4Z" class="g2_4"/>
<path d="M467.7 259.6c-1.7 0-3 1.3-3 3V507.1c0 1.6 1.3 3 3 3H869c1.7 0 3-1.4 3-3V262.6c0-1.7-1.3-3-3-3H467.7Zm-427.2 0c-1.7 0-3.1 1.3-3.1 3V507.1c0 1.6 1.4 3 3.1 3H454.6c1.7 0 3.1-1.4 3.1-3V262.6c0-1.7-1.4-3-3.1-3H40.5Z" class="g5_4"/>
<path d="M57.6 312.2c-2.5 0-4.5 2-4.5 4.6v27.4c0 2.6 2 4.6 4.5 4.6H431c2.6 0 4.6-2 4.6-4.6V316.8c0-2.6-2-4.6-4.6-4.6Z" class="g3_4"/>
<path d="M403.1 312.3v36.6M149 312.3v36.6m190.6-36.6v36.6M212.5 312.3v36.6M85.4 312.3v36.6m158.9-36.6v36.6m31.8-36.6v36.6m31.7-36.6v36.6m63.6-36.6v36.6M117.2 312.3v36.6m63.5-36.6v36.6" class="g6_4"/>
<path d="M483.6 318.4c-3.3 0-6.1 2.7-6.1 6.1c0 3.4 2.8 6.1 6.1 6.1c3.4 0 6.1-2.7 6.1-6.1c0-3.4-2.7-6.1-6.1-6.1Z" class="g3_4"/>
<path d="M39.6 557.5c-1.3 0-2.4 1.1-2.4 2.4V663.8c0 1.4 1.1 2.5 2.4 2.5H869.3c1.3 0 2.4-1.1 2.4-2.5V559.9c0-1.3-1.1-2.4-2.4-2.4H39.6Z" class="g4_4"/>
<path d="M754.4 593.5c-3.4 0-6.1 2.8-6.1 6.1c0 3.4 2.7 6.2 6.1 6.2c3.3 0 6.1-2.8 6.1-6.2c0-3.3-2.8-6.1-6.1-6.1Z" class="g3_4"/>
<path d="M825.6 593.8c-3.4 0-6.1 2.7-6.1 6.1c0 3.4 2.7 6.1 6.1 6.1c3.4 0 6.1-2.7 6.1-6.1c0-3.4-2.7-6.1-6.1-6.1Z" class="g3_4"/>
<path d="M754.4 618c-3.4 0-6.1 2.7-6.1 6.1c0 3.4 2.7 6.1 6.1 6.1c3.3 0 6.1-2.7 6.1-6.1c0-3.4-2.8-6.1-6.1-6.1Z" class="g3_4"/>
<path d="M825.6 618c-3.4 0-6.1 2.7-6.1 6.1c0 3.4 2.7 6.1 6.1 6.1c3.4 0 6.1-2.7 6.1-6.1c0-3.4-2.7-6.1-6.1-6.1Z" class="g3_4"/>
<path d="M57.6 465.1c-2.5 0-4.5 2-4.5 4.6v27.4c0 2.6 2 4.6 4.5 4.6H231.7c2.5 0 4.5-2 4.5-4.6V469.7c0-2.6-2-4.6-4.5-4.6Z" class="g3_4"/>
<path d="M258 465.1c-2.5 0-4.6 2-4.6 4.6v27.4c0 2.6 2.1 4.6 4.6 4.6H432c2.6 0 4.6-2 4.6-4.6V469.7c0-2.6-2-4.6-4.6-4.6Z" class="g3_4"/>
<path d="M468.6 1207.7c-2.5 0-4.6 2.1-4.6 4.6v39.2c0 2.5 2.1 4.5 4.6 4.5H673.4c2.5 0 4.5-2 4.5-4.5v-39.2c0-2.5-2-4.6-4.5-4.6Z" class="g3_4"/>
<path d="M700.7 1218.2c-2.5 0-4.5 2.1-4.5 4.6v27.5c0 2.5 2 4.6 4.5 4.6h30.4c2.5 0 4.5-2.1 4.5-4.6v-27.5c0-2.5-2-4.6-4.5-4.6Z" class="g3_4"/>
<path d="M749.8 1218.2c-2.5 0-4.6 2.1-4.6 4.6v27.5c0 2.5 2.1 4.6 4.6 4.6h30.3c2.6 0 4.6-2.1 4.6-4.6v-27.5c0-2.5-2-4.6-4.6-4.6Z" class="g3_4"/>
<path d="M798.4 1218.2c-2.6 0-4.6 2.1-4.6 4.6v27.5c0 2.5 2 4.6 4.6 4.6h69.8c2.5 0 4.6-2.1 4.6-4.6v-27.5c0-2.5-2.1-4.6-4.6-4.6Z" class="g3_4"/>
<path d="M716.4 1218.3v36.6m49-36.6v36.6m48.6-36.6v36.6m39.4-36.1v36.7m-20.2-36.7v36.7" class="g7_4"/>
<path d="M65 101.4L59.4 107l-2-2c-.4-.4-1-.4-1.4 0c-.4 .4-.4 1.1-.1 1.5q.1 0 .1 0l2.7 2.7c.4 .4 1.1 .4 1.5 0l6.3-6.3c.4-.5 .4-1.1 0-1.5c-.4-.4-1.1-.4-1.5 0Z" class="g2_4"/>
<path d="M62.4 270.5l-5.6 5.7l-2-2c-.4-.4-1-.5-1.4-.1c-.4 .4-.5 1.1-.1 1.5c0 0 .1 0 .1 0l2.7 2.8c.4 .4 1 .4 1.5 0l6.3-6.4c.4-.4 .4-1.1 0-1.5c-.4-.4-1.1-.4-1.5 0Z" class="g2_4"/>
<path d="M58.3 598.1l-5.6 5.7l-2-2c-.4-.4-1.1-.5-1.5-.1c-.4 .4-.4 1.1 0 1.5l2.7 2.8c.4 .4 1.1 .4 1.5 0l6.3-6.4c.4-.4 .4-1.1 0-1.5c-.4-.3-1-.3-1.4 0Z" class="g2_4"/>
<path d="M58.3 621.6l-5.6 5.6l-2-2c-.4-.4-1.1-.4-1.5 0c-.4 .4-.4 1.1 0 1.5l2.7 2.7c.4 .4 1.1 .4 1.5 0l6.3-6.3c.4-.4 .4-1.1 0-1.5c-.4-.4-1-.4-1.4 0Z" class="g2_4"/>
<path d="M595.2 102.6l-5.6 5.6l-2-2c-.4-.4-1.1-.4-1.5 0c-.4 .4-.4 1 0 1.4c0 0 0 .1 0 .1l2.7 2.7c.4 .4 1.1 .4 1.5 0l6.3-6.4c.4-.4 .4-1 0-1.4c-.4-.4-1-.4-1.4 0Z" class="g2_4"/>
<path d="M473.4 1186.8l-5.6 5.6l-2-2c-.4-.4-1.1-.4-1.5 0c-.4 .4-.4 1.1 0 1.5l2.7 2.7c.4 .4 1.1 .4 1.5 0l6.4-6.3c.3-.4 .3-1.1-.1-1.5c-.4-.4-1-.4-1.4 0Z" class="g2_4"/>
<path d="M706.4 1198.7l-5.6 5.6l-2-2c-.4-.4-1.1-.4-1.5 0c-.4 .4-.4 1 0 1.5l2.7 2.7c.4 .4 1.1 .4 1.5 0l6.3-6.3c.4-.5 .4-1.1 0-1.5c-.4-.4-1-.4-1.4 0Z" class="g2_4"/>
<path d="M837.3 334.7c.8 .3 1.8 .7 1.8 1.8m-.2-3.8l-.6 .7Z" class="g2_4"/>
<path d="M836.7 277.6v-2.2c-.4-.6-1.2-1-1.8-1c-1.4 0-2.1 1.2-2.1 2.2c0 1.1 .8 2.2 2.1 2.2c.6 0 1.5-.4 1.8-1.2m-5-1c0-1.6 1.2-3.2 3.1-3.2c.7 0 1.4 .3 1.9 .8v-3.7h1.1v9.2h-1.1v-.9c-.5 .7-1.2 1-2 1c-1.7 0-3-1.4-3-3.2m-5.8-3.1v1c.5-.7 1.2-1.1 2-1.1c.9 0 1.4 .3 1.8 .8c.4 .5 .5 1.3 .5 2.3v3.2h-1.1v-3.1c0-.6 0-1.2-.3-1.7c-.2-.3-.5-.5-1.1-.5c-.7 0-1.4 .5-1.8 1.2v4.1h-1.1v-6.2Zm-4.2 3.4c-.5-.1-.8-.1-1.1-.1c-.8 0-1.8 .1-1.8 1.1c0 .7 .6 1 1.3 1c.6 0 1.1-.3 1.6-.8Zm.1 2.8V279c-.6 .6-1.1 .8-1.9 .8c-1.1 0-2.1-.6-2.1-1.9c0-1.5 1.3-2 2.7-2c.3 0 .7 0 1.2 .1v-.2c0-.9-.4-1.4-1.4-1.4c-.7 0-1.5 .2-2 .5l-.3-.9c.6-.3 1.6-.6 2.4-.6c1.8 0 2.4 1 2.4 2.5v3.8Zm-9.2-5.5h-1.1l.6-3.1h1.3Zm-3.8 .3v2.8c0 .1 0 .3 0 .5c0 .6 .2 1 .8 1c.3 0 .5-.1 .7-.2l.3 .9c-.3 .2-.7 .3-1.1 .3c-.9 0-1.4-.4-1.7-1c-.1-.3-.2-.8-.2-1.3v-3h-.8v-1h.8v-1.4h1.2v1.4h1.7v1Zm-7.5-1v1c.4-.7 1.2-1.1 2-1.1c.8 0 1.4 .3 1.7 .8c.5 .5 .6 1.3 .6 2.3v3.2h-1.1v-3.1c0-.6 0-1.2-.3-1.7c-.2-.3-.6-.5-1.1-.5c-.7 0-1.4 .5-1.8 1.2v4.1h-1.1v-6.2Zm-4.3 5.1c-.4 .8-1.2 1.2-2 1.2c-.8 0-1.4-.3-1.8-.8c-.4-.5-.5-1.4-.5-2.3v-3.2h1.1v3.1c0 .6 0 1.2 .3 1.7c.2 .3 .5 .5 1.1 .5c.7 0 1.4-.5 1.8-1.2v-4.1h1.1v6.2H797Zm-8.9-4.2c-1.1 0-2 1-2 2.2c0 1.2 .9 2.2 2 2.2c1.2 0 2-1 2-2.2c0-1.2-.8-2.2-2-2.2m3.1 2.2c0 1.8-1.3 3.2-3.1 3.2c-1.8 0-3.1-1.4-3.1-3.2c0-1.8 1.3-3.2 3.1-3.2c1.8 0 3.1 1.4 3.1 3.2m-7 2.6c-.5 .4-1.2 .6-1.9 .6c-1.7 0-3.1-1.3-3.1-3.2c0-1.8 1.4-3.2 3.2-3.2c.6 0 1.2 .2 1.7 .5l-.5 .9c-.4-.2-.8-.4-1.3-.4c-1.1 0-2 1-2 2.2c0 1.3 1 2.2 2 2.2c.4 0 1-.2 1.3-.5Zm-5.8 0c-.5 .4-1.2 .6-1.9 .6c-1.7 0-3.1-1.3-3.1-3.2c0-1.8 1.4-3.2 3.2-3.2c.6 0 1.2 .2 1.7 .5l-.5 .9c-.4-.2-.8-.4-1.3-.4c-1.1 0-2 1-2 2.2c0 1.3 1 2.2 2 2.2c.4 0 1-.2 1.3-.5Zm-11-2.4h2.9l-1.5-3.9Zm3.9 2.9l-.6-1.9H767l-.6 1.9h-1.3l3.3-8.6h1l3.3 8.6Zm-11.4-5.2v2.8c0 .1 0 .3 0 .5c0 .6 .2 1 .9 1c.2 0 .4-.1 .6-.2l.3 .9c-.3 .2-.7 .3-1.1 .3c-.9 0-1.4-.4-1.6-1c-.2-.3-.2-.8-.2-1.3v-3H758v-1h.8v-1.4h1.1v1.4h1.7v1Zm-7.5-1v1c.5-.7 1.2-1.1 2-1.1c.9 0 1.4 .3 1.8 .8c.4 .5 .5 1.3 .5 2.3v3.2h-1.1v-3.1c0-.6 0-1.2-.3-1.7c-.2-.3-.5-.5-1.1-.5c-.7 0-1.3 .5-1.8 1.2v4.1h-1.1v-6.2Zm-7.3 2.5h3.5c0-.9-.7-1.7-1.6-1.7c-1 0-1.6 .8-1.9 1.7m0 .9c0 1 .8 1.9 1.9 1.9c.8 0 1.5-.2 1.8-.9l.8 .5c-.6 .9-1.4 1.4-2.6 1.4c-2 0-3.1-1.4-3.1-3.2c0-1.8 1.4-3.2 3.1-3.2c1.6 0 2.8 1.2 2.8 2.8c0 .2-.1 .5-.1 .7Zm-3.7 2.8v-3.1c0-.6 0-1.2-.3-1.7c-.2-.3-.6-.5-1.1-.5c-.6 0-1.2 .4-1.7 1c.1 .3 .1 .7 .1 1.1v3.2h-1.1v-3.1c0-.6 0-1.3-.3-1.7c-.2-.3-.5-.5-1-.5c-.6 0-1.3 .6-1.7 1.1v4.2h-1.1v-6.2h1.1v1c.5-.7 1.2-1.1 2-1.1c.7 0 1.3 .3 1.7 .8c0 .1 .1 .2 .1 .3c.5-.7 1.3-1.1 2.1-1.1c.8 0 1.4 .3 1.7 .7c.4 .6 .6 1.4 .6 2.4v3.2ZM727.1 276h3.4c0-.9-.7-1.7-1.6-1.7c-1 0-1.6 .8-1.8 1.7m-.1 .9c.1 1 .8 1.9 1.9 1.9c.9 0 1.5-.2 1.9-.9l.8 .5c-.6 .9-1.5 1.4-2.7 1.4c-1.9 0-3-1.4-3-3.2c0-1.8 1.3-3.2 3-3.2c1.6 0 2.8 1.2 2.8 2.8c0 .2 0 .5-.1 .7Zm-2.7 2.8h-1.1v-9.2h1.1v9.2Zm-4.1-5.2v2.8c0 .1 0 .3 0 .5c0 .6 .2 1 .8 1c.3 0 .5-.1 .7-.2l.3 .9c-.3 .2-.7 .3-1.1 .3c-.9 0-1.4-.4-1.7-1c-.1-.3-.2-.8-.2-1.3v-3h-.8v-1h.8v-1.4h1.2v1.4h1.7v1Zm-4.3 0v2.8c0 .1 0 .3 0 .5c.1 .6 .3 1 .9 1c.2 0 .5-.1 .7-.2l.3 .9c-.3 .2-.7 .3-1.1 .3c-.9 0-1.4-.4-1.7-1c-.1-.3-.2-.8-.2-1.3v-3H714v-1h.8v-1.4h1.1v1.4h1.7v1Zm-7.3 1.5h3.5c-.1-.9-.7-1.7-1.7-1.7c-.9 0-1.6 .8-1.8 1.7m-.1 .9c.1 1 .8 1.9 2 1.9c.8 0 1.4-.2 1.8-.9l.8 .5c-.6 .9-1.4 1.4-2.7 1.4c-1.9 0-3-1.4-3-3.2c0-1.8 1.3-3.2 3-3.2c1.6 0 2.8 1.2 2.8 2.8c0 .2 0 .5 0 .7Zm-5.3-4.9c-.9 0-1.5 .4-1.5 1.2c0 .7 .9 1 1.8 1.3c1.2 .5 2.6 1 2.6 2.6c0 2-1.7 2.7-3 2.7c-1.3 0-2.2-.4-3.1-1.3l.8-.8c.8 .8 1.4 1 2.3 1c.9 0 1.7-.4 1.7-1.4c0-1-.9-1.3-1.9-1.6c-1.1-.4-2.4-1-2.4-2.4c0-1.6 1.2-2.3 2.6-2.3c1 0 1.9 .2 2.7 .8l-.8 .9c-.4-.4-1.1-.7-1.8-.7M691 276.8h2.9l-1.5-3.9Zm3.9 2.9l-.6-1.9h-3.7l-.6 1.9h-1.3l3.3-8.6h1l3.3 8.6Zm-9.3 .1c-2.6 0-4.6-1.7-4.6-4.4c0-2.6 2-4.4 4.6-4.4c.8 0 1.6 .2 2.3 .6l-.6 .9c-.5-.3-1.1-.5-1.7-.5c-2 0-3.4 1.4-3.4 3.4c0 2.1 1.4 3.3 3.4 3.3c.6 0 1.3-.1 1.9-.6l.6 .9c-.7 .5-1.6 .8-2.5 .8m-10.8-3h2.9l-1.5-3.9Zm3.9 2.9l-.7-1.9h-3.6l-.7 1.9h-1.2l3.3-8.6h1l3.3 8.6Zm-10 .6l-.9-.3l3.6-9.7l.9 .4Zm-6.3-3.5h2.8l-1.4-3.9Zm3.9 2.9l-.7-1.9H662l-.7 1.9H660l3.3-8.6h1.1l3.2 8.6Zm-12-7.5h-.9v6.4h.4c2.4 0 4.1-.8 4.1-3.2c0-2.1-1.4-3.2-3.6-3.2m-2.1-1.1h2.3c2.2 0 4.6 1.1 4.6 4.2c0 3.2-2.4 4.4-4.7 4.4h-2.2Zm-6.6 5.7h2.9l-1.5-3.9Zm3.9 2.9l-.7-1.9h-3.6l-.7 1.9h-1.2l3.3-8.6h1l3.3 8.6ZM635 272c-1.9 0-3.2 1.5-3.2 3.4c0 1.9 1.3 3.3 3.2 3.3c1.8 0 3.1-1.4 3.1-3.3c0-1.9-1.3-3.4-3.1-3.4m0 7.8c-2.5 0-4.4-2-4.4-4.4c0-2.5 1.9-4.4 4.4-4.4c2.4 0 4.4 1.9 4.4 4.4c0 2.4-2 4.4-4.4 4.4m-10.7-7.6h-.9v6.4h.4c2.4 0 4-.8 4-3.2c0-2.1-1.3-3.2-3.5-3.2m-2.1-1.1h2.3c2.2 0 4.6 1.1 4.6 4.2c0 3.2-2.4 4.4-4.7 4.4h-2.2Zm-4.9 4.7h-1.4v2.8h.6c.7 0 1.4 0 1.8-.2c.5-.2 .7-.6 .7-1.2c0-.8-.6-1.4-1.7-1.4m1-3.4c-.5-.2-1.1-.3-1.8-.3h-.6v2.7h.8c1.3 0 2.1-.4 2.1-1.3c0-.6-.2-.9-.5-1.1m-3.6-1.3h2.1c.8 0 1.6 .1 2.2 .5c.6 .4 .9 1.1 .9 1.8c0 .8-.3 1.4-1.3 1.8c1.1 .3 1.7 1 1.7 2c0 1-.6 1.7-1.4 2.1c-.7 .3-1.5 .4-2.3 .4h-1.9Zm-2.5 3.1H611l.8-3.1h1Zm-7.6 4h.1l1.2-4.7H607l-1.7 6.2h-1.2l-1.3-4.8l-1.4 4.8h-1.2l-1.7-6.2h1.2l1.1 4.7l1.4-4.7h1.2ZM593.1 276h3.5c0-.9-.7-1.7-1.6-1.7c-1 0-1.6 .8-1.9 1.7m0 .9c0 1 .8 1.9 1.9 1.9c.8 0 1.5-.2 1.8-.9l.9 .5c-.7 .9-1.5 1.4-2.7 1.4c-2 0-3-1.4-3-3.2c0-1.8 1.3-3.2 3-3.2c1.6 0 2.8 1.2 2.8 2.8c0 .2-.1 .5-.1 .7Zm-6.9-3.4v1c.4-.7 1.1-1.1 2-1.1c.8 0 1.4 .3 1.7 .8c.4 .5 .6 1.3 .6 2.3v3.2h-1.1v-3.1c0-.6-.1-1.2-.3-1.7c-.2-.3-.6-.5-1.1-.5c-.7 0-1.4 .5-1.8 1.2v4.1h-1.1v-6.2ZM576 276.9c-.4-.1-.8-.1-1.1-.1c-.8 0-1.8 .1-1.8 1.1c0 .7 .6 1 1.3 1c.6 0 1.1-.3 1.6-.8Zm.1 2.8V279c-.5 .6-1.1 .8-1.9 .8c-1.1 0-2.1-.6-2.1-1.9c0-1.5 1.3-2 2.7-2c.3 0 .7 0 1.2 .1v-.2c0-.9-.4-1.4-1.4-1.4c-.7 0-1.5 .2-2 .5l-.3-.9c.6-.3 1.6-.6 2.4-.6c1.8 0 2.4 1 2.4 2.5v3.8ZM563.3 276h3.5c-.1-.9-.8-1.7-1.7-1.7c-1 0-1.6 .8-1.8 1.7m-.1 .9c.1 1 .8 1.9 2 1.9c.8 0 1.4-.2 1.8-.9l.8 .5c-.6 .9-1.4 1.4-2.7 1.4c-1.9 0-3-1.4-3-3.2c0-1.8 1.3-3.2 3-3.2c1.6 0 2.8 1.2 2.8 2.8c0 .2 0 .5 0 .7Zm-3.1 2.8l-1.7-2.8l-1 1.1v1.7h-1.1v-9.2h1.1v6.1h.1l2.4-3.1h1.4l-2.1 2.5l2.3 3.7Zm-6.9-6.2h1.1v6.2h-1.1v-6.2Zm0-2.4h1.1v1.2h-1.1v-1.2Zm-2.1 8.6H550v-9.2h1.1v9.2Zm-7.3-2.1v-2.2c-.4-.6-1.1-1-1.7-1c-1.4 0-2.1 1.2-2.1 2.2c0 1.1 .8 2.2 2 2.2c.7 0 1.5-.4 1.8-1.2m-5-1c0-1.6 1.3-3.2 3.1-3.2c.7 0 1.5 .3 1.9 .8v-3.7H545v9.2h-1.2v-.9c-.4 .7-1.2 1-1.9 1c-1.8 0-3.1-1.4-3.1-3.2m-1.5 3.1h-1.1v-9.2h1.1Zm-4.3-1.1c-.4 .8-1.1 1.2-2 1.2c-.8 0-1.4-.3-1.7-.8c-.5-.5-.6-1.4-.6-2.3v-3.2h1.1v3.1c0 .6 0 1.2 .3 1.7c.2 .3 .6 .5 1.1 .5c.7 0 1.4-.5 1.8-1.2v-4.1h1.1v6.2H533Zm-8.9-4.2c-1.1 0-2 1-2 2.2c0 1.2 .9 2.2 2 2.2c1.2 0 2-1 2-2.2c0-1.2-.8-2.2-2-2.2m3.1 2.2c0 1.8-1.3 3.2-3.1 3.2c-1.8 0-3.1-1.4-3.1-3.2c0-1.8 1.3-3.2 3.1-3.2c1.8 0 3.1 1.4 3.1 3.2m-9.3 1.6v0l1.3-4.7h1.1l-1.8 6.2h-1.2l-1.3-4.8l-1.3 4.8h-1.3l-1.7-6.2h1.2l1.2 4.7l1.4-4.7h1.2Zm-11.5 .4c-.4 .8-1.2 1.2-2 1.2c-.8 0-1.4-.3-1.7-.8c-.5-.5-.6-1.4-.6-2.3v-3.2h1.1v3.1c0 .6 0 1.2 .3 1.7c.2 .3 .6 .5 1.1 .5c.7 0 1.4-.5 1.8-1.2v-4.1h1.1v6.2h-1.1Zm-8.9-4.2c-1.1 0-2 1-2 2.2c0 1.2 .9 2.2 2 2.2c1.2 0 2-1 2-2.2c0-1.2-.8-2.2-2-2.2m3.1 2.2c0 1.8-1.3 3.2-3.1 3.2c-1.8 0-3.1-1.4-3.1-3.2c0-1.8 1.3-3.2 3.1-3.2c1.8 0 3.1 1.4 3.1 3.2m-11.2-3.1l1.6 4.7l1.6-4.7h1.2l-3.4 8.9l-1-.4l1-2.5l-2.3-6Zm-4.3-2c-.2-.1-.4-.1-.7-.1c-.4 0-.6 0-.7 .2c-.3 .2-.4 .6-.4 1.2v.7H485v1h-1.7v5.2h-1.1v-5.2h-.7v-1h.7v-.8c0-.7 .1-1.2 .4-1.6c.3-.5 .8-.8 1.6-.8c.4 0 .9 .2 1.2 .3Zm-6.5-.4h1.2v8.6h-1.2v-8.6Z" class="g2_4"/>
<path d="M833.6 336.1v1c.4-.8 1.1-1.2 2-1.2c.8 0 1.4 .3 1.7 .8c.4 .5 .6 1.4 .6 2.3v3.2h-1.1v-3.1c0-.6-.1-1.2-.4-1.7c-.1-.3-.5-.5-1-.5c-.7 0-1.4 .5-1.8 1.2v4.1h-1.1v-6.1Zm-4.2 3.3c-.5-.1-.8-.1-1.1-.1c-.8 0-1.8 .2-1.8 1.1c0 .7 .6 1 1.2 1c.6 0 1.2-.3 1.7-.7Zm0 2.8v-.7c-.5 .6-1 .8-1.8 .8c-1.1 0-2.2-.5-2.2-1.8c0-1.6 1.4-2.1 2.7-2.1c.3 0 .7 .1 1.3 .2v-.3c0-.9-.5-1.4-1.5-1.4c-.7 0-1.4 .2-1.9 .5l-.4-.9c.7-.3 1.6-.6 2.5-.6c1.7 0 2.4 1 2.4 2.6v3.7Zm-8.3-5.3c-1.1 0-2 1-2 2.2c0 1.2 .9 2.2 2 2.2c1.2 0 2-1 2-2.2c0-1.2-.8-2.2-2-2.2m3.1 2.2c0 1.8-1.3 3.2-3.1 3.2c-1.8 0-3.1-1.4-3.1-3.2c0-1.8 1.3-3.2 3.1-3.2c1.8 0 3.1 1.4 3.1 3.2m-11.7 3.1v-8.6h1.2v7.5h3.7v1.1Zm-14.3-6.1l1.6 4.6l1.7-4.6h1.2l-3.5 8.8l-.9-.4l.9-2.5l-2.2-5.9Zm-3.3 6.1v-3.1c0-.6-.1-1.2-.3-1.7c-.2-.3-.6-.5-1.1-.5c-.6 0-1.2 .5-1.7 1.1c.1 .3 .1 .6 .1 1v3.2h-1.1v-3.1c0-.6 0-1.3-.3-1.7c-.2-.3-.5-.5-1-.5c-.6 0-1.3 .6-1.7 1.2v4.1h-1.1v-6.1h1.1v.9c.5-.7 1.2-1.1 1.9-1.1c.8 0 1.4 .3 1.7 .9c.1 0 .2 .2 .2 .2c.5-.7 1.3-1.1 2.1-1.1c.8 0 1.4 .3 1.7 .7c.4 .6 .6 1.4 .6 2.4v3.2Zm-23-3.7h3.5c-.1-.9-.7-1.6-1.6-1.6c-1 0-1.7 .7-1.9 1.6m-.1 .9c.1 1 .8 2 2 2c.8 0 1.5-.3 1.8-1l.8 .5c-.6 1-1.4 1.4-2.6 1.4c-2 0-3.1-1.4-3.1-3.2c0-1.8 1.4-3.2 3.1-3.2c1.6 0 2.7 1.2 2.7 2.9c0 .2 0 .4 0 .6Zm-1.7-3.3l-2.3 6.1h-1l-2.3-6.1h1.2l1.6 4.7l1.7-4.7Zm-7.8 3.3c-.5-.1-.8-.1-1.1-.1c-.8 0-1.8 .2-1.8 1.1c0 .7 .6 1 1.2 1c.7 0 1.2-.3 1.7-.7Zm0 2.8v-.7c-.5 .6-1 .8-1.8 .8c-1.1 0-2.2-.5-2.2-1.8c0-1.6 1.4-2.1 2.8-2.1c.3 0 .7 .1 1.2 .2v-.3c0-.9-.4-1.4-1.4-1.4c-.8 0-1.5 .2-2 .5l-.3-.9c.6-.3 1.5-.6 2.4-.6c1.8 0 2.4 1 2.4 2.6v3.7Zm-9.9-5.1c.5-.8 1.2-1.2 2-1.2c.9 0 1.4 .3 1.8 .8c.4 .5 .5 1.4 .5 2.3v3.2h-1.1v-3.1c0-.6 0-1.2-.3-1.7c-.2-.3-.5-.5-1.1-.5c-.7 0-1.3 .5-1.8 1.2v4.1h-1.1V333h1.1Zm-14.4-.2c-1.1 0-2 1-2 2.2c0 1.2 .9 2.2 2 2.2c1.2 0 2-1 2-2.2c0-1.2-.8-2.2-2-2.2m3.1 2.2c0 1.8-1.3 3.2-3.1 3.2c-1.8 0-3.1-1.4-3.1-3.2c0-1.8 1.3-3.2 3.1-3.2c1.8 0 3.1 1.4 3.1 3.2m-8.7-2.1v2.8c0 .2 0 .3 0 .5c0 .6 .2 1 .8 1c.3 0 .5-.1 .7-.2l.3 .9c-.3 .2-.7 .3-1.1 .3c-.9 0-1.4-.4-1.7-1c-.1-.3-.1-.8-.1-1.2V337h-.9v-.9h.9v-1.5h1.1v1.5h1.7v.9Zm-16 1.5h3.5c-.1-.9-.7-1.6-1.7-1.6c-.9 0-1.6 .7-1.8 1.6m-.1 .9c.1 1 .8 2 2 2c.8 0 1.4-.3 1.8-1l.8 .5c-.6 1-1.4 1.4-2.7 1.4c-1.9 0-3-1.4-3-3.2c0-1.8 1.3-3.2 3-3.2c1.6 0 2.8 1.2 2.8 2.9c0 .2 0 .4 0 .6Zm-3 2.8l-1.8-2.8l-1 1.2v1.6h-1.1V333h1.1v6.1h.1l2.4-3h1.4l-2.1 2.5l2.3 3.6Zm-7-6.1h1.1v6.1h-1.1v-6.1Zm0-2.5h1.1v1.3h-1.1v-1.3Zm-2.1 8.6h-1.1V333h1.1v9.2Zm-12.9-2.1v-2.2c-.4-.6-1.1-1-1.8-1c-1.4 0-2.1 1.2-2.1 2.2c0 1.2 .8 2.2 2.1 2.2c.7 0 1.5-.4 1.8-1.2m-5-1c0-1.6 1.2-3.2 3.1-3.2c.7 0 1.4 .3 1.9 .8V333h1.1v9.2h-1.1v-.9c-.4 .7-1.2 1-1.9 1c-1.8 0-3.1-1.4-3.1-3.2m-1.5 3.1h-1.1V333h1.1Zm-4.3-1c-.5 .7-1.2 1.1-2 1.1c-.9 0-1.4-.3-1.8-.8c-.4-.5-.5-1.3-.5-2.3v-3.1h1.1v3c0 .6 0 1.3 .3 1.7c.2 .3 .5 .5 1.1 .5c.7 0 1.4-.5 1.8-1.2v-4h1.1v6.1h-1.1Zm-8.9-4.3c-1.2 0-2 1-2 2.2c0 1.2 .8 2.2 2 2.2c1.1 0 2-1 2-2.2c0-1.2-.9-2.2-2-2.2m3.1 2.2c0 1.8-1.3 3.2-3.1 3.2c-1.8 0-3.1-1.4-3.1-3.2c0-1.8 1.3-3.2 3.1-3.2c1.8 0 3.1 1.4 3.1 3.2m-9.3 1.7v0l1.2-4.7h1.2l-1.8 6.1h-1.2l-1.3-4.8l-1.4 4.8h-1.2l-1.7-6.1h1.2l1.1 4.7h.1l1.3-4.7h1.2Zm-17.2-.7v-2.2c-.4-.6-1.1-1-1.7-1c-1.5 0-2.1 1.2-2.1 2.2c0 1.2 .8 2.2 2 2.2c.7 0 1.5-.4 1.8-1.2m-5-1c0-1.6 1.3-3.2 3.1-3.2c.7 0 1.4 .3 1.9 .8V333h1.1v9.2h-1.1v-.9c-.4 .7-1.2 1-1.9 1c-1.8 0-3.1-1.4-3.1-3.2m-5.7-3v1c.4-.8 1.1-1.2 1.9-1.2c.9 0 1.5 .3 1.8 .8c.4 .5 .6 1.4 .6 2.3v3.2h-1.1v-3.1c0-.6-.1-1.2-.4-1.7c-.2-.3-.5-.5-1-.5c-.7 0-1.4 .5-1.8 1.2v4.1h-1.2v-6.1Zm-4.2 3.3c-.5-.1-.8-.1-1.1-.1c-.8 0-1.8 .2-1.8 1.1c0 .7 .6 1 1.2 1c.6 0 1.2-.3 1.7-.7Zm0 2.8v-.7c-.5 .6-1 .8-1.8 .8c-1.2 0-2.2-.5-2.2-1.8c0-1.6 1.4-2.1 2.7-2.1c.3 0 .7 .1 1.3 .2v-.3c0-.9-.5-1.4-1.5-1.4c-.7 0-1.4 .2-1.9 .5l-.4-.9c.7-.3 1.6-.6 2.4-.6c1.8 0 2.5 1 2.5 2.6v3.7Zm-14.8-5.5h-1.1l.6-3.1h1.3Zm-3.8 .3v2.8c0 .2 0 .3 0 .5c0 .6 .2 1 .8 1c.3 0 .5-.1 .7-.2l.3 .9c-.3 .2-.7 .3-1.1 .3c-.9 0-1.4-.4-1.7-1c-.1-.3-.2-.8-.2-1.2V337h-.8v-.9h.8v-1.5h1.2v1.5h1.7v.9Zm-7.5-.9v1c.4-.8 1.2-1.2 2-1.2c.8 0 1.4 .3 1.7 .8c.5 .5 .6 1.4 .6 2.3v3.2h-1.1v-3.1c0-.6 0-1.2-.3-1.7c-.2-.3-.6-.5-1.1-.5c-.7 0-1.4 .5-1.8 1.2v4.1h-1.1v-6.1Zm-4.3 5.1c-.4 .7-1.2 1.1-2 1.1c-.8 0-1.4-.3-1.8-.8c-.4-.5-.5-1.3-.5-2.3v-3.1h1.1v3c0 .6 0 1.3 .3 1.7c.2 .3 .5 .5 1.1 .5c.7 0 1.4-.5 1.8-1.2v-4H604v6.1h-1.1Zm-8.9-4.3c-1.1 0-2 1-2 2.2c0 1.2 .9 2.2 2 2.2c1.2 0 2-1 2-2.2c0-1.2-.8-2.2-2-2.2m3.1 2.2c0 1.8-1.3 3.2-3.1 3.2c-1.8 0-3.1-1.4-3.1-3.2c0-1.8 1.3-3.2 3.1-3.2c1.8 0 3.1 1.4 3.1 3.2m-7 2.6c-.5 .4-1.2 .6-1.9 .6c-1.7 0-3.1-1.3-3.1-3.2c0-1.8 1.4-3.2 3.2-3.2c.6 0 1.2 .2 1.7 .5l-.5 1c-.4-.3-.8-.5-1.3-.5c-1.1 0-2 1-2 2.2c0 1.3 1 2.2 2 2.2c.4 0 1-.2 1.3-.4Zm-5.8 0c-.5 .4-1.2 .6-1.9 .6c-1.7 0-3.1-1.3-3.1-3.2c0-1.8 1.4-3.2 3.2-3.2c.6 0 1.2 .2 1.7 .5l-.5 1c-.4-.3-.8-.5-1.3-.5c-1.1 0-2 1-2 2.2c0 1.3 1 2.2 2 2.2c.4 0 1-.2 1.3-.4Zm-11-2.4h2.9l-1.5-3.9Zm3.9 2.9l-.6-1.9h-3.7l-.6 1.9H571l3.3-8.6h1l3.3 8.6ZM560.1 337v2.8c0 .2 0 .3 0 .5c.1 .6 .3 1 .9 1c.2 0 .5-.1 .7-.2l.3 .9c-.3 .2-.7 .3-1.2 .3c-.8 0-1.3-.4-1.6-1c-.1-.3-.2-.8-.2-1.2V337h-.8v-.9h.8v-1.5h1.1v1.5h1.7v.9Zm-7.4-.9v1c.4-.8 1.1-1.2 2-1.2c.8 0 1.4 .3 1.7 .8c.4 .5 .6 1.4 .6 2.3v3.2h-1.1v-3.1c0-.6-.1-1.2-.4-1.7c-.2-.3-.5-.5-1-.5c-.7 0-1.4 .5-1.8 1.2v4.1h-1.2v-6.1Zm-7.3 2.4h3.5c-.1-.9-.8-1.6-1.7-1.6c-1 0-1.6 .7-1.8 1.6m-.1 .9c.1 1 .8 2 2 2c.8 0 1.4-.3 1.8-1l.8 .5c-.6 1-1.4 1.4-2.7 1.4c-1.9 0-3-1.4-3-3.2c0-1.8 1.3-3.2 3-3.2c1.6 0 2.8 1.2 2.8 2.9c0 .2 0 .4 0 .6Zm-3.7 2.8v-3.1c0-.6 0-1.2-.3-1.7c-.2-.3-.5-.5-1-.5c-.6 0-1.3 .5-1.7 1.1c0 .3 .1 .6 .1 1v3.2h-1.2v-3.1c0-.6 0-1.3-.3-1.7c-.2-.3-.5-.5-.9-.5c-.7 0-1.3 .6-1.7 1.2v4.1h-1.1v-6.1h1.1v.9c.4-.7 1.2-1.1 1.9-1.1c.7 0 1.3 .3 1.7 .9c.1 0 .1 .2 .1 .2c.6-.7 1.3-1.1 2.2-1.1c.8 0 1.3 .3 1.7 .7c.4 .6 .5 1.4 .5 2.4v3.2Zm-14.3-3.7h3.5c-.1-.9-.7-1.6-1.6-1.6c-1 0-1.7 .7-1.9 1.6m-.1 .9c.1 1 .8 2 2 2c.8 0 1.4-.3 1.8-1l.8 .5c-.6 1-1.4 1.4-2.7 1.4c-1.9 0-3-1.4-3-3.2c0-1.8 1.3-3.2 3-3.2c1.7 0 2.8 1.2 2.8 2.9c0 .2 0 .4 0 .6Zm-2.6 2.8h-1.1V333h1.1v9.2Zm-4.2-5.2v2.8c0 .2 0 .3 0 .5c.1 .6 .3 1 .9 1c.2 0 .5-.1 .7-.2l.3 .9c-.3 .2-.8 .3-1.2 .3c-.8 0-1.4-.4-1.6-1c-.2-.3-.2-.8-.2-1.2V337h-.8v-.9h.8v-1.5h1.1v1.5h1.7v.9Zm-4.2 0v2.8c0 .2 0 .3 0 .5c0 .6 .2 1 .8 1c.3 0 .5-.1 .7-.2l.3 .9c-.3 .2-.7 .3-1.1 .3c-.9 0-1.4-.4-1.6-1c-.2-.3-.2-.8-.2-1.2V337h-.9v-.9h.9v-1.5h1.1v1.5h1.7v.9Zm-7.4 1.5h3.5c0-.9-.7-1.6-1.6-1.6c-1 0-1.6 .7-1.9 1.6m0 .9c0 1 .8 2 1.9 2c.8 0 1.5-.3 1.8-1l.9 .5c-.7 1-1.5 1.4-2.7 1.4c-2 0-3.1-1.4-3.1-3.2c0-1.8 1.4-3.2 3.1-3.2c1.6 0 2.8 1.2 2.8 2.9c0 .2-.1 .4-.1 .6Zm-5.3-4.9c-.9 0-1.5 .4-1.5 1.2c0 .8 .8 1 1.7 1.4c1.3 .4 2.6 .9 2.6 2.6c0 1.9-1.7 2.6-3 2.6c-1.2 0-2.2-.4-3.1-1.3l.9-.8c.8 .8 1.4 1.1 2.2 1.1c.9 0 1.8-.5 1.8-1.5c0-1-.9-1.3-1.9-1.6c-1.2-.4-2.4-1-2.4-2.4c0-1.6 1.2-2.3 2.6-2.3c1 0 1.8 .3 2.6 .8l-.7 .9c-.4-.4-1.1-.7-1.8-.7Z" class="g2_4"/>
<path d="M477 329.8h13.4V316.4H477v13.4Z" class="g3_4"/>
<path d="M477.8 329h11.8V317.2H477.8Z" class="g8_4"/>
<g clip-path="url(#c0_4)">
<path d="M599.3 130.4c0-4.9-4-8.9-8.9-8.9c-4.9 0-8.9 4-8.9 8.9c0 4.9 4 8.9 8.9 8.9c4.9 0 8.9-4 8.9-8.9Z" class="g3_4"/>
<path d="M598.5 130.4c0-4.5-3.6-8.1-8.1-8.1c-4.5 0-8.1 3.6-8.1 8.1c0 4.5 3.6 8.1 8.1 8.1c4.5 0 8.1-3.6 8.1-8.1Z" class="g8_4"/>
</g>
<path d="M595.1 125.7c-2.6-2.6-6.8-2.6-9.4 0c-2.6 2.6-2.6 6.8 0 9.4" class="g9_4"/>
<path d="M585.7 135.1c2.6 2.5 6.8 2.6 9.4 0c2.5-2.6 2.6-6.8 0-9.4" class="ga_4"/>
<path clip-path="url(#c1_4)" d="M598.8 154.1c0-4.7-3.9-8.6-8.7-8.6c-4.7 0-8.6 3.9-8.6 8.6c0 4.8 3.9 8.7 8.6 8.7c4.8 0 8.7-3.9 8.7-8.7Z" class="g3_4"/>
<path d="M598 154.1c0-4.3-3.5-7.8-7.9-7.8c-4.3 0-7.8 3.5-7.8 7.8c0 4.4 3.5 7.9 7.8 7.9c4.4 0 7.9-3.5 7.9-7.9Z" class="g8_4"/>
<path d="M594.6 149.6c-2.5-2.4-6.5-2.4-9 0c-2.4 2.5-2.4 6.5 0 9" class="gb_4"/>
<path d="M585.6 158.6c2.5 2.5 6.5 2.5 9 0c2.5-2.5 2.5-6.5 0-9" class="gc_4"/>
<path d="M761.2 599.9c0-3.8-3.1-6.9-6.9-6.9c-3.9 0-7 3.1-7 6.9c0 3.9 3.1 7 7 7c3.8 0 6.9-3.1 6.9-7Z" class="g3_4"/>
<path d="M760.4 599.9c0-3.4-2.7-6.1-6.1-6.1c-3.4 0-6.2 2.7-6.2 6.1c0 3.4 2.8 6.2 6.2 6.2c3.4 0 6.1-2.8 6.1-6.2Z" class="g8_4"/>
<path d="M757.5 596.7c-1.8-1.9-4.7-1.9-6.5 0c-1.8 1.8-1.8 4.7 0 6.5" class="gb_4"/>
<path d="M751 603.2c1.8 1.8 4.7 1.8 6.5 0c1.9-1.8 1.9-4.7 0-6.5" class="gc_4"/>
<path d="M832.7 600c0-3.9-3.2-7-7-7c-3.9 0-7 3.1-7 7c0 3.9 3.1 7 7 7c3.8 0 7-3.1 7-7Z" class="g3_4"/>
<path clip-path="url(#c2_4)" d="M831.9 600c0-3.4-2.8-6.2-6.2-6.2c-3.5 0-6.3 2.8-6.3 6.2c0 3.4 2.8 6.2 6.3 6.2c3.4 0 6.2-2.8 6.2-6.2Z" class="g8_4"/>
<path d="M829 596.7c-1.8-1.9-4.8-1.9-6.7 0c-1.8 1.8-1.8 4.8 0 6.6" class="gb_4"/>
<path d="M822.3 603.3c1.9 1.9 4.9 1.9 6.7 0c1.8-1.8 1.8-4.8 0-6.6" class="gc_4"/>
<g clip-path="url(#c3_4)">
<path d="M761.5 625.3c0-4.1-3.2-7.3-7.2-7.3c-4.1 0-7.3 3.2-7.3 7.3c0 4 3.2 7.2 7.3 7.2c4 0 7.2-3.2 7.2-7.2Z" class="g3_4"/>
<path d="M760.7 625.3c0-3.6-2.9-6.5-6.4-6.5c-3.6 0-6.5 2.9-6.5 6.5c0 3.5 2.9 6.4 6.5 6.4c3.5 0 6.4-2.9 6.4-6.4Z" class="g8_4"/>
</g>
<path d="M757.8 621.7c-2-1.9-5.1-1.9-7.1 0c-1.9 2-1.9 5.1 0 7.1" class="gb_4"/>
<path d="M750.7 628.8c2 1.9 5.1 1.9 7.1 0c1.9-2 1.9-5.1 0-7.1" class="gc_4"/>
<path d="M832.2 624.9c0-3.8-3.1-6.9-6.9-6.9c-3.9 0-7 3.1-7 6.9c0 3.8 3.1 6.9 7 6.9c3.8 0 6.9-3.1 6.9-6.9Z" class="g3_4"/>
<path d="M831.4 624.9c0-3.4-2.8-6.1-6.1-6.1c-3.4 0-6.2 2.7-6.2 6.1c0 3.4 2.8 6.2 6.2 6.2c3.3 0 6.1-2.8 6.1-6.2Z" class="g8_4"/>
<path d="M828.5 621.6c-1.8-1.8-4.7-1.8-6.5 0c-1.8 1.9-1.8 4.8 0 6.6" class="gb_4"/>
<path d="M822 628.2c1.8 1.8 4.7 1.8 6.5 0c1.8-1.8 1.8-4.7 0-6.6" class="gc_4"/>
<path d="M70.6 132c0-4.4-3.6-8-8.1-8c-4.4 0-8 3.6-8 8c0 4.5 3.6 8.1 8 8.1c4.5 0 8.1-3.6 8.1-8.1Z" class="g3_4"/>
<path clip-path="url(#c4_4)" d="M69.8 132c0-4-3.2-7.2-7.3-7.2c-4 0-7.2 3.2-7.2 7.2c0 4.1 3.2 7.3 7.2 7.3c4.1 0 7.3-3.2 7.3-7.3Z" class="g8_4"/>
<path d="M66.6 128c-2.2-2.3-5.9-2.3-8.1 0c-2.3 2.2-2.3 5.9 0 8.1" class="g9_4"/>
<path d="M58.5 136.1c2.2 2.2 5.9 2.2 8.1 0c2.2-2.2 2.2-5.9 0-8.1" class="ga_4"/>
<path d="M70.3 153.9c0-4.4-3.6-7.9-7.9-7.9c-4.4 0-7.9 3.5-7.9 7.9c0 4.3 3.5 7.9 7.9 7.9c4.3 0 7.9-3.6 7.9-7.9Z" class="g3_4"/>
<path clip-path="url(#c5_4)" d="M69.5 153.9c0-3.9-3.2-7.1-7.1-7.1c-3.9 0-7.1 3.2-7.1 7.1c0 3.9 3.2 7.1 7.1 7.1c3.9 0 7.1-3.2 7.1-7.1Z" class="g8_4"/>
<path d="M66.3 149.9c-2.1-2.2-5.7-2.2-7.9 0c-2.2 2.2-2.2 5.8 0 7.9" class="g9_4"/>
<path d="M58.4 157.8c2.2 2.2 5.8 2.2 7.9 0c2.2-2.1 2.2-5.7 0-7.9" class="ga_4"/>
</svg>