<svg viewBox="0 0 909 1286" version="1.1" xmlns="http://www.w3.org/2000/svg">
<defs>
<clipPath id="c0_3"><path d="M456.4 246c-3.3 0-6.1-2.8-6.1-6.1c0-3.4 2.8-6.1 6.1-6.1c3.4 0 6.1 2.7 6.1 6.1c0 3.3-2.7 6.1-6.1 6.1Z"/></clipPath>
<clipPath id="c1_3"><path d="M597.6 246c-3.4 0-6.1-2.8-6.1-6.1c0-3.4 2.7-6.1 6.1-6.1c3.4 0 6.1 2.7 6.1 6.1c0 3.3-2.7 6.1-6.1 6.1Z"/></clipPath>
<clipPath id="c2_3"><path d="M660.4 246c-3.4 0-6.1-2.8-6.1-6.1c0-3.4 2.7-6.1 6.1-6.1c3.3 0 6.1 2.7 6.1 6.1c0 3.3-2.8 6.1-6.1 6.1Z"/></clipPath>
<clipPath id="c3_3"><path d="M535.1 246c-3.4 0-6.1-2.8-6.1-6.1c0-3.4 2.7-6.1 6.1-6.1c3.4 0 6.1 2.7 6.1 6.1c0 3.3-2.7 6.1-6.1 6.1Z"/></clipPath>
<clipPath id="c4_3"><path d="M803.6 246c-3.4 0-6.1-2.8-6.1-6.1c0-3.4 2.7-6.1 6.1-6.1c3.4 0 6.1 2.7 6.1 6.1c0 3.3-2.7 6.1-6.1 6.1Z"/></clipPath>
<clipPath id="c5_3"><path d="M276.3 884V869.3H291V884Z"/></clipPath>
<clipPath id="c6_3"><path d="M276.3 908.8V894h14.9v14.8Z"/></clipPath>
<clipPath id="c7_3"><path d="M276.7 933V917.7H292V933Z"/></clipPath>
<clipPath id="c8_3"><path d="M276.3 982.5V967h15.5v15.5Z"/></clipPath>
<clipPath id="c9_3"><path d="M436 884.2V869.3h14.8v14.9Z"/></clipPath>
<clipPath id="ca_3"><path d="M436.3 908.8V894h14.9v14.8Z"/></clipPath>
<clipPath id="cb_3"><path d="M436.3 932.7v-15h15.1v15Z"/></clipPath>
<clipPath id="cc_3"><path d="M436 982.5V967h15.5v15.5Z"/></clipPath>
<clipPath id="cd_3"><path d="M436 1006.7v-16h16v16Z"/></clipPath>
<clipPath id="ce_3"><path d="M605.7 908.3V892.5h15.8v15.8Z"/></clipPath>
<clipPath id="cf_3"><path d="M721.3 882.9V867h15.9v15.9Z"/></clipPath>
<clipPath id="cg_3"><path d="M120 1237v-15.7h15.7V1237Z"/></clipPath>
<clipPath id="ch_3"><path d="M328 1237.6v-16.3h16.2v16.3Z"/></clipPath>
<clipPath id="ci_3"><path d="M328 1262.4V1246h16.4v16.4Z"/></clipPath>
<clipPath id="cj_3"><path d="M485 1238.2v-16.5h16.5v16.5Z"/></clipPath>
<clipPath id="ck_3"><path d="M485 1262.8V1246h16.8v16.8Z"/></clipPath>
<clipPath id="cl_3"><path d="M756.3 1211.8v-15.5h15.5v15.5Z"/></clipPath>
<clipPath id="cm_3"><path d="M161 492.2V477.3h14.8v14.9Z"/></clipPath>
<clipPath id="cn_3"><path d="M106.7 882.4V867.3h15.1v15.1Z"/></clipPath>
<clipPath id="co_3"><path d="M106.7 906.3V891H122v15.3Z"/></clipPath>
<clipPath id="cp_3"><path d="M106.7 957.5V942.3h15.1v15.2Z"/></clipPath>
<clipPath id="cq_3"><path d="M106.7 982.5V967h15.5v15.5Z"/></clipPath>
<clipPath id="cr_3"><path d="M106.7 1006V990h16v16Z"/></clipPath>
<clipPath id="cs_3"><path d="M598 992.7V976.3h16.3v16.4Z"/></clipPath>
<clipPath id="ct_3"><path d="M657 992.5V976.3h16.2v16.2Z"/></clipPath>
<clipPath id="cu_3"><path d="M462.3 1114.3v-15h15v15Z"/></clipPath>
<clipPath id="cv_3"><path d="M462.3 1138.6v-15.3h15.3v15.3Z"/></clipPath>
<clipPath id="cw_3"><path d="M562.3 1114v-15h15v15Z"/></clipPath>
<clipPath id="cx_3"><path d="M562.3 1138.4v-15.1h15.1v15.1Z"/></clipPath>
<clipPath id="cy_3"><path d="M676 1113.4v-14.1h14v14.1Z"/></clipPath>
<clipPath id="cz_3"><path d="M240.3 246.3V230h16.4v16.3Z"/></clipPath>
<clipPath id="c10_3"><path d="M267.3 369.3v-15h15v15Z"/></clipPath>
<clipPath id="c11_3"><path d="M267.7 393.4V378.7h14.7v14.7Z"/></clipPath>
<clipPath id="c12_3"><path d="M409.7 394.3V379H425v15.3Z"/></clipPath>
<clipPath id="c13_3"><path d="M580 369.2V354h15.2v15.2Z"/></clipPath>
<clipPath id="c14_3"><path d="M330 467.5V452.3h15.2v15.2Z"/></clipPath>
<clipPath id="c15_3"><path d="M706.3 466.3v-14h14v14Z"/></clipPath>
<clipPath id="c16_3"><path d="M198.7 809V793.3h15.6V809Z"/></clipPath>
<clipPath id="c17_3"><path d="M589.2 247.6V232.2h15.4v15.4Z"/></clipPath>
<clipPath id="c18_3"><path d="M652.2 248.3V232.2h16.1v16.1Z"/></clipPath>
<clipPath id="c19_3"><path d="M395.9 492.4V476.2h16.2v16.2Z"/></clipPath>
<clipPath id="c1a_3"><path d="M517.1 492.4V476.1h16.3v16.3Z"/></clipPath>
<clipPath id="c1b_3"><path d="M596.9 492.4V476.1h16.2v16.3Z"/></clipPath>
<clipPath id="c1c_3"><path d="M721.3 907.6V891.7h15.9v15.9Z"/></clipPath>
<style>
.g0_3{fill:#E8ECF0;}
.g1_3{fill:#1A3D6D;}
.g2_3{fill:#D1D8E2;}
.g3_3{fill:#FFF;}
.g4_3{fill:none;stroke:#E3E8ED;stroke-width:1.527;}
.g5_3{fill:none;stroke:#D1D8E2;stroke-width:1.517;}
.g6_3{fill:none;stroke:#EDECEE;stroke-width:1.527;}
.g7_3{fill:none;stroke:#E8ECF0;stroke-width:1.527;}
.g8_3{fill:none;stroke:#D1D8E2;stroke-width:1.527;}
.g9_3{fill:none;stroke:#E8ECF0;stroke-width:0.763;}
.ga_3{fill:#768BA8;}
.gb_3{fill:none;stroke:#000;stroke-width:1.527;stroke-miterlimit:10;}
.gc_3{fill:none;stroke:#7F7F7F;stroke-width:1.527;stroke-miterlimit:10;}
.gd_3{fill:none;stroke:#C0C0C0;stroke-width:1.527;stroke-miterlimit:10;}
.ge_3{fill:none;stroke:#7F7F7F;stroke-width:1.08;stroke-miterlimit:10;}
.gf_3{fill:none;stroke:#C0C0C0;stroke-width:1.08;stroke-miterlimit:10;}
</style>
</defs>
<path d="M0 1286.2H909.4V0H0V1286.2Z" class="g0_3"/>
<path d="M0 48.9H909.4V0H0V48.9Z" class="g1_3"/>
<path d="M0 110H909.4V48.9H0V110Z" class="g2_3"/>
<path d="M126.2 61.1c-2.5 0-4.6 2-4.6 4.6V93.2c0 2.5 2.1 4.5 4.6 4.5H451.3c2.5 0 4.6-2 4.6-4.5V65.7c0-2.6-2.1-4.6-4.6-4.6Z" class="g3_3"/>
<path d="M154.6 61.1V97.7m33.3-36.6V97.7m33.4-36.6V97.7m33.5-36.6V97.8m66.7-36.7V97.8m33.4-36.7V97.8m33.3-36.7V97.8m-100-36.7V97.8M421.6 61.1V97.8" class="g4_3"/>
<path d="M463.9 1070.2c-1.7 0-3.1 1.4-3.1 3.1v71.8c0 1.7 1.4 3 3.1 3H869c1.7 0 3-1.3 3-3v-71.8c0-1.7-1.3-3.1-3-3.1H463.9Z" class="g5_3"/>
<path d="M39.7 120.7c-1.7 0-3 1.4-3 3.1V136c0 1.7 1.3 3 3 3h830c1.7 0 3.1-1.3 3.1-3V123.8c0-1.7-1.4-3.1-3.1-3.1Z" class="g2_3"/>
<path d="M39.7 291.8c-1.7 0-3 1.4-3 3.1v12.2c0 1.7 1.3 3 3 3h830c1.7 0 3.1-1.3 3.1-3V294.9c0-1.7-1.4-3.1-3.1-3.1Z" class="g2_3"/>
<path d="M39.9 732.3c-1.6 0-3 1.3-3 3v12.2c0 1.7 1.4 3.1 3 3.1H870c1.6 0 3-1.4 3-3.1V735.3c0-1.7-1.4-3-3-3Z" class="g2_3"/>
<path d="M341.4 537.8c-2.5 0-4.6 2.1-4.6 4.6v27.5c0 2.5 2.1 4.6 4.6 4.6h85.9c2.5 0 4.6-2.1 4.6-4.6V542.4c0-2.5-2.1-4.6-4.6-4.6Z" class="g3_3"/>
<path d="M384.4 537.8v36.7" class="g6_3"/>
<path d="M460.8 537.9c-2.5 0-4.6 2.1-4.6 4.6V570c0 2.5 2.1 4.6 4.6 4.6h85.9c2.5 0 4.6-2.1 4.6-4.6V542.5c0-2.5-2.1-4.6-4.6-4.6Z" class="g3_3"/>
<path d="M503.7 537.9v36.7" class="g6_3"/>
<path d="M41.3 537.9c-2.6 0-4.6 2.1-4.6 4.6V570c0 2.5 2 4.6 4.6 4.6h85.9c2.5 0 4.5-2.1 4.5-4.6V542.5c0-2.5-2-4.6-4.5-4.6Z" class="g3_3"/>
<path d="M84.2 537.9v36.7" class="g6_3"/>
<path d="M161.2 537.9c-2.5 0-4.5 2.1-4.5 4.6V570c0 2.5 2 4.6 4.5 4.6h85.9c2.6 0 4.6-2.1 4.6-4.6V542.5c0-2.5-2-4.6-4.6-4.6Z" class="g3_3"/>
<path d="M204.2 537.9v36.7" class="g6_3"/>
<path d="M41.3 170.8c-2.6 0-4.6 2-4.6 4.6v27.4c0 2.6 2 4.6 4.6 4.6H654.4c2.6 0 4.6-2 4.6-4.6V175.4c0-2.6-2-4.6-4.6-4.6Z" class="g3_3"/>
<path d="M612.7 170.9v36.6M178.8 170.9v36.6m275-36.6v36.6" class="g7_3"/>
<path d="M683.4 171.1c-2.5 0-4.6 2-4.6 4.6v27.5c0 2.5 2.1 4.5 4.6 4.5h34.4c2.6 0 4.6-2 4.6-4.5V175.7c0-2.6-2-4.6-4.6-4.6Z" class="g3_3"/>
<path d="M737.6 171.1c-2.6 0-4.6 2-4.6 4.6v27.5c0 2.5 2 4.5 4.6 4.5H772c2.5 0 4.6-2 4.6-4.5V175.7c0-2.6-2.1-4.6-4.6-4.6Z" class="g3_3"/>
<path d="M791.2 171.1c-2.6 0-4.6 2-4.6 4.6v27.5c0 2.5 2 4.5 4.6 4.5h78c2.5 0 4.5-2 4.5-4.5V175.7c0-2.6-2-4.6-4.5-4.6Z" class="g3_3"/>
<path d="M701.1 171.1v36.7m54.2-36.7v36.7m53.6-36.7v36.7m43.5-36.1v36.7m-22.3-36.7v36.7m-47.2-37.3v36.7" class="g7_3"/>
<path d="M131.1 355.7c-2.5 0-4.6 2-4.6 4.5v27.5c0 2.5 2.1 4.6 4.6 4.6h62c2.6 0 4.6-2.1 4.6-4.6V360.2c0-2.5-2-4.5-4.6-4.5Z" class="g3_3"/>
<path d="M162.1 355.7v36.6" class="g6_3"/>
<path d="M41.6 355.6c-2.5 0-4.6 2.1-4.6 4.6v27.5c0 2.5 2.1 4.6 4.6 4.6h62.1c2.5 0 4.5-2.1 4.5-4.6V360.2c0-2.5-2-4.6-4.5-4.6Z" class="g3_3"/>
<path d="M72.6 355.6v36.7" class="g6_3"/>
<path d="M275 355.6c-3.4 0-6.1 2.8-6.1 6.1c0 3.4 2.7 6.1 6.1 6.1c3.4 0 6.1-2.7 6.1-6.1c0-3.3-2.7-6.1-6.1-6.1Z" class="g3_3"/>
<path d="M275 380.1c-3.4 0-6.1 2.7-6.1 6.1c0 3.3 2.7 6.1 6.1 6.1c3.4 0 6.1-2.8 6.1-6.1c0-3.4-2.7-6.1-6.1-6.1Z" class="g3_3"/>
<path d="M417.4 355.8c-3.4 0-6.1 2.8-6.1 6.1c0 3.4 2.7 6.2 6.1 6.2c3.4 0 6.1-2.8 6.1-6.2c0-3.3-2.7-6.1-6.1-6.1Z" class="g3_3"/>
<path d="M587.9 356c-3.4 0-6.1 2.8-6.1 6.2c0 3.3 2.7 6.1 6.1 6.1c3.4 0 6.1-2.8 6.1-6.1c0-3.4-2.7-6.2-6.1-6.2Z" class="g3_3"/>
<path d="M417.4 380.5c-3.4 0-6.1 2.7-6.1 6.1c0 3.4 2.7 6.1 6.1 6.1c3.4 0 6.1-2.7 6.1-6.1c0-3.4-2.7-6.1-6.1-6.1Z" class="g3_3"/>
<path d="M258.4 325.4c-1.7 0-3 1.4-3 3.1v67.2c0 1.7 1.3 3.1 3 3.1H675.7c1.6 0 3-1.4 3-3.1V328.5c0-1.7-1.4-3.1-3-3.1H258.4Z" class="g8_3"/>
<path d="M909.4 1286.2v0V1210v76.2Z" class="g1_3"/>
<path d="M909.1 1210h.3v-24.4h-.3V1210Z" class="g2_3"/>
<path d="M40.5 220.8c-1.7 0-3.1 1.3-3.1 3v41.3c0 1.7 1.4 3 3.1 3H869c1.7 0 3-1.3 3-3V223.8c0-1.7-1.3-3-3-3H40.5Z" class="g8_3"/>
<path d="M247.7 232.2c-3.4 0-6.2 2.8-6.2 6.1c0 3.4 2.8 6.1 6.2 6.1h.6c3.4 0 6.1-2.7 6.1-6.1c0-3.3-2.7-6.1-6.1-6.1Z" class="g3_3"/>
<path d="M299.9 232.3c-3.3 0-6 2.7-6 6.1v.1c0 3.3 2.7 6 6 6c3.4 0 6.1-2.7 6.1-6v-.1c0-3.4-2.7-6.1-6.1-6.1Z" class="g3_3"/>
<path d="M339.6 226.3v36.6" class="g8_3"/>
<path d="M247.7 232.2c-3.4 0-6.2 2.8-6.2 6.1c0 3.4 2.8 6.1 6.2 6.1h.6c3.4 0 6.1-2.7 6.1-6.1c0-3.3-2.7-6.1-6.1-6.1Z" class="g3_3"/>
<path d="M299.9 232.3c-3.3 0-6 2.7-6 6.1v.1c0 3.3 2.7 6 6 6c3.4 0 6.1-2.7 6.1-6v-.1c0-3.4-2.7-6.1-6.1-6.1Z" class="g3_3"/>
<path d="M456.4 233.8c-3.3 0-6.1 2.7-6.1 6.1c0 3.3 2.8 6.1 6.1 6.1c3.4 0 6.1-2.8 6.1-6.1c0-3.4-2.7-6.1-6.1-6.1Z" class="g3_3"/>
<g clip-path="url(#c0_3)">
<path d="M456.4 233.8c-3.3 0-6.1 2.7-6.1 6.1c0 3.3 2.8 6.1 6.1 6.1c3.4 0 6.1-2.8 6.1-6.1c0-3.4-2.7-6.1-6.1-6.1Z" class="g3_3"/>
<path d="M456.4 233.8c-3.3 0-6.1 2.7-6.1 6.1c0 3.3 2.8 6.1 6.1 6.1c3.4 0 6.1-2.8 6.1-6.1c0-3.4-2.7-6.1-6.1-6.1Z" class="g9_3"/>
</g>
<path d="M597.6 233.8c-3.4 0-6.1 2.7-6.1 6.1c0 3.3 2.7 6.1 6.1 6.1c3.4 0 6.1-2.8 6.1-6.1c0-3.4-2.7-6.1-6.1-6.1Z" class="g3_3"/>
<g clip-path="url(#c1_3)">
<path d="M597.6 233.8c-3.4 0-6.1 2.7-6.1 6.1c0 3.3 2.7 6.1 6.1 6.1c3.4 0 6.1-2.8 6.1-6.1c0-3.4-2.7-6.1-6.1-6.1Z" class="g3_3"/>
<path d="M597.6 233.8c-3.4 0-6.1 2.7-6.1 6.1c0 3.3 2.7 6.1 6.1 6.1c3.4 0 6.1-2.8 6.1-6.1c0-3.4-2.7-6.1-6.1-6.1Z" class="g9_3"/>
</g>
<path d="M660.4 233.8c-3.4 0-6.1 2.7-6.1 6.1c0 3.3 2.7 6.1 6.1 6.1c3.3 0 6.1-2.8 6.1-6.1c0-3.4-2.8-6.1-6.1-6.1Z" class="g3_3"/>
<g clip-path="url(#c2_3)">
<path d="M660.4 233.8c-3.4 0-6.1 2.7-6.1 6.1c0 3.3 2.7 6.1 6.1 6.1c3.3 0 6.1-2.8 6.1-6.1c0-3.4-2.8-6.1-6.1-6.1Z" class="g3_3"/>
<path d="M660.4 233.8c-3.4 0-6.1 2.7-6.1 6.1c0 3.3 2.7 6.1 6.1 6.1c3.3 0 6.1-2.8 6.1-6.1c0-3.4-2.8-6.1-6.1-6.1Z" class="g9_3"/>
</g>
<path d="M535.1 233.8c-3.4 0-6.1 2.7-6.1 6.1c0 3.3 2.7 6.1 6.1 6.1c3.4 0 6.1-2.8 6.1-6.1c0-3.4-2.7-6.1-6.1-6.1Z" class="g3_3"/>
<g clip-path="url(#c3_3)">
<path d="M535.1 233.8c-3.4 0-6.1 2.7-6.1 6.1c0 3.3 2.7 6.1 6.1 6.1c3.4 0 6.1-2.8 6.1-6.1c0-3.4-2.7-6.1-6.1-6.1Z" class="g3_3"/>
<path d="M535.1 233.8c-3.4 0-6.1 2.7-6.1 6.1c0 3.3 2.7 6.1 6.1 6.1c3.4 0 6.1-2.8 6.1-6.1c0-3.4-2.7-6.1-6.1-6.1Z" class="g9_3"/>
</g>
<path d="M803.6 233.8c-3.4 0-6.1 2.7-6.1 6.1c0 3.3 2.7 6.1 6.1 6.1c3.4 0 6.1-2.8 6.1-6.1c0-3.4-2.7-6.1-6.1-6.1Z" class="g3_3"/>
<g clip-path="url(#c4_3)">
<path d="M803.6 233.8c-3.4 0-6.1 2.7-6.1 6.1c0 3.3 2.7 6.1 6.1 6.1c3.4 0 6.1-2.8 6.1-6.1c0-3.4-2.7-6.1-6.1-6.1Z" class="g3_3"/>
<path d="M803.6 233.8c-3.4 0-6.1 2.7-6.1 6.1c0 3.3 2.7 6.1 6.1 6.1c3.4 0 6.1-2.8 6.1-6.1c0-3.4-2.7-6.1-6.1-6.1Z" class="g9_3"/>
</g>
<path d="M40.5 593.5c-1.7 0-3.1 1.4-3.1 3.1V717.3c0 1.7 1.4 3 3.1 3H868c1.7 0 3.1-1.3 3.1-3V596.6c0-1.7-1.4-3.1-3.1-3.1H40.5Z" class="g8_3"/>
<path d="M280.5 624.3c-2.5 0-4.6 2.1-4.6 4.6v27.5c0 2.5 2.1 4.6 4.6 4.6H856.7c2.5 0 4.6-2.1 4.6-4.6V628.9c0-2.5-2.1-4.6-4.6-4.6Z" class="g3_3"/>
<path d="M471.1 624.3V661m195.1-36.7V661" class="g6_3"/>
<path d="M280.5 673.3c-2.5 0-4.6 2-4.6 4.5v27.5c0 2.6 2.1 4.6 4.6 4.6H856.7c2.5 0 4.6-2 4.6-4.6V677.8c0-2.5-2.1-4.5-4.6-4.5Z" class="g3_3"/>
<path d="M471 673.3v36.6m195.2-36.6v36.6" class="g6_3"/>
<path d="M40.7 764.8c-1.7 0-3 1.3-3 3v43.6c0 1.6 1.3 3 3 3H337.4c1.7 0 3.1-1.4 3.1-3V767.8c0-1.7-1.4-3-3.1-3H40.7Z" class="g8_3"/>
<path d="M114 892.2c-3.4 0-6.1 2.8-6.1 6.1c0 3.4 2.7 6.1 6.1 6.1c3.4 0 6.1-2.7 6.1-6.1c0-3.3-2.7-6.1-6.1-6.1Z" class="g3_3"/>
<path d="M283.2 870.5c-3.4 0-6.1 2.8-6.1 6.1c0 3.4 2.7 6.1 6.1 6.1c3.3 0 6.1-2.7 6.1-6.1c0-3.3-2.8-6.1-6.1-6.1Z" class="g3_3"/>
<path d="M443.6 870.5c-3.4 0-6.1 2.8-6.1 6.1c0 3.4 2.7 6.2 6.1 6.2c3.3 0 6.1-2.8 6.1-6.2c0-3.3-2.8-6.1-6.1-6.1Z" class="g3_3"/>
<path d="M442.9 968.3c-3.3 0-6.1 2.8-6.1 6.1c0 3.4 2.8 6.2 6.1 6.2c3.4 0 6.2-2.8 6.2-6.2c0-3.3-2.8-6.1-6.2-6.1Z" class="g3_3"/>
<path d="M283.1 968.3c-3.3 0-6.1 2.8-6.1 6.1c0 3.4 2.8 6.2 6.1 6.2c3.4 0 6.1-2.8 6.1-6.2c0-3.3-2.7-6.1-6.1-6.1Z" class="g3_3"/>
<path d="M114.3 867.8c-3.3 0-6.1 2.7-6.1 6.1c0 3.4 2.8 6.1 6.1 6.1c3.4 0 6.1-2.7 6.1-6.1c0-3.4-2.7-6.1-6.1-6.1Z" class="g3_3"/>
<path d="M283.2 895c-3.4 0-6.1 2.7-6.1 6.1c0 3.4 2.7 6.1 6.1 6.1c3.3 0 6.1-2.7 6.1-6.1c0-3.4-2.8-6.1-6.1-6.1Z" class="g3_3"/>
<path d="M443.9 895c-3.4 0-6.1 2.7-6.1 6.1c0 3.4 2.7 6.1 6.1 6.1c3.4 0 6.1-2.7 6.1-6.1c0-3.4-2.7-6.1-6.1-6.1Z" class="g3_3"/>
<path d="M442.9 991.5c-3.3 0-6.1 2.7-6.1 6.1c0 3.4 2.8 6.1 6.1 6.1c3.4 0 6.2-2.7 6.2-6.1c0-3.4-2.8-6.1-6.2-6.1Z" class="g3_3"/>
<path d="M283.2 991.5c-3.4 0-6.1 2.7-6.1 6.1c0 3.4 2.7 6.1 6.1 6.1c3.3 0 6.1-2.7 6.1-6.1c0-3.4-2.8-6.1-6.1-6.1Z" class="g3_3"/>
<path d="M114.5 944c-3.4 0-6.1 2.7-6.1 6.1c0 3.4 2.7 6.1 6.1 6.1c3.3 0 6.1-2.7 6.1-6.1c0-3.4-2.8-6.1-6.1-6.1Z" class="g3_3"/>
<path d="M283.2 919.4c-3.4 0-6.1 2.7-6.1 6.1c0 3.4 2.7 6.1 6.1 6.1c3.3 0 6.1-2.7 6.1-6.1c0-3.4-2.8-6.1-6.1-6.1Z" class="g3_3"/>
<path d="M114.5 968.4c-3.4 0-6.1 2.8-6.1 6.1c0 3.4 2.7 6.1 6.1 6.1c3.4 0 6.1-2.7 6.1-6.1c0-3.3-2.7-6.1-6.1-6.1Z" class="g3_3"/>
<path d="M114.3 918.3c-3.3 0-6.1 2.8-6.1 6.2c0 3.3 2.8 6.1 6.1 6.1c3.4 0 6.1-2.8 6.1-6.1c0-3.4-2.7-6.2-6.1-6.2Z" class="g3_3"/>
<path d="M114.1 991.5c-3.3 0-6.1 2.7-6.1 6.1c0 3.3 2.8 6.1 6.1 6.1c3.4 0 6.2-2.8 6.2-6.1c0-3.4-2.8-6.1-6.2-6.1Z" class="g3_3"/>
<path d="M443.9 919.4c-3.4 0-6.1 2.8-6.1 6.1c0 3.4 2.7 6.1 6.1 6.1c3.4 0 6.1-2.7 6.1-6.1c0-3.3-2.7-6.1-6.1-6.1Z" class="g3_3"/>
<path d="M612.4 869c-3.3 0-6.1 2.8-6.1 6.1c0 3.4 2.8 6.2 6.1 6.2c3.4 0 6.2-2.8 6.2-6.2c0-3.3-2.8-6.1-6.2-6.1Z" class="g3_3"/>
<path d="M612.4 893.7c-3.4 0-6.1 2.7-6.1 6.1c0 3.4 2.7 6.1 6.1 6.1c3.4 0 6.1-2.7 6.1-6.1c0-3.4-2.7-6.1-6.1-6.1Z" class="g3_3"/>
<path d="M729.4 893.9c-3.4 0-6.1 2.7-6.1 6.1c0 3.4 2.7 6.1 6.1 6.1c3.4 0 6.1-2.7 6.1-6.1c0-3.4-2.7-6.1-6.1-6.1Z" class="g3_3"/>
<path d="M729.4 869.3c-3.4 0-6.1 2.8-6.1 6.1c0 3.4 2.7 6.1 6.1 6.1c3.4 0 6.1-2.7 6.1-6.1c0-3.3-2.7-6.1-6.1-6.1Z" class="g3_3"/>
<path d="M70.3 792.3c-3.4 0-6.1 2.7-6.1 6v.1c0 3.4 2.7 6.1 6.1 6.1c3.3 0 6-2.7 6-6.1v-.1c0-3.3-2.7-6-6-6Z" class="g3_3"/>
<path d="M207.2 792.6c-3.4 0-6.1 2.8-6.1 6.1v.1c0 3.3 2.7 6.1 6.1 6.1c3.3 0 6-2.8 6-6.1v-.1c0-3.3-2.7-6.1-6-6.1Z" class="g3_3"/>
<path d="M591.8 937.9c-1.7 0-3.1 1.4-3.1 3.1v76.3c0 1.7 1.4 3.1 3.1 3.1H869c1.7 0 3-1.4 3-3.1V941c0-1.7-1.3-3.1-3-3.1H591.8Z" class="g8_3"/>
<path d="M605.5 977.8c-3.4 0-6.1 2.7-6.1 6.1c0 3.4 2.7 6.1 6.1 6.1c3.4 0 6.1-2.7 6.1-6.1c0-3.4-2.7-6.1-6.1-6.1Z" class="g3_3"/>
<path d="M665.3 977.8c-3.4 0-6.1 2.7-6.1 6.1c0 3.4 2.7 6.1 6.1 6.1c3.4 0 6.1-2.7 6.1-6.1c0-3.4-2.7-6.1-6.1-6.1Z" class="g3_3"/>
<path d="M112.2 1102.5c-2.5 0-4.5 2.1-4.5 4.6v27.5c0 2.6 2 4.6 4.5 4.6H441c2.5 0 4.5-2 4.5-4.6v-27.5c0-2.5-2-4.6-4.5-4.6Z" class="g3_3"/>
<path d="M107.9 1039.4h764" class="g8_3"/>
<path d="M476.1 1100.5c-3.4 0-6.1 2.7-6.1 6.1c0 3.3 2.7 6.1 6.1 6.1c3.4 0 6.1-2.8 6.1-6.1c0-3.4-2.7-6.1-6.1-6.1Z" class="g3_3"/>
<path d="M476.1 1124.9c-3.4 0-6.1 2.7-6.1 6.1c0 3.4 2.7 6.1 6.1 6.1c3.4 0 6.1-2.7 6.1-6.1c0-3.4-2.7-6.1-6.1-6.1Z" class="g3_3"/>
<path d="M576 1100.5c-3.4 0-6.1 2.7-6.1 6.1c0 3.3 2.7 6.1 6.1 6.1c3.3 0 6.1-2.8 6.1-6.1c0-3.4-2.8-6.1-6.1-6.1Z" class="g3_3"/>
<path d="M576 1124.9c-3.4 0-6.1 2.7-6.1 6.1c0 3.4 2.7 6.1 6.1 6.1c3.3 0 6.1-2.7 6.1-6.1c0-3.4-2.8-6.1-6.1-6.1Z" class="g3_3"/>
<path d="M689.7 1100.5c-3.3 0-6.1 2.7-6.1 6.1c0 3.3 2.8 6.1 6.1 6.1c3.4 0 6.1-2.8 6.1-6.1c0-3.4-2.7-6.1-6.1-6.1Z" class="g3_3"/>
<path d="M111.5 1161.9c-1.7 0-3.1 1.3-3.1 3v102.4c0 1.7 1.4 3 3.1 3H869c1.7 0 3-1.3 3-3V1164.9c0-1.7-1.3-3-3-3H111.5Z" class="g8_3"/>
<path d="M127.4 1198.3c-3.4 0-6.2 2.7-6.2 6.1c0 3.3 2.8 6.1 6.2 6.1c3.3 0 6.1-2.8 6.1-6.1c0-3.4-2.8-6.1-6.1-6.1Z" class="g3_3"/>
<path d="M336.1 1199.1c-3.3 0-6.1 2.7-6.1 6.1c0 3.4 2.8 6.1 6.1 6.1c3.4 0 6.1-2.7 6.1-6.1c0-3.4-2.7-6.1-6.1-6.1Z" class="g3_3"/>
<path d="M127.4 1222.7c-3.4 0-6.2 2.7-6.2 6.1c0 3.4 2.8 6.1 6.2 6.1c3.3 0 6.1-2.7 6.1-6.1c0-3.4-2.8-6.1-6.1-6.1Z" class="g3_3"/>
<path d="M336.1 1223.5c-3.3 0-6.1 2.7-6.1 6.1c0 3.4 2.8 6.1 6.1 6.1c3.4 0 6.1-2.7 6.1-6.1c0-3.4-2.7-6.1-6.1-6.1Z" class="g3_3"/>
<path d="M127.4 1247.2c-3.4 0-6.2 2.7-6.2 6.1c0 3.3 2.8 6.1 6.2 6.1c3.3 0 6.1-2.8 6.1-6.1c0-3.4-2.8-6.1-6.1-6.1Z" class="g3_3"/>
<path d="M336.1 1247.9c-3.4 0-6.1 2.7-6.1 6.1c0 3.3 2.7 6.1 6.1 6.1c3.4 0 6.1-2.8 6.1-6.1c0-3.4-2.7-6.1-6.1-6.1Z" class="g3_3"/>
<path d="M493.4 1198.3c-3.4 0-6.1 2.7-6.1 6.1c0 3.4 2.7 6.1 6.1 6.1c3.4 0 6.1-2.7 6.1-6.1c0-3.4-2.7-6.1-6.1-6.1Z" class="g3_3"/>
<path d="M493.1 1222.8c-3.4 0-6.1 2.7-6.1 6.1c0 3.3 2.7 6.1 6.1 6.1c3.4 0 6.1-2.8 6.1-6.1c0-3.4-2.7-6.1-6.1-6.1Z" class="g3_3"/>
<path d="M493.4 1247.1c-3.4 0-6.1 2.7-6.1 6.1c0 3.4 2.7 6.1 6.1 6.1c3.4 0 6.1-2.7 6.1-6.1c0-3.4-2.7-6.1-6.1-6.1Z" class="g3_3"/>
<path d="M762.5 1222.2c-2.6 0-4.6 2.1-4.6 4.6v27.5c0 2.5 2 4.6 4.6 4.6h91c2.5 0 4.5-2.1 4.5-4.6v-27.5c0-2.5-2-4.6-4.5-4.6Z" class="g3_3"/>
<path d="M763.9 1197.8c-3.4 0-6.1 2.7-6.1 6.1c0 3.4 2.7 6.1 6.1 6.1c3.4 0 6.1-2.7 6.1-6.1c0-3.4-2.7-6.1-6.1-6.1Z" class="g3_3"/>
<path d="M114 1015.7c-3.4 0-6.1 2.7-6.1 6.1c0 3.4 2.7 6.1 6.1 6.1c3.4 0 6.1-2.7 6.1-6.1c0-3.4-2.7-6.1-6.1-6.1Z" class="g3_3"/>
<path d="M39.8 422.4c-1.7 0-3.1 1.4-3.1 3.1v71.8c0 1.7 1.4 3 3.1 3H870c1.7 0 3.1-1.3 3.1-3V425.5c0-1.7-1.4-3.1-3.1-3.1H39.8Z" class="g8_3"/>
<path d="M168.5 453.7c-3.4 0-6.1 2.7-6.1 6.1c0 3.3 2.7 6.1 6.1 6.1c3.4 0 6.1-2.8 6.1-6.1c0-3.4-2.7-6.1-6.1-6.1Z" class="g3_3"/>
<path d="M236.4 453.8c-3.4 0-6.1 2.7-6.1 6.1c0 3.4 2.7 6.1 6.1 6.1c3.3 0 6.1-2.7 6.1-6.1c0-3.4-2.8-6.1-6.1-6.1Z" class="g3_3"/>
<path d="M404.3 478.5c-3.4 0-6.1 2.7-6.1 6.1c0 3.4 2.7 6.1 6.1 6.1c3.3 0 6.1-2.7 6.1-6.1c0-3.4-2.8-6.1-6.1-6.1Z" class="g3_3"/>
<path d="M525.6 478.2c-3.3 0-6.1 2.7-6.1 6.1c0 3.4 2.8 6.1 6.1 6.1c3.4 0 6.2-2.7 6.2-6.1c0-3.4-2.8-6.1-6.2-6.1Z" class="g3_3"/>
<path d="M337.8 453.8c-3.4 0-6.2 2.8-6.2 6.1c0 3.4 2.8 6.1 6.2 6.1c3.3 0 6.1-2.7 6.1-6.1c0-3.3-2.8-6.1-6.1-6.1Z" class="g3_3"/>
<path d="M605.2 478.2c-3.4 0-6.1 2.7-6.1 6.1c0 3.4 2.7 6.1 6.1 6.1c3.3 0 6.1-2.7 6.1-6.1c0-3.4-2.8-6.1-6.1-6.1Z" class="g3_3"/>
<path d="M510.5 453.7c-3.4 0-6.1 2.7-6.1 6.1c0 3.4 2.7 6.1 6.1 6.1c3.4 0 6.1-2.7 6.1-6.1c0-3.4-2.7-6.1-6.1-6.1Z" class="g3_3"/>
<path d="M714 453.8c-3.4 0-6.2 2.7-6.2 6.1c0 3.4 2.8 6.1 6.2 6.1c3.3 0 6.1-2.7 6.1-6.1c0-3.4-2.8-6.1-6.1-6.1Z" class="g3_3"/>
<path d="M169.1 478.1c-3.3 0-6.1 2.7-6.1 6.1c0 3.4 2.8 6.1 6.1 6.1c3.4 0 6.2-2.7 6.2-6.1c0-3.4-2.8-6.1-6.2-6.1Z" class="g3_3"/>
<path d="M55.2 775.3l-5.6 5.6l-2-2c-.4-.4-1-.4-1.4 0c-.5 .4-.5 1.1-.1 1.5h.1l2.7 2.7c.4 .4 1 .4 1.4 0l6.4-6.3c.4-.4 .4-1.1 0-1.5c-.4-.4-1.1-.4-1.5 0Z" class="g1_3"/>
<path d="M118.8 823l-5.6 5.6l-2-2c-.4-.4-1.1-.4-1.5 0c-.4 .4-.4 1 0 1.5l2.7 2.7c.4 .4 1.1 .4 1.5 0l6.4-6.3c.3-.5 .3-1.1-.1-1.5c-.4-.4-1-.4-1.4 0Z" class="g1_3"/>
<path d="M117.1 1072l-5.7 5.6l-2-2c-.4-.4-1-.4-1.4 0c-.4 .4-.4 1.1 0 1.5l2.7 2.7c.4 .4 1.1 .4 1.5 0l6.3-6.3c.4-.4 .4-1.1 0-1.5c-.4-.4-1-.4-1.4 0Z" class="g1_3"/>
<path d="M130.8 1177.4l-5.6 5.7l-2-2c-.4-.4-1.1-.5-1.5-.1c-.4 .4-.4 1.1 0 1.5l2.8 2.8c.4 .4 1 .4 1.4 0l6.4-6.4c.4-.4 .4-1.1-.1-1.5c-.4-.4-1-.4-1.4 0Z" class="g1_3"/>
<path d="M480.9 1080.5l-5.6 5.6l-2-2c-.4-.4-1-.4-1.5 0c-.4 .4-.4 1 0 1.4c0 0 0 .1 0 .1l2.8 2.7c.4 .4 1 .4 1.4 0l6.4-6.4c.4-.4 .4-1 0-1.4c-.4-.4-1.1-.4-1.5 0Z" class="g1_3"/>
<path d="M624.2 537.8c-2.5 0-4.6 2-4.6 4.6v27.5c0 2.5 2.1 4.5 4.6 4.5h244c2.5 0 4.6-2 4.6-4.5V542.4c0-2.6-2.1-4.6-4.6-4.6Z" class="g3_3"/>
<path d="M94.8 12.2c-7.7 0-13.9 4.8-13.9 12.5c0 7.7 6.2 12.5 13.9 12.5c7.7 0 13.9-4.8 13.9-12.5c0-7.7-6.2-12.5-13.9-12.5m0 22c-5.6 0-7.9-4.5-7.9-9.5c0-5 2.3-9.5 7.9-9.5c5.6 0 7.9 4.5 7.9 9.5c0 5-2.3 9.5-7.9 9.5Z" class="g3_3"/>
<path d="M69.3 12.9H59.9V27.2c-.8-2-2.8-3.2-5-3.6c1.7-.8 3.1-2.3 3.1-4.9c0-3.5-2.3-5.8-7.9-5.8H36.7V36.5H51.3c4.4 0 7.5-1.2 8.6-4.1v4.1h9.4c6.6 0 11-2 13.2-5.7c-1-1.7-1.6-3.8-1.6-6.1c0-2.3 .6-4.4 1.6-6.2c-2.2-3.6-6.6-5.6-13.2-5.6M42.4 16h5.5c2.9 0 4.2 1.4 4.2 3.4c0 2.1-1.3 3.4-4.2 3.4H42.4ZM50 33.3H42.4V26H50c3.1 0 4.6 1.4 4.6 3.7c0 2.2-1.5 3.6-4.6 3.6m18.7 0H65.6V16h3.1c6.6 0 9.3 3.7 9.3 8.7c0 5-2.7 8.6-9.3 8.6Z" class="g3_3"/>
<path d="M188.8 1087.7c0 1.3 .3 1.9 1 1.9c.6 0 1-.6 1-1.9c0-1.3-.4-1.9-1-1.9c-.7 0-1 .6-1 1.9m2.8 0c0 1.6-.7 2.6-1.8 2.6c-1.2 0-1.9-1-1.9-2.6c0-1.6 .7-2.6 1.9-2.6c1.1 0 1.8 1 1.8 2.6m-7.1 0c0 1.3 .4 1.9 1 1.9c.7 0 1-.6 1-1.9c0-1.3-.3-1.9-1-1.9c-.6 0-1 .6-1 1.9m2.9 0c0 1.6-.7 2.6-1.9 2.6c-1.1 0-1.8-1-1.8-2.6c0-1.6 .7-2.6 1.8-2.6c1.2 0 1.9 1 1.9 2.6m-7.1 0c0 1.3 .4 1.9 1 1.9c.7 0 1-.6 1-1.9c0-1.3-.3-1.9-1-1.9c-.6 0-1 .6-1 1.9m2.8 0c0 1.6-.6 2.6-1.8 2.6c-1.1 0-1.8-1-1.8-2.6c0-1.6 .7-2.6 1.8-2.6c1.2 0 1.8 1 1.8 2.6m-4.9 3.5h-.8l.4-1.9h.9Zm-4-3.5c0 1.3 .4 1.9 1 1.9c.6 0 1-.6 1-1.9c0-1.3-.4-1.9-1-1.9c-.6 0-1 .6-1 1.9m2.8 0c0 1.6-.6 2.6-1.8 2.6c-1.2 0-1.8-1-1.8-2.6c0-1.6 .6-2.6 1.8-2.6c1.2 0 1.8 1 1.8 2.6m-7 0c0 1.3 .3 1.9 1 1.9c.6 0 1-.6 1-1.9c0-1.3-.4-1.9-1-1.9c-.7 0-1 .6-1 1.9m2.8 0c0 1.6-.7 2.6-1.8 2.6c-1.2 0-1.9-1-1.9-2.6c0-1.6 .7-2.6 1.9-2.6c1.1 0 1.8 1 1.8 2.6m-4.4-1.9h-1.9c0 .5-.1 1-.1 1.4c.2-.1 .5-.2 .7-.2c.8 0 1.5 .7 1.5 1.6c0 1-.7 1.7-1.7 1.7c-.6 0-1.3-.3-1.6-.9l.6-.3c.2 .3 .6 .5 .9 .5c.6 0 1-.4 1-1c0-.5-.4-.8-.9-.8c-.3 0-.6 0-.8 .3l-.6-.4c.1-.7 .2-1.8 .2-2.6h2.7Zm-4.4 5.4h-.8l.4-1.9h.9Z" class="ga_3"/>
<path d="M449.3 1087c-.9 0-1.3 .7-1.3 1.3c0 .7 .5 1.3 1.3 1.3c.4 0 .9-.2 1.1-.7v-1.4c-.3-.3-.7-.5-1.1-.5m1.8 3.2h-.7v-.5c-.3 .4-.8 .6-1.3 .6c-1.1 0-1.9-.9-1.9-2c0-1.1 .8-2 2-2c.4 0 .8 .1 1.2 .5v-2.3h.7Zm-6.2-3.3c-.6 0-1 .4-1.2 1h2.1c0-.5-.4-1-.9-1m0 2.7c.5 0 .9-.1 1.1-.6l.5 .4c-.3 .6-.9 .9-1.7 .9c-1.2 0-1.9-.9-1.9-2c0-1.2 .8-2 1.9-2c1.1 0 1.8 .7 1.8 1.8c0 .1 0 .3 0 .4h-2.9c.1 .6 .5 1.1 1.2 1.1m-5.1-3.2l.9 2.7l1-2.7h.9l-2.2 5.6l-.7-.3l.6-1.6l-1.4-3.7Zm-3.2 .6c-.7 0-1.2 .6-1.2 1.3c0 .7 .5 1.3 1.2 1.3c.7 0 1.2-.6 1.2-1.3c0-.7-.5-1.3-1.2-1.3m2 1.3c0 1.1-.9 2-2 2c-1.2 0-2-.9-2-2c0-1.1 .8-2 2-2c1.1 0 2 .9 2 2m-4.9 1.9h-.8v-5.7h.8Zm-4.8-1.2c.2 .4 .6 .6 1 .6c.9 0 1.3-.7 1.3-1.3c0-.7-.5-1.3-1.3-1.3c-.4 0-.8 .2-1 .7Zm-.1-2.6v.5c.3-.4 .8-.6 1.3-.6c1.1 0 1.9 .9 1.9 2c0 1-.8 2-1.9 2c-.5 0-.9-.2-1.2-.5v2.3h-.8v-5.7Zm-2.7 3.8v-1.9c0-.4 0-.8-.2-1c-.1-.2-.3-.3-.6-.3c-.3 0-.7 .2-1 .6c0 .2 0 .4 0 .6v2h-.7v-1.9c0-.4 0-.8-.2-1.1c-.1-.1-.3-.2-.6-.2c-.4 0-.8 .3-1 .6v2.6H421v-3.8h.8v.5c.3-.4 .8-.6 1.2-.6c.4 0 .8 .1 1.1 .5c0 0 0 .1 0 .2c.4-.5 .9-.7 1.4-.7c.5 0 .8 .1 1 .4c.3 .4 .4 .9 .4 1.5v2Zm-7.8-3.3c-.6 0-.9 .4-1.1 1h2.1c0-.5-.4-1-1-1m.1 2.7c.5 0 .8-.1 1.1-.6l.5 .4c-.4 .6-.9 .9-1.7 .9c-1.2 0-1.9-.9-1.9-2c0-1.2 .8-2 1.9-2c1.1 0 1.8 .7 1.8 1.8c0 .1 0 .3 0 .4h-2.9c0 .6 .5 1.1 1.2 1.1m-5.1-1.9h2v.7h-2Zm-.7-2.5c-.1-.1-.3-.1-.5-.1c-.2 0-.3 .1-.4 .1c-.2 .2-.2 .4-.2 .7v.5h1v.6h-1v3.2h-.8V1087h-.4v-.6h.4v-.5c0-.5 .1-.8 .3-1.1c.2-.2 .5-.4 1-.4c.3 0 .6 .1 .8 .2Zm-3.2 5h-.8v-5.7h.8v5.7Zm-3.5-3.3c-.6 0-1 .4-1.1 1h2c0-.5-.4-1-.9-1m0 2.7c.5 0 .9-.1 1.1-.6l.6 .4c-.4 .6-.9 .9-1.7 .9c-1.2 0-2-.9-2-2c0-1.2 .9-2 2-2c1 0 1.8 .7 1.8 1.8c0 .1 0 .3-.1 .4h-2.9c.1 .6 .5 1.1 1.2 1.1m-4.5-4.1c-.5 0-.9 .2-.9 .7c0 .4 .5 .6 1 .8c.8 .3 1.7 .6 1.7 1.6c0 1.2-1.1 1.7-1.9 1.7c-.8 0-1.4-.2-2-.8l.6-.6c.5 .5 .8 .7 1.4 .7c.5 0 1-.3 1-.9c0-.5-.5-.7-1.1-.9c-.8-.3-1.5-.7-1.5-1.5c0-1 .7-1.5 1.6-1.5c.7 0 1.2 .2 1.7 .6l-.5 .5c-.3-.2-.7-.4-1.1-.4Z" class="ga_3"/>
<path d="M276.7 883.7h14v-14h-14v14Z" class="g3_3"/>
<path clip-path="url(#c5_3)" d="M277.4 882.9h12.5V870.4H277.4Z" class="gb_3"/>
<path d="M276.7 908.5h14.1V894.3H276.7v14.2Z" class="g3_3"/>
<path clip-path="url(#c6_3)" d="M277.4 907.7h12.7V895.1H277.4v12.6Z" class="gb_3"/>
<path d="M277 932.7h14.7V918H277v14.7Z" class="g3_3"/>
<path clip-path="url(#c7_3)" d="M277.8 931.9h13.1V918.8H277.8v13.1Z" class="gb_3"/>
<path d="M276.7 982.2h14.8V967.3H276.7v14.9Z" class="g3_3"/>
<path clip-path="url(#c8_3)" d="M277.4 981.4h13.3V968.1H277.4v13.3Z" class="gb_3"/>
<path d="M276.3 1006.4h15.5V991H276.3v15.4Z" class="g3_3"/>
<path d="M277.1 1005.7H291V991.8H277.1Z" class="gb_3"/>
<path d="M436.3 883.8h14.2V869.7H436.3v14.1Z" class="g3_3"/>
<path clip-path="url(#c9_3)" d="M437.1 883.1h12.6V870.4H437.1Z" class="gb_3"/>
<path clip-path="url(#ca_3)" d="M436.7 908.5h14.1V894.3H436.7v14.2Z" class="g3_3"/>
<path d="M437.4 907.7h12.7V895.1H437.4Z" class="gb_3"/>
<path d="M436.7 932.4h14.4V918H436.7v14.4Z" class="g3_3"/>
<path clip-path="url(#cb_3)" d="M437.4 931.6h12.9V918.8H437.4Z" class="gb_3"/>
<path d="M436.3 982.2h14.9V967.3H436.3v14.9Z" class="g3_3"/>
<path clip-path="url(#cc_3)" d="M437.1 981.4h13.3V968.1H437.1v13.3Z" class="gb_3"/>
<path d="M436.3 1006.3h15.4V991H436.3v15.3Z" class="g3_3"/>
<path clip-path="url(#cd_3)" d="M437.1 1005.6h13.8V991.8H437.1Z" class="gb_3"/>
<path d="M606 884.4h15V869.3H606v15.1Z" class="g3_3"/>
<path d="M606.8 883.6h13.5V870.1H606.8v13.5Z" class="gb_3"/>
<path d="M606 908h15.2V892.8H606V908Z" class="g3_3"/>
<path clip-path="url(#ce_3)" d="M606.8 907.2h13.6V893.6H606.8v13.6Z" class="gb_3"/>
<path d="M721.7 882.6h15.2V867.3H721.7v15.3Z" class="g3_3"/>
<path clip-path="url(#cf_3)" d="M722.4 881.8h13.7V868.1H722.4Z" class="gb_3"/>
<path d="M120.3 1212.1h15.2V1197H120.3v15.1Z" class="g3_3"/>
<path d="M121.1 1211.4h13.6v-13.6H121.1v13.6Z" class="gb_3"/>
<path d="M120.3 1236.7h15.1v-15H120.3v15Z" class="g3_3"/>
<path clip-path="url(#cg_3)" d="M121.1 1235.9h13.5v-13.5H121.1Z" class="gb_3"/>
<path d="M120.3 1261.5h14.9v-14.8H120.3v14.8Z" class="g3_3"/>
<path d="M121.1 1260.7h13.3v-13.3H121.1v13.3Z" class="gb_3"/>
<path d="M328.3 1212.2h15.2V1197H328.3v15.2Z" class="g3_3"/>
<path d="M329.1 1211.4h13.6v-13.6H329.1Z" class="gb_3"/>
<path d="M328.3 1237.2h15.6v-15.5H328.3v15.5Z" class="g3_3"/>
<path clip-path="url(#ch_3)" d="M329.1 1236.5h14v-14.1h-14Z" class="gb_3"/>
<path d="M328.3 1262.1h15.8v-15.8H328.3v15.8Z" class="g3_3"/>
<path clip-path="url(#ci_3)" d="M329.1 1261.3h14.2v-14.2H329.1Z" class="gb_3"/>
<path d="M485.7 1212.5h15.5V1197H485.7v15.5Z" class="g3_3"/>
<path d="M486.4 1211.7h14v-13.9h-14Z" class="gb_3"/>
<path d="M485.3 1237.8h15.9V1222H485.3v15.8Z" class="g3_3"/>
<path clip-path="url(#cj_3)" d="M486.1 1237.1h14.3v-14.3H486.1Z" class="gb_3"/>
<path d="M485.3 1262.5h16.2v-16.2H485.3v16.2Z" class="g3_3"/>
<path clip-path="url(#ck_3)" d="M486.1 1261.7h14.6v-14.6H486.1Z" class="gb_3"/>
<path d="M756.7 1211.5h14.8v-14.8H756.7v14.8Z" class="g3_3"/>
<path clip-path="url(#cl_3)" d="M757.4 1210.7h13.3v-13.3H757.4Z" class="gb_3"/>
<g clip-path="url(#cm_3)">
<path d="M175.5 484.8c0-4-3.2-7.1-7.1-7.1c-3.9 0-7.1 3.1-7.1 7.1c0 3.9 3.2 7 7.1 7c3.9 0 7.1-3.1 7.1-7Z" class="g3_3"/>
<path d="M174.7 484.8c0-3.5-2.8-6.4-6.3-6.4c-3.5 0-6.3 2.9-6.3 6.4c0 3.4 2.8 6.3 6.3 6.3c3.5 0 6.3-2.9 6.3-6.3Z" class="gb_3"/>
</g>
<path d="M171.8 481.4c-1.9-1.9-4.9-1.9-6.8 0c-1.8 1.8-1.8 4.9 0 6.7" class="gc_3"/>
<path d="M165 488.1c1.9 1.9 4.9 1.9 6.8 0c1.9-1.8 1.9-4.9 0-6.7" class="gd_3"/>
<path d="M107 882.1h14.4V867.7H107v14.4Z" class="g3_3"/>
<path clip-path="url(#cn_3)" d="M107.8 881.3h12.9V868.4H107.8Z" class="gb_3"/>
<path d="M107 906h14.6V891.3H107V906Z" class="g3_3"/>
<path clip-path="url(#co_3)" d="M107.8 905.2h13.1V892.1H107.8Z" class="gb_3"/>
<path d="M107 931.7h14.7V917H107v14.7Z" class="g3_3"/>
<path d="M107.8 930.9h13.1V917.8H107.8v13.1Z" class="gb_3"/>
<path d="M107 957.2h14.5V942.7H107v14.5Z" class="g3_3"/>
<path clip-path="url(#cp_3)" d="M107.8 956.4h12.9v-13H107.8Z" class="gb_3"/>
<path d="M107 982.2h14.9V967.3H107v14.9Z" class="g3_3"/>
<path clip-path="url(#cq_3)" d="M107.8 981.4h13.3V968.1H107.8Z" class="gb_3"/>
<path d="M107 1005.7h15.3V990.3H107v15.4Z" class="g3_3"/>
<path clip-path="url(#cr_3)" d="M107.8 1004.9h13.8V991.1H107.8Z" class="gb_3"/>
<path d="M107.3 1029.7h15v-15h-15v15Z" class="g3_3"/>
<path d="M108.1 1028.9h13.5v-13.5H108.1Z" class="gb_3"/>
<g clip-path="url(#cs_3)">
<path d="M614 984.5c0-4.3-3.5-7.8-7.8-7.8c-4.4 0-7.9 3.5-7.9 7.8c0 4.3 3.5 7.8 7.9 7.8c4.3 0 7.8-3.5 7.8-7.8Z" class="g3_3"/>
<path d="M613.2 984.5c0-3.9-3.1-7.1-7-7.1c-3.9 0-7.1 3.2-7.1 7.1c0 3.9 3.2 7.1 7.1 7.1c3.9 0 7-3.2 7-7.1Z" class="gb_3"/>
</g>
<path d="M610.1 980.6c-2.2-2.2-5.7-2.2-7.9 0c-2.1 2.1-2.1 5.7 0 7.8" class="ge_3"/>
<path d="M602.2 988.4c2.2 2.2 5.7 2.2 7.9 0c2.1-2.1 2.1-5.7 0-7.8" class="gf_3"/>
<g clip-path="url(#ct_3)">
<path d="M672.8 984.4c0-4.3-3.4-7.7-7.7-7.7c-4.3 0-7.8 3.4-7.8 7.7c0 4.3 3.5 7.8 7.8 7.8c4.3 0 7.7-3.5 7.7-7.8Z" class="g3_3"/>
<path d="M672.1 984.4c0-3.8-3.2-7-7-7c-3.9 0-7 3.2-7 7c0 3.9 3.1 7 7 7c3.8 0 7-3.1 7-7Z" class="gb_3"/>
</g>
<path d="M669 980.6c-2.2-2.2-5.6-2.2-7.8 0c-2.1 2.1-2.1 5.6 0 7.7" class="gc_3"/>
<path d="M661.2 988.3c2.2 2.1 5.6 2.1 7.8 0c2.1-2.1 2.1-5.6 0-7.7" class="gd_3"/>
<g clip-path="url(#cu_3)">
<path d="M477 1106.8c0-3.9-3.2-7.1-7.2-7.1c-3.9 0-7.1 3.2-7.1 7.1c0 4 3.2 7.2 7.1 7.2c4 0 7.2-3.2 7.2-7.2Z" class="g3_3"/>
<path d="M476.2 1106.8c0-3.5-2.8-6.4-6.4-6.4c-3.5 0-6.4 2.9-6.4 6.4c0 3.6 2.9 6.4 6.4 6.4c3.6 0 6.4-2.8 6.4-6.4Z" class="gb_3"/>
</g>
<path d="M473.3 1103.4c-1.9-1.9-5-1.9-6.9 0c-1.9 1.9-1.9 5 0 6.9" class="ge_3"/>
<path d="M466.4 1110.3c1.9 1.9 5 1.9 6.9 0c1.9-1.9 1.9-5 0-6.9" class="gf_3"/>
<path d="M477.3 1131c0-4.1-3.3-7.3-7.3-7.3c-4.1 0-7.3 3.2-7.3 7.3c0 4 3.2 7.3 7.3 7.3c4 0 7.3-3.3 7.3-7.3Z" class="g3_3"/>
<path clip-path="url(#cv_3)" d="M476.5 1131c0-3.6-2.9-6.6-6.5-6.6c-3.6 0-6.6 3-6.6 6.6c0 3.6 3 6.5 6.6 6.5c3.6 0 6.5-2.9 6.5-6.5Z" class="gb_3"/>
<path d="M473.5 1127.4c-1.9-1.9-5.1-1.9-7.1 0c-1.9 2-1.9 5.2 0 7.1" class="ge_3"/>
<path d="M466.4 1134.5c2 2 5.2 2 7.1 0c2-1.9 2-5.1 0-7.1" class="gf_3"/>
<path d="M577 1106.5c0-4-3.2-7.2-7.2-7.2c-3.9 0-7.1 3.2-7.1 7.2c0 4 3.2 7.2 7.1 7.2c4 0 7.2-3.2 7.2-7.2Z" class="g3_3"/>
<path clip-path="url(#cw_3)" d="M576.2 1106.5c0-3.5-2.8-6.4-6.4-6.4c-3.5 0-6.4 2.9-6.4 6.4c0 3.5 2.9 6.4 6.4 6.4c3.6 0 6.4-2.9 6.4-6.4Z" class="gb_3"/>
<path d="M573.3 1103.1c-1.9-1.9-5-1.9-6.9 0c-1.9 1.9-1.9 4.9 0 6.9" class="ge_3"/>
<path d="M566.4 1110c1.9 1.9 5 1.9 6.9 0c1.9-2 1.9-5 0-6.9" class="gf_3"/>
<path d="M577.1 1130.9c0-4-3.3-7.2-7.2-7.2c-4 0-7.2 3.2-7.2 7.2c0 3.9 3.2 7.2 7.2 7.2c3.9 0 7.2-3.3 7.2-7.2Z" class="g3_3"/>
<path clip-path="url(#cx_3)" d="M576.3 1130.9c0-3.6-2.9-6.5-6.4-6.5c-3.6 0-6.5 2.9-6.5 6.5c0 3.5 2.9 6.4 6.5 6.4c3.5 0 6.4-2.9 6.4-6.4Z" class="gb_3"/>
<path d="M573.3 1127.4c-1.9-1.9-5-1.9-6.9 0c-1.9 1.9-1.9 5 0 6.9" class="ge_3"/>
<path d="M566.4 1134.3c1.9 2 5 2 6.9 0c1.9-1.9 2-5 0-6.9" class="gf_3"/>
<g clip-path="url(#cy_3)">
<path d="M689.7 1106.4c0-3.7-3-6.7-6.7-6.7c-3.7 0-6.7 3-6.7 6.7c0 3.6 3 6.6 6.7 6.6c3.7 0 6.7-3 6.7-6.6Z" class="g3_3"/>
<path d="M688.9 1106.4c0-3.3-2.6-6-5.9-6c-3.2 0-5.9 2.7-5.9 6c0 3.2 2.7 5.9 5.9 5.9c3.3 0 5.9-2.7 5.9-5.9Z" class="gb_3"/>
</g>
<path d="M686.1 1103.2c-1.7-1.7-4.5-1.7-6.2 0c-1.7 1.8-1.7 4.5 0 6.3" class="ge_3"/>
<path d="M679.9 1109.5c1.7 1.7 4.5 1.7 6.2 0c1.7-1.8 1.7-4.5 0-6.3" class="gf_3"/>
<path d="M256.3 238.2c0-4.4-3.5-7.9-7.8-7.9c-4.3 0-7.8 3.5-7.8 7.9c0 4.3 3.5 7.8 7.8 7.8c4.3 0 7.8-3.5 7.8-7.8Z" class="g3_3"/>
<path clip-path="url(#cz_3)" d="M255.6 238.2c0-3.9-3.2-7.1-7.1-7.1c-3.9 0-7.1 3.2-7.1 7.1c0 3.9 3.2 7 7.1 7c3.9 0 7.1-3.1 7.1-7Z" class="gb_3"/>
<path d="M252.4 234.2c-2.1-2.1-5.7-2.1-7.8 0c-2.2 2.2-2.2 5.7 0 7.9" class="ge_3"/>
<path d="M244.6 242.1c2.1 2.2 5.7 2.2 7.8 0c2.2-2.2 2.2-5.7 0-7.9" class="gf_3"/>
<path d="M308.3 238.3c0-4.4-3.5-8-8-8c-4.4 0-8 3.6-8 8c0 4.5 3.6 8 8 8c4.5 0 8-3.5 8-8Z" class="g3_3"/>
<path d="M307.6 238.3c0-4-3.3-7.2-7.3-7.2c-4 0-7.2 3.2-7.2 7.2c0 4 3.2 7.3 7.2 7.3c4 0 7.3-3.3 7.3-7.3Z" class="gb_3"/>
<path d="M304.4 234.3c-2.3-2.2-5.9-2.2-8.1 0c-2.2 2.2-2.2 5.8 0 8.1" class="ge_3"/>
<path d="M296.3 242.4c2.2 2.2 5.8 2.2 8.1 0c2.2-2.3 2.2-5.9 0-8.1" class="gf_3"/>
<g clip-path="url(#c10_3)">
<path d="M282 361.8c0-3.9-3.2-7.1-7.2-7.1c-3.9 0-7.1 3.2-7.1 7.1c0 4 3.2 7.2 7.1 7.2c4 0 7.2-3.2 7.2-7.2Z" class="g3_3"/>
<path d="M281.2 361.8c0-3.5-2.8-6.4-6.4-6.4c-3.5 0-6.4 2.9-6.4 6.4c0 3.6 2.9 6.4 6.4 6.4c3.6 0 6.4-2.8 6.4-6.4Z" class="gb_3"/>
</g>
<path d="M278.3 358.4c-1.9-1.9-5-1.9-6.9 0c-1.9 1.9-1.9 5 0 6.9" class="ge_3"/>
<path d="M271.4 365.3c1.9 1.9 5 1.9 6.9 0c1.9-1.9 1.9-5 0-6.9" class="gf_3"/>
<g clip-path="url(#c11_3)">
<path d="M282.1 386c0-3.9-3.2-7-7.1-7c-3.9 0-7 3.1-7 7c0 3.9 3.1 7.1 7 7.1c3.9 0 7.1-3.2 7.1-7.1Z" class="g3_3"/>
<path d="M281.3 386c0-3.4-2.8-6.2-6.3-6.2c-3.4 0-6.2 2.8-6.2 6.2c0 3.5 2.8 6.3 6.2 6.3c3.5 0 6.3-2.8 6.3-6.3Z" class="gb_3"/>
</g>
<path d="M278.4 382.7c-1.9-1.9-4.9-1.9-6.7 0c-1.9 1.8-1.9 4.8 0 6.7" class="ge_3"/>
<path d="M271.7 389.4c1.8 1.8 4.8 1.8 6.7 0c1.8-1.9 1.8-4.9 0-6.7" class="gf_3"/>
<path d="M424.2 361.4c0-3.9-3.2-7.1-7.1-7.1c-3.9 0-7.1 3.2-7.1 7.1c0 3.9 3.2 7.1 7.1 7.1c3.9 0 7.1-3.2 7.1-7.1Z" class="g3_3"/>
<path d="M423.4 361.4c0-3.5-2.8-6.3-6.3-6.3c-3.5 0-6.3 2.8-6.3 6.3c0 3.5 2.8 6.3 6.3 6.3c3.5 0 6.3-2.8 6.3-6.3Z" class="gb_3"/>
<path d="M420.5 358c-1.9-1.8-4.9-1.8-6.8 0c-1.9 1.9-1.9 4.9 0 6.8" class="ge_3"/>
<path d="M413.7 364.8c1.9 1.9 4.9 1.9 6.8 0c1.9-1.9 1.9-4.9 0-6.8" class="gf_3"/>
<g clip-path="url(#c12_3)">
<path d="M424.7 386.7c0-4.1-3.3-7.4-7.4-7.4c-4 0-7.3 3.3-7.3 7.4c0 4 3.3 7.3 7.3 7.3c4.1 0 7.4-3.3 7.4-7.3Z" class="g3_3"/>
<path d="M423.9 386.7c0-3.7-2.9-6.6-6.6-6.6c-3.6 0-6.5 2.9-6.5 6.6c0 3.6 2.9 6.5 6.5 6.5c3.7 0 6.6-2.9 6.6-6.5Z" class="gb_3"/>
</g>
<path d="M420.9 383.1c-2-2-5.2-2-7.1 0c-2 2-2 5.2 0 7.1" class="ge_3"/>
<path d="M413.8 390.2c1.9 2 5.1 2 7.1 0c2-1.9 2-5.1 0-7.1" class="gf_3"/>
<g clip-path="url(#c13_3)">
<path d="M594.9 361.6c0-4-3.3-7.3-7.3-7.3c-4 0-7.3 3.3-7.3 7.3c0 4 3.3 7.3 7.3 7.3c4 0 7.3-3.3 7.3-7.3Z" class="g3_3"/>
<path d="M594.1 361.6c0-3.6-2.9-6.5-6.5-6.5c-3.6 0-6.5 2.9-6.5 6.5c0 3.6 2.9 6.5 6.5 6.5c3.6 0 6.5-2.9 6.5-6.5Z" class="gb_3"/>
</g>
<path d="M591.1 358.1c-1.9-2-5.1-2-7 0c-2 1.9-2 5.1 0 7" class="ge_3"/>
<path d="M584.1 365.1c1.9 2 5.1 2 7 0c2-1.9 2-5.1 0-7" class="gf_3"/>
<path d="M176.2 459.8c0-3.9-3.1-7.1-7.1-7.1c-3.9 0-7.1 3.2-7.1 7.1c0 3.9 3.2 7.1 7.1 7.1c4 0 7.1-3.2 7.1-7.1Z" class="g3_3"/>
<path d="M175.5 459.8c0-3.5-2.9-6.4-6.4-6.4c-3.5 0-6.3 2.9-6.3 6.4c0 3.5 2.8 6.3 6.3 6.3c3.5 0 6.4-2.8 6.4-6.3Z" class="gb_3"/>
<path d="M172.5 456.4c-1.8-1.9-4.9-1.9-6.8 0c-1.9 1.9-1.9 4.9 0 6.8" class="gc_3"/>
<path d="M165.7 463.2c1.9 1.9 5 1.9 6.8 0c1.9-1.9 1.9-4.9 0-6.8" class="gd_3"/>
<path d="M244 459.5c0-4-3.2-7.2-7.1-7.2c-4 0-7.2 3.2-7.2 7.2c0 4 3.2 7.2 7.2 7.2c3.9 0 7.1-3.2 7.1-7.2Z" class="g3_3"/>
<path d="M243.3 459.5c0-3.5-2.9-6.4-6.4-6.4c-3.6 0-6.5 2.9-6.5 6.4c0 3.6 2.9 6.4 6.5 6.4c3.5 0 6.4-2.8 6.4-6.4Z" class="gb_3"/>
<path d="M240.3 456.1c-1.9-2-5-2-6.9 0c-1.9 1.9-1.9 5 0 6.9" class="gc_3"/>
<path d="M233.4 463c1.9 1.9 5 1.9 6.9 0c1.9-1.9 1.9-5 0-6.9" class="gd_3"/>
<path clip-path="url(#c14_3)" d="M344.9 459.9c0-4-3.3-7.2-7.3-7.2c-4 0-7.3 3.2-7.3 7.2c0 4 3.3 7.3 7.3 7.3c4 0 7.3-3.3 7.3-7.3Z" class="g3_3"/>
<path d="M344.1 459.9c0-3.6-2.9-6.5-6.5-6.5c-3.6 0-6.5 2.9-6.5 6.5c0 3.6 2.9 6.5 6.5 6.5c3.6 0 6.5-2.9 6.5-6.5Z" class="gb_3"/>
<path d="M341.1 456.4c-1.9-1.9-5.1-1.9-7 0c-2 2-2 5.1 0 7" class="gc_3"/>
<path d="M334.1 463.4c1.9 2 5.1 2 7 0c2-1.9 2-5 0-7" class="gd_3"/>
<path d="M517.3 460.3c0-4-3.2-7.3-7.3-7.3c-4 0-7.3 3.3-7.3 7.3c0 4.1 3.3 7.4 7.3 7.4c4.1 0 7.3-3.3 7.3-7.4Z" class="g3_3"/>
<path d="M516.6 460.3c0-3.6-3-6.5-6.6-6.5c-3.6 0-6.6 2.9-6.6 6.5c0 3.7 3 6.6 6.6 6.6c3.6 0 6.6-2.9 6.6-6.6Z" class="gb_3"/>
<path d="M513.6 456.8c-2-2-5.2-2-7.2 0c-1.9 1.9-1.9 5.1 0 7.1" class="gc_3"/>
<path d="M506.4 463.9c2 2 5.2 2 7.2 0c1.9-2 1.9-5.2 0-7.1" class="gd_3"/>
<path clip-path="url(#c15_3)" d="M720 459.3c0-3.6-3-6.6-6.7-6.6c-3.6 0-6.6 3-6.6 6.6c0 3.7 3 6.7 6.6 6.7c3.7 0 6.7-3 6.7-6.7Z" class="g3_3"/>
<path d="M719.2 459.3c0-3.2-2.6-5.9-5.9-5.9c-3.2 0-5.9 2.7-5.9 5.9c0 3.3 2.7 5.9 5.9 5.9c3.3 0 5.9-2.6 5.9-5.9Z" class="gb_3"/>
<path d="M716.4 456.2c-1.7-1.7-4.5-1.7-6.2 0c-1.7 1.7-1.7 4.5 0 6.2" class="gc_3"/>
<path d="M710.2 462.4c1.7 1.7 4.5 1.7 6.2 0c1.7-1.7 1.7-4.4 0-6.2" class="gd_3"/>
<path d="M78.8 801.2c0-4.3-3.6-7.9-7.9-7.9c-4.4 0-7.9 3.6-7.9 7.9c0 4.4 3.5 7.9 7.9 7.9c4.3 0 7.9-3.5 7.9-7.9Z" class="g3_3"/>
<path d="M78 801.2c0-3.9-3.2-7.1-7.1-7.1c-4 0-7.1 3.2-7.1 7.1c0 3.9 3.1 7.1 7.1 7.1c3.9 0 7.1-3.2 7.1-7.1Z" class="gb_3"/>
<path d="M74.8 797.3c-2.2-2.2-5.7-2.2-7.9 0c-2.2 2.1-2.2 5.7 0 7.9" class="ge_3"/>
<path d="M66.9 805.2c2.2 2.1 5.7 2.1 7.9 0c2.2-2.2 2.2-5.8 0-7.9" class="gf_3"/>
<g clip-path="url(#c16_3)">
<path d="M214 801.2c0-4.2-3.3-7.5-7.5-7.5c-4.1 0-7.5 3.3-7.5 7.5c0 4.1 3.4 7.5 7.5 7.5c4.2 0 7.5-3.4 7.5-7.5Z" class="g3_3"/>
<path d="M213.3 801.2c0-3.7-3.1-6.8-6.8-6.8c-3.7 0-6.7 3.1-6.7 6.8c0 3.7 3 6.7 6.7 6.7c3.7 0 6.8-3 6.8-6.7Z" class="gb_3"/>
</g>
<path d="M210.2 797.5c-2-2-5.3-2-7.4 0c-2 2-2 5.3 0 7.4" class="ge_3"/>
<path d="M202.8 804.9c2.1 2 5.4 2 7.4 0c2-2.1 2-5.4 0-7.4" class="gf_3"/>
<path d="M450.5 247H465V232.5H450.5V247Z" class="g3_3"/>
<path d="M451.3 246.2h13V233.3h-13v12.9Z" class="gb_3"/>
<path d="M528 247.5h15v-15H528v15Z" class="g3_3"/>
<path d="M528.8 246.7h13.4V233.3H528.8v13.4Z" class="gb_3"/>
<path d="M589.5 247.3h14.8V232.5H589.5v14.8Z" class="g3_3"/>
<path clip-path="url(#c17_3)" d="M590.3 246.5h13.2V233.3H590.3Z" class="gb_3"/>
<path d="M652.5 248H668V232.5H652.5V248Z" class="g3_3"/>
<path clip-path="url(#c18_3)" d="M653.3 247.2h13.9V233.3H653.3Z" class="gb_3"/>
<path d="M796 248h15.5V232.5H796V248Z" class="g3_3"/>
<path d="M796.8 247.2h13.9V233.3H796.8v13.9Z" class="gb_3"/>
<g clip-path="url(#c19_3)">
<path d="M411.8 484.3c0-4.3-3.5-7.8-7.8-7.8c-4.3 0-7.8 3.5-7.8 7.8c0 4.3 3.5 7.7 7.8 7.7c4.3 0 7.8-3.4 7.8-7.7Z" class="g3_3"/>
<path d="M411 484.3c0-3.9-3.1-7.1-7-7.1c-3.9 0-7 3.2-7 7.1c0 3.8 3.1 7 7 7c3.9 0 7-3.2 7-7Z" class="gb_3"/>
</g>
<path d="M407.9 480.4c-2.1-2.2-5.6-2.2-7.8 0c-2.1 2.1-2.1 5.6 0 7.8" class="ge_3"/>
<path d="M400.1 488.2c2.2 2.1 5.7 2.1 7.8-.1c2.1-2.1 2.1-5.6 0-7.7" class="gf_3"/>
<path d="M533 484.2c0-4.2-3.5-7.7-7.7-7.7c-4.3 0-7.8 3.5-7.8 7.7c0 4.3 3.5 7.8 7.8 7.8c4.2 0 7.7-3.5 7.7-7.8Z" class="g3_3"/>
<path clip-path="url(#c1a_3)" d="M532.3 484.3c0-3.9-3.2-7.1-7.1-7.1c-3.8 0-7 3.2-7 7.1c0 3.8 3.2 7 7 7c3.9 0 7.1-3.2 7.1-7Z" class="gb_3"/>
<path d="M529.1 480.4c-2.1-2.2-5.6-2.2-7.7 0c-2.2 2.1-2.2 5.6 0 7.7" class="ge_3"/>
<path d="M521.4 488.1c2.1 2.2 5.6 2.2 7.7 0c2.2-2.1 2.2-5.6 0-7.7" class="gf_3"/>
<path d="M612.8 484.2c0-4.2-3.5-7.7-7.8-7.7c-4.3 0-7.8 3.5-7.8 7.7c0 4.3 3.5 7.8 7.8 7.8c4.3 0 7.8-3.5 7.8-7.8Z" class="g3_3"/>
<path clip-path="url(#c1b_3)" d="M612 484.2c0-3.8-3.1-7-7-7c-3.9 0-7 3.2-7 7c0 3.9 3.1 7.1 7 7.1c3.9 0 7-3.2 7-7.1Z" class="gb_3"/>
<path d="M608.9 480.4c-2.2-2.2-5.6-2.2-7.8 0c-2.1 2.1-2.1 5.6 0 7.7" class="ge_3"/>
<path d="M601.1 488.1c2.2 2.2 5.6 2.2 7.8 0c2.1-2.1 2.1-5.6 0-7.7" class="gf_3"/>
<path d="M721.7 907.2h15.2V892H721.7v15.2Z" class="g3_3"/>
<path clip-path="url(#c1c_3)" d="M722.4 906.5h13.7V892.8H722.4Z" class="gb_3"/>
</svg>