<svg viewBox="0 0 909 1286" version="1.1" xmlns="http://www.w3.org/2000/svg">
<defs>
<clipPath id="c0_2"><path d="M540.5 1029.4c-3.4 0-6.1-2.7-6.1-6.1c0-3.4 2.7-6.1 6.1-6.1c3.4 0 6.1 2.7 6.1 6.1c0 3.4-2.7 6.1-6.1 6.1Z"/></clipPath>
<clipPath id="c1_2"><path d="M540.9 1053.9c-3.4 0-6.1-2.8-6.1-6.1c0-3.4 2.7-6.2 6.1-6.2c3.3 0 6.1 2.8 6.1 6.2c0 3.3-2.8 6.1-6.1 6.1Z"/></clipPath>
<clipPath id="c2_2"><path d="M754.5 1029.4c-3.3 0-6.1-2.7-6.1-6.1c0-3.4 2.8-6.1 6.1-6.1c3.4 0 6.2 2.7 6.2 6.1c0 3.4-2.8 6.1-6.2 6.1Z"/></clipPath>
<clipPath id="c3_2"><path d="M754.9 1053.9c-3.4 0-6.1-2.8-6.1-6.1c0-3.4 2.7-6.2 6.1-6.2c3.4 0 6.1 2.8 6.1 6.2c0 3.3-2.7 6.1-6.1 6.1Z"/></clipPath>
<clipPath id="c4_2"><path d="M658.4 1054.2v-12.9h12.8v12.9Z"/></clipPath>
<clipPath id="c5_2"><path d="M825.8 1028.2c-3.4 0-6.2-2.7-6.2-6.1c0-3.4 2.8-6.1 6.2-6.1c3.3 0 6.1 2.7 6.1 6.1c0 3.4-2.8 6.1-6.1 6.1Z"/></clipPath>
<clipPath id="c6_2"><path d="M43.1 1151c-3.4 0-6.1-2.7-6.1-6.1c0-3.4 2.7-6.1 6.1-6.1c3.4 0 6.1 2.7 6.1 6.1c0 3.4-2.7 6.1-6.1 6.1Z"/></clipPath>
<clipPath id="c7_2"><path d="M120.3 1150.9c-3.4 0-6.1-2.7-6.1-6.1c0-3.4 2.7-6.1 6.1-6.1c3.4 0 6.1 2.7 6.1 6.1c0 3.4-2.7 6.1-6.1 6.1Z"/></clipPath>
<clipPath id="c8_2"><path d="M755.3 241.4c-3.4 0-6.1-2.7-6.1-6.1c0-3.4 2.7-6.1 6.1-6.1c3.4 0 6.1 2.7 6.1 6.1c0 3.4-2.7 6.1-6.1 6.1Z"/></clipPath>
<clipPath id="c9_2"><path d="M826 241.4c-3.4 0-6.1-2.7-6.1-6.1c0-3.4 2.7-6.1 6.1-6.1c3.4 0 6.1 2.7 6.1 6.1c0 3.4-2.7 6.1-6.1 6.1Z"/></clipPath>
<clipPath id="ca_2"><path d="M754.6 157.9c-3.4 0-6.1-2.8-6.1-6.1c0-3.4 2.7-6.1 6.1-6.1c3.4 0 6.1 2.7 6.1 6.1c0 3.3-2.7 6.1-6.1 6.1Z"/></clipPath>
<clipPath id="cb_2"><path d="M826.1 157.9c-3.4 0-6.1-2.8-6.1-6.1c0-3.4 2.7-6.1 6.1-6.1c3.4 0 6.1 2.7 6.1 6.1c0 3.3-2.7 6.1-6.1 6.1Z"/></clipPath>
<clipPath id="cc_2"><path d="M754.3 117.3c-3.3 0-6.1-2.7-6.1-6.1c0-3.3 2.8-6.1 6.1-6.1c3.4 0 6.1 2.8 6.1 6.1c0 3.4-2.7 6.1-6.1 6.1Z"/></clipPath>
<clipPath id="cd_2"><path d="M826.2 116.6c-3.4 0-6.1-2.7-6.1-6.1c0-3.4 2.7-6.1 6.1-6.1c3.4 0 6.1 2.7 6.1 6.1c0 3.4-2.7 6.1-6.1 6.1Z"/></clipPath>
<clipPath id="ce_2"><path d="M754.2 199.7c-3.3 0-6.1-2.8-6.1-6.1c0-3.4 2.8-6.2 6.1-6.2c3.4 0 6.1 2.8 6.1 6.2c0 3.3-2.7 6.1-6.1 6.1Z"/></clipPath>
<clipPath id="cf_2"><path d="M826.1 200.4c-3.4 0-6.1-2.7-6.1-6.1c0-3.3 2.7-6.1 6.1-6.1c3.4 0 6.1 2.8 6.1 6.1c0 3.4-2.7 6.1-6.1 6.1Z"/></clipPath>
<clipPath id="cg_2"><path d="M747.1 119.3V101.5h17.8v17.8Z"/></clipPath>
<clipPath id="ch_2"><path d="M817.7 119.3V101.5h17.9v17.8Z"/></clipPath>
<clipPath id="ci_2"><path d="M747.4 159.1V141.8h17.2v17.3Z"/></clipPath>
<clipPath id="cj_2"><path d="M817.4 159.8V141.2h18.7v18.6Z"/></clipPath>
<clipPath id="ck_2"><path d="M747.1 202.2V184.5h17.6v17.7Z"/></clipPath>
<clipPath id="cl_2"><path d="M817.4 202.2V184.5h17.7v17.7Z"/></clipPath>
<clipPath id="cm_2"><path d="M747.1 243V225.2h17.8V243Z"/></clipPath>
<clipPath id="cn_2"><path d="M817.1 243V225.5h17.5V243Z"/></clipPath>
<style>
.g0_2{fill:#E8ECF0;}
.g1_2{fill:#D1D8E2;}
.g2_2{fill:#1A3D6D;}
.g3_2{fill:#C6CFDB;}
.g4_2{fill:#FFF;}
.g5_2{fill:none;stroke:#EDF0F3;stroke-width:1.527;}
.g6_2{fill:none;stroke:#EDF0F3;stroke-width:0.763;}
.g7_2{fill:#FFF;stroke:#EDF0F3;stroke-width:0.763;}
.g8_2{fill:none;stroke:#D1D8E2;stroke-width:1.527;}
.g9_2{fill:none;stroke:#005BAC;stroke-width:1.909;stroke-miterlimit:10;}
.ga_2{fill:none;stroke:#000;stroke-width:0.381;stroke-miterlimit:10;}
.gb_2{fill:none;stroke:#000;stroke-width:1.527;stroke-miterlimit:10;}
.gc_2{fill:none;stroke:#7F7F7F;stroke-width:1.08;stroke-miterlimit:10;}
.gd_2{fill:none;stroke:#C0C0C0;stroke-width:1.08;stroke-miterlimit:10;}
.ge_2{fill:none;stroke:#7F7F7F;stroke-width:1.527;stroke-miterlimit:10;}
.gf_2{fill:none;stroke:#C0C0C0;stroke-width:1.527;stroke-miterlimit:10;}
</style>
</defs>
<path d="M.4 1284.4h909V0H.4V1284.4Z" class="g0_2"/>
<path d="M0 976.7H909.4V927.8H0v48.9Z" class="g1_2"/>
<path d="M39.7 580.6c-1.7 0-3 1.4-3 3.1v12.2c0 1.7 1.3 3.1 3 3.1h830c1.7 0 3.1-1.4 3.1-3.1V583.7c0-1.7-1.4-3.1-3.1-3.1Z" class="g1_2"/>
<path d="M0 48.9H18.3V0H0V48.9Z" class="g2_2"/>
<path d="M0 48.9H909.4V0H0V48.9Z" class="g2_2"/>
<path d="M39.7 460.7c-1.7 0-3 1.3-3 3v12.2c0 1.7 1.3 3.1 3 3.1h830c1.7 0 3.1-1.4 3.1-3.1V463.7c0-1.7-1.4-3-3.1-3Z" class="g1_2"/>
<path d="M39.7 265.3c-1.7 0-3 1.4-3 3.1v12.2c0 1.7 1.3 3 3 3h830c1.7 0 3.1-1.3 3.1-3V268.4c0-1.7-1.4-3.1-3.1-3.1Z" class="g1_2"/>
<path d="M39.7 59.6c-1.7 0-3 1.4-3 3V74.9c0 1.6 1.3 3 3 3h830c1.7 0 3.1-1.4 3.1-3V62.6c0-1.6-1.4-3-3.1-3Z" class="g1_2"/>
<path d="M.8 1286.2H909.4V977.8H.8v308.4Z" class="g3_2"/>
<path d="M0 1286.2H27.1V977.8H0v308.4Z" class="g2_2"/>
<path d="M41.4 1235.3c-2.5 0-4.6 2.1-4.6 4.6v27.5c0 2.6 2.1 4.6 4.6 4.6H867.9c2.6 0 4.6-2 4.6-4.6v-27.5c0-2.5-2-4.6-4.6-4.6Z" class="g4_2"/>
<path d="M41.4 1089.3c-2.6 0-4.6 2.1-4.6 4.6v27.5c0 2.5 2 4.6 4.6 4.6H440.7c2.5 0 4.6-2.1 4.6-4.6v-27.5c0-2.5-2.1-4.6-4.6-4.6Z" class="g4_2"/>
<path d="M185.1 1089.2v36.7" class="g5_2"/>
<path d="M41.5 1015.7c-2.5 0-4.5 2-4.5 4.6v27.5c0 2.5 2 4.5 4.5 4.5H298c2.6 0 4.6-2 4.6-4.5v-27.5c0-2.6-2-4.6-4.6-4.6Z" class="g4_2"/>
<path d="M59.8 1015.7v36.6m22-36.6v36.6m22.1-36.6v36.6m22-36.6v36.6m88.3-36.6v36.6m22-36.6v36.6m22.1-36.6v36.6m-88.2-36.6v36.6M280.3 1016v36.6M148 1015.7v36.6m44.1-36.6v36.6" class="g5_2"/>
<path d="M540.5 1017.2c-3.4 0-6.1 2.7-6.1 6.1c0 3.4 2.7 6.1 6.1 6.1c3.4 0 6.1-2.7 6.1-6.1c0-3.4-2.7-6.1-6.1-6.1Z" class="g4_2"/>
<g clip-path="url(#c0_2)">
<path d="M540.5 1017.2c-3.4 0-6.1 2.7-6.1 6.1c0 3.4 2.7 6.1 6.1 6.1c3.4 0 6.1-2.7 6.1-6.1c0-3.4-2.7-6.1-6.1-6.1Z" class="g4_2"/>
<path d="M540.5 1017.2c-3.4 0-6.1 2.7-6.1 6.1c0 3.4 2.7 6.1 6.1 6.1c3.4 0 6.1-2.7 6.1-6.1c0-3.4-2.7-6.1-6.1-6.1Z" class="g4_2"/>
<path d="M540.5 1017.2c-3.4 0-6.1 2.7-6.1 6.1c0 3.4 2.7 6.1 6.1 6.1c3.4 0 6.1-2.7 6.1-6.1c0-3.4-2.7-6.1-6.1-6.1Z" class="g4_2"/>
<path d="M540.5 1017.2c-3.4 0-6.1 2.7-6.1 6.1c0 3.4 2.7 6.1 6.1 6.1c3.4 0 6.1-2.7 6.1-6.1c0-3.4-2.7-6.1-6.1-6.1Z" class="g6_2"/>
</g>
<path d="M540.9 1041.6c-3.4 0-6.1 2.8-6.1 6.2c0 3.3 2.7 6.1 6.1 6.1c3.3 0 6.1-2.8 6.1-6.1c0-3.4-2.8-6.2-6.1-6.2Z" class="g4_2"/>
<g clip-path="url(#c1_2)">
<path d="M540.9 1041.6c-3.4 0-6.1 2.8-6.1 6.2c0 3.3 2.7 6.1 6.1 6.1c3.3 0 6.1-2.8 6.1-6.1c0-3.4-2.8-6.2-6.1-6.2Z" class="g4_2"/>
<path d="M540.9 1041.6c-3.4 0-6.1 2.8-6.1 6.2c0 3.3 2.7 6.1 6.1 6.1c3.3 0 6.1-2.8 6.1-6.1c0-3.4-2.8-6.2-6.1-6.2Z" class="g4_2"/>
<path d="M540.9 1041.6c-3.4 0-6.1 2.8-6.1 6.2c0 3.3 2.7 6.1 6.1 6.1c3.3 0 6.1-2.8 6.1-6.1c0-3.4-2.8-6.2-6.1-6.2Z" class="g4_2"/>
<path d="M540.9 1041.6c-3.4 0-6.1 2.8-6.1 6.2c0 3.3 2.7 6.1 6.1 6.1c3.3 0 6.1-2.8 6.1-6.1c0-3.4-2.8-6.2-6.1-6.2Z" class="g6_2"/>
</g>
<path d="M754.5 1017.2c-3.3 0-6.1 2.7-6.1 6.1c0 3.4 2.8 6.1 6.1 6.1c3.4 0 6.2-2.7 6.2-6.1c0-3.4-2.8-6.1-6.2-6.1Z" class="g4_2"/>
<g clip-path="url(#c2_2)">
<path d="M754.5 1017.2c-3.3 0-6.1 2.7-6.1 6.1c0 3.4 2.8 6.1 6.1 6.1c3.4 0 6.2-2.7 6.2-6.1c0-3.4-2.8-6.1-6.2-6.1Z" class="g4_2"/>
<path d="M754.5 1017.2c-3.3 0-6.1 2.7-6.1 6.1c0 3.4 2.8 6.1 6.1 6.1c3.4 0 6.2-2.7 6.2-6.1c0-3.4-2.8-6.1-6.2-6.1Z" class="g4_2"/>
<path d="M754.5 1017.2c-3.3 0-6.1 2.7-6.1 6.1c0 3.4 2.8 6.1 6.1 6.1c3.4 0 6.2-2.7 6.2-6.1c0-3.4-2.8-6.1-6.2-6.1Z" class="g4_2"/>
<path d="M754.5 1017.2c-3.3 0-6.1 2.7-6.1 6.1c0 3.4 2.8 6.1 6.1 6.1c3.4 0 6.2-2.7 6.2-6.1c0-3.4-2.8-6.1-6.2-6.1Z" class="g6_2"/>
</g>
<path d="M754.9 1041.6c-3.4 0-6.1 2.8-6.1 6.2c0 3.3 2.7 6.1 6.1 6.1c3.4 0 6.1-2.8 6.1-6.1c0-3.4-2.7-6.2-6.1-6.2Z" class="g4_2"/>
<g clip-path="url(#c3_2)">
<path d="M754.9 1041.6c-3.4 0-6.1 2.8-6.1 6.2c0 3.3 2.7 6.1 6.1 6.1c3.4 0 6.1-2.8 6.1-6.1c0-3.4-2.7-6.2-6.1-6.2Z" class="g4_2"/>
<path d="M754.9 1041.6c-3.4 0-6.1 2.8-6.1 6.2c0 3.3 2.7 6.1 6.1 6.1c3.4 0 6.1-2.8 6.1-6.1c0-3.4-2.7-6.2-6.1-6.2Z" class="g4_2"/>
<path d="M754.9 1041.6c-3.4 0-6.1 2.8-6.1 6.2c0 3.3 2.7 6.1 6.1 6.1c3.4 0 6.1-2.8 6.1-6.1c0-3.4-2.7-6.2-6.1-6.2Z" class="g4_2"/>
<path d="M754.9 1041.6c-3.4 0-6.1 2.8-6.1 6.2c0 3.3 2.7 6.1 6.1 6.1c3.4 0 6.1-2.8 6.1-6.1c0-3.4-2.7-6.2-6.1-6.2Z" class="g6_2"/>
</g>
<path d="M658.7 1029.4h12.2v-12.2H658.7v12.2Z" class="g7_2"/>
<path d="M658.7 1053.9h12.2v-12.3H658.7v12.3Z" class="g4_2"/>
<path d="M658.7 1053.9h12.2v-12.3H658.7v12.3Z" class="g4_2"/>
<path clip-path="url(#c4_2)" d="M658.7 1053.9h12.2v-12.3H658.7v12.3Z" class="g6_2"/>
<path d="M825.8 1016c-3.4 0-6.2 2.7-6.2 6.1c0 3.4 2.8 6.1 6.2 6.1c3.3 0 6.1-2.7 6.1-6.1c0-3.4-2.8-6.1-6.1-6.1Z" class="g4_2"/>
<g clip-path="url(#c5_2)">
<path d="M825.8 1016c-3.4 0-6.2 2.7-6.2 6.1c0 3.4 2.8 6.1 6.2 6.1c3.3 0 6.1-2.7 6.1-6.1c0-3.4-2.8-6.1-6.1-6.1Z" class="g4_2"/>
<path d="M825.8 1016c-3.4 0-6.2 2.7-6.2 6.1c0 3.4 2.8 6.1 6.2 6.1c3.3 0 6.1-2.7 6.1-6.1c0-3.4-2.8-6.1-6.1-6.1Z" class="g4_2"/>
<path d="M825.8 1016c-3.4 0-6.2 2.7-6.2 6.1c0 3.4 2.8 6.1 6.2 6.1c3.3 0 6.1-2.7 6.1-6.1c0-3.4-2.8-6.1-6.1-6.1Z" class="g4_2"/>
<path d="M825.8 1016c-3.4 0-6.2 2.7-6.2 6.1c0 3.4 2.8 6.1 6.2 6.1c3.3 0 6.1-2.7 6.1-6.1c0-3.4-2.8-6.1-6.1-6.1Z" class="g6_2"/>
</g>
<path d="M468.6 1089.3c-2.6 0-4.6 2.1-4.6 4.6v27.5c0 2.5 2 4.6 4.6 4.6H867.9c2.6 0 4.6-2.1 4.6-4.6v-27.5c0-2.5-2-4.6-4.6-4.6Z" class="g4_2"/>
<path d="M612.4 1089.2v36.7" class="g5_2"/>
<path d="M41.6 1163.1c-2.5 0-4.6 2.1-4.6 4.6v27.5c0 2.5 2.1 4.6 4.6 4.6H290.2c2.5 0 4.5-2.1 4.5-4.6v-27.5c0-2.5-2-4.6-4.5-4.6Z" class="g4_2"/>
<path d="M317.9 1163.1c-2.5 0-4.5 2.1-4.5 4.6v27.5c0 2.5 2 4.6 4.5 4.6H590.2c2.5 0 4.6-2.1 4.6-4.6v-27.5c0-2.5-2.1-4.6-4.6-4.6Z" class="g4_2"/>
<path d="M43.1 1138.8c-3.4 0-6.1 2.7-6.1 6.1c0 3.4 2.7 6.1 6.1 6.1c3.4 0 6.1-2.7 6.1-6.1c0-3.4-2.7-6.1-6.1-6.1Z" class="g4_2"/>
<g clip-path="url(#c6_2)">
<path d="M43.1 1138.8c-3.4 0-6.1 2.7-6.1 6.1c0 3.4 2.7 6.1 6.1 6.1c3.4 0 6.1-2.7 6.1-6.1c0-3.4-2.7-6.1-6.1-6.1Z" class="g4_2"/>
<path d="M43.1 1138.8c-3.4 0-6.1 2.7-6.1 6.1c0 3.4 2.7 6.1 6.1 6.1c3.4 0 6.1-2.7 6.1-6.1c0-3.4-2.7-6.1-6.1-6.1Z" class="g4_2"/>
<path d="M43.1 1138.8c-3.4 0-6.1 2.7-6.1 6.1c0 3.4 2.7 6.1 6.1 6.1c3.4 0 6.1-2.7 6.1-6.1c0-3.4-2.7-6.1-6.1-6.1Z" class="g4_2"/>
<path d="M43.1 1138.8c-3.4 0-6.1 2.7-6.1 6.1c0 3.4 2.7 6.1 6.1 6.1c3.4 0 6.1-2.7 6.1-6.1c0-3.4-2.7-6.1-6.1-6.1Z" class="g4_2"/>
<path d="M43.1 1138.8c-3.4 0-6.1 2.7-6.1 6.1c0 3.4 2.7 6.1 6.1 6.1c3.4 0 6.1-2.7 6.1-6.1c0-3.4-2.7-6.1-6.1-6.1Z" class="g6_2"/>
</g>
<path d="M120.3 1138.7c-3.4 0-6.1 2.7-6.1 6.1c0 3.4 2.7 6.1 6.1 6.1c3.4 0 6.1-2.7 6.1-6.1c0-3.4-2.7-6.1-6.1-6.1Z" class="g4_2"/>
<g clip-path="url(#c7_2)">
<path d="M120.3 1138.7c-3.4 0-6.1 2.7-6.1 6.1c0 3.4 2.7 6.1 6.1 6.1c3.4 0 6.1-2.7 6.1-6.1c0-3.4-2.7-6.1-6.1-6.1Z" class="g4_2"/>
<path d="M120.3 1138.7c-3.4 0-6.1 2.7-6.1 6.1c0 3.4 2.7 6.1 6.1 6.1c3.4 0 6.1-2.7 6.1-6.1c0-3.4-2.7-6.1-6.1-6.1Z" class="g4_2"/>
<path d="M120.3 1138.7c-3.4 0-6.1 2.7-6.1 6.1c0 3.4 2.7 6.1 6.1 6.1c3.4 0 6.1-2.7 6.1-6.1c0-3.4-2.7-6.1-6.1-6.1Z" class="g4_2"/>
<path d="M120.3 1138.7c-3.4 0-6.1 2.7-6.1 6.1c0 3.4 2.7 6.1 6.1 6.1c3.4 0 6.1-2.7 6.1-6.1c0-3.4-2.7-6.1-6.1-6.1Z" class="g4_2"/>
<path d="M120.3 1138.7c-3.4 0-6.1 2.7-6.1 6.1c0 3.4 2.7 6.1 6.1 6.1c3.4 0 6.1-2.7 6.1-6.1c0-3.4-2.7-6.1-6.1-6.1Z" class="g6_2"/>
</g>
<path d="M617.2 1162.6c-2.5 0-4.6 2.1-4.6 4.6v27.5c0 2.6 2.1 4.6 4.6 4.6h251c2.5 0 4.6-2 4.6-4.6v-27.5c0-2.5-2.1-4.6-4.6-4.6Z" class="g4_2"/>
<path d="M500 421.8h.7v.9H500v-.9Zm-3.4 2.3v-.5h1.1v-6.7h-1.1v-.5h1.6v7.7Zm-1.8-5v2.2c0 .8 .3 .9 .6 .9c.2 0 .4 0 .6-.1l.1 .5c-.2 .1-.4 .1-.7 .1c-.8 0-1.2-.4-1.2-1.3v-2.3h-.5v-.5h.5v-1.1h.6v1.1H496v.5Zm-5.4-.5v.7c.4-.6 .9-.8 1.5-.8c1.2 0 1.5 .7 1.5 1.9v2.3h-.5v-2.2c0-.7-.2-1.5-1.1-1.5c-.6 0-1.1 .4-1.4 .9v2.8h-.5v-4.1Zm-3.8 .3c-.8 0-1.3 .6-1.4 1.4h2.7c0-.7-.6-1.4-1.3-1.4m-1.4 1.9c0 .7 .6 1.5 1.5 1.5c.5 0 1-.2 1.3-.7l.4 .2c-.4 .6-1.1 1-1.7 1c-1.3 0-2.1-1-2.1-2.2c0-1.2 .9-2.1 2-2.1c1.1 0 1.9 .9 1.9 1.9c0 .1-.1 .3-.1 .4Zm-7.6-2.2v.7c.4-.6 .9-.8 1.4-.8c.7 0 1.1 .3 1.3 .8c.5-.7 .9-.8 1.4-.8c1.1 0 1.6 .7 1.6 1.9v2.3h-.6v-2.2c0-.7-.2-1.5-1-1.5c-.5 0-1 .3-1.3 .8c0 .2 .1 .4 .1 .6v2.3h-.6v-2.2c0-.7-.2-1.5-1-1.5c-.5 0-1 .4-1.3 .9v2.8h-.5v-4.1Zm-3.8 .3c-.8 0-1.3 .6-1.4 1.4h2.7c0-.7-.6-1.4-1.3-1.4m-1.4 1.9c.1 .7 .6 1.5 1.5 1.5c.5 0 1-.2 1.3-.7l.4 .2c-.4 .6-1.1 1-1.7 1c-1.3 0-2.1-1-2.1-2.2c0-1.2 .9-2.1 2-2.1c1.1 0 1.9 .9 1.9 1.9c0 .1-.1 .3-.1 .4Zm-2.6-1.7v2.2c0 .8 .2 .9 .6 .9c.2 0 .3 0 .5-.1l.2 .5c-.2 .1-.5 .1-.7 .1c-.8 0-1.2-.4-1.2-1.3v-2.3h-.6v-.5h.6v-1.1h.6v1.1H470v.5Zm-3.9 1.5c-.6 0-1.2 .2-1.2 .9c0 .5 .3 .8 .8 .8c.5 0 .9-.3 1.3-.6v-1c-.3-.1-.6-.1-.9-.1m.9 1.6c-.4 .4-.8 .6-1.3 .6c-.8 0-1.4-.5-1.4-1.3c0-1 .9-1.4 1.8-1.4c.3 0 .6 .1 .9 .2V420c0-.6-.3-1-1-1c-.5 0-1 .2-1.4 .3l-.1-.5c.3-.2 1-.3 1.5-.3c1.2 0 1.6 .6 1.6 1.7v2.5h-.5Zm-4.8-3.1v2.2c0 .8 .2 .9 .6 .9c.1 0 .3 0 .5-.1l.1 .5c-.2 .1-.4 .1-.6 .1c-.8 0-1.2-.4-1.2-1.3v-2.3h-.6v-.5h.6v-1.1h.6v1.1h1.1v.5Zm-2.7 .1c-.2-.1-.5-.3-.8-.3c-.4 0-.8 .2-.8 .6c0 .5 .6 .7 1.1 .9c.5 .2 1 .5 1 1.2c0 .7-.8 1.2-1.5 1.2c-.4 0-.9-.2-1.2-.6l.3-.4c.3 .3 .6 .5 1 .5c.3 0 .8-.2 .8-.7c0-.5-.4-.6-.9-.8c-.5-.3-1.1-.5-1.1-1.2c0-.7 .6-1.1 1.3-1.1c.4 0 .8 .1 1.1 .4Zm-6 .9h2.1v.5h-2.1v-.5Zm-4.2-1.5l1.1 3.4l1.3-3.4h.6l-2.3 5.9l-.4-.2l.5-1.4l-1.5-4.3Zm-1.2 3.8c-.4 .2-.7 .4-1.1 .4c-1.3 0-2.2-1-2.2-2.2c0-1.2 .9-2.1 2.1-2.1c.4 0 .8 .1 1.1 .2l-.2 .5c-.3-.1-.6-.2-.9-.2c-.9 0-1.5 .7-1.5 1.6c0 .9 .6 1.6 1.5 1.6c.3 0 .7-.1 .9-.2Zm-6.2-1.8c-.6 0-1.2 .2-1.2 .9c0 .5 .4 .8 .9 .8c.4 0 .9-.3 1.3-.6v-1c-.4-.1-.7-.1-1-.1m1 1.6c-.4 .4-.9 .6-1.4 .6c-.7 0-1.4-.5-1.4-1.3c0-1 1-1.4 1.8-1.4c.3 0 .6 .1 1 .2V420c0-.6-.4-1-1.1-1c-.5 0-1 .2-1.3 .3l-.2-.5c.4-.2 1-.3 1.5-.3c1.3 0 1.6 .6 1.6 1.7v2.5h-.5Zm-7.2-3.6h.6l1.2 3.4l1.2-3.4h.6l-1.5 4.1h-.7Zm-1.8 0h.6v4.1h-.6v-4.1Zm0-1.7h.6v.7h-.6v-.7Zm-2.6 2.4c.3-.4 .7-.8 1.2-.8c.1 0 .3 0 .4 0l-.1 .6c-.1 0-.2-.1-.4-.1c-.5 0-.8 .4-1.1 .9v2.8h-.5v-4.1h.5Zm-5.4 2.3c.3 .4 .9 .6 1.3 .6c.9 0 1.6-.7 1.6-1.6c0-.9-.7-1.6-1.6-1.6c-.5 0-1 .3-1.3 .8Zm0-3v.5c.4-.4 .9-.6 1.4-.6c1.2 0 2.1 .9 2.1 2.1c0 1.2-1 2.2-2.2 2.2c-.4 0-.9-.2-1.3-.5v2.5h-.5v-6.2Zm-4 4.5l-.5-.2l2.5-6.6l.5 .1Zm-4.4-3.8c.3-.6 .8-.8 1.4-.8c1.2 0 1.6 .7 1.6 1.9v2.3h-.6v-2.2c0-.7-.2-1.5-1.1-1.5c-.6 0-1.1 .4-1.3 .9v2.8h-.6v-6.3h.6Zm-5.4 2.3c.3 .4 .8 .6 1.3 .6c.8 0 1.5-.7 1.5-1.6c0-.9-.6-1.6-1.5-1.6c-.5 0-1.1 .3-1.3 .8Zm0-3v.5c.3-.4 .8-.6 1.3-.6c1.2 0 2.1 .9 2.1 2.1c0 1.2-.9 2.2-2.1 2.2c-.5 0-1-.2-1.3-.5v2.5h-.6v-6.2Zm-3 3.2h.7v.9h-.7v-.9Zm-7.3-3.2v.7c.3-.6 .8-.8 1.3-.8c.7 0 1.1 .3 1.3 .8c.5-.7 1-.8 1.5-.8c1.1 0 1.5 .7 1.5 1.9v2.3h-.6v-2.2c0-.7-.1-1.5-1-1.5c-.4 0-.9 .3-1.2 .8c0 .2 0 .4 0 .6v2.3h-.6v-2.2c0-.7-.1-1.5-1-1.5c-.5 0-1 .4-1.2 .9v2.8H400v-4.1Zm-4.1 .4c-.9 0-1.5 .8-1.5 1.6c0 .9 .6 1.6 1.5 1.6c.9 0 1.5-.7 1.5-1.6c0-.8-.6-1.6-1.5-1.6m2.1 1.6c0 1.2-.9 2.2-2.1 2.2c-1.2 0-2-1-2-2.2c0-1.2 .8-2.1 2-2.1c1.2 0 2.1 .9 2.1 2.1m-5 1.8c-.3 .2-.7 .4-1.1 .4c-1.3 0-2.2-1-2.2-2.2c0-1.2 .9-2.1 2.2-2.1c.3 0 .7 .1 1 .2l-.2 .5c-.2-.1-.6-.2-.9-.2c-.9 0-1.5 .7-1.5 1.6c0 .9 .6 1.6 1.5 1.6c.3 0 .7-.1 .9-.2Zm-5.3-.6h.7v.9h-.7v-.9Zm-3.4-2.8c-.9 0-1.5 .8-1.5 1.6c0 .9 .6 1.6 1.5 1.6c.9 0 1.4-.7 1.4-1.6c0-.8-.5-1.6-1.4-1.6m2 1.6c0 1.2-.8 2.2-2 2.2c-1.2 0-2.1-1-2.1-2.2c0-1.2 .9-2.1 2.1-2.1c1.2 0 2 .9 2 2.1m-6.1-1c-.3-.4-.8-.6-1.3-.6c-.9 0-1.5 .7-1.5 1.6c0 .9 .6 1.6 1.5 1.6c.5 0 1.1-.3 1.3-.7Zm0 2.5c-.3 .4-.8 .7-1.3 .7c-1.2 0-2.1-1-2.1-2.2c0-1.1 .9-2.1 2.1-2.1c.5 0 1 .1 1.3 .5v-2.6h.6v6.3h-.6Zm-7.8-.5c.3 .4 .8 .6 1.3 .6c.9 0 1.5-.7 1.5-1.6c0-.9-.6-1.6-1.5-1.6c-.5 0-1.1 .3-1.3 .8Zm0-2.5c.3-.4 .8-.6 1.3-.6c1.2 0 2.1 .9 2.1 2.1c0 1.2-.9 2.2-2.1 2.2c-.5 0-1-.2-1.3-.5v.4h-.6v-6.3h.6Zm-4.1 4l-.5-.2l2.5-6.6l.5 .1Zm-3.2 0l-.4-.2l2.4-6.6l.5 .1Zm-2.1-1.3h.7v.9h-.7v-.9Zm0-3.2h.7v.8h-.7v-.8Zm-1.9 .6c-.3-.1-.6-.3-.9-.3c-.3 0-.7 .2-.7 .6c0 .5 .5 .7 1 .9c.6 .2 1 .5 1 1.2c0 .7-.7 1.2-1.4 1.2c-.5 0-.9-.2-1.3-.6l.4-.4c.2 .3 .5 .5 .9 .5c.4 0 .9-.2 .9-.7c0-.5-.5-.6-.9-.8c-.6-.3-1.1-.5-1.1-1.2c0-.7 .5-1.1 1.2-1.1c.5 0 .8 .1 1.2 .4Zm-6.8 2.4c.3 .4 .8 .6 1.3 .6c.9 0 1.5-.7 1.5-1.6c0-.9-.6-1.6-1.5-1.6c-.5 0-1.1 .3-1.3 .8Zm0-3v.5c.3-.4 .8-.6 1.3-.6c1.2 0 2.1 .9 2.1 2.1c0 1.2-.9 2.2-2.1 2.2c-.4 0-.9-.2-1.3-.5v2.5h-.6v-6.2Zm-3 .5v2.2c0 .8 .3 .9 .6 .9c.2 0 .4 0 .5-.1l.2 .5c-.2 .1-.4 .1-.7 .1c-.8 0-1.2-.4-1.2-1.3v-2.3h-.5v-.5h.5v-1.1h.6v1.1h1.2v.5Zm-2.8 0v2.2c0 .8 .2 .9 .6 .9c.2 0 .3 0 .5-.1l.2 .5c-.2 .1-.5 .1-.7 .1c-.8 0-1.2-.4-1.2-1.3v-2.3h-.6v-.5h.6v-1.1h.6v1.1h1.2v.5Zm-5.4 .2c.3-.6 .8-.8 1.5-.8c1.1 0 1.5 .7 1.5 1.9v2.3h-.6v-2.2c0-.7-.1-1.5-1-1.5c-.6 0-1.1 .4-1.4 .9v2.8h-.6v-6.3h.6Zm-3.3 4.8v-7.7H342v.5h-1.1v6.7H342v.5Z" class="g2_2"/>
<path d="M522.5 436.3v-.5h1.1v-6.7h-1.1v-.5h1.6v7.7Zm-1.8-5v2.2c0 .8 .3 .9 .7 .9c.1 0 .3 0 .5-.1l.1 .4c-.2 .1-.4 .2-.6 .2c-.8 0-1.2-.5-1.2-1.3v-2.3h-.6v-.5h.6v-1.1h.5v1.1h1.2v.5Zm-5.4-.5v.7c.4-.6 .9-.8 1.5-.8c1.2 0 1.6 .7 1.6 1.9v2.2h-.6v-2.1c0-.7-.2-1.5-1.1-1.5c-.6 0-1.1 .4-1.4 .9v2.7h-.5v-4Zm-3.8 .3c-.7 0-1.3 .6-1.4 1.4h2.7c0-.7-.6-1.4-1.3-1.4m-1.4 1.8c.1 .8 .6 1.6 1.5 1.6c.5 0 1-.2 1.3-.7l.4 .2c-.4 .6-1.1 .9-1.7 .9c-1.3 0-2.1-.9-2.1-2.1c0-1.2 .9-2.1 2-2.1c1.1 0 1.9 .8 1.9 1.9c0 .1 0 .3-.1 .3Zm-7.6-2.1v.7c.4-.6 .9-.8 1.4-.8c.7 0 1.1 .3 1.3 .8c.5-.7 .9-.8 1.5-.8c1 0 1.5 .6 1.5 1.9v2.2h-.6v-2.1c0-.8-.2-1.5-1-1.5c-.5 0-1 .3-1.3 .8c.1 .2 .1 .4 .1 .6v2.2h-.6v-2.1c0-.7-.1-1.5-1-1.5c-.5 0-1 .4-1.3 .9v2.7H502v-4Zm-3.7 .3c-.8 0-1.4 .6-1.5 1.4H500c0-.7-.6-1.4-1.2-1.4m-1.5 1.8c.1 .8 .6 1.6 1.5 1.6c.5 0 1-.2 1.3-.7l.4 .2c-.3 .6-1.1 .9-1.7 .9c-1.3 0-2.1-.9-2.1-2.1c0-1.2 .9-2.1 2.1-2.1c1 0 1.8 .8 1.8 1.9c0 .1 0 .3-.1 .3Zm-2.6-1.6v2.2c0 .8 .2 .9 .6 .9c.2 0 .3 0 .5-.1l.2 .4c-.2 .1-.4 .2-.7 .2c-.8 0-1.2-.5-1.2-1.3v-2.3h-.6v-.5h.6v-1.1h.6v1.1h1.2v.5Zm-3.9 1.5c-.6 0-1.2 .2-1.2 .9c0 .5 .4 .8 .8 .8c.5 0 1-.3 1.3-.6v-1c-.3-.1-.6-.1-.9-.1m1 1.6c-.4 .4-.9 .5-1.4 .5c-.7 0-1.4-.4-1.4-1.2c0-1 .9-1.4 1.8-1.4c.3 0 .6 .1 .9 .2v-.3c0-.7-.3-1-1-1c-.5 0-1 .1-1.3 .3l-.2-.5c.3-.2 1-.3 1.5-.3c1.2 0 1.6 .6 1.6 1.6v2.5h-.5Zm-4.9-3.1v2.2c0 .8 .2 .9 .6 .9c.1 0 .3 0 .5-.1l.1 .4c-.1 .1-.4 .2-.6 .2c-.8 0-1.2-.5-1.2-1.3v-2.3h-.6v-.5h.6v-1.1h.6v1.1h1.2v.5Zm-2.7 .1c-.2-.1-.5-.3-.8-.3c-.4 0-.8 .2-.8 .6c0 .5 .6 .6 1.1 .9c.5 .2 1 .5 1 1.2c0 .7-.8 1.1-1.5 1.1c-.4 0-.9-.1-1.2-.5l.3-.4c.3 .3 .6 .5 1 .5c.4 0 .8-.2 .8-.7c0-.5-.4-.7-.9-.8c-.5-.3-1.1-.5-1.1-1.2c0-.8 .6-1.1 1.3-1.1c.4 0 .8 .1 1.1 .3Zm-5.9 .9h2v.5h-2v-.5Zm-4.3-1.5l1.1 3.4l1.3-3.4h.6l-2.2 5.9l-.5-.2l.5-1.4l-1.4-4.3Zm-1.2 3.8c-.4 .2-.7 .3-1.1 .3c-1.3 0-2.2-.9-2.2-2.1c0-1.2 .9-2.1 2.2-2.1c.3 0 .7 .1 1 .2l-.2 .5c-.3-.1-.6-.2-.9-.2c-.9 0-1.5 .7-1.5 1.6c0 .9 .6 1.6 1.5 1.6c.3 0 .7-.1 .9-.2Zm-6.2-1.8c-.5 0-1.2 .2-1.2 .9c0 .5 .4 .8 .9 .8c.4 0 .9-.3 1.3-.6v-1c-.4-.1-.7-.1-1-.1m1 1.6c-.4 .4-.9 .5-1.3 .5c-.8 0-1.5-.4-1.5-1.2c0-1 1-1.4 1.9-1.4c.2 0 .5 .1 .9 .2v-.3c0-.7-.4-1-1.1-1c-.4 0-1 .1-1.3 .3l-.2-.5c.4-.2 1-.3 1.6-.3c1.2 0 1.6 .6 1.6 1.6v2.5h-.6Zm-7.2-3.6h.6l1.2 3.4l1.2-3.4h.6l-1.5 4h-.7Zm-1.7 0h.5v4h-.5v-4Zm0-1.8h.5v.8h-.5V429Zm-2.7 2.5c.3-.4 .7-.8 1.2-.8c.1 0 .3 0 .4 0l-.1 .6c-.1 0-.2-.1-.4-.1c-.4 0-.8 .4-1.1 .9v2.7h-.5v-4h.5Zm-5.3 2.3c.3 .4 .8 .6 1.3 .6c.8 0 1.5-.7 1.5-1.6c0-.9-.6-1.6-1.5-1.6c-.5 0-1.1 .3-1.3 .7Zm0-3v.5c.3-.4 .8-.6 1.3-.6c1.2 0 2.1 .9 2.1 2.1c0 1.1-.9 2.1-2.1 2.1c-.5 0-1-.1-1.3-.5v2.5h-.6v-6.1Zm-4.1 4.5l-.5-.2l2.5-6.6l.5 .1Zm-4.4-3.8c.3-.6 .8-.8 1.4-.8c1.2 0 1.6 .7 1.6 1.9v2.2h-.6v-2.1c0-.7-.1-1.5-1.1-1.5c-.6 0-1.1 .4-1.3 .9v2.7h-.6v-6.2h.6Zm-5.4 2.3c.3 .4 .8 .6 1.3 .6c.9 0 1.5-.7 1.5-1.6c0-.9-.6-1.6-1.5-1.6c-.5 0-1.1 .3-1.3 .7Zm0-3v.5c.3-.4 .8-.6 1.3-.6c1.2 0 2.1 .9 2.1 2.1c0 1.1-.9 2.1-2.1 2.1c-.5 0-1-.1-1.3-.5v2.5h-.6v-6.1Zm-3 3.2h.7v.8h-.7V434Zm-7.3-3.2v.7c.3-.6 .8-.8 1.3-.8c.7 0 1.1 .3 1.3 .8c.6-.7 1-.8 1.5-.8c1.1 0 1.5 .6 1.5 1.9v2.2h-.6v-2.1c0-.8-.1-1.5-.9-1.5c-.5 0-1 .3-1.3 .8c0 .2 0 .4 0 .6v2.2h-.6v-2.1c0-.7-.1-1.5-.9-1.5c-.6 0-1.1 .4-1.3 .9v2.7h-.6v-4Zm-4.1 .4c-.9 0-1.4 .7-1.4 1.6c0 .9 .5 1.6 1.4 1.6c1 0 1.5-.7 1.5-1.6c0-.9-.5-1.6-1.5-1.6m2.1 1.6c0 1.2-.8 2.1-2.1 2.1c-1.2 0-2-.9-2-2.1c0-1.2 .8-2.1 2-2.1c1.3 0 2.1 .9 2.1 2.1m-5 1.8c-.3 .2-.7 .3-1.1 .3c-1.3 0-2.2-.9-2.2-2.1c0-1.2 .9-2.1 2.2-2.1c.4 0 .7 .1 1 .2l-.2 .5c-.2-.1-.6-.2-.9-.2c-.9 0-1.5 .7-1.5 1.6c0 .9 .6 1.6 1.6 1.6c.2 0 .6-.1 .8-.2Zm-5.3-.6h.7v.8h-.7V434Zm-3.4-2.8c-.9 0-1.5 .7-1.5 1.6c0 .9 .6 1.6 1.5 1.6c.9 0 1.5-.7 1.5-1.6c0-.9-.6-1.6-1.5-1.6m2 1.6c0 1.2-.8 2.1-2 2.1c-1.2 0-2.1-.9-2.1-2.1c0-1.2 .9-2.1 2.1-2.1c1.2 0 2 .9 2 2.1m-6.1-1c-.3-.4-.8-.6-1.3-.6c-.9 0-1.5 .7-1.5 1.6c0 .9 .6 1.6 1.5 1.6c.5 0 1.1-.3 1.3-.7Zm0 2.5c-.3 .4-.8 .6-1.3 .6c-1.2 0-2.1-.9-2.1-2.1c0-1.1 .9-2.1 2.1-2.1c.5 0 1 .1 1.3 .5v-2.6h.6v6.2h-.6Zm-7.8-.5c.3 .4 .8 .6 1.3 .6c.9 0 1.5-.7 1.5-1.6c0-.9-.6-1.6-1.5-1.6c-.5 0-1.1 .3-1.3 .7Zm0-2.5c.3-.4 .8-.6 1.3-.6c1.2 0 2.1 .9 2.1 2.1c0 1.1-.9 2.1-2.1 2.1c-.5 0-1-.1-1.3-.5v.4h-.6v-6.2h.6Zm-4.1 4l-.4-.2l2.4-6.6l.5 .1Zm-3.1 0l-.5-.2l2.4-6.6l.5 .1Zm-2.2-1.3h.7v.8h-.7V434Zm0-3.2h.7v.8h-.7v-.8Zm-1.9 .6c-.3-.1-.6-.3-.9-.3c-.3 0-.7 .2-.7 .6c0 .5 .5 .6 1.1 .9c.5 .2 1 .5 1 1.2c0 .7-.8 1.1-1.5 1.1c-.4 0-.9-.1-1.3-.5l.4-.4c.2 .3 .5 .5 .9 .5c.4 0 .9-.2 .9-.7c0-.5-.4-.7-.9-.8c-.5-.3-1.1-.5-1.1-1.2c0-.8 .6-1.1 1.3-1.1c.4 0 .8 .1 1.1 .3Zm-6.8 2.4c.3 .4 .9 .6 1.3 .6c.9 0 1.6-.7 1.6-1.6c0-.9-.7-1.6-1.6-1.6c-.5 0-1 .3-1.3 .7Zm0-3v.5c.3-.4 .8-.6 1.3-.6c1.2 0 2.1 .9 2.1 2.1c0 1.1-.9 2.1-2.1 2.1c-.4 0-.9-.1-1.3-.5v2.5h-.5v-6.1Zm-3 .5v2.2c0 .8 .3 .9 .7 .9c.1 0 .3 0 .5-.1l.1 .4c-.2 .1-.4 .2-.7 .2c-.8 0-1.1-.5-1.1-1.3v-2.3h-.6v-.5h.6v-1.1h.5v1.1H379v.5Zm-2.8 0v2.2c0 .8 .2 .9 .6 .9c.2 0 .3 0 .5-.1l.2 .4c-.2 .1-.4 .2-.7 .2c-.8 0-1.2-.5-1.2-1.3v-2.3h-.6v-.5h.6v-1.1h.6v1.1h1.2v.5Zm-5.4 .2c.3-.6 .8-.8 1.5-.8c1.1 0 1.5 .7 1.5 1.9v2.2H372v-2.1c0-.7-.1-1.5-1-1.5c-.6 0-1.1 .4-1.4 .9v2.7H369v-6.2h.6Zm-3.3 4.8v-7.7h1.6v.5h-1.1v6.7h1.1v.5Z" class="g2_2"/>
<path d="M586.3 419c-.8 0-1.3 .5-1.4 1.3h2.6c0-.7-.5-1.3-1.2-1.3m-1.4 1.8c0 .7 .5 1.5 1.4 1.5c.6 0 1-.2 1.3-.7l.4 .2c-.3 .6-1 1-1.6 1c-1.4 0-2.1-1-2.1-2.2c0-1.2 .9-2.1 2-2.1c1 0 1.8 .9 1.8 1.9c0 .1 0 .3 0 .4Zm-2.2-1.2c-.3-.4-.8-.6-1.3-.6c-.9 0-1.5 .7-1.5 1.5c0 .9 .6 1.6 1.5 1.6c.5 0 1.1-.3 1.3-.7Zm.6 2.8c0 1.5-1 2.1-2.1 2.1c-.6 0-1.3-.2-1.8-.6l.2-.5c.4 .3 1 .6 1.6 .6c.8 0 1.5-.4 1.5-1.4V422c-.3 .4-.8 .7-1.3 .7c-1.2 0-2.1-1-2.1-2.1c0-1.1 .9-2.1 2.1-2.1c.5 0 .9 .1 1.3 .5v-.4h.6Zm-5.7-2.8c-.3-.4-.8-.6-1.3-.6c-.9 0-1.5 .7-1.5 1.6c0 .9 .6 1.6 1.5 1.6c.5 0 1.1-.3 1.3-.7Zm0 2.5c-.3 .4-.8 .7-1.3 .7c-1.2 0-2.1-1-2.1-2.2c0-1.1 .9-2.1 2.1-2.1c.5 0 1 .1 1.3 .5v-2.6h.6v6.3h-.6Zm-5.9-3.1c-.8 0-1.3 .5-1.4 1.3H573c-.1-.7-.6-1.3-1.3-1.3m-1.4 1.8c0 .7 .5 1.5 1.4 1.5c.6 0 1-.2 1.3-.7l.4 .2c-.3 .6-1 1-1.6 1c-1.4 0-2.1-1-2.1-2.2c0-1.2 .9-2.1 2-2.1c1.1 0 1.8 .9 1.8 1.9c0 .1 0 .3 0 .4Zm-1.7 1.9h-.5v-6.3h.5v6.3Zm-3.8-4.1l.9 3.5l.9-3.5h.6l-1.1 4.1h-.8l-.9-3.5l-1 3.5h-.8l-1-4.1h.6l.8 3.5l1-3.5ZM559 419c-.9 0-1.5 .8-1.5 1.6c0 .9 .6 1.6 1.5 1.6c.9 0 1.5-.7 1.5-1.6c0-.8-.6-1.6-1.5-1.6m2.1 1.6c0 1.2-.9 2.2-2.1 2.2c-1.2 0-2-1-2-2.2c0-1.2 .8-2.1 2-2.1c1.2 0 2.1 .9 2.1 2.1m-8.2-2v.7c.4-.6 .9-.8 1.5-.8c1.2 0 1.5 .7 1.5 1.9v2.3h-.5v-2.2c0-.7-.2-1.5-1.1-1.5c-.6 0-1.1 .4-1.4 .9v2.8h-.5v-4.1Zm-2.9 1.6l1.6 2.5h-.7l-1.3-2l-.7 .9v1.1h-.6v-6.3h.6v4.4l1.8-2.2h.7Zm-2.6 2.2c-.3 .2-.7 .4-1.1 .4c-1.3 0-2.2-1-2.2-2.2c0-1.2 .9-2.1 2.2-2.1c.4 0 .7 .1 1 .2l-.2 .5c-.2-.1-.6-.2-.9-.2c-.9 0-1.5 .7-1.5 1.6c0 .9 .6 1.6 1.5 1.6c.3 0 .7-.1 .9-.2Zm-5.8-1.8c-.6 0-1.2 .2-1.2 .9c0 .5 .4 .8 .8 .8c.5 0 1-.3 1.3-.6v-1c-.3-.1-.6-.1-.9-.1m1 1.6c-.4 .4-.9 .6-1.4 .6c-.7 0-1.4-.5-1.4-1.3c0-1 .9-1.4 1.8-1.4c.3 0 .6 .1 .9 .2V420c0-.6-.3-1-1-1c-.5 0-1 .2-1.3 .3l-.2-.5c.3-.2 1-.3 1.5-.3c1.2 0 1.6 .6 1.6 1.7v2.5h-.5Zm-8.3-2.9c.2-.4 .6-.8 1.2-.8c.1 0 .2 0 .3 0v.6c-.2 0-.3 0-.4 0c-.5 0-.8 .3-1.1 .8v2.8h-.6v-4.1h.6Zm-3.5-.3c-.8 0-1.3 .5-1.4 1.3h2.7c0-.7-.6-1.3-1.3-1.3m-1.4 1.8c0 .7 .6 1.5 1.5 1.5c.5 0 1-.2 1.3-.7l.4 .2c-.4 .6-1.1 1-1.7 1c-1.3 0-2.1-1-2.1-2.2c0-1.2 .9-2.1 2-2.1c1.1 0 1.9 .9 1.9 1.9c0 .1-.1 .3-.1 .4Zm-4.6-1.5c.3-.6 .8-.8 1.5-.8c1.1 0 1.5 .7 1.5 1.9v2.3h-.6v-2.2c0-.7-.1-1.5-1-1.5c-.6 0-1.1 .4-1.4 .9v2.8h-.6v-6.3h.6Zm-2.7-.2v2.2c0 .8 .3 .9 .7 .9c.1 0 .3 0 .5-.1l.1 .5c-.2 .1-.4 .1-.6 .1c-.8 0-1.2-.4-1.2-1.3v-2.3H521v-.5h.6v-1.1h.5v1.1h1.2v.5Zm-3 .2c.2-.4 .6-.8 1.2-.8c.1 0 .2 0 .3 0v.6c-.2 0-.3 0-.4 0c-.5 0-.8 .3-1.1 .8v2.8h-.6v-4.1h.6Zm-2.6 3.4v-.8c-.3 .6-.8 .9-1.5 .9c-1.1 0-1.5-.8-1.5-2v-2.2h.6v2.1c0 .8 .1 1.5 1 1.5c.6 0 1.1-.4 1.4-.9v-2.7h.6v4.1Zm-3.6-5.8c-.1-.1-.3-.1-.5-.1c-.1 0-.3 0-.5 .1c-.2 .2-.3 .5-.3 1v.7h1.2v.5h-1.2v3.6h-.5v-3.6h-.5v-.5h.5v-.8c0-.4 0-.8 .2-1.1c.2-.2 .5-.4 1-.4c.3 0 .6 0 .8 .1Zm-8.4-.1h.6v5.9h-.6v-5.9Zm-169.6 2.3v2.2c0 .8 .2 .9 .6 .9c.2 0 .3 0 .5-.1l.2 .5c-.2 .1-.5 .1-.7 .1c-.8 0-1.2-.4-1.2-1.3v-2.3h-.6v-.5h.6v-1.1h.6v1.1h1.2v.5Zm-3.7 1.5c-.6 0-1.2 .2-1.2 .9c0 .5 .4 .8 .9 .8c.4 0 .9-.3 1.3-.6v-1c-.4-.1-.7-.1-1-.1m1 1.6c-.4 .4-.9 .6-1.4 .6c-.7 0-1.4-.5-1.4-1.3c0-1 1-1.4 1.8-1.4c.3 0 .6 .1 1 .2V420c0-.6-.4-1-1.1-1c-.5 0-1 .2-1.3 .3l-.2-.5c.4-.2 1-.3 1.5-.3c1.3 0 1.6 .6 1.6 1.7v2.5h-.5Zm-7.6-2.6c-.3-.4-.9-.6-1.3-.6c-.9 0-1.6 .7-1.6 1.6c0 .9 .7 1.6 1.6 1.6c.5 0 1-.3 1.3-.7Zm0 2.5c-.4 .4-.9 .7-1.4 .7c-1.2 0-2.1-1-2.1-2.2c0-1.1 .9-2.1 2.1-2.1c.5 0 1 .1 1.4 .5v-2.6h.5v6.3h-.5Zm-7.5-3.5v.7c.4-.6 .9-.8 1.5-.8c1.2 0 1.5 .7 1.5 1.9v2.3h-.5v-2.2c0-.7-.2-1.5-1.1-1.5c-.6 0-1.1 .4-1.4 .9v2.8h-.5v-4.1Zm-2.6 4.1v-.8c-.3 .6-.8 .9-1.4 .9c-1.2 0-1.6-.8-1.6-2v-2.2h.6v2.1c0 .8 .1 1.5 1.1 1.5c.6 0 1.1-.4 1.3-.9v-2.7h.6v4.1Zm-6-3.7c-1 0-1.5 .8-1.5 1.6c0 .9 .5 1.6 1.5 1.6c.9 0 1.4-.7 1.4-1.6c0-.8-.5-1.6-1.4-1.6m2 1.6c0 1.2-.8 2.2-2 2.2c-1.3 0-2.1-1-2.1-2.2c0-1.2 .8-2.1 2.1-2.1c1.2 0 2 .9 2 2.1m-4.4-3.7c-.1-.1-.3-.1-.5-.1c-.1 0-.3 0-.5 .1c-.2 .2-.3 .5-.3 1v.7H306v.5h-1.2v3.6h-.5v-3.6h-.5v-.5h.5v-.8c0-.4 0-.8 .2-1.1c.2-.2 .5-.4 1-.4c.3 0 .6 0 .8 .1Zm-6 2.3c-.2-.1-.5-.2-.8-.2c-.4 0-.8 .1-.8 .5c0 .5 .6 .7 1.1 .9c.5 .2 1 .5 1 1.2c0 .7-.8 1.2-1.5 1.2c-.4 0-.9-.2-1.2-.6l.3-.4c.3 .3 .6 .5 .9 .5c.4 0 .9-.2 .9-.7c0-.5-.4-.6-.9-.8c-.5-.2-1.1-.5-1.1-1.2c0-.7 .6-1.1 1.3-1.1c.4 0 .8 .1 1.1 .4Zm-3.6 0c-.2-.1-.5-.2-.8-.2c-.4 0-.8 .1-.8 .5c0 .5 .6 .7 1.1 .9c.5 .2 1 .5 1 1.2c0 .7-.8 1.2-1.5 1.2c-.4 0-.9-.2-1.2-.6l.3-.4c.3 .3 .6 .5 1 .5c.3 0 .8-.2 .8-.7c0-.5-.4-.6-.9-.8c-.5-.2-1.1-.5-1.1-1.2c0-.7 .6-1.1 1.3-1.1c.4 0 .8 .1 1.1 .4Zm-4.8-.2c-.8 0-1.3 .5-1.4 1.3h2.6c0-.7-.5-1.3-1.2-1.3m-1.5 1.8c.1 .7 .6 1.5 1.5 1.5c.5 0 1-.2 1.3-.7l.4 .2c-.3 .6-1 1-1.7 1c-1.3 0-2-1-2-2.2c0-1.2 .9-2.1 2-2.1c1 0 1.8 .9 1.8 1.9c0 .1 0 .3 0 .4Zm-2.4-1.5c.2-.4 .6-.8 1.2-.8c.1 0 .2 0 .3 0l-.1 .6c-.1 0-.2 0-.3 0c-.5 0-.8 .3-1.1 .8v2.8h-.6v-4.1h.6Zm-2.6 .3c-.3-.4-.8-.6-1.3-.6c-.9 0-1.5 .7-1.5 1.6c0 .9 .6 1.6 1.5 1.6c.5 0 1.1-.3 1.3-.7Zm0 2.5c-.3 .4-.8 .7-1.3 .7c-1.2 0-2.1-1-2.1-2.2c0-1.1 .9-2.1 2.1-2.1c.4 0 .9 .1 1.3 .5v-2.6h.6v6.3h-.6Zm-5.1-2.5c-.3-.4-.8-.6-1.3-.6c-.9 0-1.5 .7-1.5 1.6c0 .9 .6 1.6 1.5 1.6c.5 0 1.1-.3 1.3-.7Zm0 2.5c-.3 .4-.8 .7-1.3 .7c-1.2 0-2.1-1-2.1-2.2c0-1.1 .9-2.1 2.1-2.1c.5 0 1 .1 1.3 .5v-2.6h.6v6.3h-.6Zm-5.9-1.5c-.6 0-1.2 .2-1.2 .9c0 .5 .3 .8 .8 .8c.5 0 .9-.3 1.3-.6v-1c-.3-.1-.6-.1-.9-.1m.9 1.6c-.3 .4-.8 .6-1.3 .6c-.7 0-1.4-.5-1.4-1.3c0-1 .9-1.4 1.8-1.4c.3 0 .6 .1 .9 .2V420c0-.6-.3-1-1-1c-.5 0-1 .2-1.4 .3l-.1-.5c.3-.2 1-.3 1.5-.3c1.2 0 1.6 .6 1.6 1.7v2.5h-.5Zm-6.2 .5h-.6v-6.3h.6v6.3Zm-2.6-4.1h.6v4.1h-.6v-4.1Zm0-1.7h.6v.7h-.6v-.7Zm-2.9 3.7c-.6 0-1.2 .2-1.2 .9c0 .5 .4 .8 .8 .8c.5 0 1-.3 1.4-.6v-1c-.4-.1-.7-.1-1-.1m1 1.6c-.4 .4-.9 .6-1.4 .6c-.7 0-1.4-.5-1.4-1.3c0-1 .9-1.4 1.8-1.4c.3 0 .6 .1 1 .2V420c0-.6-.4-1-1.1-1c-.5 0-1 .2-1.3 .3l-.2-.5c.4-.2 1-.3 1.5-.3c1.2 0 1.6 .6 1.6 1.7v2.5h-.5Zm-9.5-3.6v.7c.3-.6 .8-.8 1.3-.8c.7 0 1.1 .3 1.3 .8c.6-.7 1-.8 1.5-.8c1.1 0 1.5 .7 1.5 1.9v2.3h-.6v-2.2c0-.7-.1-1.5-.9-1.5c-.5 0-1 .3-1.3 .8c0 .2 0 .4 0 .6v2.3h-.6v-2.2c0-.7-.1-1.5-.9-1.5c-.6 0-1.1 .4-1.3 .9v2.8h-.6v-4.1Zm-3.5 .4c-.8 0-1.3 .5-1.4 1.3h2.7c-.1-.7-.6-1.3-1.3-1.3m-1.4 1.8c0 .7 .5 1.5 1.4 1.5c.6 0 1-.2 1.3-.7l.4 .2c-.3 .6-1 1-1.6 1c-1.4 0-2.1-1-2.1-2.2c0-1.2 .9-2.1 2-2.1c1.1 0 1.8 .9 1.8 1.9c0 .1 0 .3 0 .4Zm-5.5-1.8c-.7 0-1.3 .5-1.4 1.3h2.7c0-.7-.6-1.3-1.3-1.3m-1.4 1.8c.1 .7 .6 1.5 1.5 1.5c.5 0 1-.2 1.3-.7l.4 .2c-.4 .6-1.1 1-1.7 1c-1.3 0-2.1-1-2.1-2.2c0-1.2 .9-2.1 2-2.1c1.1 0 1.9 .9 1.9 1.9c0 .1 0 .3-.1 .4Zm-4.6-1.5c.4-.6 .9-.8 1.5-.8c1.2 0 1.5 .7 1.5 1.9v2.3H241v-2.2c0-.7-.2-1.5-1.1-1.5c-.6 0-1.1 .4-1.4 .9v2.8H238v-6.3h.5Zm-2.6-.2v2.2c0 .8 .2 .9 .6 .9c.1 0 .3 0 .5-.1l.1 .5c-.1 .1-.4 .1-.6 .1c-.8 0-1.2-.4-1.2-1.3v-2.3h-.6v-.5h.6v-1.1h.6v1.1h1.2v.5Zm-7.4 .2c.3-.6 .8-.8 1.4-.8c1.2 0 1.6 .7 1.6 1.9v2.3h-.6v-2.2c0-.7-.1-1.5-1.1-1.5c-.6 0-1.1 .4-1.3 .9v2.8h-.6v-6.3h.6Zm-2.6 .3c-.3-.4-.8-.6-1.3-.6c-.9 0-1.5 .7-1.5 1.5c0 .9 .6 1.6 1.5 1.6c.5 0 1.1-.3 1.3-.7Zm.6 2.8c0 1.5-1 2.1-2.1 2.1c-.6 0-1.2-.2-1.8-.6l.3-.5c.3 .3 .9 .6 1.5 .6c.8 0 1.5-.4 1.5-1.4V422c-.3 .4-.8 .7-1.3 .7c-1.2 0-2.1-1-2.1-2.1c0-1.1 .9-2.1 2.1-2.1c.5 0 1 .1 1.3 .5v-.4h.6Zm-5.6 .3v-.8c-.4 .6-.9 .9-1.5 .9c-1.2 0-1.5-.8-1.5-2v-2.2h.5v2.1c0 .8 .2 1.5 1.1 1.5c.6 0 1.1-.4 1.4-.9v-2.7h.5v4.1Zm-6.1-3.7c-.9 0-1.5 .8-1.5 1.6c0 .9 .6 1.6 1.5 1.6c.9 0 1.5-.7 1.5-1.6c0-.8-.6-1.6-1.5-1.6m2.1 1.6c0 1.2-.9 2.2-2.1 2.2c-1.2 0-2.1-1-2.1-2.2c0-1.2 .9-2.1 2.1-2.1c1.2 0 2.1 .9 2.1 2.1m-6.1-1.3c.3-.4 .7-.8 1.2-.8c.1 0 .3 0 .4 0l-.1 .6c-.1 0-.2 0-.4 0c-.5 0-.8 .3-1.1 .8v2.8h-.5v-4.1h.5Zm-4.9 0c.3-.6 .8-.8 1.4-.8c1.2 0 1.6 .7 1.6 1.9v2.3h-.6v-2.2c0-.7-.1-1.5-1.1-1.5c-.6 0-1.1 .4-1.3 .9v2.8h-.6v-6.3h.6Zm-2.7-.2v2.2c0 .8 .3 .9 .6 .9c.2 0 .4 0 .5-.1l.2 .5c-.2 .1-.4 .1-.7 .1c-.8 0-1.2-.4-1.2-1.3v-2.3h-.5v-.5h.5v-1.1h.6v1.1h1.2v.5Zm-5.3 .2c.3-.4 .7-.8 1.2-.8c.1 0 .3 0 .4 0l-.1 .6c-.1 0-.2 0-.4 0c-.5 0-.8 .3-1.1 .8v2.8h-.5v-4.1h.5Zm-3.4-.3c-.8 0-1.3 .5-1.4 1.3h2.6c0-.7-.5-1.3-1.2-1.3m-1.5 1.8c.1 .7 .6 1.5 1.5 1.5c.5 0 1-.2 1.3-.7l.4 .2c-.3 .6-1 1-1.7 1c-1.3 0-2-1-2-2.2c0-1.2 .9-2.1 2-2.1c1 0 1.8 .9 1.8 1.9c0 .1 0 .3 0 .4Zm-1.1 1.6c-.3 .2-.6 .4-1.1 .4c-1.2 0-2.1-1-2.1-2.2c0-1.2 .9-2.1 2.1-2.1c.4 0 .7 .1 1 .2l-.2 .5c-.2-.1-.6-.2-.8-.2c-1 0-1.5 .7-1.5 1.6c0 .9 .5 1.6 1.5 1.6c.2 0 .6-.1 .9-.2Zm-4.9-3.8h.6v4.1H187v-4.1Zm0-1.7h.6v.7H187v-.7Zm-.8-.1c-.1 0-.2 0-.4 0c-.2 0-.4 0-.5 .1c-.2 .2-.3 .5-.3 1v.7h1.2v.5H185v3.6h-.6v-3.6H184v-.5h.4v-.8c0-.4 .1-.8 .3-1.1c.2-.2 .5-.4 1-.4c.2 0 .4 0 .6 .1Zm-2.6 .1c-.2-.1-.3-.1-.5-.1c-.2 0-.4 0-.6 .1c-.2 .2-.2 .5-.2 1v.7h1.1v.5h-1.1v3.6h-.6v-3.6h-.5v-.5h.5v-.8c0-.4 .1-.8 .3-1.1c.2-.2 .5-.4 1-.4c.2 0 .5 0 .7 .1Zm-6.3 .4c-1.3 0-2.3 1-2.3 2.4c0 1.4 1 2.5 2.3 2.5c1.4 0 2.3-1.1 2.3-2.5c0-1.4-.9-2.4-2.3-2.4m0 5.5c-1.7 0-3-1.4-3-3.1c0-1.7 1.3-3 3-3c1.7 0 3 1.3 3 3c0 1.7-1.3 3.1-3 3.1m-9.5-4.2v.7c.3-.6 .8-.8 1.5-.8c1.1 0 1.5 .7 1.5 1.9v2.3h-.6v-2.2c0-.7-.1-1.5-1-1.5c-.6 0-1.1 .4-1.4 .9v2.8h-.6v-4.1Zm-3.7 .4c-.9 0-1.5 .8-1.5 1.6c0 .9 .6 1.6 1.5 1.6c.9 0 1.5-.7 1.5-1.6c0-.8-.6-1.6-1.5-1.6m2.1 1.6c0 1.2-.9 2.2-2.1 2.2c-1.2 0-2.1-1-2.1-2.2c0-1.2 .9-2.1 2.1-2.1c1.2 0 2.1 .9 2.1 2.1m-5.8-2h.6v4.1h-.6Zm0-1.7h.6v.7h-.6v-.7Zm-2.1 2.2v2.2c0 .8 .2 .9 .6 .9c.2 0 .3 0 .5-.1l.2 .5c-.2 .1-.4 .1-.7 .1c-.8 0-1.2-.4-1.2-1.3v-2.3h-.6v-.5h.6v-1.1h.6v1.1h1.2v.5Zm-1.7 3.3c-.3 .2-.7 .4-1.1 .4c-1.3 0-2.2-1-2.2-2.2c0-1.2 .9-2.1 2.2-2.1c.4 0 .7 .1 1 .2l-.2 .5c-.2-.1-.6-.2-.9-.2c-.9 0-1.5 .7-1.5 1.6c0 .9 .6 1.6 1.6 1.6c.2 0 .6-.1 .8-.2Zm-5.8-3.4c-.8 0-1.3 .5-1.4 1.3h2.7c-.1-.7-.6-1.3-1.3-1.3m-1.4 1.8c0 .7 .5 1.5 1.4 1.5c.6 0 1-.2 1.3-.7l.4 .2c-.3 .6-1 1-1.6 1c-1.4 0-2.1-1-2.1-2.2c0-1.2 .9-2.1 2-2.1c1.1 0 1.8 .9 1.8 1.9c0 .1 0 .3 0 .4Zm-2.3-1.7v2.2c0 .8 .2 .9 .6 .9c.2 0 .3 0 .5-.1l.2 .5c-.2 .1-.4 .1-.7 .1c-.8 0-1.2-.4-1.2-1.3v-2.3h-.6v-.5h.6v-1.1h.6v1.1h1.2v.5Zm-3.8-.1c-.9 0-1.5 .8-1.5 1.6c0 .9 .6 1.6 1.5 1.6c.9 0 1.5-.7 1.5-1.6c0-.8-.6-1.6-1.5-1.6m2.1 1.6c0 1.2-.9 2.2-2.1 2.2c-1.2 0-2.1-1-2.1-2.2c0-1.2 .9-2.1 2.1-2.1c1.2 0 2.1 .9 2.1 2.1m-6.1-1.3c.3-.4 .7-.8 1.2-.8c.1 0 .3 0 .4 0l-.1 .6c-.1 0-.2 0-.4 0c-.5 0-.8 .3-1.1 .8v2.8h-.5v-4.1h.5Zm-4.6 .4h.9c.9 0 1.5-.3 1.5-1.2c0-.7-.5-1.1-1.3-1.1h-1.1Zm1.1-2.9c.9 0 2 .4 2 1.7c0 1.3-1.1 1.7-2 1.7h-1.1v2.5h-.6v-5.9Zm-7.1 3.8c-.5 0-1.2 .2-1.2 .9c0 .5 .4 .8 .9 .8c.5 0 .9-.3 1.3-.6v-1c-.4-.1-.7-.1-1-.1m1 1.6c-.4 .4-.9 .6-1.3 .6c-.8 0-1.4-.5-1.4-1.3c0-1 .9-1.4 1.8-1.4c.2 0 .5 .1 .9 .2V420c0-.6-.3-1-1.1-1c-.4 0-1 .2-1.3 .3l-.2-.5c.4-.2 1-.3 1.6-.3c1.2 0 1.6 .6 1.6 1.7v2.5h-.5Zm-4.5-3.1v2.2c0 .8 .2 .9 .6 .9c.1 0 .3 0 .5-.1l.1 .5c-.1 .1-.4 .1-.6 .1c-.8 0-1.2-.4-1.2-1.3v-2.3H124v-.5h.6v-1.1h.6v1.1h1.2v.5Zm-3.6 1.5c-.6 0-1.2 .2-1.2 .9c0 .5 .4 .8 .8 .8c.5 0 1-.3 1.3-.6v-1c-.3-.1-.6-.1-.9-.1m1 1.6c-.4 .4-.9 .6-1.4 .6c-.7 0-1.4-.5-1.4-1.3c0-1 .9-1.4 1.8-1.4c.3 0 .6 .1 .9 .2V420c0-.6-.3-1-1-1c-.5 0-1 .2-1.3 .3l-.2-.5c.3-.2 1-.3 1.5-.3c1.2 0 1.6 .6 1.6 1.7v2.5h-.5Zm-7.4-.1c1.8 0 3-.6 3-2.3c0-1.6-1-2.4-2.6-2.4h-.8v4.7Zm-1-5.3h1.5c1.5 0 3.2 .8 3.2 2.9c0 2.2-1.7 3-3.2 3h-1.5Zm-4.1 2.4c-.2-.1-.5-.2-.8-.2c-.4 0-.8 .1-.8 .5c0 .5 .6 .7 1.1 .9c.5 .2 1 .5 1 1.2c0 .7-.8 1.2-1.5 1.2c-.4 0-.9-.2-1.2-.6l.3-.4c.3 .3 .6 .5 1 .5c.4 0 .8-.2 .8-.7c0-.5-.4-.6-.9-.8c-.5-.2-1.1-.5-1.1-1.2c0-.7 .6-1.1 1.3-1.1c.4 0 .8 .1 1.1 .4Zm-3-.4h-.5l.4-2h.6Zm-4.8 2.8c.3 .4 .8 .6 1.3 .6c.9 0 1.5-.7 1.5-1.6c0-.9-.6-1.6-1.5-1.6c-.5 0-1.1 .3-1.3 .8Zm0-3v.5c.3-.4 .8-.6 1.3-.6c1.2 0 2.1 .9 2.1 2.1c0 1.2-.9 2.2-2.1 2.2c-.5 0-1-.2-1.3-.5v2.5h-.6v-6.2Zm-2.6 4.1v-.8c-.3 .6-.8 .9-1.5 .9c-1.1 0-1.5-.8-1.5-2v-2.2h.6v2.1c0 .8 .1 1.5 1 1.5c.6 0 1.1-.4 1.4-.9v-2.7h.6v4.1ZM93.6 419c-.9 0-1.5 .8-1.5 1.6c0 .9 .6 1.6 1.5 1.6c.9 0 1.5-.7 1.5-1.6c0-.8-.6-1.6-1.5-1.6m2.1 1.6c0 1.2-.9 2.2-2.1 2.2c-1.2 0-2.1-1-2.1-2.2c0-1.2 .9-2.1 2.1-2.1c1.2 0 2.1 .9 2.1 2.1m-6-1.3c.2-.4 .6-.8 1.1-.8c.2 0 .3 0 .4 0l-.1 .6c-.1 0-.2 0-.4 0c-.4 0-.8 .3-1 .8v2.8h-.6v-4.1h.6Zm-4.2 .8v-.6h2.2v2.2c-.6 .6-1.4 1.1-2.4 1.1c-1.8 0-3.1-1.3-3.1-3.1c0-1.7 1.4-3 3.1-3c.9 0 1.7 .4 2.2 1l-.4 .3c-.5-.4-1.1-.7-1.8-.7c-1.4 0-2.5 1-2.5 2.4c0 1.5 1 2.5 2.5 2.5c.7 0 1.3-.2 1.7-.7v-1.4Zm-9.7-2.8c-1.3 0-2.3 1-2.3 2.4c0 1.4 1 2.5 2.3 2.5c1.3 0 2.3-1.1 2.3-2.5c0-1.4-1-2.4-2.3-2.4m0 5.5c-1.7 0-3-1.4-3-3.1c0-1.7 1.3-3 3-3c1.7 0 3 1.3 3 3c0 1.7-1.3 3.1-3 3.1m-7.7-.7c1.8 0 3-.6 3-2.3c0-1.6-.9-2.4-2.6-2.4h-.7v4.7Zm-1-5.3h1.6c1.5 0 3.1 .8 3.1 2.9c0 2.2-1.6 3-3.2 3H67.1Zm-3.9 5.3c.4 0 1 0 1.4-.2c.3-.1 .5-.4 .5-.9c0-.6-.5-1.1-1.4-1.1h-1v2.2Zm-.5-2.7h.6c1 0 1.6-.3 1.6-1c0-.4-.1-.7-.4-.8c-.3-.2-.8-.2-1.4-.2h-.4Zm.7-2.6c.6 0 1.1 .1 1.6 .4c.3 .2 .5 .6 .5 1.1c0 .6-.2 1.1-.9 1.3c.8 .2 1.2 .7 1.2 1.4c0 .8-.4 1.2-.9 1.4c-.5 .2-1 .3-1.5 .3H62v-5.9ZM56.7 419c-.8 0-1.3 .5-1.4 1.3H58c-.1-.7-.6-1.3-1.3-1.3m-1.4 1.8c0 .7 .5 1.5 1.4 1.5c.6 0 1-.2 1.3-.7l.4 .2c-.3 .6-1 1-1.6 1c-1.4 0-2.1-1-2.1-2.2c0-1.2 .9-2.1 2-2.1c1.1 0 1.8 .9 1.8 1.9c0 .1 0 .3 0 .4Zm-4.6-1.5c.3-.6 .8-.8 1.4-.8c1.2 0 1.6 .7 1.6 1.9v2.3h-.6v-2.2c0-.7-.1-1.5-1-1.5c-.6 0-1.1 .4-1.4 .9v2.8h-.6v-6.3h.6Zm-2.7-.2v2.2c0 .8 .3 .9 .7 .9c.1 0 .3 0 .5-.1l.1 .5c-.2 .1-.4 .1-.7 .1c-.8 0-1.1-.4-1.1-1.3v-2.3h-.6v-.5h.6v-1.1H48v1.1h1.2v.5Zm-3.6-2.2c-.1-.1-.3-.1-.5-.1c-.2 0-.4 0-.5 .1c-.3 .2-.3 .5-.3 1v.7h1.2v.5H43.1v3.6h-.6v-3.6h-.4v-.5h.4v-.8c0-.4 .1-.8 .3-1.1c.2-.2 .5-.4 1-.4c.3 0 .5 0 .7 .1ZM39.2 419c-.9 0-1.4 .8-1.4 1.6c0 .9 .5 1.6 1.4 1.6c.9 0 1.5-.7 1.5-1.6c0-.8-.6-1.6-1.5-1.6m2.1 1.6c0 1.2-.9 2.2-2.1 2.2c-1.2 0-2-1-2-2.2c0-1.2 .8-2.1 2-2.1c1.2 0 2.1 .9 2.1 2.1Z" class="g2_2"/>
<path d="M585.3 430.8l1.2 3.5l1.2-3.5h.6l-2.2 6l-.5-.2l.6-1.5l-1.5-4.3Zm-4.4 3c.3 .4 .8 .7 1.3 .7c.9 0 1.5-.8 1.5-1.6c0-.9-.6-1.7-1.5-1.7c-.5 0-1.1 .3-1.3 .8Zm0-3v.5c.3-.4 .8-.6 1.3-.6c1.2 0 2.1 1 2.1 2.1c0 1.2-.9 2.2-2.1 2.2c-.5 0-1-.2-1.3-.5V437h-.6v-6.2Zm-3.7 .4c-.9 0-1.5 .8-1.5 1.6c0 .9 .6 1.7 1.5 1.7c.9 0 1.5-.8 1.5-1.7c0-.8-.6-1.6-1.5-1.6m2.1 1.6c0 1.2-.9 2.2-2.1 2.2c-1.2 0-2.1-1-2.1-2.2c0-1.2 .9-2.1 2.1-2.1c1.2 0 2.1 .9 2.1 2.1m-4.7 1.8c-.3 .3-.7 .4-1.1 .4c-1.3 0-2.2-.9-2.2-2.2c0-1.2 .9-2.1 2.2-2.1c.3 0 .7 .1 1 .3l-.2 .4c-.2-.1-.6-.2-.9-.2c-.9 0-1.5 .8-1.5 1.6c0 1 .6 1.7 1.5 1.7c.3 0 .7-.2 .9-.3Zm-8-1.8c-.6 0-1.2 .3-1.2 .9c0 .5 .3 .8 .8 .8c.5 0 .9-.2 1.3-.6V433c-.3-.1-.6-.2-.9-.2m.9 1.6c-.3 .4-.8 .6-1.3 .6c-.7 0-1.4-.5-1.4-1.2c0-1 .9-1.4 1.8-1.4c.3 0 .6 0 .9 .1v-.2c0-.7-.3-1.1-1-1.1c-.5 0-1 .2-1.4 .4l-.1-.6c.3-.1 1-.3 1.5-.3c1.2 0 1.6 .6 1.6 1.7v2.5h-.5Zm-9-3.6v.7c.3-.5 .8-.8 1.5-.8c1.1 0 1.5 .7 1.5 2v2.2h-.6v-2.1c0-.8-.1-1.6-1-1.6c-.6 0-1.1 .4-1.4 1v2.7h-.6v-4.1Zm-2.6 0h.6v4.1h-.6v-4.1Zm0-1.7h.6v.8h-.6v-.8Zm-2.9 3.7c-.6 0-1.2 .3-1.2 .9c0 .5 .4 .8 .8 .8c.5 0 1-.2 1.3-.6V433c-.3-.1-.6-.2-.9-.2m1 1.6c-.4 .4-.9 .6-1.4 .6c-.7 0-1.4-.5-1.4-1.2c0-1 .9-1.4 1.8-1.4c.3 0 .6 0 .9 .1v-.2c0-.7-.3-1.1-1-1.1c-.5 0-1 .2-1.3 .4l-.2-.6c.3-.1 1-.3 1.5-.3c1.2 0 1.6 .6 1.6 1.7v2.5H554Zm-4.6-3.1v2.3c0 .7 .3 .8 .6 .8c.2 0 .4 0 .5-.1l.2 .5c-.2 .1-.4 .2-.7 .2c-.8 0-1.2-.5-1.2-1.4v-2.3h-.5v-.5h.5v-1h.6v1h1.2v.5Zm-5.1 2.5c.3 .4 .8 .7 1.3 .7c.9 0 1.5-.8 1.5-1.6c0-.9-.6-1.7-1.5-1.7c-.5 0-1.1 .3-1.3 .8Zm0-2.5c.3-.4 .8-.6 1.3-.6c1.2 0 2.1 1 2.1 2.1c0 1.2-.9 2.2-2.1 2.2c-.5 0-1-.2-1.3-.5v.4h-.6v-6.3h.6Zm-3.7-.1c-1 0-1.5 .8-1.5 1.6c0 .9 .5 1.7 1.5 1.7c.9 0 1.4-.8 1.4-1.7c0-.8-.5-1.6-1.4-1.6m2 1.6c0 1.2-.8 2.2-2 2.2c-1.3 0-2.1-1-2.1-2.2c0-1.2 .8-2.1 2.1-2.1c1.2 0 2 .9 2 2.1m-8.2-1.2c.2-.5 .6-.9 1.2-.9c.1 0 .2 0 .3 0v.6c-.2 0-.3 0-.4 0c-.5 0-.8 .3-1.1 .8v2.8h-.6v-4.1h.6Zm-3.7-.4c-.9 0-1.5 .8-1.5 1.6c0 .9 .6 1.7 1.5 1.7c.9 0 1.5-.8 1.5-1.7c0-.8-.6-1.6-1.5-1.6m2.1 1.6c0 1.2-.9 2.2-2.1 2.2c-1.2 0-2.1-1-2.1-2.2c0-1.2 .9-2.1 2.1-2.1c1.2 0 2.1 .9 2.1 2.1m-172.5-1.5v2.3c0 .7 .3 .8 .7 .8c.1 0 .3 0 .5-.1l.1 .5c-.2 .1-.4 .2-.7 .2c-.8 0-1.1-.5-1.1-1.4v-2.3h-.6v-.5h.6v-1h.5v1h1.2v.5Zm-3.6 1.5c-.5 0-1.2 .3-1.2 .9c0 .5 .4 .8 .9 .8c.5 0 .9-.2 1.3-.6V433c-.3-.1-.7-.2-1-.2m1 1.6c-.4 .4-.9 .6-1.3 .6c-.8 0-1.4-.5-1.4-1.2c0-1 .9-1.4 1.8-1.4c.3 0 .5 0 .9 .1v-.2c0-.7-.3-1.1-1-1.1c-.5 0-1.1 .2-1.4 .4l-.2-.6c.4-.1 1-.3 1.6-.3c1.2 0 1.6 .6 1.6 1.7v2.5h-.5Zm-6.7-3.1v2.3c0 .7 .2 .8 .6 .8c.1 0 .3 0 .5-.1l.1 .5c-.1 .1-.4 .2-.6 .2c-.8 0-1.2-.5-1.2-1.4v-2.3h-.6v-.5h.6v-1h.6v1h1.2v.5Zm-5.1-.5v.7c.3-.5 .8-.8 1.5-.8c1.1 0 1.5 .7 1.5 2v2.2h-.5v-2.1c0-.8-.2-1.6-1.1-1.6c-.6 0-1.1 .4-1.4 1v2.7h-.6v-4.1Zm-3.4 .4c-.8 0-1.3 .5-1.5 1.3h2.7c0-.7-.5-1.3-1.2-1.3M341 433c.1 .8 .6 1.5 1.5 1.5c.5 0 1-.2 1.3-.7l.4 .3c-.3 .6-1.1 .9-1.7 .9c-1.3 0-2.1-1-2.1-2.2c0-1.2 .9-2.1 2.1-2.1c1 0 1.8 .9 1.8 1.9c0 .1 0 .3 0 .4Zm-7.2-2.2v.7c.3-.5 .8-.8 1.4-.8c.6 0 1.1 .3 1.3 .8c.5-.6 .9-.8 1.4-.8c1.1 0 1.5 .7 1.5 2v2.2h-.5v-2.1c0-.8-.2-1.6-1-1.6c-.5 0-1 .3-1.3 .9c0 .1 0 .3 0 .5v2.3H336v-2.1c0-.8-.1-1.6-.9-1.6c-.5 0-1 .4-1.3 1v2.7h-.6v-4.1Zm-3.5 .4c-.8 0-1.3 .5-1.4 1.3h2.7c0-.7-.6-1.3-1.3-1.3m-1.4 1.8c0 .8 .6 1.5 1.5 1.5c.5 0 1-.2 1.3-.7l.4 .3c-.4 .6-1.1 .9-1.7 .9c-1.3 0-2.1-1-2.1-2.2c0-1.2 .9-2.1 2-2.1c1.1 0 1.9 .9 1.9 1.9c0 .1-.1 .3-.1 .4Zm-2.3-1.7v2.3c0 .7 .3 .8 .6 .8c.2 0 .4 0 .5-.1l.2 .5c-.2 .1-.4 .2-.7 .2c-.8 0-1.2-.5-1.2-1.4v-2.3h-.5v-.5h.5v-1h.6v1h1.2v.5Zm-3.6 1.5c-.5 0-1.2 .3-1.2 .9c0 .5 .4 .8 .9 .8c.5 0 .9-.2 1.3-.6V433c-.4-.1-.7-.2-1-.2m1 1.6c-.4 .4-.9 .6-1.3 .6c-.8 0-1.5-.5-1.5-1.2c0-1 1-1.4 1.9-1.4c.2 0 .5 0 .9 .1v-.2c0-.7-.3-1.1-1.1-1.1c-.4 0-1 .2-1.3 .4l-.2-.6c.4-.1 1-.3 1.6-.3c1.2 0 1.6 .6 1.6 1.7v2.5h-.5Zm-4.5-3.1v2.3c0 .7 .2 .8 .6 .8c.1 0 .3 0 .5-.1l.1 .5c-.2 .1-.4 .2-.6 .2c-.8 0-1.2-.5-1.2-1.4v-2.3h-.6v-.5h.6v-1h.6v1h1.2v.5Zm-3.9-1.8c-.7 0-1.2 .3-1.2 .9c0 .6 .8 .8 1.5 1.1c.8 .3 1.6 .7 1.6 1.7c0 1.3-1.2 1.8-2 1.8c-.8 0-1.5-.3-2.1-.8l.5-.5c.6 .6 1 .7 1.6 .7c.7 0 1.3-.3 1.3-1.1c0-.7-.7-1-1.4-1.3c-.8-.3-1.6-.6-1.6-1.5c0-1.1 .8-1.6 1.7-1.6c.6 0 1.2 .2 1.7 .6l-.4 .4c-.2-.2-.8-.4-1.2-.4m-7.8 1.3l1.1 3.5l1.3-3.5h.6l-2.2 6l-.5-.2l.5-1.5l-1.4-4.3Zm-1 3.8c-.3 .3-.7 .4-1.1 .4c-1.3 0-2.2-.9-2.2-2.2c0-1.2 .9-2.1 2.2-2.1c.3 0 .7 .1 1 .3l-.2 .4c-.3-.1-.6-.2-.9-.2c-.9 0-1.5 .8-1.5 1.6c0 1 .6 1.7 1.5 1.7c.3 0 .7-.2 .9-.3Zm-5.8-1.8c-.6 0-1.2 .3-1.2 .9c0 .5 .3 .8 .8 .8c.5 0 .9-.2 1.3-.6V433c-.3-.1-.6-.2-.9-.2m.9 1.6c-.3 .4-.8 .6-1.3 .6c-.8 0-1.4-.5-1.4-1.2c0-1 .9-1.4 1.8-1.4c.3 0 .6 0 .9 .1v-.2c0-.7-.3-1.1-1-1.1c-.5 0-1 .2-1.4 .4l-.1-.6c.3-.1 1-.3 1.5-.3c1.2 0 1.6 .6 1.6 1.7v2.5H302Zm-6.8-3.6h.6l1.2 3.5l1.2-3.5h.6l-1.5 4.1h-.7Zm-1.4 0h.5v4.1h-.5v-4.1Zm0-1.7h.5v.8h-.5v-.8Zm-2.3 2.5c.2-.5 .6-.9 1.2-.9c.1 0 .2 0 .3 0v.6c-.2 0-.3 0-.4 0c-.5 0-.8 .3-1.1 .8v2.8h-.6v-4.1h.6Zm-4.6 .3h.8c.9 0 1.6-.3 1.6-1.2c0-.7-.6-1.1-1.4-1.1h-1Zm1.1-2.9c.9 0 2 .5 2 1.7c0 1.3-1.1 1.8-2 1.8h-1.1v2.4h-.6V429Zm-7 3.8c-.5 0-1.2 .3-1.2 .9c0 .5 .4 .8 .9 .8c.5 0 .9-.2 1.3-.6V433c-.4-.1-.7-.2-1-.2m1 1.6c-.4 .4-.9 .6-1.3 .6c-.8 0-1.4-.5-1.4-1.2c0-1 .9-1.4 1.8-1.4c.2 0 .5 0 .9 .1v-.2c0-.7-.3-1.1-1.1-1.1c-.4 0-1 .2-1.3 .4l-.2-.6c.4-.1 1-.3 1.6-.3c1.2 0 1.6 .6 1.6 1.7v2.5H282Zm-4.5-3.1v2.3c0 .7 .2 .8 .6 .8c.1 0 .3 0 .5-.1l.1 .5c-.1 .1-.4 .2-.6 .2c-.8 0-1.2-.5-1.2-1.4v-2.3h-.6v-.5h.6v-1h.6v1h1.2v.5Zm-3.6 1.5c-.6 0-1.2 .3-1.2 .9c0 .5 .4 .8 .8 .8c.5 0 1-.2 1.3-.6V433c-.3-.1-.6-.2-.9-.2m1 1.6c-.4 .4-.9 .6-1.4 .6c-.7 0-1.4-.5-1.4-1.2c0-1 .9-1.4 1.8-1.4c.3 0 .6 0 .9 .1v-.2c0-.7-.3-1.1-1-1.1c-.5 0-1 .2-1.3 .4l-.2-.6c.3-.1 1-.3 1.5-.3c1.2 0 1.6 .6 1.6 1.7v2.5h-.5Zm-7.4-.1c1.8 0 3-.5 3-2.3c0-1.6-1-2.4-2.6-2.4H267v4.7Zm-1-5.3h1.5c1.5 0 3.2 .8 3.2 2.9c0 2.2-1.7 3-3.2 3h-1.5Zm-4 2.5c-.2-.2-.5-.3-.8-.3c-.3 0-.7 .1-.7 .5c0 .5 .5 .7 1 .9c.5 .2 1 .5 1 1.2c0 .7-.7 1.2-1.4 1.2c-.5 0-.9-.2-1.3-.6l.4-.3c.2 .2 .5 .4 .9 .4c.4 0 .9-.2 .9-.7c0-.5-.5-.6-.9-.8c-.6-.2-1.2-.5-1.2-1.2c0-.7 .6-1.1 1.3-1.1c.4 0 .8 .1 1.1 .4Zm-3-.5h-.5l.4-2h.6Zm-4.8 2.8c.3 .4 .9 .7 1.3 .7c.9 0 1.6-.8 1.6-1.6c0-.9-.7-1.7-1.6-1.7c-.5 0-1 .3-1.3 .8Zm0-3v.5c.3-.4 .8-.6 1.3-.6c1.2 0 2.1 1 2.1 2.1c0 1.2-.9 2.2-2.1 2.2c-.4 0-.9-.2-1.3-.5V437h-.5v-6.2Zm-2.6 4.1v-.7c-.3 .5-.8 .8-1.4 .8c-1.2 0-1.6-.8-1.6-2v-2.2h.6v2.1c0 .8 .1 1.6 1.1 1.6c.6 0 1.1-.5 1.3-1v-2.7h.6v4.1Zm-6-3.7c-1 0-1.5 .8-1.5 1.6c0 .9 .5 1.7 1.5 1.7c.9 0 1.4-.8 1.4-1.7c0-.8-.5-1.6-1.4-1.6m2 1.6c0 1.2-.8 2.2-2 2.2c-1.3 0-2.1-1-2.1-2.2c0-1.2 .8-2.1 2.1-2.1c1.2 0 2 .9 2 2.1m-6-1.2c.2-.5 .6-.9 1.2-.9c.1 0 .2 0 .3 0v.6c-.2 0-.3 0-.4 0c-.5 0-.8 .3-1.1 .8v2.8h-.6v-4.1h.6Zm-4.2 .7v-.6H240v2.2c-.5 .7-1.4 1.1-2.3 1.1c-1.8 0-3.2-1.2-3.2-3.1c0-1.7 1.4-3 3.2-3c.8 0 1.6 .4 2.2 1l-.5 .3c-.4-.4-1.1-.7-1.7-.7c-1.5 0-2.5 1-2.5 2.4c0 1.5 1 2.5 2.5 2.5c.7 0 1.2-.2 1.7-.6v-1.5Zm-9.5-2.8c-1.4 0-2.3 1.1-2.3 2.4c0 1.4 .9 2.5 2.3 2.5c1.3 0 2.3-1.1 2.3-2.5c0-1.3-1-2.4-2.3-2.4m0 5.5c-1.7 0-3-1.4-3-3.1c0-1.6 1.3-3 3-3c1.7 0 3 1.4 3 3c0 1.7-1.3 3.1-3 3.1m-7.7-.7c1.8 0 3-.5 3-2.3c0-1.6-1-2.4-2.6-2.4h-.8v4.7Zm-1-5.3h1.6c1.4 0 3.1 .8 3.1 2.9c0 2.2-1.7 3-3.2 3h-1.5Zm-3.9 5.3c.4 0 1 0 1.3-.2c.4-.1 .6-.4 .6-.9c0-.6-.5-1-1.4-1h-1v2.1Zm-.5-2.7h.6c1 0 1.6-.3 1.6-1c0-.4-.1-.6-.4-.8c-.3-.2-.8-.2-1.4-.2h-.4Zm.7-2.6c.5 0 1.1 .1 1.5 .4c.4 .2 .6 .6 .6 1.2c0 .5-.2 1-.9 1.2c.8 .2 1.1 .7 1.1 1.4c0 .8-.3 1.2-.9 1.4c-.4 .2-.9 .3-1.4 .3h-1.4V429Zm-6.6 2.2c-.8 0-1.3 .5-1.4 1.3h2.7c0-.7-.6-1.3-1.3-1.3m-1.4 1.8c.1 .8 .6 1.5 1.5 1.5c.5 0 1-.2 1.3-.7l.4 .3c-.4 .6-1.1 .9-1.7 .9c-1.3 0-2.1-1-2.1-2.2c0-1.2 .9-2.1 2-2.1c1.1 0 1.9 .9 1.9 1.9c0 .1-.1 .3-.1 .4Zm-4.6-1.5c.3-.5 .8-.8 1.5-.8c1.1 0 1.5 .7 1.5 2v2.2h-.6v-2.1c0-.8-.1-1.6-1-1.6c-.6 0-1.1 .4-1.4 1v2.7h-.6v-6.3h.6Zm-2.6-.2v2.3c0 .7 .2 .8 .6 .8c.1 0 .3 0 .5-.1l.1 .5c-.2 .1-.4 .2-.6 .2c-.8 0-1.2-.5-1.2-1.4v-2.3h-.6v-.5h.6v-1h.6v1h1.1v.5Zm-6.2-.5l.9 3.5l1-3.5h.5l-1.1 4.1h-.7l-1-3.5l-1 3.5h-.7l-1.1-4.1h.6l.9 3.5l1-3.5Zm-5.5 .4c-.8 0-1.3 .5-1.4 1.3h2.7c-.1-.7-.6-1.3-1.3-1.3m-1.4 1.8c0 .8 .5 1.5 1.4 1.5c.6 0 1-.2 1.3-.7l.4 .3c-.3 .6-1 .9-1.6 .9c-1.4 0-2.1-1-2.1-2.2c0-1.2 .9-2.1 2-2.1c1.1 0 1.8 .9 1.8 1.9c0 .1 0 .3 0 .4Zm-2.2-2.2h.5v4.1h-.5v-4.1Zm0-1.7h.5v.8h-.5v-.8Zm-4.5 1.7h.7l1.1 3.5l1.3-3.5h.6l-1.6 4.1h-.7Zm-3.6 1.1c-.3-.4-.8-.7-1.3-.7c-.9 0-1.5 .7-1.5 1.6c0 .9 .6 1.7 1.5 1.7c.5 0 1.1-.3 1.3-.8Zm0 2.5c-.3 .4-.8 .6-1.3 .6c-1.2 0-2.1-1-2.1-2.1c0-1.2 .9-2.2 2.1-2.2c.5 0 1 .2 1.3 .5v-2.6h.6v6.3h-.6Zm-7.4-3.6v.7c.3-.5 .8-.8 1.5-.8c1.1 0 1.5 .7 1.5 2v2.2h-.6v-2.1c0-.8-.1-1.6-1-1.6c-.6 0-1.1 .4-1.4 1v2.7h-.6v-4.1Zm-3.5 2c-.6 0-1.2 .3-1.2 .9c0 .5 .4 .8 .9 .8c.4 0 .9-.2 1.3-.6V433c-.4-.1-.7-.2-1-.2m1 1.6c-.4 .4-.9 .6-1.4 .6c-.7 0-1.4-.5-1.4-1.2c0-1 1-1.4 1.8-1.4c.3 0 .6 0 1 .1v-.2c0-.7-.4-1.1-1.1-1.1c-.5 0-1 .2-1.3 .4l-.2-.6c.4-.1 1-.3 1.5-.3c1.3 0 1.6 .6 1.6 1.7v2.5h-.5Zm-6.4-2.9c-.2-.2-.5-.3-.8-.3c-.3 0-.7 .1-.7 .5c0 .5 .5 .7 1 .9c.5 .2 1 .5 1 1.2c0 .7-.7 1.2-1.4 1.2c-.5 0-.9-.2-1.3-.6l.4-.3c.2 .2 .5 .4 .9 .4c.4 0 .9-.2 .9-.7c0-.5-.5-.6-.9-.8c-.6-.2-1.2-.5-1.2-1.2c0-.7 .6-1.1 1.3-1.1c.5 0 .8 .1 1.2 .4Zm-3.6 0c-.2-.2-.5-.3-.8-.3c-.3 0-.7 .1-.7 .5c0 .5 .5 .7 1 .9c.5 .2 1 .5 1 1.2c0 .7-.7 1.2-1.4 1.2c-.5 0-.9-.2-1.3-.6l.4-.3c.2 .2 .5 .4 .9 .4c.4 0 .9-.2 .9-.7c0-.5-.5-.6-.9-.8c-.6-.2-1.1-.5-1.1-1.2c0-.7 .5-1.1 1.2-1.1c.5 0 .8 .1 1.2 .4Zm-4.8-.3c-.8 0-1.3 .5-1.4 1.3h2.7c0-.7-.6-1.3-1.3-1.3m-1.4 1.8c.1 .8 .6 1.5 1.5 1.5c.5 0 1-.2 1.3-.7l.4 .3c-.4 .6-1.1 .9-1.7 .9c-1.3 0-2.1-1-2.1-2.2c0-1.2 .9-2.1 2-2.1c1.1 0 1.9 .9 1.9 1.9c0 .1-.1 .3-.1 .4Zm-1.1 1.6c-.3 .3-.7 .4-1.1 .4c-1.3 0-2.2-.9-2.2-2.2c0-1.2 .9-2.1 2.2-2.1c.3 0 .7 .1 1 .3l-.2 .4c-.2-.1-.6-.2-.9-.2c-.9 0-1.5 .8-1.5 1.6c0 1 .6 1.7 1.5 1.7c.3 0 .7-.2 .9-.3Zm-3.8 0c-.3 .3-.7 .4-1.1 .4c-1.3 0-2.2-.9-2.2-2.2c0-1.2 .9-2.1 2.2-2.1c.3 0 .7 .1 1 .3l-.2 .4c-.2-.1-.6-.2-.9-.2c-.9 0-1.5 .8-1.5 1.6c0 1 .6 1.7 1.5 1.7c.3 0 .7-.2 .9-.3Zm-5.8-1.8c-.6 0-1.2 .3-1.2 .9c0 .5 .3 .8 .8 .8c.5 0 .9-.2 1.3-.6V433c-.3-.1-.6-.2-.9-.2m1 1.6c-.4 .4-.9 .6-1.4 .6c-.7 0-1.4-.5-1.4-1.2c0-1 .9-1.4 1.8-1.4c.3 0 .6 0 .9 .1v-.2c0-.7-.3-1.1-1-1.1c-.5 0-1 .2-1.3 .4l-.2-.6c.3-.1 1-.3 1.5-.3c1.2 0 1.6 .6 1.6 1.7v2.5h-.5Zm-8.5-3.6l1.2 3.5l1.2-3.5h.6l-2.2 6l-.5-.2l.5-1.5l-1.4-4.3Zm-2.9 2c-.5 0-1.2 .3-1.2 .9c0 .5 .4 .8 .9 .8c.4 0 .9-.2 1.3-.6V433c-.4-.1-.7-.2-1-.2m1 1.6c-.4 .4-.9 .6-1.3 .6c-.8 0-1.5-.5-1.5-1.2c0-1 1-1.4 1.9-1.4c.2 0 .5 0 .9 .1v-.2c0-.7-.4-1.1-1.1-1.1c-.4 0-1 .2-1.3 .4l-.2-.6c.4-.1 1-.3 1.6-.3c1.2 0 1.6 .6 1.6 1.7v2.5h-.6Zm-9.5-3.6v.7c.3-.5 .8-.8 1.4-.8c.7 0 1.1 .3 1.3 .8c.5-.6 .9-.8 1.4-.8c1.1 0 1.5 .7 1.5 2v2.2h-.5v-2.1c0-.8-.2-1.6-1-1.6c-.5 0-1 .3-1.3 .9c0 .1 0 .3 0 .5v2.3h-.5v-2.1c0-.8-.2-1.6-1-1.6c-.5 0-1 .4-1.3 1v2.7H121v-4.1Zm-4.9-1.8h.6v5.9h-.6V429Zm-4.4 2.3v2.3c0 .7 .2 .8 .6 .8c.2 0 .3 0 .5-.1l.1 .5c-.1 .1-.4 .2-.6 .2c-.8 0-1.2-.5-1.2-1.4v-2.3h-.6v-.5h.6v-1h.6v1h1.2v.5Zm-3.6 1.5c-.6 0-1.2 .3-1.2 .9c0 .5 .4 .8 .8 .8c.5 0 1-.2 1.4-.6V433c-.4-.1-.7-.2-1-.2m1 1.6c-.4 .4-.9 .6-1.4 .6c-.7 0-1.4-.5-1.4-1.2c0-1 1-1.4 1.8-1.4c.3 0 .6 0 1 .1v-.2c0-.7-.4-1.1-1.1-1.1c-.5 0-1 .2-1.3 .4l-.2-.6c.4-.1 1-.3 1.5-.3c1.2 0 1.6 .6 1.6 1.7v2.5h-.5Zm-6.9-2.9c.3-.5 .8-.8 1.5-.8c1.1 0 1.5 .7 1.5 2v2.2h-.5v-2.1c0-.8-.2-1.6-1.1-1.6c-.6 0-1.1 .4-1.4 1v2.7h-.6v-6.3h.6Zm-2.6-.2v2.3c0 .7 .2 .8 .6 .8c.1 0 .3 0 .5-.1l.1 .5c-.2 .1-.4 .2-.6 .2c-.8 0-1.2-.5-1.2-1.4v-2.3H99v-.5h.6v-1h.6v1h1.1v.5Zm-4.9 .6c-.3-.4-.9-.7-1.3-.7c-.9 0-1.6 .7-1.6 1.6c0 .9 .7 1.7 1.6 1.7c.5 0 1-.3 1.3-.8Zm0 2.5c-.3 .4-.8 .6-1.3 .6c-1.2 0-2.1-1-2.1-2.1c0-1.2 .9-2.2 2.1-2.2c.4 0 .9 .2 1.3 .5v-2.6h.5v6.3h-.5Zm-7.5-3.6v.7c.4-.5 .9-.8 1.5-.8c1.2 0 1.5 .7 1.5 2v2.2h-.5v-2.1c0-.8-.2-1.6-1.1-1.6c-.6 0-1.1 .4-1.4 1v2.7h-.5v-4.1Zm-3.4 2c-.6 0-1.3 .3-1.3 .9c0 .5 .4 .8 .9 .8c.5 0 .9-.2 1.3-.6V433c-.3-.1-.6-.2-.9-.2m.9 1.6c-.4 .4-.8 .6-1.3 .6c-.8 0-1.4-.5-1.4-1.2c0-1 .9-1.4 1.8-1.4c.3 0 .5 0 .9 .1v-.2c0-.7-.3-1.1-1-1.1c-.5 0-1.1 .2-1.4 .4l-.2-.6c.4-.1 1.1-.3 1.6-.3c1.2 0 1.6 .6 1.6 1.7v2.5h-.5Zm-4.5-3.1v2.3c0 .7 .2 .8 .6 .8c.2 0 .3 0 .5-.1l.2 .5c-.2 .1-.5 .2-.7 .2c-.8 0-1.2-.5-1.2-1.4v-2.3h-.6v-.5h.6v-1h.6v1H82v.5Zm-2.4 .2c-.2-.2-.5-.3-.8-.3c-.3 0-.7 .1-.7 .5c0 .5 .5 .7 1 .9c.5 .2 1 .5 1 1.2c0 .7-.7 1.2-1.4 1.2c-.5 0-.9-.2-1.3-.6l.4-.3c.2 .2 .5 .4 .9 .4c.4 0 .9-.2 .9-.7c0-.5-.5-.6-.9-.8c-.6-.2-1.2-.5-1.2-1.2c0-.7 .6-1.1 1.3-1.1c.5 0 .8 .1 1.1 .4Zm-4.1 .1c.2-.5 .6-.9 1.1-.9c.2 0 .3 0 .4 0l-.1 .6c-.1 0-.2 0-.4 0c-.4 0-.7 .3-1 .8v2.8h-.6v-4.1h.6Zm-3.5-.4c-.8 0-1.3 .5-1.4 1.3h2.7c-.1-.7-.6-1.3-1.3-1.3M69.4 433c0 .8 .5 1.5 1.4 1.5c.6 0 1-.2 1.3-.7l.4 .3c-.3 .6-1 .9-1.6 .9c-1.4 0-2.1-1-2.1-2.2c0-1.2 .9-2.1 2-2.1c1.1 0 1.8 .9 1.8 1.9c0 .1 0 .3 0 .4Zm-2.3-1.1c-.3-.4-.8-.7-1.3-.7c-.8 0-1.5 .7-1.5 1.6c0 .9 .6 1.7 1.5 1.7c.5 0 1.1-.3 1.3-.8Zm0 2.5c-.3 .4-.8 .6-1.3 .6c-1.2 0-2.1-1-2.1-2.1c0-1.2 .9-2.2 2.1-2.2c.5 0 1 .2 1.3 .5v-2.6h.6v6.3h-.6Zm-7.4-3.6v.7c.3-.5 .8-.8 1.5-.8c1.1 0 1.5 .7 1.5 2v2.2h-.6v-2.1c0-.8-.1-1.6-1-1.6c-.6 0-1.1 .4-1.4 1v2.7h-.6v-4.1Zm-2.6 4.1v-.7c-.3 .5-.8 .8-1.4 .8c-1.2 0-1.6-.8-1.6-2v-2.2h.6v2.1c0 .8 .1 1.6 1 1.6c.7 0 1.2-.5 1.4-1v-2.7h.6v4.1Zm-7.1-3c-.3-.4-.9-.7-1.3-.7c-.9 0-1.6 .7-1.6 1.6c0 .9 .7 1.7 1.6 1.7c.5 0 1-.3 1.3-.8Zm0 2.5c-.4 .4-.9 .6-1.4 .6c-1.2 0-2.1-1-2.1-2.1c0-1.2 .9-2.2 2.1-2.2c.5 0 1 .2 1.4 .5v-2.6h.5v6.3H50Zm-7.5-3.6v.7c.3-.5 .9-.8 1.5-.8c1.1 0 1.5 .7 1.5 2v2.2H45v-2.1c0-.8-.2-1.6-1.1-1.6c-.6 0-1.1 .4-1.4 1v2.7h-.6v-4.1Zm-3.5 2c-.5 0-1.2 .3-1.2 .9c0 .5 .4 .8 .9 .8c.4 0 .9-.2 1.3-.6V433c-.4-.1-.7-.2-1-.2m1 1.6c-.4 .4-.9 .6-1.3 .6c-.8 0-1.5-.5-1.5-1.2c0-1 1-1.4 1.9-1.4c.2 0 .5 0 .9 .1v-.2c0-.7-.3-1.1-1.1-1.1c-.4 0-1 .2-1.3 .4l-.2-.6c.4-.1 1-.3 1.6-.3c1.2 0 1.6 .6 1.6 1.7v2.5H40Z" class="g2_2"/>
<path d="M585.8 519.6c-.8 0-1.3 .6-1.4 1.3h2.7c-.1-.7-.6-1.3-1.3-1.3m-1.4 1.8c0 .8 .6 1.5 1.4 1.5c.6 0 1-.1 1.3-.7l.4 .3c-.3 .6-1 .9-1.6 .9c-1.4 0-2.1-1-2.1-2.2c0-1.2 .9-2.1 2-2.1c1.1 0 1.8 .9 1.8 1.9c0 .2 0 .3 0 .4Zm-1.1 1.7c-.3 .2-.7 .3-1.1 .3c-1.3 0-2.2-.9-2.2-2.1c0-1.2 .9-2.2 2.2-2.2c.3 0 .7 .1 1 .3l-.2 .5c-.3-.2-.6-.3-.9-.3c-.9 0-1.5 .8-1.5 1.7c0 .9 .6 1.6 1.5 1.6c.3 0 .7-.1 .9-.3Zm-7.3-3.9v.7c.3-.5 .8-.8 1.4-.8c1.2 0 1.6 .8 1.6 2v2.2h-.6v-2.1c0-.8-.1-1.6-1-1.6c-.6 0-1.1 .5-1.4 1v2.7h-.6v-4.1Zm-3.5 2.1c-.6 0-1.2 .2-1.2 .8c0 .5 .4 .8 .8 .8c.5 0 1-.2 1.4-.6v-.9c-.4-.1-.7-.1-1-.1m1 1.5c-.4 .5-.9 .6-1.4 .6c-.7 0-1.4-.4-1.4-1.2c0-1 1-1.4 1.8-1.4c.3 0 .6 0 1 .1v-.2c0-.7-.4-1.1-1.1-1.1c-.5 0-1 .2-1.3 .4l-.2-.5c.4-.2 1-.4 1.5-.4c1.2 0 1.6 .6 1.6 1.7v2.5h-.5Zm-4.5 .5v-.7c-.3 .5-.8 .8-1.5 .8c-1.1 0-1.5-.7-1.5-2v-2.2h.6v2.1c0 .8 .1 1.6 1 1.6c.6 0 1.1-.4 1.4-1v-2.7h.6v4.1Zm-4.6-3.4c-.3-.2-.6-.3-.9-.3c-.3 0-.7 .2-.7 .6c0 .4 .5 .6 1.1 .8c.5 .2 1 .5 1 1.2c0 .8-.8 1.2-1.5 1.2c-.4 0-.9-.2-1.3-.5l.4-.4c.2 .3 .5 .4 .9 .4c.4 0 .9-.2 .9-.7c0-.4-.4-.6-.9-.8c-.5-.2-1.1-.4-1.1-1.2c0-.7 .6-1.1 1.2-1.1c.5 0 .9 .1 1.2 .4Zm-3.6 0c-.3-.2-.6-.3-.9-.3c-.3 0-.7 .2-.7 .6c0 .4 .5 .6 1.1 .8c.5 .2 1 .5 1 1.2c0 .8-.8 1.2-1.5 1.2c-.4 0-.9-.2-1.2-.5l.3-.4c.2 .3 .6 .4 .9 .4c.4 0 .9-.2 .9-.7c0-.4-.4-.6-.9-.8c-.5-.2-1.1-.4-1.1-1.2c0-.7 .6-1.1 1.3-1.1c.4 0 .8 .1 1.1 .4Zm-4-.7h.6v4.1h-.6v-4.1Zm0-1.7h.6v.8h-.6v-.8Zm-4.6 2.1c-.8 0-1.3 .6-1.4 1.3h2.6c0-.7-.5-1.3-1.2-1.3m-1.5 1.8c.1 .8 .6 1.5 1.5 1.5c.5 0 1-.1 1.3-.7l.4 .3c-.3 .6-1 .9-1.7 .9c-1.3 0-2-1-2-2.2c0-1.2 .9-2.1 2-2.1c1 0 1.8 .9 1.8 1.9c0 .2 0 .3 0 .4Zm-4.6-1.5c.4-.5 .9-.8 1.5-.8c1.2 0 1.6 .8 1.6 2v2.2h-.6v-2.1c0-.8-.2-1.6-1.1-1.6c-.6 0-1.1 .5-1.4 1v2.7h-.5V517h.5Zm-2.6-.2V522c0 .7 .2 .9 .6 .9c.2 0 .3-.1 .5-.1l.2 .4c-.2 .1-.4 .2-.7 .2c-.8 0-1.2-.5-1.2-1.3v-2.4h-.6v-.5h.6v-1h.6v1h1.2v.5Zm-4.5 0V522c0 .7 .2 .9 .6 .9c.1 0 .3-.1 .5-.1l.1 .4c-.1 .1-.4 .2-.6 .2c-.8 0-1.2-.5-1.2-1.3v-2.4h-.6v-.5h.6v-1h.6v1h1.2v.5Zm-3.6 1.6c-.6 0-1.2 .2-1.2 .8c0 .5 .4 .8 .8 .8c.5 0 1-.2 1.3-.6v-.9c-.3-.1-.6-.1-.9-.1m1 1.5c-.4 .5-.9 .6-1.4 .6c-.7 0-1.4-.4-1.4-1.2c0-1 .9-1.4 1.8-1.4c.3 0 .6 0 .9 .1v-.2c0-.7-.3-1.1-1-1.1c-.5 0-1 .2-1.3 .4l-.2-.5c.4-.2 1-.4 1.5-.4c1.2 0 1.6 .6 1.6 1.7v2.5h-.5Zm-6.9-2.9c.3-.5 .8-.8 1.5-.8c1.1 0 1.5 .8 1.5 2v2.2h-.6v-2.1c0-.8-.1-1.6-1-1.6c-.6 0-1.1 .5-1.4 1v2.7h-.6V517h.6Zm-2.7-.2V522c0 .7 .3 .9 .7 .9c.1 0 .3-.1 .5-.1l.1 .4c-.2 .1-.4 .2-.6 .2c-.8 0-1.2-.5-1.2-1.3v-2.4h-.6v-.5h.6v-1h.5v1H528v.5Zm-4.4 .6c-.3-.4-.8-.7-1.3-.7c-.9 0-1.5 .8-1.5 1.6c0 .9 .6 1.7 1.5 1.7c.5 0 1.1-.3 1.3-.8Zm0 2.5c-.3 .4-.8 .6-1.3 .6c-1.2 0-2.1-1-2.1-2.1c0-1.2 .9-2.2 2.1-2.2c.5 0 .9 .2 1.3 .5V517h.6v6.3h-.6Zm-7.4-3.6v.7c.3-.5 .8-.8 1.4-.8c1.2 0 1.6 .8 1.6 2v2.2h-.6v-2.1c0-.8-.1-1.6-1.1-1.6c-.6 0-1.1 .5-1.3 1v2.7h-.6v-4.1Zm-3.5 2.1c-.6 0-1.2 .2-1.2 .8c0 .5 .3 .8 .8 .8c.5 0 .9-.2 1.3-.6v-.9c-.3-.1-.6-.1-.9-.1m1 1.5c-.4 .5-.9 .6-1.4 .6c-.7 0-1.4-.4-1.4-1.2c0-1 .9-1.4 1.8-1.4c.3 0 .6 0 .9 .1v-.2c0-.7-.3-1.1-1-1.1c-.5 0-1 .2-1.3 .4l-.2-.5c.3-.2 1-.4 1.5-.4c1.2 0 1.6 .6 1.6 1.7v2.5h-.5Zm-4.6-3.1V522c0 .7 .3 .9 .6 .9c.2 0 .3-.1 .5-.1l.2 .4c-.2 .1-.4 .2-.7 .2c-.8 0-1.2-.5-1.2-1.3v-2.4h-.5v-.5h.5v-1h.6v1h1.2v.5Zm-2.3 .2c-.3-.2-.6-.3-.9-.3c-.3 0-.7 .2-.7 .6c0 .4 .5 .6 1.1 .8c.5 .2 1 .5 1 1.2c0 .8-.8 1.2-1.5 1.2c-.4 0-.9-.2-1.3-.5l.4-.4c.2 .3 .5 .4 .9 .4c.4 0 .9-.2 .9-.7c0-.4-.4-.6-.9-.8c-.5-.2-1.1-.4-1.1-1.2c0-.7 .6-1.1 1.2-1.1c.5 0 .9 .1 1.2 .4Zm-4.2 .1c.2-.5 .6-.9 1.2-.9c.1 0 .2 0 .3 0l-.1 .7c-.1-.1-.2-.1-.3-.1c-.5 0-.8 .4-1.1 .9v2.7h-.6v-4.1h.6Zm-3.5-.4c-.8 0-1.3 .6-1.4 1.3h2.7c-.1-.7-.6-1.3-1.3-1.3m-1.4 1.8c0 .8 .6 1.5 1.4 1.5c.6 0 1-.1 1.3-.7l.4 .3c-.3 .6-1 .9-1.6 .9c-1.4 0-2.1-1-2.1-2.2c0-1.2 .9-2.1 2-2.1c1.1 0 1.8 .9 1.8 1.9c0 .2 0 .3 0 .4Zm-2.2-1.1c-.3-.4-.9-.7-1.3-.7c-.9 0-1.6 .8-1.6 1.6c0 .9 .7 1.7 1.6 1.7c.5 0 1-.3 1.3-.8Zm0 2.5c-.3 .4-.8 .6-1.4 .6c-1.2 0-2-1-2-2.1c0-1.2 .9-2.2 2.1-2.2c.4 0 .9 .2 1.3 .5V517h.5v6.3h-.5Zm-7.5-3.6v.7c.4-.5 .9-.8 1.5-.8c1.2 0 1.5 .8 1.5 2v2.2h-.5v-2.1c0-.8-.2-1.6-1.1-1.6c-.6 0-1.1 .5-1.4 1v2.7h-.5v-4.1Zm-2.6 4.1v-.7c-.3 .5-.8 .8-1.4 .8c-1.2 0-1.6-.7-1.6-2v-2.2h.6v2.1c0 .8 .2 1.6 1.1 1.6c.6 0 1.1-.4 1.3-1v-2.7h.6v4.1Zm-6.8-5.9h.6v5.9h-.6v-5.9Zm-4 5.1h.7v.8h-.7v-.8Zm-2.8-2.9c-.8 0-1.3 .6-1.4 1.3h2.6c0-.7-.5-1.3-1.2-1.3m-1.5 1.8c.1 .8 .6 1.5 1.5 1.5c.5 0 1-.1 1.3-.7l.4 .3c-.3 .6-1 .9-1.7 .9c-1.3 0-2-1-2-2.2c0-1.2 .9-2.1 2-2.1c1 0 1.8 .9 1.8 1.9c0 .2 0 .3 0 .4Zm-1.6 1.9h-.6V517h.6v6.3Zm-5.1-1.1c.3 .4 .9 .7 1.3 .7c.9 0 1.6-.8 1.6-1.6c0-.9-.7-1.7-1.6-1.7c-.5 0-1 .3-1.3 .8Zm0-2.5c.4-.4 .9-.6 1.4-.6c1.2 0 2.1 1 2.1 2.1c0 1.2-.9 2.2-2.2 2.2c-.4 0-.9-.2-1.3-.5v.4h-.5V517h.5Zm-3.4 1.6c-.6 0-1.3 .2-1.3 .8c0 .5 .4 .8 .9 .8c.5 0 .9-.2 1.3-.6v-.9c-.3-.1-.7-.1-.9-.1m.9 1.5c-.4 .5-.8 .6-1.3 .6c-.8 0-1.4-.4-1.4-1.2c0-1 .9-1.4 1.8-1.4c.3 0 .5 0 .9 .1v-.2c0-.7-.3-1.1-1-1.1c-.5 0-1.1 .2-1.4 .4l-.2-.5c.4-.2 1-.4 1.6-.4c1.2 0 1.6 .6 1.6 1.7v2.5H460Zm-3.3 .3c-.4 .2-.7 .3-1.2 .3c-1.2 0-2.1-.9-2.1-2.1c0-1.2 .9-2.2 2.1-2.2c.4 0 .8 .1 1.1 .3l-.3 .5c-.2-.2-.5-.3-.8-.3c-.9 0-1.5 .8-1.5 1.7c0 .9 .6 1.6 1.5 1.6c.3 0 .7-.1 .9-.3Zm-5-3.9h.6v4.1h-.6v-4.1Zm0-1.7h.6v.8h-.6v-.8Zm-1.4 5.8h-.6V517h.6v6.3Zm-5.1-1.1c.3 .4 .9 .7 1.3 .7c.9 0 1.6-.8 1.6-1.6c0-.9-.7-1.7-1.6-1.7c-.5 0-1 .3-1.3 .8Zm0-3v.5c.3-.4 .9-.6 1.4-.6c1.2 0 2.1 1 2.1 2.1c0 1.2-1 2.2-2.2 2.2c-.4 0-.9-.2-1.3-.5v2.5h-.5v-6.2Zm-5 3c.3 .4 .8 .7 1.3 .7c.9 0 1.5-.8 1.5-1.6c0-.9-.6-1.7-1.5-1.7c-.5 0-1.1 .3-1.3 .8Zm0-3v.5c.3-.4 .8-.6 1.3-.6c1.2 0 2.1 1 2.1 2.1c0 1.2-.9 2.2-2.1 2.2c-.5 0-1-.2-1.3-.5v2.5h-.6v-6.2Zm-3.5 2.1c-.6 0-1.2 .2-1.2 .8c0 .5 .4 .8 .8 .8c.5 0 1-.2 1.3-.6v-.9c-.3-.1-.6-.1-.9-.1m1 1.5c-.4 .5-.9 .6-1.4 .6c-.7 0-1.4-.4-1.4-1.2c0-1 .9-1.4 1.8-1.4c.3 0 .6 0 .9 .1v-.2c0-.7-.3-1.1-1-1.1c-.5 0-1 .2-1.3 .4l-.2-.5c.3-.2 1-.4 1.5-.4c1.2 0 1.6 .6 1.6 1.7v2.5h-.5Zm-5.9-2.9c-.3-.2-.6-.3-.9-.3c-.3 0-.7 .2-.7 .6c0 .4 .5 .6 1 .8c.6 .2 1 .5 1 1.2c0 .8-.7 1.2-1.4 1.2c-.5 0-.9-.2-1.3-.5l.4-.4c.2 .3 .5 .4 .9 .4c.4 0 .9-.2 .9-.7c0-.4-.5-.6-.9-.8c-.6-.2-1.1-.4-1.1-1.2c0-.7 .5-1.1 1.2-1.1c.5 0 .8 .1 1.2 .4Zm-4.9 1.4c-.5 0-1.2 .2-1.2 .8c0 .5 .4 .8 .9 .8c.4 0 .9-.2 1.3-.6v-.9c-.4-.1-.7-.1-1-.1m1 1.5c-.4 .5-.9 .6-1.3 .6c-.8 0-1.5-.4-1.5-1.2c0-1 1-1.4 1.8-1.4c.3 0 .6 0 1 .1v-.2c0-.7-.4-1.1-1.1-1.1c-.5 0-1 .2-1.3 .4l-.2-.5c.4-.2 1-.4 1.6-.4c1.2 0 1.5 .6 1.5 1.7v2.5h-.5Zm-5.9-2.9c-.2-.2-.6-.3-.9-.3c-.3 0-.7 .2-.7 .6c0 .4 .6 .6 1.1 .8c.5 .2 1 .5 1 1.2c0 .8-.8 1.2-1.5 1.2c-.4 0-.9-.2-1.2-.5l.3-.4c.3 .3 .6 .4 .9 .4c.4 0 .9-.2 .9-.7c0-.4-.4-.6-.9-.8c-.5-.2-1.1-.4-1.1-1.2c0-.7 .6-1.1 1.3-1.1c.4 0 .8 .1 1.1 .4Zm-5.2-.7l.9 3.6l.9-3.6h.6l-1.1 4.1h-.8l-.9-3.5l-1 3.5h-.8l-1-4.1h.6l.8 3.6l1-3.6Zm-5.6 2.1c-.5 0-1.2 .2-1.2 .8c0 .5 .4 .8 .9 .8c.5 0 .9-.2 1.3-.6v-.9c-.4-.1-.7-.1-1-.1m1 1.5c-.4 .5-.9 .6-1.3 .6c-.8 0-1.4-.4-1.4-1.2c0-1 .9-1.4 1.8-1.4c.2 0 .5 0 .9 .1v-.2c0-.7-.3-1.1-1.1-1.1c-.4 0-1 .2-1.3 .4l-.2-.5c.4-.2 1-.4 1.6-.4c1.2 0 1.6 .6 1.6 1.7v2.5h-.5Zm-3.9 .5h-.6V517h.6v6.3Zm-4.4-3c-.3-.4-.8-.7-1.3-.7c-.8 0-1.5 .8-1.5 1.6c0 .9 .6 1.7 1.5 1.7c.5 0 1.1-.3 1.3-.8Zm0 2.5c-.3 .4-.8 .6-1.3 .6c-1.2 0-2.1-1-2.1-2.1c0-1.2 .9-2.2 2.1-2.2c.5 0 1 .2 1.3 .5V517h.6v6.3h-.6Zm-7.4-3.6v.7c.3-.5 .8-.8 1.5-.8c1.1 0 1.5 .8 1.5 2v2.2h-.6v-2.1c0-.8-.1-1.6-1-1.6c-.6 0-1.1 .5-1.4 1v2.7h-.6v-4.1Zm-3.5 2.1c-.5 0-1.2 .2-1.2 .8c0 .5 .4 .8 .9 .8c.4 0 .9-.2 1.3-.6v-.9c-.4-.1-.7-.1-1-.1m1 1.5c-.4 .5-.9 .6-1.3 .6c-.8 0-1.5-.4-1.5-1.2c0-1 1-1.4 1.8-1.4c.3 0 .6 0 1 .1v-.2c0-.7-.4-1.1-1.1-1.1c-.4 0-1 .2-1.3 .4l-.2-.5c.4-.2 1-.4 1.6-.4c1.2 0 1.6 .6 1.6 1.7v2.5h-.6Zm-5.9-2.9c-.2-.2-.5-.3-.8-.3c-.4 0-.8 .2-.8 .6c0 .4 .6 .6 1.1 .8c.5 .2 1 .5 1 1.2c0 .8-.8 1.2-1.5 1.2c-.4 0-.9-.2-1.2-.5l.3-.4c.3 .3 .6 .4 1 .4c.3 0 .8-.2 .8-.7c0-.4-.4-.6-.9-.8c-.5-.2-1.1-.4-1.1-1.2c0-.7 .6-1.1 1.3-1.1c.4 0 .8 .1 1.1 .4Zm-4.8-.3c-.8 0-1.3 .6-1.4 1.3h2.6c0-.7-.5-1.3-1.2-1.3m-1.5 1.8c.1 .8 .6 1.5 1.5 1.5c.5 0 1-.1 1.3-.7l.4 .3c-.3 .6-1 .9-1.7 .9c-1.3 0-2-1-2-2.2c0-1.2 .9-2.1 2-2.1c1 0 1.8 .9 1.8 1.9c0 .2 0 .3 0 .4Zm-1.6 1.9h-.6V517h.6v6.3Zm-2.6 0v-.7c-.3 .5-.8 .8-1.4 .8c-1.2 0-1.6-.7-1.6-2v-2.2h.6v2.1c0 .8 .1 1.6 1 1.6c.6 0 1.1-.4 1.4-1v-2.7h.6v4.1Zm-5.2-3.3c.2-.5 .6-.9 1.2-.9c.1 0 .2 0 .3 0v.7c-.2-.1-.3-.1-.4-.1c-.5 0-.8 .4-1.1 .9v2.7h-.6v-4.1h.6Zm-5.2-.4c-.8 0-1.3 .6-1.5 1.3h2.7c0-.7-.5-1.3-1.2-1.3m-1.5 1.8c.1 .8 .6 1.5 1.5 1.5c.5 0 1-.1 1.3-.7l.4 .3c-.3 .6-1.1 .9-1.7 .9c-1.3 0-2-1-2-2.2c0-1.2 .8-2.1 2-2.1c1 0 1.8 .9 1.8 1.9c0 .2 0 .3 0 .4Zm-4.6-1.5c.4-.5 .9-.8 1.5-.8c1.2 0 1.5 .8 1.5 2v2.2h-.5v-2.1c0-.8-.2-1.6-1.1-1.6c-.6 0-1.1 .5-1.4 1v2.7h-.5V517h.5Zm-2.6-.2V522c0 .7 .2 .9 .6 .9c.2 0 .3-.1 .5-.1l.1 .4c-.1 .1-.4 .2-.6 .2c-.8 0-1.2-.5-1.2-1.3v-2.4h-.6v-.5h.6v-1h.6v1h1.2v.5Zm-3.1-2.2c-.1 0-.3-.1-.5-.1c-.2 0-.4 .1-.5 .2c-.2 .2-.3 .5-.3 .9v.7h1.2v.5H354v3.6h-.5v-3.6H353v-.5h.5v-.7c0-.4 0-.8 .2-1.1c.2-.3 .5-.5 1-.5c.3 0 .6 .1 .8 .2Zm-5.1 2.1c-1 0-1.5 .8-1.5 1.7c0 .8 .5 1.6 1.5 1.6c.9 0 1.4-.8 1.4-1.6c0-.9-.5-1.7-1.4-1.7m2 1.7c0 1.2-.8 2.1-2 2.1c-1.3 0-2.1-.9-2.1-2.1c0-1.2 .8-2.2 2.1-2.2c1.2 0 2 1 2 2.2m-9.3-2.1l1.2 3.5l1.2-3.5h.6l-2.2 6l-.5-.2l.5-1.5l-1.4-4.3Zm-2.2 .5V522c0 .7 .3 .9 .7 .9c.1 0 .3-.1 .5-.1l.1 .4c-.2 .1-.4 .2-.7 .2c-.8 0-1.1-.5-1.1-1.3v-2.4h-.6v-.5h.6v-1h.5v1h1.2v.5Zm-2.6-.5h.5v4.1h-.5v-4.1Zm0-1.7h.5v.8h-.5v-.8Zm-1.5 5.8H336V517h.6v6.3Zm-3.5-2c-.5 0-1.2 .2-1.2 .8c0 .5 .4 .8 .9 .8c.4 0 .9-.2 1.3-.6v-.9c-.4-.1-.7-.1-1-.1m1 1.5c-.4 .5-.9 .6-1.3 .6c-.8 0-1.5-.4-1.5-1.2c0-1 1-1.4 1.8-1.4c.3 0 .6 0 1 .1v-.2c0-.7-.4-1.1-1.1-1.1c-.5 0-1 .2-1.3 .4l-.2-.5c.4-.2 1-.4 1.6-.4c1.2 0 1.5 .6 1.5 1.7v2.5h-.5Zm-4.5-3.6h.6v4.1h-.6v-4.1Zm0-1.7h.6v.8h-.6v-.8Zm-2.1 2.2V522c0 .7 .3 .9 .7 .9c.1 0 .3-.1 .5-.1l.1 .4c-.2 .1-.4 .2-.7 .2c-.8 0-1.1-.5-1.1-1.3v-2.4h-.6v-.5h.6v-1h.5v1h1.2v.5Zm-5-.5v.7c.3-.5 .8-.8 1.4-.8c1.2 0 1.6 .8 1.6 2v2.2h-.6v-2.1c0-.8-.1-1.6-1-1.6c-.7 0-1.2 .5-1.4 1v2.7h-.6v-4.1Zm-3.5 .4c-.8 0-1.3 .6-1.4 1.3h2.7c-.1-.7-.6-1.3-1.3-1.3m-1.4 1.8c0 .8 .5 1.5 1.4 1.5c.6 0 1-.1 1.3-.7l.4 .3c-.3 .6-1 .9-1.6 .9c-1.4 0-2.1-1-2.1-2.2c0-1.2 .9-2.1 2-2.1c1.1 0 1.8 .9 1.8 1.9c0 .2 0 .3 0 .4Zm-2.2-1.1c-.3-.4-.9-.7-1.3-.7c-.9 0-1.6 .8-1.6 1.6c0 .9 .7 1.7 1.6 1.7c.5 0 1-.3 1.3-.8Zm0 2.5c-.3 .4-.9 .6-1.4 .6c-1.2 0-2.1-1-2.1-2.1c0-1.2 1-2.2 2.2-2.2c.4 0 .9 .2 1.3 .5V517h.5v6.3h-.5Zm-5.1-3.6h.6v4.1h-.6v-4.1Zm0-1.7h.6v.8h-.6v-.8Zm-.8 0c-.1 0-.3-.1-.4-.1c-.2 0-.4 .1-.5 .2c-.3 .2-.3 .5-.3 .9v.7h1.2v.5h-1.2v3.6h-.6v-3.6h-.4v-.5h.4v-.7c0-.4 .1-.8 .3-1.1c.2-.3 .5-.5 1-.5c.2 0 .4 .1 .6 .1Zm-6.3 1.7v.7c.3-.5 .8-.8 1.4-.8c1.2 0 1.6 .8 1.6 2v2.2h-.6v-2.1c0-.8-.1-1.6-1-1.6c-.7 0-1.2 .5-1.4 1v2.7h-.6v-4.1Zm-3.7 .4c-.9 0-1.5 .8-1.5 1.7c0 .8 .6 1.6 1.5 1.6c.9 0 1.4-.8 1.4-1.6c0-.9-.5-1.7-1.4-1.7m2 1.7c0 1.2-.8 2.1-2 2.1c-1.3 0-2.1-.9-2.1-2.1c0-1.2 .8-2.2 2.1-2.2c1.2 0 2 1 2 2.2m-4.6 1.8c-.4 .2-.7 .3-1.1 .3c-1.3 0-2.2-.9-2.2-2.1c0-1.2 .9-2.2 2.1-2.2c.4 0 .8 .1 1.1 .3l-.2 .5c-.3-.2-.6-.3-.9-.3c-.9 0-1.5 .8-1.5 1.7c0 .9 .6 1.6 1.5 1.6c.3 0 .7-.1 .9-.3Zm-7.6-3.5c-.8 0-1.3 .6-1.4 1.3h2.7c-.1-.7-.6-1.3-1.3-1.3m-1.4 1.8c0 .8 .5 1.5 1.4 1.5c.6 0 1-.1 1.3-.7l.4 .3c-.3 .6-1 .9-1.6 .9c-1.4 0-2.1-1-2.1-2.2c0-1.2 .9-2.1 2-2.1c1.1 0 1.8 .9 1.8 1.9c0 .2 0 .3 0 .4Zm-4.6-2.2h.6l1.1 3.5l1.3-3.5h.6l-1.5 4.1h-.7Zm-1.4 0h.5v4.1h-.5v-4.1Zm0-1.7h.5v.8h-.5v-.8Zm-3 3.8c-.5 0-1.2 .2-1.2 .8c0 .5 .4 .8 .9 .8c.5 0 .9-.2 1.3-.6v-.9c-.3-.1-.7-.1-1-.1m1 1.5c-.4 .5-.9 .6-1.3 .6c-.8 0-1.4-.4-1.4-1.2c0-1 .9-1.4 1.8-1.4c.2 0 .5 0 .9 .1v-.2c0-.7-.3-1.1-1-1.1c-.5 0-1.1 .2-1.4 .4l-.2-.5c.4-.2 1-.4 1.6-.4c1.2 0 1.6 .6 1.6 1.7v2.5H280Zm-5.7-3.6l.9 3.6l.9-3.6h.6l-1.1 4.1h-.8l-.9-3.5l-1 3.5H272l-1-4.1h.6l.8 3.6l1-3.6Zm-8.2 0l1.2 3.5l1.2-3.5h.6l-2.2 6l-.5-.2l.5-1.5l-1.4-4.3Zm-4.5 3c.3 .4 .9 .7 1.3 .7c.9 0 1.6-.8 1.6-1.6c0-.9-.7-1.7-1.6-1.7c-.5 0-1 .3-1.3 .8Zm0-2.5c.4-.4 .9-.6 1.4-.6c1.2 0 2.1 1 2.1 2.1c0 1.2-.9 2.2-2.1 2.2c-.5 0-1-.2-1.4-.5v.4H261V517h.5Zm-3.4-.1c-.8 0-1.3 .6-1.4 1.3h2.6c0-.7-.5-1.3-1.2-1.3m-1.5 1.8c.1 .8 .6 1.5 1.5 1.5c.6 0 1-.1 1.3-.7l.4 .3c-.3 .6-1 .9-1.6 .9c-1.4 0-2.1-1-2.1-2.2c0-1.2 .9-2.1 2-2.1c1 0 1.8 .9 1.8 1.9c0 .2 0 .3 0 .4Zm-2.4-1.4c.2-.5 .6-.9 1.2-.9c.1 0 .2 0 .3 0l-.1 .7c-.1-.1-.2-.1-.3-.1c-.5 0-.8 .4-1.1 .9v2.7h-.6v-4.1h.6Zm-3.5-.4c-.8 0-1.3 .6-1.4 1.3H252c-.1-.7-.6-1.3-1.3-1.3m-1.4 1.8c0 .8 .6 1.5 1.4 1.5c.6 0 1.1-.1 1.3-.7l.5 .3c-.4 .6-1.1 .9-1.7 .9c-1.4 0-2.1-1-2.1-2.2c0-1.2 .9-2.1 2-2.1c1.1 0 1.8 .9 1.8 1.9c0 .2 0 .3 0 .4Zm-4.6-1.5c.3-.5 .8-.8 1.5-.8c1.1 0 1.5 .8 1.5 2v2.2h-.6v-2.1c0-.8-.1-1.6-1-1.6c-.6 0-1.1 .5-1.4 1v2.7h-.6V517h.6Zm-4.4 .4c-.3-.4-.8-.7-1.3-.7c-.9 0-1.5 .8-1.5 1.6c0 .9 .6 1.7 1.5 1.7c.5 0 1.1-.3 1.3-.8Zm0 2.5c-.3 .4-.8 .6-1.3 .6c-1.2 0-2.1-1-2.1-2.1c0-1.2 .9-2.2 2.1-2.2c.5 0 1 .2 1.3 .5V517h.6v6.3h-.6Zm-7.4-3.6v.7c.3-.5 .8-.8 1.5-.8c1.1 0 1.5 .8 1.5 2v2.2h-.6v-2.1c0-.8-.1-1.6-1-1.6c-.6 0-1.1 .5-1.4 1v2.7h-.6v-4.1Zm-3.5 2.1c-.5 0-1.2 .2-1.2 .8c0 .5 .4 .8 .9 .8c.4 0 .9-.2 1.3-.6v-.9c-.4-.1-.7-.1-1-.1m1 1.5c-.4 .5-.9 .6-1.4 .6c-.7 0-1.4-.4-1.4-1.2c0-1 1-1.4 1.8-1.4c.3 0 .6 0 1 .1v-.2c0-.7-.4-1.1-1.1-1.1c-.5 0-1 .2-1.3 .4l-.2-.5c.4-.2 1-.4 1.5-.4c1.3 0 1.6 .6 1.6 1.7v2.5h-.5Zm-6.3-2.5c-.3-.4-.8-.7-1.3-.7c-.9 0-1.5 .8-1.5 1.6c0 .9 .6 1.7 1.5 1.7c.5 0 1.1-.3 1.3-.8Zm0 2.5c-.3 .4-.8 .6-1.3 .6c-1.2 0-2.1-1-2.1-2.1c0-1.2 .9-2.2 2.1-2.2c.5 0 1 .2 1.3 .5V517h.6v6.3h-.6Zm-5.9-3.2c-.8 0-1.3 .6-1.4 1.3h2.7c-.1-.7-.6-1.3-1.3-1.3m-1.4 1.8c0 .8 .5 1.5 1.4 1.5c.6 0 1-.1 1.3-.7l.4 .3c-.3 .6-1 .9-1.6 .9c-1.4 0-2.1-1-2.1-2.2c0-1.2 .9-2.1 2-2.1c1.1 0 1.8 .9 1.8 1.9c0 .2 0 .3 0 .4Zm-2.3-1.7V522c0 .7 .2 .9 .6 .9c.2 0 .3-.1 .5-.1l.2 .4c-.2 .1-.5 .2-.7 .2c-.8 0-1.2-.5-1.2-1.3v-2.4h-.6v-.5h.6v-1h.6v1h1.2v.5Zm-2.8 0V522c0 .7 .2 .9 .6 .9c.1 0 .3-.1 .5-.1l.1 .4c-.2 .1-.4 .2-.6 .2c-.8 0-1.2-.5-1.2-1.3v-2.4h-.6v-.5h.6v-1h.6v1h1.1v.5Zm-2.7-.5h.5v4.1H209v-4.1Zm0-1.7h.5v.8H209v-.8Zm-7.1 1.7v.7c.4-.5 .9-.8 1.4-.8c.7 0 1.1 .3 1.3 .9c.5-.7 .9-.9 1.4-.9c1.1 0 1.6 .7 1.6 2v2.2H207v-2.1c0-.8-.2-1.6-1-1.6c-.5 0-1 .4-1.3 .9c.1 .2 .1 .4 .1 .6v2.2h-.6v-2.1c0-.8-.1-1.6-1-1.6c-.5 0-1 .5-1.3 1v2.7h-.5v-4.1Zm-5 3c.3 .4 .8 .7 1.3 .7c.9 0 1.5-.8 1.5-1.6c0-.9-.6-1.7-1.5-1.7c-.5 0-1.1 .3-1.3 .8Zm0-2.5c.3-.4 .8-.6 1.3-.6c1.2 0 2.1 1 2.1 2.1c0 1.2-.9 2.2-2.1 2.2c-.5 0-1-.2-1.3-.5v.4h-.6V517h.6Zm-2.6 3.6v-.7c-.3 .5-.8 .8-1.5 .8c-1.1 0-1.5-.7-1.5-2v-2.2h.6v2.1c0 .8 .1 1.6 1 1.6c.6 0 1.1-.4 1.4-1v-2.7h.6v4.1Zm-4.6-3.4c-.3-.2-.6-.3-.9-.3c-.3 0-.7 .2-.7 .6c0 .4 .5 .6 1.1 .8c.5 .2 1 .5 1 1.2c0 .8-.8 1.2-1.5 1.2c-.4 0-.9-.2-1.2-.5l.3-.4c.2 .3 .5 .4 .9 .4c.4 0 .9-.2 .9-.7c0-.4-.4-.6-.9-.8c-.5-.2-1.1-.4-1.1-1.2c0-.7 .6-1.1 1.3-1.1c.4 0 .8 .1 1.1 .4Zm-5.4 0c-.2-.2-.5-.3-.8-.3c-.4 0-.8 .2-.8 .6c0 .4 .6 .6 1.1 .8c.5 .2 1 .5 1 1.2c0 .8-.8 1.2-1.5 1.2c-.4 0-.9-.2-1.2-.5l.3-.4c.3 .3 .6 .4 1 .4c.4 0 .8-.2 .8-.7c0-.4-.4-.6-.9-.8c-.5-.2-1.1-.4-1.1-1.2c0-.7 .6-1.1 1.3-1.1c.4 0 .8 .1 1.1 .4Zm-4-.2V522c0 .7 .2 .9 .6 .9c.2 0 .3-.1 .5-.1l.2 .4c-.2 .1-.4 .2-.7 .2c-.8 0-1.2-.5-1.2-1.3v-2.4h-.6v-.5h.6v-1h.6v1h1.2v.5Zm-5.1-.5v.7c.4-.5 .9-.8 1.5-.8c1.2 0 1.5 .8 1.5 2v2.2h-.5v-2.1c0-.8-.2-1.6-1.1-1.6c-.6 0-1.1 .5-1.4 1v2.7h-.5v-4.1Zm-3.4 .4c-.8 0-1.3 .6-1.4 1.3H173c0-.7-.5-1.3-1.2-1.3m-1.5 1.8c.1 .8 .6 1.5 1.5 1.5c.5 0 1-.1 1.3-.7l.4 .3c-.3 .6-1 .9-1.7 .9c-1.3 0-2-1-2-2.2c0-1.2 .9-2.1 2-2.1c1 0 1.8 .9 1.8 1.9c0 .2 0 .3 0 .4Zm-7.2-2.2v.7c.3-.5 .8-.8 1.4-.8c.7 0 1.1 .3 1.3 .9c.5-.7 .9-.9 1.4-.9c1.1 0 1.6 .7 1.6 2v2.2h-.6v-2.1c0-.8-.2-1.6-1-1.6c-.5 0-1 .4-1.3 .9c0 .2 0 .4 0 .6v2.2h-.5v-2.1c0-.8-.2-1.6-1-1.6c-.5 0-1 .5-1.3 1v2.7h-.6v-4.1Zm-2.6 4.1v-.7c-.3 .5-.8 .8-1.4 .8c-1.2 0-1.6-.7-1.6-2v-2.2h.6v2.1c0 .8 .1 1.6 1 1.6c.7 0 1.2-.4 1.4-1v-2.7h.6v4.1Zm-3.8-.2c-.4 .2-.7 .3-1.1 .3c-1.3 0-2.2-.9-2.2-2.1c0-1.2 .9-2.2 2.1-2.2c.4 0 .8 .1 1.1 .3l-.2 .5c-.3-.2-.6-.3-.9-.3c-.9 0-1.5 .8-1.5 1.7c0 .9 .6 1.6 1.5 1.6c.3 0 .7-.1 .9-.3Zm-6.1-3.5c-.9 0-1.4 .8-1.4 1.7c0 .8 .5 1.6 1.4 1.6c1 0 1.5-.8 1.5-1.6c0-.9-.5-1.7-1.5-1.7m2.1 1.7c0 1.2-.8 2.1-2.1 2.1c-1.2 0-2-.9-2-2.1c0-1.2 .8-2.2 2-2.2c1.3 0 2.1 1 2.1 2.2m-5.8-1c-.3-.4-.8-.7-1.3-.7c-.9 0-1.5 .8-1.5 1.6c0 .9 .6 1.7 1.5 1.7c.5 0 1.1-.3 1.3-.8Zm0 2.5c-.3 .4-.8 .6-1.3 .6c-1.2 0-2.1-1-2.1-2.1c0-1.2 .9-2.2 2.1-2.2c.5 0 1 .2 1.3 .5V517h.6v6.3h-.6Zm-7.1-2.8c.3-.5 .7-.9 1.2-.9c.2 0 .3 0 .4 0l-.1 .7c-.1-.1-.2-.1-.4-.1c-.4 0-.8 .4-1.1 .9v2.7h-.5v-4.1h.5Zm-3.7-.4c-.9 0-1.4 .8-1.4 1.7c0 .8 .5 1.6 1.4 1.6c1 0 1.5-.8 1.5-1.6c0-.9-.5-1.7-1.5-1.7m2.1 1.7c0 1.2-.8 2.1-2.1 2.1c-1.2 0-2-.9-2-2.1c0-1.2 .8-2.2 2-2.2c1.3 0 2.1 1 2.1 2.2m-6.6 2.4l-.5-.2l2.4-6.6l.5 .2Zm-2-3.4c-.3-.4-.8-.7-1.3-.7c-.9 0-1.5 .8-1.5 1.6c0 .9 .6 1.7 1.5 1.7c.5 0 1.1-.3 1.3-.8Zm0 2.5c-.3 .4-.8 .6-1.3 .6c-1.2 0-2.1-1-2.1-2.1c0-1.2 .9-2.2 2.1-2.2c.4 0 .9 .2 1.3 .5V517h.6v6.3h-.6Zm-7.4-3.6v.7c.3-.5 .8-.8 1.4-.8c1.2 0 1.6 .8 1.6 2v2.2h-.6v-2.1c0-.8-.2-1.6-1.1-1.6c-.6 0-1.1 .5-1.3 1v2.7h-.6v-4.1Zm-3.5 2.1c-.6 0-1.3 .2-1.3 .8c0 .5 .4 .8 .9 .8c.5 0 .9-.2 1.3-.6v-.9c-.3-.1-.6-.1-.9-.1m.9 1.5c-.4 .5-.8 .6-1.3 .6c-.8 0-1.4-.4-1.4-1.2c0-1 .9-1.4 1.8-1.4c.3 0 .6 0 .9 .1v-.2c0-.7-.3-1.1-1-1.1c-.5 0-1 .2-1.4 .4l-.2-.5c.4-.2 1.1-.4 1.6-.4c1.2 0 1.6 .6 1.6 1.7v2.5h-.5Zm-6.2-2.5c-.3-.4-.8-.7-1.3-.7c-.9 0-1.5 .8-1.5 1.6c0 .9 .6 1.7 1.5 1.7c.5 0 1.1-.3 1.3-.8Zm0 2.5c-.3 .4-.8 .6-1.3 .6c-1.2 0-2.1-1-2.1-2.1c0-1.2 .9-2.2 2.1-2.2c.4 0 .9 .2 1.3 .5V517h.6v6.3h-.6Zm-5.9-3.2c-.8 0-1.3 .6-1.5 1.3h2.7c0-.7-.5-1.3-1.2-1.3m-1.5 1.8c.1 .8 .6 1.5 1.5 1.5c.5 0 1-.1 1.3-.7l.4 .3c-.3 .6-1.1 .9-1.7 .9c-1.3 0-2.1-1-2.1-2.2c0-1.2 .9-2.1 2.1-2.1c1 0 1.8 .9 1.8 1.9c0 .2 0 .3 0 .4Zm-2.4-1.4c.2-.5 .6-.9 1.1-.9c.2 0 .3 0 .4 0l-.1 .7c-.1-.1-.2-.1-.4-.1c-.4 0-.7 .4-1 .9v2.7H103v-4.1h.6Zm-3.5 1.3c-.6 0-1.2 .2-1.2 .8c0 .5 .3 .8 .8 .8c.5 0 .9-.2 1.3-.6v-.9c-.3-.1-.6-.1-.9-.1m.9 1.5c-.4 .5-.8 .6-1.3 .6c-.8 0-1.4-.4-1.4-1.2c0-1 .9-1.4 1.8-1.4c.3 0 .6 0 .9 .1v-.2c0-.7-.3-1.1-1-1.1c-.5 0-1 .2-1.4 .4l-.2-.5c.4-.2 1.1-.4 1.6-.4c1.2 0 1.6 .6 1.6 1.7v2.5h-.5Zm-3.9 .5h-.5V517h.5v6.3Zm-1.4-.2c-.4 .2-.7 .3-1.2 .3c-1.2 0-2.1-.9-2.1-2.1c0-1.2 .9-2.2 2.1-2.2c.4 0 .8 .1 1.1 .3l-.3 .5c-.2-.2-.5-.3-.8-.3c-.9 0-1.5 .8-1.5 1.7c0 .9 .6 1.6 1.5 1.6c.3 0 .7-.1 .9-.3Zm-5.8-3.5c-.8 0-1.3 .6-1.5 1.3h2.7c0-.7-.5-1.3-1.2-1.3m-1.5 1.8c.1 .8 .6 1.5 1.5 1.5c.5 0 1-.1 1.3-.7l.4 .3c-.3 .6-1 .9-1.7 .9c-1.3 0-2-1-2-2.2c0-1.2 .9-2.1 2-2.1c1 0 1.8 .9 1.8 1.9c0 .2 0 .3 0 .4Zm-2.2-1.1c-.3-.4-.8-.7-1.3-.7c-.9 0-1.5 .8-1.5 1.6c0 .9 .6 1.7 1.5 1.7c.5 0 1.1-.3 1.3-.8Zm0 2.5c-.3 .4-.8 .6-1.3 .6c-1.2 0-2.1-1-2.1-2.1c0-1.2 .9-2.2 2.1-2.2c.5 0 1 .2 1.3 .5V517h.6v6.3h-.6ZM77 519.2v.7c.3-.5 .8-.8 1.5-.8c1.1 0 1.5 .8 1.5 2v2.2h-.6v-2.1c0-.8-.1-1.6-1-1.6c-.6 0-1.1 .5-1.4 1v2.7h-.6v-4.1Zm-3.7 .4c-.9 0-1.5 .8-1.5 1.7c0 .8 .6 1.6 1.5 1.6c.9 0 1.5-.8 1.5-1.6c0-.9-.6-1.7-1.5-1.7m2.1 1.7c0 1.2-.9 2.1-2.1 2.1c-1.2 0-2.1-.9-2.1-2.1c0-1.2 .9-2.2 2.1-2.2c1.2 0 2.1 1 2.1 2.2m-5.8-2.1h.6v4.1h-.6Zm0-1.7h.6v.8h-.6v-.8Zm-2.1 2.2V522c0 .7 .3 .9 .6 .9c.2 0 .4-.1 .5-.1l.2 .4c-.2 .1-.4 .2-.7 .2c-.8 0-1.2-.5-1.2-1.3v-2.4h-.5v-.5h.5v-1h.6v1h1.2v.5Zm-3.6 1.6c-.5 0-1.2 .2-1.2 .8c0 .5 .4 .8 .9 .8c.5 0 .9-.2 1.3-.6v-.9c-.4-.1-.7-.1-1-.1m1 1.5c-.4 .5-.9 .6-1.3 .6c-.8 0-1.5-.4-1.5-1.2c0-1 1-1.4 1.9-1.4c.2 0 .5 0 .9 .1v-.2c0-.7-.3-1.1-1.1-1.1c-.4 0-1 .2-1.3 .4l-.2-.5c.4-.2 1-.4 1.6-.4c1.2 0 1.6 .6 1.6 1.7v2.5H65Zm-9.5-3.6v.7c.3-.5 .8-.8 1.4-.8c.7 0 1.1 .3 1.3 .9c.5-.7 .9-.9 1.4-.9c1.1 0 1.6 .7 1.6 2v2.2h-.6v-2.1c0-.8-.2-1.6-1-1.6c-.5 0-1 .4-1.3 .9c0 .2 0 .4 0 .6v2.2h-.5v-2.1c0-.8-.2-1.6-1-1.6c-.5 0-1 .5-1.3 1v2.7h-.6v-4.1Zm-2.8 .8c.2-.5 .6-.9 1.2-.9c.1 0 .2 0 .3 0l-.1 .7c-.1-.1-.2-.1-.3-.1c-.5 0-.8 .4-1.1 .9v2.7H52v-4.1h.6Zm-3.7-.4c-.9 0-1.5 .8-1.5 1.7c0 .8 .6 1.6 1.5 1.6c.9 0 1.4-.8 1.4-1.6c0-.9-.5-1.7-1.4-1.7m2 1.7c0 1.2-.8 2.1-2 2.1c-1.2 0-2.1-.9-2.1-2.1c0-1.2 .9-2.2 2.1-2.2c1.2 0 2 1 2 2.2m-4.3-3.8c-.2 0-.4-.1-.6-.1c-.1 0-.3 .1-.5 .2c-.2 .2-.2 .5-.2 .9v.7h1.1v.5H45.3v3.6h-.6v-3.6h-.5v-.5h.5v-.7c0-.4 .1-.8 .3-1.1c.1-.3 .5-.5 1-.5c.2 0 .5 .1 .7 .2Zm-6.5 1.7v.7c.4-.5 .9-.8 1.5-.8c1.2 0 1.5 .8 1.5 2v2.2h-.5v-2.1c0-.8-.2-1.6-1.1-1.6c-.6 0-1.1 .5-1.4 1v2.7h-.5v-4.1Zm-2.6 0h.6v4.1h-.6v-4.1Zm0-1.7h.6v.8h-.6v-.8Z" class="g2_2"/>
<path d="M610.9 506.5c-2.5 0-4.6 2-4.6 4.5v51.8c0 2.6 2.1 4.6 4.6 4.6H867.5c2.5 0 4.5-2 4.5-4.6V511c0-2.5-2-4.5-4.5-4.5Z" class="g4_2"/>
<path d="M611.1 381.4c-2.6 0-4.6 2-4.6 4.6v52.3c0 2.6 2 4.6 4.6 4.6H867.5c2.5 0 4.6-2 4.6-4.6V386c0-2.6-2.1-4.6-4.6-4.6Z" class="g4_2"/>
<path d="M615.9 359.9l-5.6 5.7l-2-2c-.4-.4-1.1-.4-1.5 0c-.4 .3-.4 1 0 1.4l2.7 2.8c.4 .4 1.1 .4 1.5 0l6.4-6.4c.3-.4 .3-1.1-.1-1.5c-.4-.3-1-.3-1.4 0Z" class="g2_2"/>
<path d="M611.1 652.2c-2.5 0-4.6 2.1-4.6 4.6v51.5c0 2.5 2.1 4.5 4.6 4.5H867.8c2.6 0 4.6-2 4.6-4.5V656.8c0-2.5-2-4.6-4.6-4.6Z" class="g4_2"/>
<path d="M710.2 723.5c-2.6 0-4.6 2.1-4.6 4.6v27.5c0 2.6 2 4.6 4.6 4.6h28.1c2.5 0 4.6-2 4.6-4.6V728.1c0-2.5-2.1-4.6-4.6-4.6Z" class="g4_2"/>
<path d="M756.5 723.5c-2.5 0-4.6 2.1-4.6 4.6v27.5c0 2.6 2.1 4.6 4.6 4.6h28.2c2.5 0 4.5-2 4.5-4.6V728.1c0-2.5-2-4.6-4.5-4.6Z" class="g4_2"/>
<path d="M802.4 723.5c-2.5 0-4.6 2.1-4.6 4.6v27.5c0 2.6 2.1 4.6 4.6 4.6h65.4c2.6 0 4.6-2 4.6-4.6V728.1c0-2.5-2-4.6-4.6-4.6Z" class="g4_2"/>
<path d="M724.8 723.6v36.7M771 723.6v36.7m45.8-36.7v36.7m37.3-36.1v36.6M835 724.2v36.6" class="g5_2"/>
<path d="M615.7 629.4l-5.6 5.6l-2-2c-.4-.4-1.1-.4-1.5 0c-.4 .4-.4 1.1 0 1.5l2.7 2.7c.4 .4 1.1 .4 1.5 0l6.4-6.3c.4-.4 .3-1.1-.1-1.5c-.4-.4-1-.4-1.4 0Z" class="g2_2"/>
<path d="M615.7 727.6l-5.6 5.7l-2-2c-.4-.4-1.1-.4-1.5-.1c-.4 .4-.4 1.1 0 1.5l2.7 2.8c.4 .4 1.1 .4 1.5 0l6.4-6.4c.4-.4 .3-1.1-.1-1.5c-.4-.3-1-.3-1.4 0Z" class="g2_2"/>
<path d="M755.3 229.2c-3.4 0-6.1 2.7-6.1 6.1c0 3.4 2.7 6.1 6.1 6.1c3.4 0 6.1-2.7 6.1-6.1c0-3.4-2.7-6.1-6.1-6.1Z" class="g4_2"/>
<g clip-path="url(#c8_2)">
<path d="M755.3 229.2c-3.4 0-6.1 2.7-6.1 6.1c0 3.4 2.7 6.1 6.1 6.1c3.4 0 6.1-2.7 6.1-6.1c0-3.4-2.7-6.1-6.1-6.1Z" class="g4_2"/>
<path d="M755.3 229.2c-3.4 0-6.1 2.7-6.1 6.1c0 3.4 2.7 6.1 6.1 6.1c3.4 0 6.1-2.7 6.1-6.1c0-3.4-2.7-6.1-6.1-6.1Z" class="g4_2"/>
<path d="M755.3 229.2c-3.4 0-6.1 2.7-6.1 6.1c0 3.4 2.7 6.1 6.1 6.1c3.4 0 6.1-2.7 6.1-6.1c0-3.4-2.7-6.1-6.1-6.1Z" class="g6_2"/>
</g>
<path d="M826 229.2c-3.4 0-6.1 2.7-6.1 6.1c0 3.4 2.7 6.1 6.1 6.1c3.4 0 6.1-2.7 6.1-6.1c0-3.4-2.7-6.1-6.1-6.1Z" class="g4_2"/>
<g clip-path="url(#c9_2)">
<path d="M826 229.2c-3.4 0-6.1 2.7-6.1 6.1c0 3.4 2.7 6.1 6.1 6.1c3.4 0 6.1-2.7 6.1-6.1c0-3.4-2.7-6.1-6.1-6.1Z" class="g4_2"/>
<path d="M826 229.2c-3.4 0-6.1 2.7-6.1 6.1c0 3.4 2.7 6.1 6.1 6.1c3.4 0 6.1-2.7 6.1-6.1c0-3.4-2.7-6.1-6.1-6.1Z" class="g4_2"/>
<path d="M826 229.2c-3.4 0-6.1 2.7-6.1 6.1c0 3.4 2.7 6.1 6.1 6.1c3.4 0 6.1-2.7 6.1-6.1c0-3.4-2.7-6.1-6.1-6.1Z" class="g6_2"/>
</g>
<path d="M53.8 221l-5.6 5.7l-2-2c-.4-.4-1.1-.4-1.5 0c-.4 .3-.4 1 0 1.4l2.7 2.8c.4 .4 1.1 .4 1.5 0l6.3-6.4c.4-.4 .4-1.1 0-1.5c-.4-.3-1-.3-1.4 0Z" class="g2_2"/>
<path d="M40.5 86.3c-1.7 0-3.1 1.4-3.1 3.1v160c0 1.7 1.4 3.1 3.1 3.1H869.3c1.7 0 3.1-1.4 3.1-3.1V89.4c0-1.7-1.4-3.1-3.1-3.1H40.5Z" class="g8_2"/>
<path d="M754.6 145.7c-3.4 0-6.1 2.7-6.1 6.1c0 3.3 2.7 6.1 6.1 6.1c3.4 0 6.1-2.8 6.1-6.1c0-3.4-2.7-6.1-6.1-6.1Z" class="g4_2"/>
<g clip-path="url(#ca_2)">
<path d="M754.6 145.7c-3.4 0-6.1 2.7-6.1 6.1c0 3.3 2.7 6.1 6.1 6.1c3.4 0 6.1-2.8 6.1-6.1c0-3.4-2.7-6.1-6.1-6.1Z" class="g4_2"/>
<path d="M754.6 145.7c-3.4 0-6.1 2.7-6.1 6.1c0 3.3 2.7 6.1 6.1 6.1c3.4 0 6.1-2.8 6.1-6.1c0-3.4-2.7-6.1-6.1-6.1Z" class="g4_2"/>
<path d="M754.6 145.7c-3.4 0-6.1 2.7-6.1 6.1c0 3.3 2.7 6.1 6.1 6.1c3.4 0 6.1-2.8 6.1-6.1c0-3.4-2.7-6.1-6.1-6.1Z" class="g6_2"/>
</g>
<path d="M826.1 145.7c-3.4 0-6.1 2.7-6.1 6.1c0 3.3 2.7 6.1 6.1 6.1c3.4 0 6.1-2.8 6.1-6.1c0-3.4-2.7-6.1-6.1-6.1Z" class="g4_2"/>
<g clip-path="url(#cb_2)">
<path d="M826.1 145.7c-3.4 0-6.1 2.7-6.1 6.1c0 3.3 2.7 6.1 6.1 6.1c3.4 0 6.1-2.8 6.1-6.1c0-3.4-2.7-6.1-6.1-6.1Z" class="g4_2"/>
<path d="M826.1 145.7c-3.4 0-6.1 2.7-6.1 6.1c0 3.3 2.7 6.1 6.1 6.1c3.4 0 6.1-2.8 6.1-6.1c0-3.4-2.7-6.1-6.1-6.1Z" class="g4_2"/>
<path d="M826.1 145.7c-3.4 0-6.1 2.7-6.1 6.1c0 3.3 2.7 6.1 6.1 6.1c3.4 0 6.1-2.8 6.1-6.1c0-3.4-2.7-6.1-6.1-6.1Z" class="g6_2"/>
</g>
<path d="M54.1 135.5l-5.7 5.6l-2-2c-.4-.4-1-.4-1.4 0c-.4 .4-.4 1 0 1.5l2.7 2.7c.4 .4 1.1 .4 1.5 0l6.3-6.3c.4-.5 .4-1.1 0-1.5c-.4-.4-1-.4-1.4 0Z" class="g2_2"/>
<path d="M754.3 105.1c-3.3 0-6.1 2.8-6.1 6.1c0 3.4 2.8 6.1 6.1 6.1c3.4 0 6.1-2.7 6.1-6.1c0-3.3-2.7-6.1-6.1-6.1Z" class="g4_2"/>
<g clip-path="url(#cc_2)">
<path d="M754.3 105.1c-3.3 0-6.1 2.8-6.1 6.1c0 3.4 2.8 6.1 6.1 6.1c3.4 0 6.1-2.7 6.1-6.1c0-3.3-2.7-6.1-6.1-6.1Z" class="g4_2"/>
<path d="M754.3 105.1c-3.3 0-6.1 2.8-6.1 6.1c0 3.4 2.8 6.1 6.1 6.1c3.4 0 6.1-2.7 6.1-6.1c0-3.3-2.7-6.1-6.1-6.1Z" class="g4_2"/>
<path d="M754.3 105.1c-3.3 0-6.1 2.8-6.1 6.1c0 3.4 2.8 6.1 6.1 6.1c3.4 0 6.1-2.7 6.1-6.1c0-3.3-2.7-6.1-6.1-6.1Z" class="g6_2"/>
</g>
<path d="M826.2 104.4c-3.4 0-6.1 2.7-6.1 6.1c0 3.4 2.7 6.1 6.1 6.1c3.4 0 6.1-2.7 6.1-6.1c0-3.4-2.7-6.1-6.1-6.1Z" class="g4_2"/>
<g clip-path="url(#cd_2)">
<path d="M826.2 104.4c-3.4 0-6.1 2.7-6.1 6.1c0 3.4 2.7 6.1 6.1 6.1c3.4 0 6.1-2.7 6.1-6.1c0-3.4-2.7-6.1-6.1-6.1Z" class="g4_2"/>
<path d="M826.2 104.4c-3.4 0-6.1 2.7-6.1 6.1c0 3.4 2.7 6.1 6.1 6.1c3.4 0 6.1-2.7 6.1-6.1c0-3.4-2.7-6.1-6.1-6.1Z" class="g4_2"/>
<path d="M826.2 104.4c-3.4 0-6.1 2.7-6.1 6.1c0 3.4 2.7 6.1 6.1 6.1c3.4 0 6.1-2.7 6.1-6.1c0-3.4-2.7-6.1-6.1-6.1Z" class="g6_2"/>
</g>
<path d="M54.2 94.5l-5.7 5.6l-2-2c-.3-.4-1-.4-1.4 0c-.4 .4-.4 1 0 1.4q0 .1 0 .1l2.7 2.7c.4 .4 1.1 .4 1.5 0l6.3-6.4c.4-.4 .4-1 0-1.4c-.4-.4-1-.4-1.4 0Z" class="g2_2"/>
<path d="M754.2 187.4c-3.3 0-6.1 2.8-6.1 6.2c0 3.3 2.8 6.1 6.1 6.1c3.4 0 6.1-2.8 6.1-6.1c0-3.4-2.7-6.2-6.1-6.2Z" class="g4_2"/>
<g clip-path="url(#ce_2)">
<path d="M754.2 187.4c-3.3 0-6.1 2.8-6.1 6.2c0 3.3 2.8 6.1 6.1 6.1c3.4 0 6.1-2.8 6.1-6.1c0-3.4-2.7-6.2-6.1-6.2Z" class="g4_2"/>
<path d="M754.2 187.4c-3.3 0-6.1 2.8-6.1 6.2c0 3.3 2.8 6.1 6.1 6.1c3.4 0 6.1-2.8 6.1-6.1c0-3.4-2.7-6.2-6.1-6.2Z" class="g4_2"/>
<path d="M754.2 187.4c-3.3 0-6.1 2.8-6.1 6.2c0 3.3 2.8 6.1 6.1 6.1c3.4 0 6.1-2.8 6.1-6.1c0-3.4-2.7-6.2-6.1-6.2Z" class="g6_2"/>
</g>
<path d="M826.1 188.2c-3.4 0-6.1 2.8-6.1 6.1c0 3.4 2.7 6.1 6.1 6.1c3.4 0 6.1-2.7 6.1-6.1c0-3.3-2.7-6.1-6.1-6.1Z" class="g4_2"/>
<g clip-path="url(#cf_2)">
<path d="M826.1 188.2c-3.4 0-6.1 2.8-6.1 6.1c0 3.4 2.7 6.1 6.1 6.1c3.4 0 6.1-2.7 6.1-6.1c0-3.3-2.7-6.1-6.1-6.1Z" class="g4_2"/>
<path d="M826.1 188.2c-3.4 0-6.1 2.8-6.1 6.1c0 3.4 2.7 6.1 6.1 6.1c3.4 0 6.1-2.7 6.1-6.1c0-3.3-2.7-6.1-6.1-6.1Z" class="g4_2"/>
<path d="M826.1 188.2c-3.4 0-6.1 2.8-6.1 6.1c0 3.4 2.7 6.1 6.1 6.1c3.4 0 6.1-2.7 6.1-6.1c0-3.3-2.7-6.1-6.1-6.1Z" class="g6_2"/>
</g>
<path d="M54.1 176.8l-5.7 5.6l-2-2c-.4-.4-1-.4-1.4 0c-.4 .4-.4 1 0 1.5l2.7 2.7c.4 .4 1.1 .4 1.5 0l6.3-6.3c.4-.5 .4-1.1 0-1.5c-.4-.4-1-.4-1.4 0Z" class="g2_2"/>
<path d="M615.7 492.1l-5.6 5.6l-2-2c-.4-.4-1.1-.4-1.5 0c-.4 .4-.4 1 0 1.5l2.7 2.7c.4 .4 1.1 .4 1.5 0l6.4-6.3c.4-.5 .3-1.1-.1-1.5c-.4-.4-1-.4-1.4 0Z" class="g2_2"/>
<path d="M325 1015.4c-2.5 0-4.6 2-4.6 4.5v27.5c0 2.6 2.1 4.6 4.6 4.6h28.2c2.5 0 4.5-2 4.5-4.6v-27.5c0-2.5-2-4.5-4.5-4.5Z" class="g4_2"/>
<path d="M371.4 1015.4c-2.6 0-4.6 2-4.6 4.5v27.5c0 2.6 2 4.6 4.6 4.6h28.1c2.5 0 4.6-2 4.6-4.6v-27.5c0-2.5-2.1-4.5-4.6-4.5Z" class="g4_2"/>
<path d="M417.2 1015.4c-2.5 0-4.5 2-4.5 4.5v27.5c0 2.6 2 4.6 4.5 4.6h65.5c2.5 0 4.6-2 4.6-4.6v-27.5c0-2.5-2.1-4.5-4.6-4.5Z" class="g4_2"/>
<path d="M339.6 1015.4v36.7m46.3-36.7v36.7m45.8-36.7v36.7m37.2-36.1v36.7m-19-36.7v36.7" class="g5_2"/>
<path d="M503.7 305.2h.6v4.1h-.6v-4.1Zm0-1.7h.6v.8h-.6v-.8Zm-2.1 2.2V308c0 .7 .2 .9 .6 .9c.2 0 .3-.1 .5-.1l.2 .4c-.2 .1-.4 .2-.7 .2c-.8 0-1.2-.5-1.2-1.3v-2.4h-.6v-.5h.6v-1h.6v1h1.2v.5Zm-3.6 1.6c-.6 0-1.2 .2-1.2 .8c0 .5 .4 .8 .9 .8c.4 0 .9-.2 1.3-.6v-.9c-.4-.1-.7-.1-1-.1m1 1.5c-.4 .5-.9 .6-1.4 .6c-.7 0-1.4-.4-1.4-1.2c0-1 1-1.4 1.8-1.4c.3 0 .6 0 1 .1v-.2c0-.7-.4-1.1-1.1-1.1c-.5 0-1 .2-1.3 .4l-.2-.5c.4-.2 1-.4 1.5-.4c1.3 0 1.6 .7 1.6 1.7v2.5H499Zm-9.5-3.6v.7c.3-.5 .8-.8 1.4-.8c.6 0 1 .3 1.2 .9c.6-.7 1-.9 1.5-.9c1.1 0 1.5 .7 1.5 2v2.2h-.5v-2.1c0-.8-.2-1.6-1-1.6c-.5 0-1 .4-1.3 .9c0 .2 0 .4 0 .6v2.2h-.6v-2.1c0-.8-.1-1.6-.9-1.6c-.6 0-1 .5-1.3 1v2.7h-.6v-4.1Zm-2.9 .8c.3-.5 .7-.9 1.2-.9c.1 0 .3 0 .4 .1l-.1 .6c-.1-.1-.2-.1-.4-.1c-.5 0-.8 .4-1.1 .9v2.7h-.5v-4.1h.5Zm-3.7-.4c-.9 0-1.5 .8-1.5 1.7c0 .8 .6 1.6 1.5 1.6c.9 0 1.5-.8 1.5-1.6c0-.9-.6-1.7-1.5-1.7m2.1 1.7c0 1.2-.9 2.1-2.1 2.1c-1.2 0-2-.9-2-2.1c0-1.2 .8-2.2 2-2.2c1.2 0 2.1 1 2.1 2.2m-4.4-3.8c-.1 0-.3-.1-.5-.1c-.2 0-.4 .1-.5 .2c-.3 .2-.3 .5-.3 1v.6h1.2v.5h-1.2v3.6h-.6v-3.6h-.4v-.5h.4v-.7c0-.4 .1-.8 .3-1.1c.2-.3 .5-.5 1-.5c.3 0 .5 .1 .7 .2Zm-6.4 1.7v.7c.3-.5 .8-.8 1.4-.8c1.2 0 1.6 .8 1.6 2v2.2h-.6v-2.1c0-.8-.1-1.6-1.1-1.6c-.6 0-1.1 .5-1.3 1v2.7h-.6v-4.1Zm-2.6 0h.5v4.1h-.5v-4.1Zm0-1.7h.5v.8h-.5v-.8Zm-3.2 5.8h-.6V303h.6v6.3Zm-3.5-2c-.6 0-1.2 .2-1.2 .8c0 .5 .4 .8 .8 .8c.5 0 1-.2 1.4-.6v-.9c-.4-.1-.7-.1-1-.1m1 1.5c-.4 .5-.9 .6-1.4 .6c-.7 0-1.4-.4-1.4-1.2c0-1 .9-1.4 1.8-1.4c.3 0 .6 0 1 .1v-.2c0-.7-.4-1.1-1.1-1.1c-.5 0-1 .2-1.3 .4l-.2-.5c.4-.2 1-.4 1.5-.4c1.2 0 1.6 .7 1.6 1.7v2.5h-.5Zm-6.9-3.6v.7c.3-.5 .8-.8 1.5-.8c1.1 0 1.5 .8 1.5 2v2.2h-.6v-2.1c0-.8-.1-1.6-1-1.6c-.6 0-1.1 .5-1.4 1v2.7h-.6v-4.1Zm-3.7 .4c-.9 0-1.5 .8-1.5 1.7c0 .8 .6 1.6 1.5 1.6c.9 0 1.5-.8 1.5-1.6c0-.9-.6-1.7-1.5-1.7m2.1 1.7c0 1.2-.9 2.1-2.1 2.1c-1.2 0-2.1-.9-2.1-2.1c0-1.2 .9-2.2 2.1-2.2c1.2 0 2.1 1 2.1 2.2m-5.5-1.4c-.2-.2-.5-.3-.8-.3c-.3 0-.7 .2-.7 .6c0 .5 .5 .6 1 .8c.5 .2 1 .5 1 1.3c0 .7-.7 1.1-1.4 1.1c-.5 0-1-.2-1.3-.5l.3-.4c.3 .3 .6 .4 1 .4c.4 0 .8-.2 .8-.6c0-.5-.4-.7-.9-.9c-.5-.2-1.1-.4-1.1-1.2c0-.7 .6-1.1 1.3-1.1c.4 0 .8 .2 1.1 .4Zm-4.2 .1c.2-.5 .6-.9 1.2-.9c.1 0 .2 0 .4 .1l-.1 .6c-.1-.1-.2-.1-.4-.1c-.5 0-.8 .4-1.1 .9v2.7h-.5v-4.1h.5Zm-3.5-.4c-.7 0-1.3 .6-1.4 1.3h2.7c0-.7-.6-1.3-1.3-1.3m-1.4 1.8c.1 .8 .6 1.5 1.5 1.5c.5 0 1-.1 1.3-.7l.4 .3c-.3 .6-1.1 .9-1.7 .9c-1.3 0-2.1-1-2.1-2.2c0-1.2 .9-2.1 2-2.1c1.1 0 1.9 .9 1.9 1.9c0 .2 0 .3-.1 .4Zm-4.7 .9c.3 .3 .9 .6 1.3 .6c.9 0 1.6-.7 1.6-1.6c0-.9-.7-1.7-1.6-1.7c-.5 0-1 .3-1.3 .8Zm0-3.1v.6c.3-.5 .8-.7 1.3-.7c1.2 0 2.1 1 2.1 2.2c0 1.1-.9 2.1-2.1 2.1c-.4 0-.9-.2-1.3-.5v2.5h-.5v-6.2Zm-5.2 .4c-.8 0-1.3 .6-1.4 1.3h2.7c0-.7-.6-1.3-1.3-1.3m-1.4 1.8c0 .8 .6 1.5 1.5 1.5c.5 0 1-.1 1.3-.7l.4 .3c-.4 .6-1.1 .9-1.7 .9c-1.3 0-2.1-1-2.1-2.2c0-1.2 .9-2.1 2-2.1c1.1 0 1.9 .9 1.9 1.9c0 .2-.1 .3-.1 .4Zm-4.6-2.2h.6l1.2 3.5l1.2-3.5h.6l-1.5 4.1h-.7Zm-1.4 0h.5v4.1h-.5v-4.1Zm0-1.7h.5v.8h-.5v-.8Zm-2.1 2.2V308c0 .7 .2 .9 .6 .9c.1 0 .3-.1 .5-.1l.1 .4c-.1 .1-.4 .2-.6 .2c-.8 0-1.2-.5-1.2-1.3v-2.4h-.6v-.5h.6v-1h.6v1h1.2v.5Zm-2.7-.5h.6v4.1h-.6v-4.1Zm0-1.7h.6v.8h-.6v-.8Zm-1.7 2.4c-.2-.2-.5-.3-.8-.3c-.4 0-.8 .2-.8 .6c0 .5 .6 .6 1.1 .8c.5 .2 1 .5 1 1.3c0 .7-.8 1.1-1.4 1.1c-.5 0-1-.2-1.3-.5l.3-.4c.3 .3 .6 .4 1 .4c.4 0 .8-.2 .8-.6c0-.5-.4-.7-.9-.9c-.5-.2-1.1-.4-1.1-1.2c0-.7 .6-1.1 1.3-1.1c.4 0 .8 .2 1.1 .4Zm-6.3-.7v.7c.3-.5 .8-.8 1.4-.8c1.2 0 1.6 .8 1.6 2v2.2h-.6v-2.1c0-.8-.1-1.6-1-1.6c-.7 0-1.2 .5-1.4 1v2.7h-.6v-4.1Zm-3.5 .4c-.8 0-1.3 .6-1.4 1.3h2.7c-.1-.7-.6-1.3-1.3-1.3m-1.4 1.8c0 .8 .5 1.5 1.4 1.5c.6 0 1-.1 1.3-.7l.4 .3c-.3 .6-1 .9-1.6 .9c-1.4 0-2.1-1-2.1-2.2c0-1.2 .9-2.1 2-2.1c1.1 0 1.8 .9 1.8 1.9c0 .2 0 .3 0 .4Zm-1.9-1.5c-.2-.2-.5-.3-.8-.3c-.4 0-.8 .2-.8 .6c0 .5 .6 .6 1.1 .8c.5 .2 1 .5 1 1.3c0 .7-.8 1.1-1.5 1.1c-.4 0-.9-.2-1.2-.5l.3-.4c.3 .3 .6 .4 1 .4c.4 0 .8-.2 .8-.6c0-.5-.4-.7-.9-.9c-.5-.2-1.1-.4-1.1-1.2c0-.7 .6-1.1 1.3-1.1c.4 0 .8 .2 1.1 .4ZM400 306c.2-.5 .6-.9 1.2-.9c.1 0 .2 0 .3 .1l-.1 .6c-.1-.1-.2-.1-.4-.1c-.4 0-.7 .4-1 .9v2.7h-.6v-4.1h.6Zm-3.7-.4c-1 0-1.5 .8-1.5 1.7c0 .8 .5 1.6 1.5 1.6c.9 0 1.4-.8 1.4-1.6c0-.9-.5-1.7-1.4-1.7m2 1.7c0 1.2-.8 2.1-2 2.1c-1.3 0-2.1-.9-2.1-2.1c0-1.2 .8-2.2 2.1-2.2c1.2 0 2 1 2 2.2m-9.9-2.1v.7c.4-.5 .9-.8 1.5-.8c1.2 0 1.6 .8 1.6 2v2.2h-.6v-2.1c0-.8-.2-1.6-1.1-1.6c-.6 0-1.1 .5-1.4 1v2.7h-.5v-4.1Zm-3.7 .4c-.9 0-1.4 .8-1.4 1.7c0 .8 .5 1.6 1.4 1.6c.9 0 1.5-.8 1.5-1.6c0-.9-.6-1.7-1.5-1.7m2.1 1.7c0 1.2-.9 2.1-2.1 2.1c-1.2 0-2-.9-2-2.1c0-1.2 .8-2.2 2-2.2c1.2 0 2.1 1 2.1 2.2m-5.8-2.1h.6v4.1H381Zm0-1.7h.6v.8H381v-.8Zm-2.1 2.2V308c0 .7 .3 .9 .6 .9c.2 0 .4-.1 .6-.1l.1 .4c-.2 .1-.4 .2-.7 .2c-.8 0-1.2-.5-1.2-1.3v-2.4h-.5v-.5h.5v-1h.6v1h1.2v.5Zm-3.6 1.6c-.5 0-1.2 .2-1.2 .8c0 .5 .4 .8 .9 .8c.5 0 .9-.2 1.3-.6v-.9c-.4-.1-.7-.1-1-.1m1 1.5c-.4 .5-.9 .6-1.3 .6c-.8 0-1.4-.4-1.4-1.2c0-1 .9-1.4 1.8-1.4c.2 0 .5 0 .9 .1v-.2c0-.7-.3-1.1-1.1-1.1c-.4 0-1 .2-1.3 .4l-.2-.5c.4-.2 1-.4 1.6-.4c1.2 0 1.6 .7 1.6 1.7v2.5h-.5Zm-9.5-3.6v.7c.3-.5 .8-.8 1.4-.8c.7 0 1.1 .3 1.3 .9c.5-.7 .9-.9 1.4-.9c1.1 0 1.5 .7 1.5 2v2.2h-.5v-2.1c0-.8-.2-1.6-1-1.6c-.5 0-1 .4-1.3 .9c0 .2 0 .4 0 .6v2.2h-.5v-2.1c0-.8-.2-1.6-1-1.6c-.5 0-1 .5-1.3 1v2.7h-.6v-4.1ZM364 306c.2-.5 .6-.9 1.2-.9c.1 0 .2 0 .3 .1l-.1 .6c-.1-.1-.2-.1-.4-.1c-.4 0-.7 .4-1 .9v2.7h-.6v-4.1h.6Zm-3.8-.4c-.9 0-1.4 .8-1.4 1.7c0 .8 .5 1.6 1.4 1.6c1 0 1.5-.8 1.5-1.6c0-.9-.5-1.7-1.5-1.7m2.1 1.7c0 1.2-.8 2.1-2.1 2.1c-1.2 0-2-.9-2-2.1c0-1.2 .8-2.2 2-2.2c1.3 0 2.1 1 2.1 2.2m-4.4-3.8c-.1 0-.3-.1-.5-.1c-.2 0-.4 .1-.5 .2c-.2 .2-.3 .5-.3 1v.6h1.2v.5h-1.2v3.6h-.5v-3.6h-.5v-.5h.5v-.7c0-.4 0-.8 .2-1.1c.2-.3 .5-.5 1-.5c.3 0 .6 .1 .8 .2Zm-6.4 1.7v.7c.3-.5 .8-.8 1.5-.8c1.1 0 1.5 .8 1.5 2v2.2h-.6v-2.1c0-.8-.1-1.6-1-1.6c-.6 0-1.1 .5-1.4 1v2.7h-.6v-4.1Zm-2.6 0h.6v4.1h-.6v-4.1Zm0-1.7h.6v.8h-.6v-.8Zm-3.2 5.8h-.6V303h.6v6.3Zm-3.5-2c-.5 0-1.2 .2-1.2 .8c0 .5 .4 .8 .9 .8c.4 0 .9-.2 1.3-.6v-.9c-.4-.1-.7-.1-1-.1m1 1.5c-.4 .5-.9 .6-1.3 .6c-.8 0-1.5-.4-1.5-1.2c0-1 1-1.4 1.8-1.4c.3 0 .6 0 1 .1v-.2c0-.7-.4-1.1-1.1-1.1c-.4 0-1 .2-1.3 .4l-.2-.5c.4-.2 1-.4 1.6-.4c1.2 0 1.6 .7 1.6 1.7v2.5h-.6Zm-6.9-3.6v.7c.4-.5 .9-.8 1.5-.8c1.2 0 1.5 .8 1.5 2v2.2h-.5v-2.1c0-.8-.2-1.6-1.1-1.6c-.6 0-1.1 .5-1.4 1v2.7h-.5v-4.1Zm-3.7 .4c-.9 0-1.5 .8-1.5 1.7c0 .8 .6 1.6 1.5 1.6c.9 0 1.5-.8 1.5-1.6c0-.9-.6-1.7-1.5-1.7m2.1 1.7c0 1.2-.9 2.1-2.1 2.1c-1.2 0-2-.9-2-2.1c0-1.2 .8-2.2 2-2.2c1.2 0 2.1 1 2.1 2.2m-5.5-1.4c-.2-.2-.5-.3-.8-.3c-.3 0-.7 .2-.7 .6c0 .5 .5 .6 1 .8c.5 .2 1 .5 1 1.3c0 .7-.7 1.1-1.4 1.1c-.5 0-.9-.2-1.3-.5l.4-.4c.2 .3 .5 .4 .9 .4c.4 0 .9-.2 .9-.6c0-.5-.5-.7-.9-.9c-.6-.2-1.2-.4-1.2-1.2c0-.7 .6-1.1 1.3-1.1c.5 0 .8 .2 1.1 .4ZM325 306c.3-.5 .7-.9 1.2-.9c.1 0 .3 0 .4 .1l-.1 .6c-.1-.1-.2-.1-.4-.1c-.4 0-.8 .4-1.1 .9v2.7h-.5v-4.1h.5Zm-3.4-.4c-.8 0-1.3 .6-1.4 1.3h2.6c0-.7-.5-1.3-1.2-1.3m-1.5 1.8c.1 .8 .6 1.5 1.5 1.5c.5 0 1-.1 1.3-.7l.4 .3c-.3 .6-1 .9-1.7 .9c-1.3 0-2-1-2-2.2c0-1.2 .9-2.1 2-2.1c1 0 1.8 .9 1.8 1.9c0 .2 0 .3 0 .4Zm-4.6 .9c.3 .3 .8 .6 1.3 .6c.8 0 1.5-.7 1.5-1.6c0-.9-.6-1.7-1.5-1.7c-.5 0-1.1 .3-1.3 .8Zm0-3.1v.6c.3-.5 .8-.7 1.3-.7c1.2 0 2.1 1 2.1 2.2c0 1.1-.9 2.1-2.1 2.1c-.5 0-1-.2-1.3-.5v2.5h-.6v-6.2Zm-6.1 0l1.1 3.5l1.3-3.5h.6l-2.3 6l-.4-.2l.5-1.5l-1.5-4.3Zm-7 0v.7c.3-.5 .8-.8 1.3-.8c.7 0 1.1 .3 1.3 .9c.5-.7 1-.9 1.5-.9c1.1 0 1.5 .7 1.5 2v2.2h-.6v-2.1c0-.8-.1-1.6-1-1.6c-.4 0-.9 .4-1.3 .9c.1 .2 .1 .4 .1 .6v2.2h-.6v-2.1c0-.8-.1-1.6-1-1.6c-.5 0-1 .5-1.2 1v2.7h-.6v-4.1Zm-4.3 5.3h-.5l.4-2h.7Zm-3-4.9c-.7 0-1.3 .6-1.4 1.3h2.7c0-.7-.6-1.3-1.3-1.3m-1.4 1.8c.1 .8 .6 1.5 1.5 1.5c.5 0 1-.1 1.3-.7l.4 .3c-.4 .6-1.1 .9-1.7 .9c-1.3 0-2.1-1-2.1-2.2c0-1.2 .9-2.1 2-2.1c1.1 0 1.9 .9 1.9 1.9c0 .2-.1 .3-.1 .4Zm-2.5-1.4c.3-.5 .7-.9 1.2-.9c.1 0 .3 0 .4 .1l-.1 .6c-.1-.1-.2-.1-.4-.1c-.5 0-.8 .4-1.1 .9v2.7h-.5v-4.1h.5Zm-3.7-.4c-.9 0-1.5 .8-1.5 1.7c0 .8 .6 1.6 1.5 1.6c.9 0 1.5-.8 1.5-1.6c0-.9-.6-1.7-1.5-1.7m2.1 1.7c0 1.2-.9 2.1-2.1 2.1c-1.2 0-2-.9-2-2.1c0-1.2 .8-2.2 2-2.2c1.2 0 2.1 1 2.1 2.2m-5.9-1.6V308c0 .7 .3 .9 .7 .9c.1 0 .3-.1 .5-.1l.1 .4c-.2 .1-.4 .2-.6 .2c-.8 0-1.2-.5-1.2-1.3v-2.4h-.6v-.5h.6v-1h.5v1h1.2v.5Zm-2.3 .2c-.2-.2-.5-.3-.8-.3c-.4 0-.8 .2-.8 .6c0 .5 .6 .6 1.1 .8c.5 .2 1 .5 1 1.3c0 .7-.8 1.1-1.5 1.1c-.4 0-.9-.2-1.2-.5l.3-.4c.3 .3 .6 .4 1 .4c.3 0 .8-.2 .8-.6c0-.5-.4-.7-.9-.9c-.5-.2-1.1-.4-1.1-1.2c0-.7 .6-1.1 1.3-1.1c.4 0 .8 .2 1.1 .4Zm-5.6 4.6h-.5l.4-2h.7Zm-2.2-4.8V308c0 .7 .3 .9 .7 .9c.1 0 .3-.1 .5-.1l.1 .4c-.2 .1-.4 .2-.7 .2c-.8 0-1.1-.5-1.1-1.3v-2.4h-.6v-.5h.6v-1h.5v1h1.2v.5Zm-1.5 3.4c-.4 .2-.7 .3-1.2 .3c-1.2 0-2.1-.9-2.1-2.1c0-1.2 .9-2.2 2.1-2.2c.4 0 .8 .1 1 .3l-.2 .5c-.2-.2-.5-.3-.8-.3c-.9 0-1.5 .8-1.5 1.7c0 .9 .6 1.6 1.5 1.6c.3 0 .7-.1 .9-.3Zm-5.8-3.5c-.8 0-1.3 .6-1.5 1.3h2.7c0-.7-.6-1.3-1.2-1.3m-1.5 1.8c.1 .8 .6 1.5 1.5 1.5c.5 0 1-.1 1.3-.7l.4 .3c-.3 .6-1.1 .9-1.7 .9c-1.3 0-2.1-1-2.1-2.2c0-1.2 .9-2.1 2.1-2.1c1 0 1.8 .9 1.8 1.9c0 .2 0 .3-.1 .4Zm-1.6 1.9h-.6V303h.6v6.3Zm-2.1 0h-.5V303h.5v6.3Zm-3.7-3.7c-.9 0-1.4 .8-1.4 1.7c0 .8 .5 1.6 1.4 1.6c.9 0 1.5-.8 1.5-1.6c0-.9-.6-1.7-1.5-1.7m2.1 1.7c0 1.2-.9 2.1-2.1 2.1c-1.2 0-2-.9-2-2.1c0-1.2 .8-2.2 2-2.2c1.2 0 2.1 1 2.1 2.2m-4.7 1.8c-.3 .2-.7 .3-1.1 .3c-1.3 0-2.1-.9-2.1-2.1c0-1.2 .8-2.2 2.1-2.2c.4 0 .7 .1 1 .3l-.2 .5c-.2-.2-.6-.3-.8-.3c-1 0-1.6 .8-1.6 1.7c0 .9 .6 1.6 1.6 1.6c.2 0 .6-.1 .8-.3Zm-6.5 1.4h-.6l.4-2h.7Zm-1.8-4.6c-.2-.2-.5-.3-.8-.3c-.4 0-.8 .2-.8 .6c0 .5 .6 .6 1.1 .8c.5 .2 1 .5 1 1.3c0 .7-.8 1.1-1.5 1.1c-.4 0-.9-.2-1.2-.5l.3-.4c.3 .3 .6 .4 1 .4c.4 0 .8-.2 .8-.6c0-.5-.4-.7-.9-.9c-.5-.2-1.1-.4-1.1-1.2c0-.7 .6-1.1 1.3-1.1c.4 0 .8 .2 1.1 .4Zm-3.6 0c-.2-.2-.5-.3-.8-.3c-.4 0-.8 .2-.8 .6c0 .5 .6 .6 1.1 .8c.5 .2 1 .5 1 1.3c0 .7-.8 1.1-1.5 1.1c-.4 0-.9-.2-1.2-.5l.3-.4c.3 .3 .6 .4 1 .4c.3 0 .8-.2 .8-.6c0-.5-.4-.7-.9-.9c-.5-.2-1.1-.4-1.1-1.2c0-.7 .6-1.1 1.3-1.1c.4 0 .8 .2 1.1 .4Zm-4.8-.3c-.8 0-1.3 .6-1.4 1.3h2.6c0-.7-.5-1.3-1.2-1.3m-1.5 1.8c.1 .8 .6 1.5 1.5 1.5c.5 0 1-.1 1.3-.7l.4 .3c-.3 .6-1 .9-1.7 .9c-1.3 0-2-1-2-2.2c0-1.2 .9-2.1 2-2.1c1 0 1.8 .9 1.8 1.9c0 .2 0 .3 0 .4Zm-1.1 1.7c-.3 .2-.7 .3-1.1 .3c-1.3 0-2.2-.9-2.2-2.1c0-1.2 .9-2.2 2.2-2.2c.4 0 .7 .1 1 .3l-.2 .5c-.2-.2-.6-.3-.8-.3c-1 0-1.6 .8-1.6 1.7c0 .9 .6 1.6 1.6 1.6c.2 0 .6-.1 .8-.3Zm-6-3.5c-.9 0-1.5 .8-1.5 1.7c0 .8 .6 1.6 1.5 1.6c.9 0 1.5-.8 1.5-1.6c0-.9-.6-1.7-1.5-1.7m2 1.7c0 1.2-.8 2.1-2 2.1c-1.2 0-2.1-.9-2.1-2.1c0-1.2 .9-2.2 2.1-2.2c1.2 0 2 1 2 2.2m-6-1.3c.2-.5 .6-.9 1.2-.9c.1 0 .2 0 .4 .1l-.1 .6c-.1-.1-.2-.1-.4-.1c-.5 0-.8 .4-1.1 .9v2.7h-.6v-4.1h.6Zm-5 2.3c.3 .3 .8 .6 1.3 .6c.8 0 1.5-.7 1.5-1.6c0-.9-.7-1.7-1.5-1.7c-.6 0-1.1 .3-1.3 .8Zm0-3.1v.6c.3-.5 .8-.7 1.3-.7c1.2 0 2.1 1 2.1 2.2c0 1.1-.9 2.1-2.1 2.1c-.5 0-1-.2-1.3-.5v2.5h-.6v-6.2Zm-5.5 .4c-.9 0-1.5 .8-1.5 1.7c0 .8 .6 1.6 1.5 1.6c.9 0 1.5-.8 1.5-1.6c0-.9-.6-1.7-1.5-1.7m2.1 1.7c0 1.2-.9 2.1-2.1 2.1c-1.2 0-2.1-.9-2.1-2.1c0-1.2 .9-2.2 2.1-2.2c1.2 0 2.1 1 2.1 2.2m-5.9-1.6V308c0 .7 .3 .9 .7 .9c.1 0 .3-.1 .5-.1l.1 .4c-.2 .1-.4 .2-.7 .2c-.8 0-1.1-.5-1.1-1.3v-2.4h-.6v-.5h.6v-1h.5v1h1.2v.5Zm-4.3 4.8h-.5l.4-2h.7Zm-3.4 .3l-.2-.4c.9-.7 1.8-1.8 1.8-3.6c0-1.9-.9-3-1.8-3.6l.2-.4c1.2 .7 2.1 1.9 2.1 4c0 2-.9 3.2-2.1 4m-2.6-.1v-.5H202v-6.7h-1.1V303h1.7v7.7Zm-1.4-5V308c0 .7 .2 .9 .6 .9c.2 0 .3-.1 .5-.1l.2 .4c-.2 .1-.5 .2-.7 .2c-.8 0-1.2-.5-1.2-1.3v-2.4h-.6v-.5h.6v-1h.6v1h1.2v.5Zm-5.1-.5v.7c.4-.5 .9-.8 1.5-.8c1.2 0 1.5 .8 1.5 2v2.2h-.5v-2.1c0-.8-.2-1.6-1.1-1.6c-.6 0-1.1 .5-1.4 1v2.7h-.5v-4.1Zm-3.4 .4c-.8 0-1.3 .6-1.5 1.3h2.7c0-.7-.5-1.3-1.2-1.3m-1.5 1.8c.1 .8 .6 1.5 1.5 1.5c.5 0 1-.1 1.3-.7l.4 .3c-.3 .6-1.1 .9-1.7 .9c-1.3 0-2.1-1-2.1-2.2c0-1.2 .9-2.1 2.1-2.1c1 0 1.8 .9 1.8 1.9c0 .2 0 .3 0 .4Zm-7.2-2.2v.7c.3-.5 .8-.8 1.4-.8c.6 0 1 .3 1.2 .9c.6-.7 1-.9 1.5-.9c1.1 0 1.5 .7 1.5 2v2.2h-.5v-2.1c0-.8-.2-1.6-1-1.6c-.5 0-1 .4-1.3 .9c0 .2 0 .4 0 .6v2.2h-.6v-2.1c0-.8-.1-1.6-.9-1.6c-.6 0-1 .5-1.3 1v2.7h-.6v-4.1Zm-3.5 .4c-.8 0-1.3 .6-1.4 1.3h2.7c-.1-.7-.6-1.3-1.3-1.3m-1.4 1.8c0 .8 .5 1.5 1.4 1.5c.6 0 1-.1 1.3-.7l.4 .3c-.3 .6-1 .9-1.6 .9c-1.4 0-2.1-1-2.1-2.2c0-1.2 .9-2.1 2-2.1c1.1 0 1.8 .9 1.8 1.9c0 .2 0 .3 0 .4Zm-2.3-1.7V308c0 .7 .2 .9 .6 .9c.2 0 .3-.1 .5-.1l.2 .4c-.2 .1-.5 .2-.7 .2c-.8 0-1.2-.5-1.2-1.3v-2.4h-.6v-.5h.6v-1h.6v1h1.2v.5Zm-3.6 1.6c-.6 0-1.2 .2-1.2 .8c0 .5 .4 .8 .9 .8c.4 0 .9-.2 1.3-.6v-.9c-.4-.1-.7-.1-1-.1m1 1.5c-.4 .5-.9 .6-1.4 .6c-.7 0-1.4-.4-1.4-1.2c0-1 1-1.4 1.8-1.4c.3 0 .6 0 1 .1v-.2c0-.7-.4-1.1-1.1-1.1c-.5 0-1 .2-1.3 .4l-.2-.5c.4-.2 1-.4 1.5-.4c1.3 0 1.6 .7 1.6 1.7v2.5h-.5Zm-4.6-3.1V308c0 .7 .3 .9 .6 .9c.2 0 .4-.1 .5-.1l.2 .4c-.2 .1-.4 .2-.7 .2c-.8 0-1.2-.5-1.2-1.3v-2.4h-.5v-.5h.5v-1h.6v1h1.2v.5Zm-2.3 .2c-.3-.2-.6-.3-.9-.3c-.3 0-.7 .2-.7 .6c0 .5 .5 .6 1.1 .8c.5 .2 1 .5 1 1.3c0 .7-.8 1.1-1.5 1.1c-.4 0-.9-.2-1.2-.5l.3-.4c.2 .3 .6 .4 .9 .4c.4 0 .9-.2 .9-.6c0-.5-.4-.7-.9-.9c-.5-.2-1.1-.4-1.1-1.2c0-.7 .6-1.1 1.3-1.1c.4 0 .8 .2 1.1 .4Zm-5.6 .9h2v.5h-2v-.5Zm-4-1.6l1.2 3.5l1.2-3.5h.6l-2.2 6l-.5-.2l.5-1.5l-1.4-4.3Zm-.9 3.9c-.3 .2-.6 .3-1.1 .3c-1.3 0-2.1-.9-2.1-2.1c0-1.2 .9-2.2 2.1-2.2c.4 0 .7 .1 1 .3l-.2 .5c-.2-.2-.6-.3-.8-.3c-1 0-1.6 .8-1.6 1.7c0 .9 .6 1.6 1.6 1.6c.2 0 .6-.1 .8-.3Zm-5.8-1.8c-.6 0-1.2 .2-1.2 .8c0 .5 .4 .8 .9 .8c.4 0 .9-.2 1.3-.6v-.9c-.4-.1-.7-.1-1-.1m1 1.5c-.4 .5-.9 .6-1.4 .6c-.7 0-1.4-.4-1.4-1.2c0-1 1-1.4 1.8-1.4c.3 0 .6 0 1 .1v-.2c0-.7-.4-1.1-1.1-1.1c-.5 0-1 .2-1.3 .4l-.2-.5c.4-.2 1-.4 1.5-.4c1.3 0 1.6 .7 1.6 1.7v2.5h-.5Zm-6.9-3.6h.6l1.2 3.5l1.2-3.5h.6l-1.5 4.1h-.7Zm-1.4 0h.6v4.1H142v-4.1Zm0-1.7h.6v.8H142v-.8Zm-2.3 2.5c.2-.5 .6-.9 1.2-.9c.1 0 .2 0 .4 .1l-.1 .6c-.1-.1-.3-.1-.4-.1c-.5 0-.8 .4-1.1 .9v2.7h-.6v-4.1h.6Zm-5.1 2.3c.4 .3 .9 .6 1.3 .6c.9 0 1.6-.7 1.6-1.6c0-.9-.7-1.7-1.6-1.7c-.5 0-1 .3-1.3 .8Zm0-3.1v.6c.4-.5 .9-.7 1.4-.7c1.2 0 2.1 1 2.1 2.2c0 1.1-.9 2.1-2.1 2.1c-.5 0-1-.2-1.4-.5v2.5h-.5v-6.2Zm-3.7 4.5l-.4-.2l2.4-6.6l.5 .2Zm-4.1-3.8c.3-.5 .8-.8 1.5-.8c1.1 0 1.5 .8 1.5 2v2.2h-.5v-2.1c0-.8-.2-1.6-1.1-1.6c-.6 0-1.1 .5-1.4 1v2.7h-.6V303h.6Zm-5 2.4c.3 .3 .8 .6 1.3 .6c.8 0 1.5-.7 1.5-1.6c0-.9-.7-1.7-1.5-1.7c-.6 0-1.1 .3-1.3 .8Zm0-3.1v.6c.3-.5 .8-.7 1.3-.7c1.2 0 2.1 1 2.1 2.2c0 1.1-.9 2.1-2.1 2.1c-.5 0-1-.2-1.3-.5v2.5h-.6v-6.2Zm-2.7 3.3h.7v.8h-.7v-.8Zm-7-3.3v.7c.3-.5 .8-.8 1.4-.8c.7 0 1.1 .3 1.3 .9c.5-.7 .9-.9 1.4-.9c1.1 0 1.6 .7 1.6 2v2.2h-.6v-2.1c0-.8-.2-1.6-1-1.6c-.5 0-1 .4-1.3 .9c0 .2 0 .4 0 .6v2.2h-.5v-2.1c0-.8-.2-1.6-1-1.6c-.5 0-1 .5-1.3 1v2.7h-.6v-4.1Zm-3.7 .4c-.9 0-1.5 .8-1.5 1.7c0 .8 .6 1.6 1.5 1.6c.9 0 1.5-.8 1.5-1.6c0-.9-.6-1.7-1.5-1.7m2.1 1.7c0 1.2-.9 2.1-2.1 2.1c-1.2 0-2.1-.9-2.1-2.1c0-1.2 .9-2.2 2.1-2.2c1.2 0 2.1 1 2.1 2.2m-4.7 1.8c-.3 .2-.7 .3-1.1 .3c-1.3 0-2.2-.9-2.2-2.1c0-1.2 .9-2.2 2.2-2.2c.3 0 .7 .1 1 .3l-.2 .5c-.2-.2-.6-.3-.9-.3c-.9 0-1.5 .8-1.5 1.7c0 .9 .6 1.6 1.5 1.6c.3 0 .7-.1 .9-.3Zm-5-.6h.7v.8h-.7v-.8Zm-3.1-2.9c-.9 0-1.5 .8-1.5 1.7c0 .8 .6 1.6 1.5 1.6c.9 0 1.5-.8 1.5-1.6c0-.9-.6-1.7-1.5-1.7m2.1 1.7c0 1.2-.9 2.1-2.1 2.1c-1.2 0-2-.9-2-2.1c0-1.2 .8-2.2 2-2.2c1.2 0 2.1 1 2.1 2.2m-5.8-1c-.3-.4-.8-.7-1.3-.7c-.9 0-1.5 .8-1.5 1.7c0 .8 .6 1.6 1.5 1.6c.5 0 1.1-.3 1.3-.8Zm0 2.5c-.3 .4-.8 .6-1.3 .6c-1.2 0-2.1-.9-2.1-2.1c0-1.2 .9-2.2 2.1-2.2c.5 0 1 .2 1.3 .5V303h.6v6.3H94Zm-7.5-.5c.3 .3 .8 .6 1.3 .6c.9 0 1.5-.7 1.5-1.6c0-.9-.6-1.7-1.5-1.7c-.5 0-1.1 .3-1.3 .8Zm0-2.5c.3-.5 .8-.7 1.3-.7c1.2 0 2.1 1 2.1 2.2c0 1.1-.9 2.1-2.1 2.1c-.5 0-1-.2-1.3-.5v.4h-.6V303h.6Zm-2.7 2.7h.7v.8h-.7v-.8Zm-3.2-3.3l.9 3.6l1-3.6H83l-1.1 4.1h-.7l-1-3.5l-1 3.5h-.8l-1-4.1H78l.8 3.6l1.1-3.6Zm-5.9 0l.9 3.6l.9-3.6h.6L76 309.3h-.8l-.9-3.5l-1 3.5h-.8l-1-4.1h.6l.8 3.6l1-3.6Zm-5.9 0l.9 3.6l.9-3.6h.6L70 309.3h-.7l-.9-3.5l-1 3.5h-.8l-1-4.1h.6l.8 3.6l1-3.6ZM63 309.7l-.5-.2l2.5-6.6l.4 .2Zm-2.9 0l-.4-.2l2.4-6.6l.5 .2Zm-1.8-1.2H59v.8h-.7v-.8Zm0-3.3H59v.9h-.7v-.9Zm-1.6 .7c-.2-.2-.5-.3-.8-.3c-.3 0-.7 .2-.7 .6c0 .5 .5 .6 1 .8c.5 .2 1 .5 1 1.3c0 .7-.8 1.1-1.4 1.1c-.5 0-1-.2-1.3-.5l.3-.4c.3 .3 .6 .4 1 .4c.4 0 .8-.2 .8-.6c0-.5-.4-.7-.9-.9c-.5-.2-1.1-.4-1.1-1.2c0-.7 .6-1.1 1.3-1.1c.4 0 .8 .2 1.1 .4Zm-6.4 2.4c.3 .3 .8 .6 1.3 .6c.9 0 1.5-.7 1.5-1.6c0-.9-.6-1.7-1.5-1.7c-.5 0-1.1 .3-1.3 .8Zm0-3.1v.6c.3-.5 .8-.7 1.3-.7c1.2 0 2.1 1 2.1 2.2c0 1.1-.9 2.1-2.1 2.1c-.5 0-1-.2-1.3-.5v2.5h-.6v-6.2Zm-2.7 .5V308c0 .7 .3 .9 .6 .9c.2 0 .4-.1 .6-.1l.1 .4c-.2 .1-.4 .2-.7 .2c-.8 0-1.2-.5-1.2-1.3v-2.4h-.5v-.5H47v-1h.6v1h1.2v.5Zm-2.8 0V308c0 .7 .2 .9 .6 .9c.2 0 .3-.1 .5-.1l.2 .4c-.2 .1-.4 .2-.7 .2c-.8 0-1.2-.5-1.2-1.3v-2.4h-.6v-.5h.6v-1h.6v1H46v.5Zm-5.1 .2c.4-.5 .9-.8 1.5-.8c1.2 0 1.5 .8 1.5 2v2.2h-.5v-2.1c0-.8-.2-1.6-1.1-1.6c-.6 0-1.1 .5-1.4 1v2.7h-.5V303h.5Zm-3 4.8V303h1.7v.5H37.3v6.7h1.1v.5Z" class="g2_2"/>
<path d="M-9.1 0H-50.3M918.6 0h41.3M-9.1 1286.2H-50.3m968.9 0h41.3M0-9.1V-50.3M0 1295.4v41.2M909.4-9.1V-50.3m0 1345.7v41.2" class="g9_2"/>
<path d="M-9.1 0H-50.3M918.6 0h41.3M-9.1 1286.2H-50.3m968.9 0h41.3M0-9.1V-50.3M0 1295.4v41.2M909.4-9.1V-50.3m0 1345.7v41.2" class="ga_2"/>
<g clip-path="url(#cg_2)">
<path d="M764.6 110.4c0-4.7-3.9-8.6-8.6-8.6c-4.8 0-8.6 3.9-8.6 8.6c0 4.8 3.8 8.6 8.6 8.6c4.7 0 8.6-3.8 8.6-8.6Z" class="g4_2"/>
<path d="M763.8 110.4c0-4.3-3.5-7.8-7.8-7.8c-4.3 0-7.8 3.5-7.8 7.8c0 4.3 3.5 7.8 7.8 7.8c4.3 0 7.8-3.5 7.8-7.8Z" class="gb_2"/>
</g>
<path d="M760.4 106c-2.4-2.5-6.4-2.5-8.9 0c-2.4 2.4-2.4 6.4 0 8.9" class="gc_2"/>
<path d="M751.5 114.9c2.5 2.4 6.5 2.4 8.9 0c2.5-2.5 2.5-6.5 0-8.9" class="gd_2"/>
<path d="M835.2 110.4c0-4.7-3.8-8.6-8.5-8.6c-4.8 0-8.6 3.9-8.6 8.6c0 4.8 3.8 8.6 8.6 8.6c4.7 0 8.5-3.8 8.5-8.6Z" class="g4_2"/>
<path clip-path="url(#ch_2)" d="M834.5 110.4c0-4.3-3.5-7.8-7.8-7.8c-4.4 0-7.9 3.5-7.9 7.8c0 4.3 3.5 7.8 7.9 7.8c4.3 0 7.8-3.5 7.8-7.8Z" class="gb_2"/>
<path d="M831.1 106c-2.5-2.5-6.4-2.5-8.9 0c-2.5 2.4-2.5 6.4 0 8.9" class="ge_2"/>
<path d="M822.2 114.9c2.5 2.4 6.4 2.4 8.9 0c2.5-2.5 2.5-6.5 0-8.9" class="gf_2"/>
<path clip-path="url(#ci_2)" d="M764.3 150.5c0-4.6-3.7-8.3-8.3-8.3c-4.6 0-8.3 3.7-8.3 8.3c0 4.5 3.7 8.2 8.3 8.2c4.6 0 8.3-3.7 8.3-8.2Z" class="g4_2"/>
<path d="M763.5 150.5c0-4.2-3.3-7.6-7.5-7.6c-4.1 0-7.5 3.4-7.5 7.6c0 4.1 3.4 7.5 7.5 7.5c4.2 0 7.5-3.4 7.5-7.5Z" class="gb_2"/>
<path d="M760.3 146.2c-2.4-2.3-6.2-2.3-8.5 0c-2.4 2.4-2.4 6.2 0 8.5" class="gc_2"/>
<path d="M751.8 154.7c2.3 2.3 6.1 2.3 8.5 0c2.3-2.3 2.3-6.1 0-8.5" class="gd_2"/>
<path d="M835.7 150.5c0-5-4-9-9-9c-4.9 0-9 4-9 9c0 5 4.1 9 9 9c5 0 9-4 9-9Z" class="g4_2"/>
<path clip-path="url(#cj_2)" d="M835 150.5c0-4.5-3.7-8.2-8.3-8.2c-4.5 0-8.2 3.7-8.2 8.2c0 4.6 3.7 8.2 8.2 8.2c4.6 0 8.3-3.6 8.3-8.2Z" class="gb_2"/>
<path d="M831.5 145.8c-2.6-2.7-6.9-2.7-9.5 0c-2.6 2.6-2.6 6.8 0 9.5" class="ge_2"/>
<path d="M822 155.3c2.6 2.6 6.9 2.6 9.5 0c2.6-2.7 2.6-6.9 0-9.5" class="gf_2"/>
<g clip-path="url(#ck_2)">
<path d="M764.4 193.3c0-4.7-3.8-8.5-8.5-8.5c-4.7 0-8.5 3.8-8.5 8.5c0 4.7 3.8 8.6 8.5 8.6c4.7 0 8.5-3.9 8.5-8.6Z" class="g4_2"/>
<path d="M763.6 193.3c0-4.2-3.4-7.7-7.7-7.7c-4.3 0-7.7 3.5-7.7 7.7c0 4.3 3.4 7.8 7.7 7.8c4.3 0 7.7-3.5 7.7-7.8Z" class="gb_2"/>
</g>
<path d="M760.3 188.9c-2.4-2.4-6.4-2.4-8.8 .1c-2.4 2.4-2.4 6.3 0 8.7" class="gc_2"/>
<path d="M751.5 197.7c2.4 2.5 6.4 2.5 8.8 0c2.4-2.4 2.4-6.3 0-8.8" class="gd_2"/>
<path clip-path="url(#cl_2)" d="M834.7 193.3c0-4.7-3.8-8.5-8.5-8.5c-4.7 0-8.5 3.8-8.5 8.5c0 4.7 3.8 8.5 8.5 8.5c4.7 0 8.5-3.8 8.5-8.5Z" class="g4_2"/>
<path d="M834 193.3c0-4.2-3.5-7.7-7.8-7.7c-4.2 0-7.7 3.5-7.7 7.7c0 4.3 3.5 7.8 7.7 7.8c4.3 0 7.8-3.5 7.8-7.8Z" class="gb_2"/>
<path d="M830.6 189c-2.4-2.5-6.3-2.5-8.8-.1c-2.4 2.5-2.4 6.4 0 8.8" class="gc_2"/>
<path d="M821.8 197.7c2.5 2.5 6.4 2.5 8.8 0c2.5-2.4 2.4-6.3 0-8.7" class="gd_2"/>
<g clip-path="url(#cm_2)">
<path d="M764.6 234.1c0-4.7-3.8-8.6-8.6-8.6c-4.7 0-8.6 3.9-8.6 8.6c0 4.8 3.9 8.6 8.6 8.6c4.8 0 8.6-3.8 8.6-8.6Z" class="g4_2"/>
<path d="M763.8 234.1c0-4.3-3.5-7.8-7.8-7.8c-4.3 0-7.8 3.5-7.8 7.8c0 4.3 3.5 7.8 7.8 7.8c4.3 0 7.8-3.5 7.8-7.8Z" class="gb_2"/>
</g>
<path d="M760.5 229.6c-2.5-2.4-6.5-2.4-9 0c-2.4 2.5-2.4 6.5 0 9" class="gc_2"/>
<path d="M751.5 238.6c2.5 2.4 6.5 2.4 9 0c2.4-2.5 2.4-6.5 0-9" class="gd_2"/>
<g clip-path="url(#cn_2)">
<path d="M834.2 234.3c0-4.7-3.7-8.5-8.4-8.5c-4.6 0-8.4 3.8-8.4 8.5c0 4.6 3.8 8.4 8.4 8.4c4.7 0 8.4-3.8 8.4-8.4Z" class="g4_2"/>
<path d="M833.5 234.3c0-4.3-3.5-7.7-7.7-7.7c-4.2 0-7.6 3.4-7.6 7.7c0 4.2 3.4 7.6 7.6 7.6c4.2 0 7.7-3.4 7.7-7.6Z" class="gb_2"/>
</g>
<path d="M830.2 229.9c-2.4-2.4-6.3-2.4-8.7 0c-2.4 2.4-2.4 6.3 0 8.7" class="ge_2"/>
<path d="M821.5 238.6c2.4 2.4 6.3 2.4 8.7 0c2.3-2.4 2.3-6.3 0-8.7" class="gf_2"/>
</svg>